<svg width="157" height="127" viewBox="0 0 157 127" fill="none" xmlns="http://www.w3.org/2000/svg">
<path d="M155 1.95801H2V125.289H155V1.95801Z" stroke="#00B3F8" stroke-width="2.327"/>
<path d="M111.369 7.19336H21.7795V74.6763H111.369V7.19336Z" stroke="#00B3F8" stroke-width="2.327"/>
<path d="M23.5247 81.0762H110.787" stroke="#00B3F8" stroke-width="2.327"/>
<path d="M23.5247 89.2207H110.787" stroke="#00B3F8" stroke-width="3.49049"/>
<path d="M22.9429 75.2588V124.126" stroke="#00B3F8" stroke-width="1.1635"/>
<path d="M110.205 75.2588V125.289" stroke="#00B3F8" stroke-width="1.1635"/>
<path d="M151.51 7.77539H117.768V60.7146H151.51V7.77539Z" stroke="#00B3F8" stroke-width="2.327"/>
<rect x="122.422" y="17.084" width="24.4335" height="8.14449" fill="#00B3F8"/>
<rect x="72.3916" y="28.7188" width="11.635" height="29.0875" rx="5.81749" fill="#00B3F8"/>
<rect x="51.4487" y="28.7188" width="11.635" height="29.0875" rx="5.81749" fill="#00B3F8"/>
<path d="M91.0075 19.9932H45.0493V63.0426H91.0075V19.9932Z" stroke="#00B3F8" stroke-width="2.327"/>
<rect x="139.875" y="46.1709" width="5.81749" height="5.81749" fill="#00B3F8"/>
<rect x="8.39917" y="3.12207" width="6.98099" height="6.98099" fill="#00B3F8"/>
</svg>
