<svg width="149" height="149" viewBox="0 0 149 149" fill="none" xmlns="http://www.w3.org/2000/svg">
<path d="M101.162 63.3981C100.009 61.3258 99.247 59.9568 99.1763 57.7702C99.084 54.9173 100.161 52.1015 101.525 48.5357C105.456 38.2579 105.534 35.793 105.505 34.8705L106.002 19.7127C106.061 17.8372 105.222 16.0209 103.762 14.8563C101.644 13.1632 99.0861 12.4039 96.6122 11.6694C93.9395 10.8761 91.6314 10.191 90.603 8.58551C90.1225 7.83527 89.8466 6.88482 89.8466 5.97802C89.8469 2.6817 87.1673 0 83.8736 0H65.1253C61.8316 0 59.1522 2.6817 59.1522 5.97802C59.1522 6.432 59.0832 6.90781 58.9523 7.35452C58.2282 9.8296 56.0948 10.5711 52.3864 11.6685C49.9215 12.3981 47.3728 13.1524 45.2417 14.8525C43.6836 16.0934 42.851 18.0147 43.0085 20.0003C43.0597 20.8922 43.133 23.5198 43.2101 26.2999C43.4362 34.4235 43.4988 35.6586 43.6286 36.2645C44.5974 40.7461 46.0493 44.8107 47.4741 48.5357C48.8378 52.1009 49.9148 54.9171 49.8226 57.7702C49.7513 59.9749 48.9411 61.434 47.7144 63.6428C45.4175 67.7796 42.2716 73.4451 42.5001 87.24C42.551 90.4851 45.2245 93.1243 48.4594 93.1243H71.5896V131.539H62.8591C58.0452 131.539 54.1287 135.456 54.1287 140.27V146.09C54.1287 147.697 55.4316 149 57.0388 149H91.9606C93.5679 149 94.8707 147.697 94.8707 146.09V140.27C94.8707 135.456 90.9543 131.539 86.1403 131.539H77.4099V93.1243H100.538C102.168 93.1243 103.682 92.4917 104.799 91.3425C105.93 90.1781 106.534 88.6063 106.503 86.91C106.689 73.3342 103.625 67.825 101.162 63.3981ZM89.0507 140.27V143.18H59.9493V140.27C59.9493 138.665 61.2548 137.359 62.8594 137.359H86.1406C87.7452 137.359 89.0507 138.665 89.0507 140.27ZM100.684 87.0052C100.689 87.1746 100.647 87.2627 100.625 87.286C100.612 87.2994 100.571 87.3041 100.538 87.3041H48.4606C48.3881 87.3041 48.3212 87.2301 48.32 87.1463C48.1175 74.9077 50.7157 70.2282 52.8034 66.4683C54.2023 63.9493 55.5235 61.5696 55.6402 57.9582C55.7706 53.9331 54.4453 50.4683 52.9108 46.4564C51.3731 42.4363 50.1761 38.9677 49.3409 35.1406C49.2536 34.2236 49.1186 29.3733 49.0287 26.138C48.9454 23.1525 48.8739 20.5739 48.8165 19.6208C48.8151 19.5946 48.813 19.5681 48.8107 19.5419C48.8078 19.5102 48.8116 19.45 48.8695 19.4037C50.1142 18.4104 52.02 17.8465 54.0379 17.2496C57.9809 16.0826 62.8879 14.6305 64.5383 8.98856C64.8223 8.01832 64.9722 6.97707 64.9722 5.97773C64.9722 5.89101 65.0409 5.82 65.125 5.82H83.8733C83.9577 5.82 84.0261 5.89072 84.0261 5.97773C84.0261 7.99679 84.6212 10.038 85.7017 11.725C87.8986 15.1543 91.6477 16.2671 94.9554 17.249C96.9826 17.8505 98.8972 18.4192 100.129 19.4043C100.155 19.4249 100.186 19.4639 100.184 19.5262L99.6838 34.7818C99.6815 34.8525 99.6818 34.9197 99.6844 34.9901C99.6858 35.0704 99.6809 37.0636 96.088 46.4573C94.5538 50.4689 93.2285 53.9334 93.3589 57.9584C93.475 61.5545 94.7968 63.9304 96.0752 66.2279C98.3158 70.255 100.855 74.8192 100.683 86.8806C100.682 86.9222 100.683 86.9639 100.684 87.0052Z" fill="#00B3F8"/>
</svg>
