<svg width="116" height="128" viewBox="0 0 116 128" fill="none" xmlns="http://www.w3.org/2000/svg">
<path d="M33.3499 78.2998V119.625H82.6499V78.2998H31.8999" stroke="#00B3F8" stroke-width="2"/>
<rect x="15.95" y="69.5996" width="87" height="8.7" fill="#00B3F8"/>
<rect x="75.3999" y="89.9004" width="4.35" height="10.15" fill="#00B3F8"/>
<rect x="40.6001" y="121.8" width="34.8" height="5.8" fill="#00B3F8"/>
<path d="M99.0696 51.4746H5.42547C5.18676 51.4746 4.97538 51.56 4.79413 51.7154L2.09908 54.0254C1.38873 54.6343 1.82887 55.7981 2.76437 55.7845L99.0645 54.3889C99.6111 54.381 100.05 53.9356 100.05 53.389V52.4746C100.05 51.9223 99.6219 51.4746 99.0696 51.4746Z" fill="#00B3F8" stroke="#00B3F8" stroke-width="2"/>
<path d="M17.3999 56.5498L24.6499 71.7748" stroke="#00B3F8" stroke-width="2"/>
<path d="M101.5 59.5267L94.25 53.6504L21.75 55.3293L34.075 59.5267L26.1 69.6004H101.5V59.5267Z" fill="#00B3F8" stroke="#00B3F8" stroke-width="2"/>
<circle cx="108.025" cy="50.0248" r="7.975" fill="#00B3F8"/>
<path d="M105.85 44.9504C105.85 39.1504 108.267 34.3171 109.475 32.6254V2.90039" stroke="#00B3F8" stroke-width="2"/>
<circle cx="109.475" cy="5.075" r="5.075" fill="#00B3F8"/>
<path fill-rule="evenodd" clip-rule="evenodd" d="M29.8589 24.3979C31.8861 23.7326 33.35 21.8247 33.35 19.575C33.35 18.6878 33.1223 17.8537 32.7221 17.128L87.0154 20.3218C84.3908 21.9949 82.65 24.9317 82.65 28.275C82.65 32.561 85.5109 36.1789 89.4272 37.323L39.9665 43.8C41.2607 42.3823 42.05 40.4958 42.05 38.425C42.05 34.0205 38.4794 30.45 34.075 30.45C33.0809 30.45 32.1293 30.6319 31.2517 30.9641L29.8589 24.3979ZM30.456 14.9913C29.7953 14.6763 29.0557 14.5 28.275 14.5C25.4721 14.5 23.2 16.7722 23.2 19.575C23.2 22.2396 25.2535 24.4246 27.8644 24.6336L29.4166 31.9512C27.4077 33.3993 26.1 35.7594 26.1 38.425C26.1 42.2713 28.8228 45.4816 32.4462 46.2335L32.5635 46.7865L33.4798 46.6665L94.3798 38.6915L95.3999 38.5579L95.2374 37.542L95.179 37.1769C98.8593 35.8938 101.5 32.3928 101.5 28.275C101.5 23.1272 97.3728 18.9433 92.2469 18.8515L92.2105 18.6239L91.4087 18.5767L30.456 14.9913Z" fill="#00B3F8"/>
<path d="M90.6249 20.2998L30.4499 16.6748L28.2749 22.4748L38.4249 44.2248L89.1749 38.4248L90.6249 20.2998Z" fill="#00B3F8" stroke="#00B3F8" stroke-width="2"/>
<rect x="88.45" y="30.4502" width="11.6" height="23.2" fill="#00B3F8"/>
<rect x="30.45" y="42.6602" width="9.85414" height="13.05" transform="rotate(-16.5048 30.45 42.6602)" fill="#00B3F8"/>
</svg>
