<svg width="66" height="65" viewBox="0 0 66 65" fill="none" xmlns="http://www.w3.org/2000/svg">
<path d="M49.3518 1.57324H64L52.7322 47.6626M52.7322 47.6626L11.0413 52.0004L4.84399 43.867V55.796L11.0413 59.5916L52.7322 52.0004V47.6626Z" stroke="#00B3F8" stroke-width="1.70642"/>
<path d="M11.6699 52.7656L11.1011 60.7289" stroke="#00B3F8" stroke-width="1.70642"/>
<path d="M9.96334 36.2703L2.56885 28.307L44.6606 26.6006L56.0367 33.4263L9.96334 36.2703Z" stroke="#00B3F8" stroke-width="1.70642"/>
<path d="M11.6697 52.7663L4.27523 43.0966L2.10869 29.0141L9.9633 36.2709L55.4679 33.4269H56.6055L53.1927 47.6471L11.6697 52.7663Z" fill="#00B3F8"/>
<path d="M2 28.3076L2.10869 29.0141M2.10869 29.0141L4.27523 43.0966L11.6697 52.7663L53.1927 47.6471L56.6055 33.4269H55.4679L9.9633 36.2709L2.10869 29.0141Z" stroke="#00B3F8" stroke-width="1.70642"/>
<path d="M54.8989 52.7664C54.8989 54.6512 53.3709 56.1792 51.4861 56.1792C49.6012 56.1792 48.0732 54.6512 48.0732 52.7664C48.0732 50.8815 49.6012 49.3535 51.4861 49.3535C53.3709 49.3535 54.8989 50.8815 54.8989 52.7664Z" fill="#00B3F8"/>
<circle cx="12.2385" cy="60.7293" r="3.41284" fill="#00B3F8"/>
<circle cx="4.84404" cy="55.6097" r="2.84404" fill="#00B3F8"/>
<path d="M45.2292 26.6008L49.7797 1.57324" stroke="#00B3F8" stroke-width="1.70642"/>
</svg>
