<svg width="82" height="73" viewBox="0 0 82 73" fill="none" xmlns="http://www.w3.org/2000/svg">
<path d="M77.1921 61.8981H5.07227L13.4862 39.6611H69.9801L77.1921 61.8981Z" fill="#00B3F8" stroke="#00B3F8" stroke-width="1.803"/>
<path d="M4.47119 19.828H77.192M4.47119 19.828V61.8978H77.192V19.828M4.47119 19.828V12.616L12.2842 3V6.60599H70.581V3L77.192 12.616V19.828" stroke="#00B3F8" stroke-width="1.803"/>
<path d="M5.07227 61.2967C5.07227 60.3351 10.2809 46.8727 12.8852 40.2617H69.9801L77.1921 61.2967L5.07227 61.8977" stroke="#00B3F8" stroke-width="1.803"/>
<path d="M19.4961 6.60645V40.2624" stroke="#00B3F8" stroke-width="1.202"/>
<path d="M27.1089 6.60645V40.2624" stroke="#00B3F8" stroke-width="1.202"/>
<path d="M34.7212 6.60645V40.2624" stroke="#00B3F8" stroke-width="1.202"/>
<path d="M42.334 6.60645V40.2624" stroke="#00B3F8" stroke-width="1.202"/>
<path d="M49.9468 6.60645V40.2624" stroke="#00B3F8" stroke-width="1.202"/>
<path d="M57.5596 6.60645V40.2624" stroke="#00B3F8" stroke-width="1.202"/>
<path d="M65.1719 6.60645V40.2624" stroke="#00B3F8" stroke-width="1.202"/>
<path d="M11.082 19.8281V61.297" stroke="#00B3F8" stroke-width="1.202"/>
<path d="M23.1021 19.8281V61.297" stroke="#00B3F8" stroke-width="1.202"/>
<path d="M35.1221 19.8281V61.297" stroke="#00B3F8" stroke-width="1.202"/>
<path d="M47.1421 19.8281V61.297" stroke="#00B3F8" stroke-width="1.202"/>
<path d="M59.1621 19.8281V61.297" stroke="#00B3F8" stroke-width="1.202"/>
<path d="M71.1821 19.8281V61.297" stroke="#00B3F8" stroke-width="1.202"/>
<path d="M12.2842 5.4043V46.8732" stroke="#00B3F8" stroke-width="1.803"/>
<rect x="77.1919" y="59.4941" width="4.80799" height="13.222" rx="2.40399" fill="#00B3F8"/>
<rect x="0.26416" y="59.4941" width="4.80799" height="13.222" rx="2.40399" fill="#00B3F8"/>
</svg>
