<svg width="70" height="98" viewBox="0 0 70 98" fill="none" xmlns="http://www.w3.org/2000/svg">
<path d="M7.10938 45.9375C5.65104 48.4896 2.625 53.8125 2.1875 54.6875H67.8125L62.8906 45.9375H7.10938Z" fill="#00B3F8" stroke="#00B3F8" stroke-width="1.64062"/>
<path d="M6.5625 23.5156C5.28646 24.4271 2.625 26.4688 2.1875 27.3438H66.7188L62.8906 23.5156H6.5625Z" fill="#00B3F8" stroke="#00B3F8" stroke-width="1.64062"/>
<path d="M7.65625 70.5469L2.73438 84.2188H67.8125L61.25 70.5469H7.65625Z" fill="#00B3F8" stroke="#00B3F8" stroke-width="1.64062"/>
<path d="M68.3594 0V88.5938" stroke="#00B3F8" stroke-width="1.64062"/>
<path d="M1.64062 0V88.5938" stroke="#00B3F8" stroke-width="1.64062"/>
<path d="M63.4375 2.1875C63.4375 0.979378 64.4169 0 65.625 0H66.7188C67.9269 0 68.9062 0.979377 68.9062 2.1875V84.2188H63.4375V2.1875Z" fill="#00B3F8"/>
<path d="M1.09375 2.1875C1.09375 0.979378 2.07313 0 3.28125 0H4.375C5.58312 0 6.5625 0.979377 6.5625 2.1875V84.2188H1.09375V2.1875Z" fill="#00B3F8"/>
<rect x="66.7188" y="88.5938" width="3.28125" height="8.75" rx="1.64062" fill="#00B3F8"/>
<rect y="88.5938" width="3.28125" height="8.75" rx="1.64062" fill="#00B3F8"/>
<path d="M5.46875 4.375H63.9844" stroke="#00B3F8" stroke-width="1.64062"/>
<path d="M16.4062 4.375V71.0938" stroke="#00B3F8" stroke-width="1.09375"/>
<path d="M25.1562 4.375V71.0938" stroke="#00B3F8" stroke-width="1.09375"/>
<path d="M33.9062 4.375V71.0938" stroke="#00B3F8" stroke-width="1.09375"/>
<path d="M42.6562 4.375V71.0938" stroke="#00B3F8" stroke-width="1.09375"/>
<path d="M51.4062 4.375V71.0938" stroke="#00B3F8" stroke-width="1.09375"/>
</svg>
