<svg width="89" height="159" viewBox="0 0 89 159" fill="none" xmlns="http://www.w3.org/2000/svg">
<path d="M88 1H1V158.046H88V1Z" stroke="#00B3F8" stroke-width="1.78462"/>
<path d="M1 25.9844H87.5538" stroke="#00B3F8" stroke-width="1.78462"/>
<rect x="69.7078" y="54.9844" width="8.92308" height="40.1538" fill="#00B3F8"/>
<rect x="25.0923" y="121.016" width="40.1538" height="21.4154" fill="#00B3F8"/>
<rect x="69.7078" y="8.58496" width="13.3846" height="9.81538" fill="#00B3F8"/>
<rect x="34.9077" y="9.47656" width="20.5231" height="7.13846" fill="#00B3F8"/>
<rect x="5.46143" y="31.7842" width="11.6" height="16.0615" fill="#00B3F8"/>
<path fill-rule="evenodd" clip-rule="evenodd" d="M44.7232 105.846C62.4643 105.846 76.8463 91.4638 76.8463 73.7227C76.8463 55.9816 62.4643 41.5996 44.7232 41.5996C26.9821 41.5996 12.6001 55.9816 12.6001 73.7227C12.6001 91.4638 26.9821 105.846 44.7232 105.846ZM45.6155 97.8155C58.9213 97.8155 69.7078 87.029 69.7078 73.7232C69.7078 60.4174 58.9213 49.6309 45.6155 49.6309C32.3097 49.6309 21.5232 60.4174 21.5232 73.7232C21.5232 87.029 32.3097 97.8155 45.6155 97.8155Z" fill="#00B3F8"/>
</svg>
