<svg width="171" height="94" viewBox="0 0 171 94" fill="none" xmlns="http://www.w3.org/2000/svg">
<path d="M18.4118 13.5039L22.3193 1.78125H8.2521L2 15.067V89.3107H18.4118V13.5039Z" fill="#00B3F8" stroke="#00B3F8" stroke-width="3.12605"/>
<path d="M148.143 1H23.1008" stroke="#00B3F8" stroke-width="1.56303"/>
<path d="M18.4119 15.0674H152.051" stroke="#00B3F8" stroke-width="1.56303"/>
<path d="M19.1934 52.5801H152.051" stroke="#00B3F8" stroke-width="1.56303"/>
<path d="M26.227 60.3952L19.1934 56.4876V52.5801H152.051V55.7061L143.454 59.6137V72.1179H26.227V60.3952Z" fill="#00B3F8" stroke="#00B3F8" stroke-width="1.56303"/>
<path d="M18.4116 29.1348H152.05" stroke="#00B3F8" stroke-width="1.56303"/>
<path d="M17.6304 41.6387H152.832" stroke="#00B3F8" stroke-width="1.56303"/>
<rect x="19.1934" y="84.6221" width="134.42" height="6.2521" fill="#00B3F8"/>
<rect x="45.7646" y="90.874" width="78.1513" height="3.12605" fill="#00B3F8"/>
<path fill-rule="evenodd" clip-rule="evenodd" d="M148.924 1.78223L152.832 13.5049V89.3116H169.244V15.0679L162.992 1.78223H148.924ZM167.681 25.2276H156.739V40.8579H167.681V25.2276Z" fill="#00B3F8"/>
<path d="M152.832 13.5049H154.395V13.2513L154.315 13.0106L152.832 13.5049ZM148.924 1.78223V0.219201H146.756L147.442 2.2765L148.924 1.78223ZM152.832 89.3116H151.269V90.8747H152.832V89.3116ZM169.244 89.3116V90.8747H170.807V89.3116H169.244ZM169.244 15.0679H170.807V14.7185L170.658 14.4024L169.244 15.0679ZM162.992 1.78223L164.406 1.1167L163.983 0.219201H162.992V1.78223ZM156.739 25.2276V23.6646H155.176V25.2276H156.739ZM167.681 25.2276H169.244V23.6646H167.681V25.2276ZM156.739 40.8579H155.176V42.4209H156.739V40.8579ZM167.681 40.8579V42.4209H169.244V40.8579H167.681ZM154.315 13.0106L150.407 1.28795L147.442 2.2765L151.349 13.9992L154.315 13.0106ZM154.395 89.3116V13.5049H151.269V89.3116H154.395ZM169.244 87.7486H152.832V90.8747H169.244V87.7486ZM167.681 15.0679V89.3116H170.807V15.0679H167.681ZM161.577 2.44776L167.829 15.7335L170.658 14.4024L164.406 1.1167L161.577 2.44776ZM148.924 3.34525H162.992V0.219201H148.924V3.34525ZM156.739 26.7906H167.681V23.6646H156.739V26.7906ZM158.302 40.8579V25.2276H155.176V40.8579H158.302ZM167.681 39.2948H156.739V42.4209H167.681V39.2948ZM166.118 25.2276V40.8579H169.244V25.2276H166.118Z" fill="#00B3F8"/>
</svg>
