<svg width="32" height="32" viewBox="0 0 32 32" fill="none" xmlns="http://www.w3.org/2000/svg">
<path d="M0 31.9999H9.399V22.5396H0V31.9999ZM3.77638 23.4781H5.64256V25.3639H3.77638V23.4781ZM0.939125 23.4781H2.83731V26.3024H6.58175V23.4781H8.45994V31.0614H0.939125V23.4781Z" fill="white"/>
<path d="M1.88281 27.2378H3.761V28.1763H1.88281V27.2378Z" fill="white"/>
<path d="M1.88281 29.1113H3.761V30.0498H1.88281V29.1113Z" fill="white"/>
<path d="M22.6011 31.9999H27.2379V31.0614H23.5401V23.4781H25.4383V26.3024H29.1828V23.4781H31.0609V31.0614H30.0552V31.9999H32V22.5396H22.6011V31.9999ZM28.2436 25.3639H26.3774V23.4781H28.2436V25.3639Z" fill="white"/>
<path d="M28.177 31.0615H29.1161V32H28.177V31.0615Z" fill="white"/>
<path d="M24.4839 27.2378H26.3621V28.1763H24.4839V27.2378Z" fill="white"/>
<path d="M24.4839 29.1113H26.3621V30.0498H24.4839V29.1113Z" fill="white"/>
<path d="M11.2693 31.9999H20.6683V22.5396H11.2693V31.9999ZM15.0457 23.4781H16.9118V25.3639H15.0457V23.4781ZM12.2084 23.4781H14.1066V26.3024H17.851V23.4781H19.7292V31.0614H12.2084V23.4781Z" fill="white"/>
<path d="M13.1521 27.2378H15.0303V28.1763H13.1521V27.2378Z" fill="white"/>
<path d="M13.1521 29.1113H15.0303V30.0498H13.1521V29.1113Z" fill="white"/>
<path d="M0 21.6045H9.399V12.2129H0V21.6045ZM3.77638 13.1513H5.64256V15.0145H3.77638V13.1513ZM0.939125 13.1513H2.83731V15.953H6.58175V13.1513H8.45994V20.6661H0.939125V13.1513Z" fill="white"/>
<path d="M1.88281 16.873H3.761V17.8115H1.88281V16.873Z" fill="white"/>
<path d="M1.88281 18.7314H3.761V19.6699H1.88281V18.7314Z" fill="white"/>
<path d="M22.6011 12.2129V21.6046H32V12.2129H22.6011ZM26.3774 13.1513H28.2436V15.0145H26.3774V13.1513ZM31.0609 20.6661H23.5401V13.1513H25.4383V15.953H29.1828V13.1513H31.0609V20.6661H31.0609Z" fill="white"/>
<path d="M24.4839 16.873H26.3621V17.8115H24.4839V16.873Z" fill="white"/>
<path d="M24.4839 18.7314H26.3621V19.6699H24.4839V18.7314Z" fill="white"/>
<path d="M11.2693 15.0316H12.2084V13.1513H14.1066V15.953H17.851V13.1513H19.7292V20.6661H12.2084V15.9701H11.2693V21.6046H20.6683V12.2129H11.2693V15.0316ZM16.9119 15.0145H15.0457V13.1514H16.9119V15.0145Z" fill="white"/>
<path d="M13.1521 16.873H15.0303V17.8115H13.1521V16.873Z" fill="white"/>
<path d="M13.1521 18.7314H15.0303V19.6699H13.1521V18.7314Z" fill="white"/>
<path d="M14.206 4.393L13.542 5.05669L15.2661 6.77956L18.4154 3.63238L17.7513 2.96875L15.2661 5.45237L14.206 4.393Z" fill="white"/>
<path d="M5.17912 5.17756H11.2907C11.5118 7.39988 13.2854 9.17225 15.5092 9.39319V11.2777H16.4483V9.39206C17.3476 9.30137 18.2109 8.95331 18.9189 8.38762L18.3324 7.65469C17.6581 8.19344 16.8442 8.47825 15.9787 8.47825C13.8986 8.47825 12.2064 6.78712 12.2064 4.70837C12.2064 2.62963 13.8986 0.9385 15.9787 0.9385C18.0589 0.9385 19.7511 2.62963 19.7511 4.70837C19.7511 5.56781 19.4694 6.37712 18.9363 7.04881L19.6721 7.63194C20.2401 6.91612 20.5789 6.07525 20.6666 5.17763H26.7684V11.2778H27.7075V4.23912H20.6667C20.4303 1.86237 18.4182 0 15.9787 0C13.5393 0 11.5272 1.86237 11.2907 4.23912H4.23999V11.2777H5.17912V5.17756Z" fill="white"/>
</svg>
