<svg width="32" height="32" viewBox="0 0 32 32" fill="none" xmlns="http://www.w3.org/2000/svg">
<path d="M17.5 4.5H15V2C15 1.86739 14.9473 1.74021 14.8536 1.64645C14.7598 1.55268 14.6326 1.5 14.5 1.5H6.5C6.36739 1.5 6.24021 1.55268 6.14645 1.64645C6.05268 1.74021 6 1.86739 6 2V4.64745C5.27836 4.86344 4.64551 5.30616 4.19521 5.91002C3.74491 6.51387 3.50113 7.24673 3.5 8V27C3.50112 27.9279 3.87023 28.8175 4.52637 29.4736C5.1825 30.1298 6.07209 30.4989 7 30.5H25C25.9279 30.4989 26.8175 30.1298 27.4736 29.4736C28.1298 28.8175 28.4989 27.9279 28.5 27V15.5C28.4967 12.5836 27.3367 9.78764 25.2745 7.72545C23.2124 5.66326 20.4164 4.50328 17.5 4.5ZM14 4.5H13V2.5H14V4.5ZM9 4.5V2.5H10V4.5H9ZM11 2.5H12V4.5H11V2.5ZM7 2.5H8V4.5H7V2.5ZM27.5 27C27.4992 27.6628 27.2356 28.2982 26.7669 28.7669C26.2982 29.2356 25.6628 29.4992 25 29.5H7C6.3372 29.4992 5.70177 29.2356 5.2331 28.7669C4.76442 28.2982 4.50078 27.6628 4.5 27V8C4.50078 7.3372 4.76442 6.70177 5.2331 6.2331C5.70177 5.76442 6.3372 5.50078 7 5.5H17.5C20.1513 5.50295 22.6931 6.55747 24.5678 8.43219C26.4425 10.3069 27.497 12.8487 27.5 15.5V27Z" fill="white"/>
<path d="M17.4999 7H15.914C15.8151 7.00002 15.7184 7.02936 15.6362 7.0843C15.554 7.13924 15.49 7.21732 15.4521 7.30867C15.4143 7.40002 15.4044 7.50054 15.4237 7.59752C15.4429 7.69449 15.4906 7.78357 15.5605 7.8535L25.1464 17.4394C25.2163 17.5094 25.3054 17.557 25.4024 17.5762C25.4994 17.5955 25.5999 17.5856 25.6912 17.5478C25.7826 17.51 25.8607 17.4459 25.9156 17.3637C25.9705 17.2815 25.9999 17.1848 25.9999 17.086V15.5C25.9974 13.2464 25.1011 11.0859 23.5075 9.49237C21.914 7.89886 19.7535 7.00251 17.4999 7ZM24.9999 15.8789L17.121 8H17.4999C19.4884 8.00217 21.3948 8.79304 22.8008 10.1991C24.2069 11.6051 24.9977 13.5115 24.9999 15.5V15.8789Z" fill="white"/>
<path d="M12.7319 7.1465C12.6855 7.10005 12.6304 7.0632 12.5698 7.03806C12.5091 7.01292 12.4441 6.99999 12.3784 7H7C6.73489 7.00036 6.48075 7.10583 6.29329 7.29329C6.10583 7.48075 6.00036 7.73489 6 8V27C6.00036 27.2651 6.10583 27.5193 6.29329 27.7067C6.48075 27.8942 6.73489 27.9996 7 28H25C25.2651 27.9996 25.5193 27.8942 25.7067 27.7067C25.8942 27.5193 25.9996 27.2651 26 27V20.6216C26 20.5559 25.9871 20.4909 25.9619 20.4302C25.9368 20.3696 25.9 20.3145 25.8535 20.268L12.7319 7.1465ZM25 27H7L6.999 8H12.1714L25 20.8286V27Z" fill="white"/>
<path d="M10 14C10 14.3956 10.1173 14.7822 10.3371 15.1111C10.5568 15.44 10.8692 15.6964 11.2346 15.8478C11.6001 15.9991 12.0022 16.0387 12.3902 15.9616C12.7781 15.8844 13.1345 15.6939 13.4142 15.4142C13.6939 15.1345 13.8844 14.7781 13.9616 14.3902C14.0387 14.0022 13.9991 13.6001 13.8478 13.2346C13.6964 12.8692 13.44 12.5568 13.1111 12.3371C12.7822 12.1173 12.3956 12 12 12C11.4697 12.0005 10.9613 12.2114 10.5864 12.5864C10.2114 12.9613 10.0005 13.4697 10 14ZM13 14C13 14.1978 12.9414 14.3911 12.8315 14.5556C12.7216 14.72 12.5654 14.8482 12.3827 14.9239C12.2 14.9996 11.9989 15.0194 11.8049 14.9808C11.6109 14.9422 11.4327 14.847 11.2929 14.7071C11.153 14.5673 11.0578 14.3891 11.0192 14.1951C10.9806 14.0011 11.0004 13.8 11.0761 13.6173C11.1518 13.4346 11.28 13.2784 11.4444 13.1685C11.6089 13.0586 11.8022 13 12 13C12.2651 13.0004 12.5193 13.1058 12.7067 13.2933C12.8942 13.4807 12.9996 13.7349 13 14Z" fill="white"/>
<path d="M10 16.5C9.70333 16.5 9.41332 16.588 9.16665 16.7528C8.91997 16.9176 8.72771 17.1519 8.61418 17.426C8.50065 17.7001 8.47094 18.0017 8.52882 18.2926C8.5867 18.5836 8.72956 18.8509 8.93934 19.0607C9.14912 19.2704 9.41639 19.4133 9.70736 19.4712C9.99834 19.5291 10.2999 19.4993 10.574 19.3858C10.8481 19.2723 11.0824 19.08 11.2472 18.8334C11.412 18.5867 11.5 18.2967 11.5 18C11.4996 17.6023 11.3414 17.221 11.0602 16.9398C10.779 16.6586 10.3977 16.5004 10 16.5ZM10 18.5C9.90111 18.5 9.80444 18.4707 9.72222 18.4157C9.63999 18.3608 9.5759 18.2827 9.53806 18.1913C9.50022 18.1 9.49032 17.9994 9.50961 17.9025C9.5289 17.8055 9.57652 17.7164 9.64645 17.6464C9.71637 17.5765 9.80546 17.5289 9.90246 17.5096C9.99945 17.4903 10.1 17.5002 10.1913 17.5381C10.2827 17.5759 10.3608 17.64 10.4157 17.7222C10.4707 17.8044 10.5 17.9011 10.5 18C10.4999 18.1326 10.4472 18.2597 10.3535 18.3535C10.2597 18.4472 10.1326 18.4999 10 18.5Z" fill="white"/>
<path d="M22 22.5C22.2967 22.5 22.5867 22.412 22.8334 22.2472C23.08 22.0824 23.2723 21.8481 23.3858 21.574C23.4993 21.2999 23.5291 20.9983 23.4712 20.7074C23.4133 20.4164 23.2704 20.1491 23.0607 19.9393C22.8509 19.7296 22.5836 19.5867 22.2926 19.5288C22.0017 19.4709 21.7001 19.5007 21.426 19.6142C21.1519 19.7277 20.9176 19.92 20.7528 20.1666C20.588 20.4133 20.5 20.7033 20.5 21C20.5004 21.3977 20.6586 21.779 20.9398 22.0602C21.221 22.3414 21.6023 22.4996 22 22.5ZM22 20.5C22.0989 20.5 22.1956 20.5293 22.2778 20.5843C22.36 20.6392 22.4241 20.7173 22.4619 20.8087C22.4998 20.9 22.5097 21.0006 22.4904 21.0975C22.4711 21.1945 22.4235 21.2836 22.3536 21.3536C22.2836 21.4235 22.1945 21.4711 22.0975 21.4904C22.0006 21.5097 21.9 21.4998 21.8087 21.4619C21.7173 21.4241 21.6392 21.36 21.5843 21.2778C21.5293 21.1956 21.5 21.0989 21.5 21C21.5001 20.8674 21.5528 20.7403 21.6465 20.6465C21.7403 20.5528 21.8674 20.5001 22 20.5Z" fill="white"/>
<path d="M12.9243 20.3543C12.6469 20.8584 12.501 21.4244 12.5 21.9998C12.5 22.9281 12.8687 23.8183 13.5251 24.4747C14.1815 25.1311 15.0717 25.4998 16 25.4998C16.9283 25.4998 17.8185 25.1311 18.4749 24.4747C19.1313 23.8183 19.5 22.9281 19.5 21.9998C19.499 21.4259 19.3538 20.8614 19.0777 20.3582C19.0665 20.3204 19.0509 20.284 19.0312 20.2498L16.4331 15.7493C16.3856 15.6779 16.3213 15.6193 16.2457 15.5788C16.1701 15.5383 16.0857 15.5171 16 15.5171C15.9143 15.5171 15.8299 15.5383 15.7543 15.5788C15.6787 15.6193 15.6144 15.6779 15.5669 15.7493L12.9688 20.2498C12.9497 20.2827 12.9348 20.3178 12.9243 20.3543ZM13.8482 20.7512C13.8666 20.7198 13.8812 20.6862 13.8916 20.6512L16 16.9993L18.1064 20.6482C18.1177 20.6842 18.133 20.7187 18.1518 20.7512C18.3775 21.1288 18.4977 21.56 18.5 21.9998C18.5 22.6628 18.2366 23.2987 17.7678 23.7676C17.2989 24.2364 16.663 24.4998 16 24.4998C15.337 24.4998 14.7011 24.2364 14.2322 23.7676C13.7634 23.2987 13.5 22.6628 13.5 21.9998C13.5023 21.56 13.6225 21.1288 13.8482 20.7512Z" fill="white"/>
</svg>
