<svg width="32" height="32" viewBox="0 0 32 32" fill="none" xmlns="http://www.w3.org/2000/svg">
<g clip-path="url(#clip0_1098_9023)">
<path d="M16.6667 32C11.888 32 8 28.112 8 23.3333V16.6667C8 16.2987 8.29867 16 8.66667 16C9.03467 16 9.33333 16.2987 9.33333 16.6667V23.3333C9.33333 27.3773 12.624 30.6667 16.6667 30.6667C20.7093 30.6667 24 27.3773 24 23.3333V22C24 21.632 24.2987 21.3333 24.6667 21.3333C25.0347 21.3333 25.3333 21.632 25.3333 22V23.3333C25.3333 28.112 21.4453 32 16.6667 32Z" fill="white"/>
<path d="M9.99992 17.3335H7.33325C4.02525 17.3335 1.33325 14.6415 1.33325 11.3335V8.66683C1.33325 6.8295 2.82792 5.3335 4.66659 5.3335H12.6666C14.5053 5.3335 15.9999 6.8295 15.9999 8.66683V11.3335C15.9999 14.6415 13.3079 17.3335 9.99992 17.3335ZM4.66659 6.66683C3.56392 6.66683 2.66659 7.56416 2.66659 8.66683V11.3335C2.66659 13.9068 4.75992 16.0002 7.33325 16.0002H9.99992C12.5733 16.0002 14.6666 13.9068 14.6666 11.3335V8.66683C14.6666 7.56416 13.7693 6.66683 12.6666 6.66683H4.66659Z" fill="white"/>
<path d="M5.99992 6.66667C5.63192 6.66667 5.33325 6.368 5.33325 6V0.666667C5.33325 0.298667 5.63192 0 5.99992 0C6.36792 0 6.66659 0.298667 6.66659 0.666667V6C6.66659 6.368 6.36792 6.66667 5.99992 6.66667Z" fill="white"/>
<path d="M11.3334 6.66667C10.9654 6.66667 10.6667 6.368 10.6667 6V0.666667C10.6667 0.298667 10.9654 0 11.3334 0C11.7014 0 12.0001 0.298667 12.0001 0.666667V6C12.0001 6.368 11.7014 6.66667 11.3334 6.66667Z" fill="white"/>
<path d="M11.3333 10.6668H5.99992C5.63192 10.6668 5.33325 10.3682 5.33325 10.0002C5.33325 9.63216 5.63192 9.3335 5.99992 9.3335H11.3333C11.7013 9.3335 11.9999 9.63216 11.9999 10.0002C11.9999 10.3682 11.7013 10.6668 11.3333 10.6668Z" fill="white"/>
<path d="M23.3332 18.6667C23.2532 18.6667 23.1746 18.6534 23.0972 18.624C22.7986 18.512 22.6239 18.204 22.6759 17.8907L23.8799 10.6667H20.6666C20.4159 10.6667 20.1892 10.528 20.0746 10.3054C19.9599 10.0827 19.9799 9.81602 20.1239 9.61202L26.7906 0.278687C26.9759 0.0226872 27.3146 -0.0693128 27.5986 0.0546872C27.8866 0.18002 28.0479 0.489354 27.9866 0.797354L26.8132 6.66669H29.9999C30.2426 6.66669 30.4666 6.79869 30.5839 7.01069C30.7012 7.22269 30.6946 7.48135 30.5652 7.68669L23.8986 18.3534C23.7732 18.5534 23.5572 18.6667 23.3332 18.6667ZM21.9626 9.33335H24.6666C24.8626 9.33335 25.0479 9.41869 25.1759 9.56935C25.3026 9.71869 25.3572 9.91602 25.3239 10.1094L24.5399 14.8094L28.7972 8.00002H25.9999C25.8012 8.00002 25.6106 7.91069 25.4839 7.75602C25.3572 7.60135 25.3066 7.39869 25.3466 7.20269L26.0706 3.58135L21.9626 9.33335Z" fill="white"/>
</g>
<defs>
<clipPath id="clip0_1098_9023">
<rect width="32" height="32" fill="white"/>
</clipPath>
</defs>
</svg>
