<svg width="13" height="14" viewBox="0 0 13 14" fill="none" xmlns="http://www.w3.org/2000/svg">
<g clip-path="url(#clip0_1098_8838)">
<path d="M12.5938 1.3125V4.96875C12.5938 5.1933 12.4121 5.375 12.1875 5.375C11.9629 5.375 11.7812 5.1933 11.7812 4.96875V2.29319L5.97472 8.09972C5.8954 8.17904 5.7914 8.21875 5.6875 8.21875C5.5836 8.21875 5.4796 8.17904 5.40028 8.09972C5.24154 7.94098 5.24154 7.68392 5.40028 7.52528L11.2068 1.71875H8.53125C8.3067 1.71875 8.125 1.53705 8.125 1.3125C8.125 1.08795 8.3067 0.90625 8.53125 0.90625H12.1875C12.4121 0.90625 12.5938 1.08795 12.5938 1.3125ZM10.9688 11.875V7C10.9688 6.77545 10.7871 6.59375 10.5625 6.59375C10.3379 6.59375 10.1562 6.77545 10.1562 7V11.875C10.1562 12.0991 9.97415 12.2812 9.75 12.2812H1.625C1.40085 12.2812 1.21875 12.0991 1.21875 11.875V3.75C1.21875 3.52585 1.40085 3.34375 1.625 3.34375H6.5C6.72455 3.34375 6.90625 3.16205 6.90625 2.9375C6.90625 2.71295 6.72455 2.53125 6.5 2.53125H1.625C0.952961 2.53125 0.40625 3.07796 0.40625 3.75V11.875C0.40625 12.547 0.952961 13.0938 1.625 13.0938H9.75C10.422 13.0938 10.9688 12.547 10.9688 11.875Z" fill="#00B3F8"/>
</g>
<defs>
<clipPath id="clip0_1098_8838">
<rect width="13" height="13" fill="white" transform="translate(0 0.5)"/>
</clipPath>
</defs>
</svg>
