<svg width="28" height="29" viewBox="0 0 28 29" fill="none" xmlns="http://www.w3.org/2000/svg">
<g clip-path="url(#clip0_1631_9918)">
<path d="M27.4517 2.7941C27.0013 2.38138 26.361 2.24384 25.7807 2.43508L1.16108 10.5508C0.490122 10.7719 0.0351218 11.3709 0.0019265 12.0765C-0.0312141 12.7822 0.365544 13.4212 1.01272 13.7044L7.10135 16.3684C7.13104 16.5062 8.87891 24.6128 8.93836 24.8884C9.01465 25.2423 9.19429 25.5576 9.57486 25.6546C9.95981 25.7526 10.2318 25.5422 10.519 25.3272C10.6788 25.2076 15.0373 21.944 15.0373 21.944L20.3195 26.2664C20.6272 26.5183 21.0032 26.6497 21.3866 26.6497C21.5691 26.6496 21.7534 26.6199 21.9327 26.559C22.4887 26.3705 22.9008 25.9168 23.0352 25.3454L27.9552 4.42729C28.095 3.83256 27.9022 3.20683 27.4517 2.7941ZM10.9126 17.8949C10.9096 17.902 10.9066 17.91 10.9038 17.9196L9.88532 21.478L8.7487 16.2064L16.5645 11.864L11.1 17.5776C11.014 17.6676 10.9506 17.7765 10.9126 17.8949ZM11.2358 22.7361L11.6984 21.1198L12.1409 19.5738L13.7264 20.8712L11.2358 22.7361ZM26.3544 4.05071L21.4344 24.9688C21.4319 24.9792 21.4287 24.9935 21.4046 25.0017C21.3807 25.0098 21.3692 25.0005 21.361 24.9937L15.581 20.2639C15.5808 20.2638 15.5807 20.2636 15.5805 20.2635L12.9025 18.0721L21.5061 9.07611C21.7871 8.78227 21.8112 8.32722 21.5627 8.00538C21.3142 7.68349 20.8678 7.59156 20.5125 7.78909L7.77302 14.8672L1.67192 12.1978C1.65332 12.1897 1.6431 12.1851 1.64457 12.1537C1.64605 12.1224 1.65666 12.1188 1.67591 12.1125L26.2956 3.99684C26.3075 3.99296 26.3209 3.98848 26.3407 4.00652C26.3605 4.02468 26.3573 4.03846 26.3544 4.05071Z" fill="white"/>
</g>
<defs>
<clipPath id="clip0_1631_9918">
<rect width="28" height="28" fill="white" transform="translate(0 0.5)"/>
</clipPath>
</defs>
</svg>
