<svg width="86" height="86" fill="none" xmlns="http://www.w3.org/2000/svg"><path d="M67.698 54.724l3.82-20.74A14.328 14.328 0 1050.166 21.5H19.652l-.26-1.166a5.343 5.343 0 00-5.247-4.209H8.958a1.792 1.792 0 100 3.583h5.187a1.782 1.782 0 011.75 1.404l9.716 43.722a7.182 7.182 0 108.356 3.25h22.544a7.16 7.16 0 106.197-3.584h-33.5l-1.195-5.375h34.399a5.375 5.375 0 005.286-4.4zM64.499 10.75A10.75 10.75 0 1153.75 21.5 10.762 10.762 0 0164.5 10.75zM31.354 71.667a3.584 3.584 0 11-7.168 0 3.584 3.584 0 017.168 0zm34.937 0a3.584 3.584 0 11-7.168 0 3.584 3.584 0 017.168 0zM20.448 25.083h30.19a14.275 14.275 0 0016.96 10.404l-3.424 18.587a1.791 1.791 0 01-1.762 1.468H27.217l-6.769-30.459z" fill="#00B3F8"/><path d="M59.126 23.292h3.583v3.583a1.792 1.792 0 003.584 0v-3.583h3.583a1.792 1.792 0 100-3.584h-3.583v-3.583a1.792 1.792 0 00-3.584 0v3.583h-3.583a1.792 1.792 0 000 3.584z" fill="#00B3F8"/></svg>