<svg width="55" height="55" fill="none" xmlns="http://www.w3.org/2000/svg"><g clip-path="url(#clip0_10_352)" fill="#00B3F8"><path d="M52.465 52.852h-2.356v-34.21a2.891 2.891 0 00-2.888-2.888h-5.266a2.891 2.891 0 00-2.888 2.888v34.21h-5.983v-18.71a2.891 2.891 0 00-2.887-2.888H24.93a2.891 2.891 0 00-2.887 2.887v18.71H16.06v-9.69a2.891 2.891 0 00-2.887-2.887H7.905a2.891 2.891 0 00-2.888 2.888v9.69H2.535a1.074 1.074 0 100 2.148h49.93a1.074 1.074 0 100-2.148zm-38.553 0H7.167v-9.69a.74.74 0 01.739-.74h5.266a.74.74 0 01.74.74v9.69zm17.024 0H24.19v-18.71a.74.74 0 01.74-.74h5.266a.74.74 0 01.739.74v18.71zm17.024 0h-6.745v-34.21a.74.74 0 01.74-.74h5.266a.74.74 0 01.74.74v34.21zM50.106 1.13A1.07 1.07 0 0048.979.003C48.962.002 48.945 0 48.927 0h-6.499a1.074 1.074 0 100 2.148h4.013l-10.62 10.62-4.004-4.005a1.074 1.074 0 00-1.52 0l-19.31 19.311a1.075 1.075 0 001.519 1.52l18.551-18.552 4.005 4.005c.42.42 1.1.42 1.52 0L47.96 3.667V7.3a1.074 1.074 0 102.149 0V1.182c0-.018-.002-.035-.003-.052zM8.125 33.656a1.074 1.074 0 100-2.148 1.074 1.074 0 000 2.148z"/></g><defs><clipPath id="clip0_10_352"><path fill="#fff" d="M0 0h55v55H0z"/></clipPath></defs></svg>