<svg width="20" height="20" fill="none" xmlns="http://www.w3.org/2000/svg"><g clip-path="url(#clip0_186_1786)" fill="#00B3F8"><path d="M4.167 0H.833A.834.834 0 000 .833v3.334C0 4.627.373 5 .833 5h3.334C4.627 5 5 4.627 5 4.167V.833A.834.834 0 004.167 0zm0 7.5H.833A.834.834 0 000 8.333v3.334c0 .46.373.833.833.833h3.334c.46 0 .833-.373.833-.833V8.333a.834.834 0 00-.833-.833zm0 7.5H.833a.834.834 0 00-.833.833v3.334c0 .46.373.833.833.833h3.334c.46 0 .833-.373.833-.833v-3.334A.834.834 0 004.167 15zm7.5-15H8.333A.834.834 0 007.5.833v3.334c0 .46.373.833.833.833h3.334c.46 0 .833-.373.833-.833V.833A.834.834 0 0011.667 0zm0 7.5H8.333a.834.834 0 00-.833.833v3.334c0 .46.373.833.833.833h3.334c.46 0 .833-.373.833-.833V8.333a.834.834 0 00-.833-.833zm0 7.5H8.333a.834.834 0 00-.833.833v3.334c0 .46.373.833.833.833h3.334c.46 0 .833-.373.833-.833v-3.334a.834.834 0 00-.833-.833zm7.5-15h-3.334A.834.834 0 0015 .833v3.334c0 .46.373.833.833.833h3.334c.46 0 .833-.373.833-.833V.833A.834.834 0 0019.167 0zm0 7.5h-3.334a.834.834 0 00-.833.833v3.334c0 .46.373.833.833.833h3.334c.46 0 .833-.373.833-.833V8.333a.834.834 0 00-.833-.833zm0 7.5h-3.334a.834.834 0 00-.833.833v3.334c0 .46.373.833.833.833h3.334c.46 0 .833-.373.833-.833v-3.334a.834.834 0 00-.833-.833z"/></g><defs><clipPath id="clip0_186_1786"><path fill="#fff" d="M0 0h20v20H0z"/></clipPath></defs></svg>