<svg width="28" height="28" fill="none" xmlns="http://www.w3.org/2000/svg"><path d="M25.813 3.063h-2.625a1.314 1.314 0 00-1.312 1.262l-.797 3.987h-5.992a3.94 3.94 0 00-3.712-5.251 3.938 3.938 0 00-3.712 5.252h-6.35a.438.438 0 00-.43.523l1.75 8.75a.437.437 0 00.43.352h16.625a.875.875 0 110 1.75H3.063a.438.438 0 00-.438.437v1.75a.438.438 0 00.438.438h.672a1.75 1.75 0 103.03 0h9.22a1.751 1.751 0 103.03 0h.672a.438.438 0 00.438-.438v-1.368a1.75 1.75 0 00.08-3.366l1.662-8.305.664-3.325c.2.116.426.177.657.176h2.625a1.312 1.312 0 100-2.625zM6.125 23.188a.875.875 0 11-1.75 0 .875.875 0 011.75 0zm12.25 0a.875.875 0 11-1.75 0 .875.875 0 011.75 0zm.875-1.75H3.5v-.875h15.75v.875zm-1.82-12.25l-.526 3.5h-3.1l.135-2.703c.27-.233.509-.501.708-.797h2.783zm-7.564 4.374h3.018l-.175 3.5H10.04l-.175-3.5zm-.7 3.5H6.501l-.525-3.5H8.99l.175 3.5zm.656-4.375l-.105-2.117a3.926 3.926 0 003.316 0l-.105 2.117H9.822zm3.938.876h3.013l-.525 3.5h-2.663l.175-3.5zm-2.385-9.626a3.063 3.063 0 110 6.126 3.063 3.063 0 010-6.126zM8.811 9.986l.135 2.703h-3.1l-.525-3.5h2.782c.2.296.437.564.708.797zm-4.375-.797l.525 3.5H2.546l-.7-3.5h2.59zM2.72 13.561h2.371l.525 3.5H3.421l-.7-3.5zm16.608 3.5h-2.196l.525-3.5h2.37l-.7 3.5zm.875-4.375h-2.415l.525-3.5h2.59l-.7 3.5zm5.608-7.874h-2.625a.437.437 0 010-.875h2.625a.438.438 0 010 .874z" fill="#fff"/><path d="M10.245 8.622a.438.438 0 00.31.128h.02a.438.438 0 00.316-.157l2.187-2.625a.438.438 0 00-.672-.56l-1.88 2.256-.537-.536a.438.438 0 00-.619.619l.875.875z" fill="#fff"/></svg>