<svg width="25" height="25" fill="none" xmlns="http://www.w3.org/2000/svg"><g clip-path="url(#clip0_10_435)"><path d="M.781 1.563a.781.781 0 000 1.562h1.735l.626 2.51 2.34 12.478a.781.781 0 00.768.637h1.563a3.125 3.125 0 100 6.25 3.125 3.125 0 000-6.25H18.75a3.125 3.125 0 100 6.25 3.125 3.125 0 000-6.25h1.563a.782.782 0 00.767-.637l2.343-12.5a.781.781 0 00-.767-.926H4.516l-.633-2.532a.781.781 0 00-.758-.592H.781zm8.594 20.312a1.563 1.563 0 11-3.125 0 1.563 1.563 0 013.125 0zm10.938 0a1.563 1.563 0 11-3.126 0 1.563 1.563 0 013.125 0zm-6.25-13.281v2.344h2.343a.781.781 0 110 1.562h-2.343v2.344a.781.781 0 11-1.563 0V12.5h-2.344a.781.781 0 010-1.563H12.5V8.595a.781.781 0 111.563 0z" fill="#fff"/></g><defs><clipPath id="clip0_10_435"><path fill="#fff" d="M0 0h25v25H0z"/></clipPath></defs></svg>