<svg width="26" height="26" fill="none" xmlns="http://www.w3.org/2000/svg"><path d="M23.433 17.822H8.313l.76-1.547 12.613-.022a.882.882 0 00.869-.727L24.3 5.748a.882.882 0 00-.865-1.038L7.389 4.657l-.137-.645a.902.902 0 00-.879-.711H2.45a.896.896 0 000 1.792h3.197l.6 2.85 1.474 7.142-1.899 3.1a.888.888 0 00-.076.934c.152.302.46.493.8.493H8.14a2.607 2.607 0 002.082 4.172 2.607 2.607 0 002.082-4.172h4.09a2.607 2.607 0 002.082 4.172 2.607 2.607 0 002.083-4.172h2.877a.898.898 0 00.896-.897.9.9 0 00-.899-.893zM7.762 6.424l14.62.048-1.432 8.018-11.484.02-1.704-8.086zm2.46 15.557a.804.804 0 01-.802-.803c0-.442.36-.802.802-.802a.804.804 0 01.568 1.37.803.803 0 01-.568.235zm8.255 0a.804.804 0 01-.803-.803c0-.442.361-.802.803-.802a.804.804 0 01.567 1.37.803.803 0 01-.567.235z" fill="#00B3F8"/></svg>