<svg width="17" height="16" fill="none" xmlns="http://www.w3.org/2000/svg"><g clip-path="url(#clip0_268_13870)"><path d="M12.232.667H4.166a3.38 3.38 0 00-2.376.977A3.323 3.323 0 00.805 4v5.333c0 .768.269 1.513.758 2.108a3.373 3.373 0 001.93 1.159v2.067a.663.663 0 00.356.588.677.677 0 00.69-.034L8.4 12.667h3.831a3.38 3.38 0 002.376-.978c.63-.625.984-1.472.985-2.356V4a3.324 3.324 0 00-.986-2.356 3.38 3.38 0 00-2.375-.977zm-1.344 8H5.51a.675.675 0 01-.475-.196.664.664 0 01.475-1.138h5.378c.178 0 .349.07.475.196a.664.664 0 010 .942.675.675 0 01-.475.196zM12.232 6H4.166a.675.675 0 01-.476-.195.664.664 0 01.476-1.138h8.066c.178 0 .35.07.475.195a.664.664 0 010 .943.675.675 0 01-.475.195z" fill="#00B3F8" fill-opacity=".5"/></g><defs><clipPath id="clip0_268_13870"><path fill="#fff" transform="translate(.133)" d="M0 0h16.133v16H0z"/></clipPath></defs></svg>