<svg width="86" height="86" fill="none" xmlns="http://www.w3.org/2000/svg"><path d="M83.54 11.757a3.24 3.24 0 00-4.584-.005l-38.883 38.78-14.03-15.236a3.241 3.241 0 10-4.769 4.39L37.59 57.404a3.237 3.237 0 002.315 1.045h.07c.856 0 1.68-.34 2.288-.945l41.27-41.163a3.24 3.24 0 00.007-4.584z" fill="#FF630B"/><path d="M82.759 39.759A3.24 3.24 0 0079.518 43c0 20.137-16.381 36.518-36.518 36.518C22.865 79.518 6.482 63.137 6.482 43 6.482 22.865 22.865 6.482 43 6.482A3.241 3.241 0 1043 0C19.29 0 0 19.29 0 43s19.29 43 43 43 43-19.29 43-43a3.24 3.24 0 00-3.241-3.241z" fill="#FF630B"/></svg>