<svg width="68" height="68" fill="none" xmlns="http://www.w3.org/2000/svg"><g clip-path="url(#clip0_199_3765)" fill="#00B3F8"><path d="M30.6 68c.626 0 1.133-.507 1.133-1.133v-54.4a1.133 1.133 0 00-2.266 0V47.53c-1.814.169-4.922.125-6.628-1.303a3.853 3.853 0 01-1.306-3.161 1.133 1.133 0 10-2.266 0 6.068 6.068 0 002.117 4.898 10.453 10.453 0 006.595 1.902c.557 0 1.061-.027 1.488-.061v17.06c0 .627.507 1.134 1.133 1.134zM5.667 11.333c-.626 0-1.134.508-1.134 1.134v54.4a1.133 1.133 0 002.267 0V49.805c.426.035.93.062 1.487.062a10.46 10.46 0 006.596-1.902A6.068 6.068 0 0017 43.067a1.133 1.133 0 10-2.267 0 3.853 3.853 0 01-1.302 3.157c-1.816 1.523-5.044 1.45-6.631 1.306V12.467c0-.626-.508-1.134-1.133-1.134z"/><path d="M9.299 29.328a2.252 2.252 0 002.034 1.272H13.6v5.667a2.267 2.267 0 002.267 2.266H20.4a2.267 2.267 0 002.267-2.266V30.6h2.266a2.267 2.267 0 001.756-3.7l-6.764-7.892a2.256 2.256 0 00-1.792-.875 2.226 2.226 0 00-1.755.833l-6.832 7.976a2.253 2.253 0 00-.247 2.386zm8.868-8.886l6.772 7.891h-3.406c-.626 0-1.133.508-1.133 1.134v6.8h-4.533v-6.8c0-.626-.508-1.134-1.134-1.134l-3.431.042 6.865-7.933zm44.166-9.109c-.626 0-1.133.508-1.133 1.134V47.53c-1.813.169-4.922.125-6.628-1.303a3.853 3.853 0 01-1.305-3.161 1.133 1.133 0 10-2.267 0 6.068 6.068 0 002.117 4.898 10.453 10.453 0 006.595 1.902c.557 0 1.062-.027 1.488-.061v17.06a1.133 1.133 0 002.267 0v-54.4c0-.625-.508-1.133-1.134-1.133zm-24.933 0c-.626 0-1.133.508-1.133 1.134v54.4a1.133 1.133 0 002.266 0V49.805c.426.035.93.062 1.487.062a10.46 10.46 0 006.596-1.902 6.068 6.068 0 002.117-4.898 1.133 1.133 0 10-2.266 0 3.853 3.853 0 01-1.303 3.157c-1.813 1.523-5.044 1.45-6.63 1.306V12.467c0-.626-.508-1.134-1.134-1.134z"/><path d="M41.032 29.328a2.252 2.252 0 002.035 1.272h2.266v5.667a2.267 2.267 0 002.267 2.266h4.533a2.267 2.267 0 002.267-2.266V30.6h2.267a2.267 2.267 0 001.755-3.7l-6.763-7.892a2.256 2.256 0 00-1.792-.875 2.226 2.226 0 00-1.756.833l-6.831 7.976a2.253 2.253 0 00-.248 2.386zm8.869-8.886l6.771 7.891h-3.405c-.626 0-1.134.508-1.134 1.134v6.8H47.6v-6.8c0-.626-.507-1.134-1.133-1.134l-3.432.042 6.866-7.933zm-.034 29.425c-.626 0-1.134.507-1.134 1.133v10.864l-2.598-2.599a1.133 1.133 0 00-1.603 1.603l4.533 4.533c.324.323.81.42 1.232.246.123-.055.236-.132.332-.226.01-.01.025-.014.035-.024l4.534-4.534a1.133 1.133 0 00-1.603-1.602L51 61.864V51c0-.626-.508-1.133-1.133-1.133zM15.043 11.333c.283 0 .557-.106.766-.298l9.89-9.066A1.134 1.134 0 0024.167.298l-9.124 8.365-2.947-2.698a1.133 1.133 0 00-1.529 1.67l3.71 3.4c.209.192.482.298.766.298zm28.314.758a1.133 1.133 0 001.6.084l4.91-4.417 4.908 4.42a1.133 1.133 0 001.516-1.685l-4.725-4.26 4.73-4.258a1.135 1.135 0 10-1.52-1.684l-4.91 4.419L44.958.291a1.133 1.133 0 00-1.517 1.684l4.73 4.258-4.73 4.258a1.133 1.133 0 00-.084 1.6z"/></g><defs><clipPath id="clip0_199_3765"><path fill="#fff" d="M0 0h68v68H0z"/></clipPath></defs></svg>