<svg width="26" height="26" fill="none" xmlns="http://www.w3.org/2000/svg"><path d="M20.614 3.406h-2.352V2.354c0-.34-.371-.495-.712-.495h-1.826C15.291.621 14.208.002 12.97.002a2.816 2.816 0 00-2.755 1.857H8.42c-.34 0-.68.155-.68.495v1.052H5.386a2.63 2.63 0 00-2.6 2.507v17.735c0 1.362 1.238 2.352 2.6 2.352h15.227c1.362 0 2.6-.99 2.6-2.352V5.913a2.63 2.63 0 00-2.6-2.507zM8.977 3.097h1.702a.681.681 0 00.588-.557 1.795 1.795 0 011.703-1.393c.81.025 1.5.6 1.671 1.393a.68.68 0 00.619.557h1.764v2.476H8.977V3.097zm13 20.55c0 .682-.682 1.115-1.363 1.115H5.387c-.681 0-1.362-.433-1.362-1.114V5.913a1.393 1.393 0 011.362-1.268h2.352v1.578a.65.65 0 00.681.588h9.13a.68.68 0 00.712-.588V4.644h2.352c.712.014 1.299.56 1.362 1.27v17.734z" fill="#00B3F8"/><path d="M10.618 13.837a.619.619 0 00-.866-.031L7.77 15.694l-.836-.867a.619.619 0 00-.867-.03.65.65 0 000 .897l1.27 1.3c.11.123.268.19.433.185a.619.619 0 00.433-.185l2.414-2.29a.588.588 0 000-.867zm8.882 1.331h-7.12a.619.619 0 100 1.238h7.12a.619.619 0 100-1.238zm-8.882-6.283a.619.619 0 00-.866-.031L7.77 10.742l-.836-.867a.619.619 0 00-.867-.03.65.65 0 000 .897l1.27 1.3c.11.123.268.19.433.185a.619.619 0 00.433-.185l2.414-2.29a.588.588 0 000-.867zm8.882 1.331h-7.12a.619.619 0 100 1.238h7.12a.619.619 0 000-1.239zm-8.882 8.573a.619.619 0 00-.866-.031L7.77 20.646l-.836-.867a.619.619 0 00-.867-.03.65.65 0 000 .897l1.27 1.3a.56.56 0 00.433.185.619.619 0 00.433-.186l2.414-2.29a.588.588 0 000-.866zM19.5 20.12h-7.12a.619.619 0 100 1.238h7.12a.619.619 0 100-1.239z" fill="#00B3F8"/></svg>