<svg width="18" height="18" fill="none" xmlns="http://www.w3.org/2000/svg"><g clip-path="url(#clip0_258_8134)" fill="#FA2F2F"><path d="M11.482 6.521a.422.422 0 00-.421.422v7.967a.422.422 0 00.843 0V6.943a.422.422 0 00-.422-.422zm-4.972 0a.422.422 0 00-.422.422v7.967a.422.422 0 00.843 0V6.943a.422.422 0 00-.422-.422z"/><path d="M2.883 5.359v10.386c0 .614.225 1.19.618 1.604.392.415.936.65 1.506.65h7.976a2.076 2.076 0 001.506-.65c.393-.414.619-.99.619-1.604V5.359a1.61 1.61 0 00-.414-3.167h-2.158v-.527A1.657 1.657 0 0010.866 0H7.125a1.656 1.656 0 00-1.67 1.665v.527H3.296a1.61 1.61 0 00-.413 3.167zm10.1 11.798H5.007c-.72 0-1.281-.62-1.281-1.412V5.395h10.539v10.35c0 .793-.561 1.412-1.282 1.412zM6.297 1.665a.811.811 0 01.827-.822h3.743a.812.812 0 01.826.822v.527H6.297v-.527zm-3.001 1.37h11.398a.759.759 0 110 1.518H3.296a.759.759 0 110-1.518z"/><path d="M8.996 6.521a.422.422 0 00-.422.422v7.967a.422.422 0 00.843 0V6.943a.422.422 0 00-.421-.422z"/></g><defs><clipPath id="clip0_258_8134"><path fill="#fff" d="M0 0h18v18H0z"/></clipPath></defs></svg>