<svg width="26" height="26" fill="none" xmlns="http://www.w3.org/2000/svg"><g clip-path="url(#clip0_229_2069)" fill="#00B3F8"><path d="M22.461 1.172a.383.383 0 00-.298.705 5.045 5.045 0 013.08 4.65c0 4.628-5.76 6.833-8.829 3.347a5.047 5.047 0 01.21-6.916 5.027 5.027 0 014.17-1.444.383.383 0 00.09-.76c-5.011-.595-8.325 5.05-5.444 9.12H7.425a.648.648 0 00-.648.647v4.948l-.718 1.412a1.178 1.178 0 01-.633.57c0-.59-.462-1-.98-1H2.971c-.509 0-.98.395-.98 1.02h-.949A1.043 1.043 0 000 18.513v.463a.382.382 0 10.765 0v-.463c0-.153.124-.278.277-.278h.949v5.295h-.949a.278.278 0 01-.277-.278v-2.746a.382.382 0 10-.765 0v2.746c0 .575.468 1.043 1.042 1.043h.949c0 .624.472 1.02.98 1.02h1.475c.45 0 .829-.305.944-.718.47.126-.825.076 16.293.076.394 0 .715-.32.715-.715V11.911c4.756-1.947 4.828-8.721.063-10.739zM4.661 20.86v3.474a.218.218 0 01-.215.216H2.971a.219.219 0 01-.216-.216v-6.902c0-.118.1-.216.216-.216h1.475c.117 0 .216.098.216.216v3.428zm6.989-10.222h2.916v3.001l-1.133-.887a.528.528 0 00-.65 0l-1.133.887v-3zm-.088 13.269c-6.072.002-5.776.04-6.136-.102v-5.558c.565-.124 1.033-.469 1.351-1.092l.868-1.705c.127-.253.843.387.505 1.05l-.369.726a.734.734 0 00.655 1.068l4.79-.002c.238 0 .44.194.438.42a.417.417 0 01-.413.41h-2.99a.382.382 0 100 .765h4.464c.193 0 .393.176.425.348.055.277-.107.48-.394.48l-4.527.001a.382.382 0 100 .765h3.835a.415.415 0 01-.016.83l-4.187.001a.382.382 0 100 .765c1.822 0 1.832-.04 1.995.121a.416.416 0 01-.294.709zm10.071.002h-2.194v-7.353a.383.383 0 00-.764 0v7.352h-6.011c.106-.277.104-.57.005-.832h1.379a1.18 1.18 0 001.081-1.65c.85-.264 1.057-1.324.443-1.94-.413-.413-.825-.364-1.22-.364.296-.78-.3-1.595-1.125-1.595l-4.742.002.347-.681c.582-1.144-.423-2.405-1.29-2.2v-4.01h3.343v3.49c0 .29.237.527.527.527.236 0 .188-.006 1.696-1.185 1.487 1.163 1.455 1.185 1.695 1.185a.528.528 0 00.528-.527v-3.49h.754c.73.73 1.62 1.242 2.59 1.502v2.886a.382.382 0 10.764 0v-2.734a5.886 5.886 0 002.194-.13v11.746z"/><path d="M17.67 6.458a.382.382 0 10-.572.507l1.54 1.74a.746.746 0 001.116 0l3.537-3.969a.382.382 0 10-.571-.509l-3.523 3.954-1.526-1.723z"/></g><defs><clipPath id="clip0_229_2069"><path fill="#fff" d="M0 0h26v26H0z"/></clipPath></defs></svg>