<svg width="26" height="26" fill="none" xmlns="http://www.w3.org/2000/svg"><g clip-path="url(#clip0_263_10914)" fill="#00B3F8"><path d="M24.27 13.337a.762.762 0 010-.674l.97-1.983a2.257 2.257 0 00-.974-2.998l-1.95-1.035a.762.762 0 01-.396-.544l-.382-2.175a2.257 2.257 0 00-2.55-1.853l-2.185.31a.762.762 0 01-.64-.209L14.574.641a2.257 2.257 0 00-3.151 0L9.837 2.176a.762.762 0 01-.64.209l-2.187-.31a2.257 2.257 0 00-2.55 1.853l-.38 2.175a.762.762 0 01-.396.544l-1.95 1.035A2.257 2.257 0 00.76 10.68l.97 1.983a.762.762 0 010 .674l-.97 1.984a2.257 2.257 0 00.973 2.997l1.95 1.035a.76.76 0 01.397.545l.381 2.175a2.256 2.256 0 002.55 1.852l2.186-.31a.762.762 0 01.64.209l1.588 1.535a2.26 2.26 0 003.151 0l1.587-1.535a.763.763 0 01.64-.208l2.187.309a2.257 2.257 0 002.55-1.853l.381-2.174a.762.762 0 01.396-.545l1.95-1.035a2.257 2.257 0 00.974-2.998l-.97-1.983zm-.706 3.656l-1.951 1.035a2.252 2.252 0 00-1.17 1.61l-.382 2.175a.764.764 0 01-.862.627l-2.186-.31a2.251 2.251 0 00-1.894.616l-1.586 1.535a.764.764 0 01-1.067 0l-1.587-1.535a2.25 2.25 0 00-1.893-.615L6.8 22.44a.764.764 0 01-.863-.627l-.381-2.175a2.252 2.252 0 00-1.17-1.61l-1.95-1.035a.764.764 0 01-.33-1.014l.97-1.984a2.252 2.252 0 000-1.99l-.97-1.984a.764.764 0 01.33-1.014l1.95-1.035a2.252 2.252 0 001.17-1.61l.381-2.175A.764.764 0 016.8 3.56l2.186.31a2.252 2.252 0 001.893-.616l1.587-1.535a.764.764 0 011.066 0l1.587 1.535a2.25 2.25 0 001.893.615L19.2 3.56a.764.764 0 01.862.627l.382 2.175c.122.693.548 1.28 1.17 1.61l1.95 1.035c.368.195.513.64.33 1.014l-.97 1.984a2.252 2.252 0 000 1.99l.97 1.984a.764.764 0 01-.33 1.014z"/><path d="M18.48 7.521a.75.75 0 00-1.061 0l-9.897 9.897a.75.75 0 101.06 1.06l9.897-9.896a.75.75 0 000-1.06zm-8.479-1.269a2.752 2.752 0 00-2.749 2.75 2.752 2.752 0 002.75 2.748 2.752 2.752 0 002.748-2.749 2.752 2.752 0 00-2.749-2.749zm0 3.999a1.251 1.251 0 010-2.5 1.251 1.251 0 010 2.5zM16 14.25a2.752 2.752 0 00-2.75 2.749 2.752 2.752 0 002.75 2.75 2.752 2.752 0 002.748-2.75A2.753 2.753 0 0016 14.249zm0 3.998a1.251 1.251 0 010-2.5 1.251 1.251 0 010 2.5z"/></g><defs><clipPath id="clip0_263_10914"><path fill="#fff" d="M0 0h26v26H0z"/></clipPath></defs></svg>