<svg width="16" height="16" fill="none" xmlns="http://www.w3.org/2000/svg"><g clip-path="url(#clip0_263_10996)" fill="#00B3F8" fill-opacity=".5"><path d="M14.527 2.26H1.473C.65 2.26 0 2.927 0 3.731v8.536c0 .823.668 1.473 1.473 1.473h13.054c.823 0 1.473-.669 1.473-1.473V3.732c0-.823-.668-1.473-1.473-1.473zm.536 10.008c0 .295-.24.535-.536.535H1.473a.535.535 0 01-.536-.535V3.732c0-.295.24-.535.536-.535h13.054c.296 0 .536.24.536.535v8.536z"/><path d="M6.272 9.147c.273-.305.439-.707.439-1.147 0-.95-.774-1.724-1.724-1.724S3.263 7.049 3.263 8c0 .44.166.842.438 1.147a2.478 2.478 0 00-1.191 2.117c0 .258.21.468.469.468h4.016c.26 0 .469-.21.469-.468 0-.896-.478-1.682-1.192-2.117zM4.987 7.214a.787.787 0 010 1.572.787.787 0 010-1.572zm-1.467 3.58a1.542 1.542 0 012.934 0H3.52zm9.5-4.016H9.507a.469.469 0 000 .938h3.514a.469.469 0 000-.938zm0-2.51H2.98a.469.469 0 000 .937h10.04a.469.469 0 000-.937zm0 4.518H9.507a.469.469 0 000 .938h3.514a.469.469 0 000-.938zm-1.004 2.009h-2.51a.469.469 0 000 .937h2.51a.469.469 0 000-.937z"/></g><defs><clipPath id="clip0_263_10996"><path fill="#fff" d="M0 0h16v16H0z"/></clipPath></defs></svg>