<svg width="30" height="30" fill="none" xmlns="http://www.w3.org/2000/svg"><path d="M27.041 8.309a7.618 7.618 0 00-1.667-2.426 7.774 7.774 0 00-5.46-2.22A7.824 7.824 0 0015 5.392a7.824 7.824 0 00-4.913-1.731 7.774 7.774 0 00-5.461 2.22 7.572 7.572 0 00-2.282 5.412c0 .976.199 1.992.594 3.026.332.865.806 1.761 1.413 2.666.96 1.433 2.282 2.927 3.922 4.442 2.72 2.51 5.412 4.245 5.526 4.315l.694.446a.94.94 0 001.01 0l.695-.446a44.411 44.411 0 005.526-4.315c1.64-1.515 2.962-3.009 3.922-4.442.607-.905 1.084-1.801 1.413-2.666.395-1.034.594-2.05.594-3.026a7.46 7.46 0 00-.612-2.985zM15 23.87S4.57 17.19 4.57 11.294c0-2.985 2.47-5.405 5.517-5.405A5.532 5.532 0 0115 8.83a5.532 5.532 0 014.913-2.941c3.047 0 5.517 2.42 5.517 5.405C25.43 17.189 15 23.87 15 23.87z" fill="#00B3F8"/></svg>