<svg width="31" height="31" fill="none" xmlns="http://www.w3.org/2000/svg"><g clip-path="url(#clip0_13_729)" fill="#fff"><path d="M22.52 13.42V7.553a.68.68 0 00-.187-.446L15.755.2a.656.656 0 00-.471-.2H4.856C2.93 0 1.393 1.57 1.393 3.495v19.72a3.452 3.452 0 003.463 3.47h8.231C14.644 29.268 17.474 31 20.698 31c4.898 0 8.897-3.98 8.897-8.884.007-4.284-3.07-7.863-7.075-8.696zM15.93 2.268l4.413 4.645H17.48a1.56 1.56 0 01-1.55-1.557V2.268zM4.856 25.392a2.165 2.165 0 01-2.171-2.177V3.495c0-1.214.962-2.203 2.17-2.203h9.783v4.064c0 1.57 1.273 2.85 2.842 2.85h3.748v5.046c-.194-.007-.349-.026-.517-.026-2.255 0-4.329.866-5.892 2.222H6.613a.648.648 0 00-.646.646c0 .356.29.646.646.646h7.004c-.459.647-.84 1.293-1.137 2.004H6.613a.648.648 0 00-.646.646c0 .355.29.646.646.646h5.447a8.7 8.7 0 00-.246 2.08c0 1.163.226 2.313.633 3.282H4.856v-.006zm15.849 4.322c-4.187 0-7.592-3.405-7.592-7.591a7.595 7.595 0 017.592-7.592 7.595 7.595 0 017.591 7.592c0 4.186-3.405 7.591-7.591 7.591z"/><path d="M6.613 13.504h6.545a.648.648 0 00.646-.646.648.648 0 00-.646-.647H6.613a.648.648 0 00-.646.646c0 .356.29.647.646.647zm13.878 4.632a.643.643 0 00.336-.006 1.654 1.654 0 011.519 1.647c0 .355.29.646.646.646.355 0 .646-.29.646-.646a2.953 2.953 0 00-2.345-2.888v-.413a.648.648 0 00-.647-.647.648.648 0 00-.646.647v.439a2.95 2.95 0 00-2.255 2.862 2.949 2.949 0 002.947 2.947 1.657 1.657 0 010 3.314 1.657 1.657 0 01-1.654-1.654.648.648 0 00-.646-.646.648.648 0 00-.647.646c0 1.39.963 2.552 2.255 2.862v.666a.648.648 0 001.293 0v-.646a2.95 2.95 0 00-.601-5.834 1.657 1.657 0 01-1.654-1.655c0-.84.633-1.544 1.453-1.64z"/></g><defs><clipPath id="clip0_13_729"><path fill="#fff" d="M0 0h31v31H0z"/></clipPath></defs></svg>