<svg width="20" height="20" fill="none" xmlns="http://www.w3.org/2000/svg"><path d="M1.74 3.03a1.74 1.74 0 100 3.478 1.74 1.74 0 000-3.479zm0 5.231a1.739 1.739 0 10-.001 3.478 1.739 1.739 0 000-3.478zm0 5.232a1.74 1.74 0 100 3.478 1.74 1.74 0 000-3.478zM18.692 3.46H6.322a1.308 1.308 0 000 2.617h12.37a1.308 1.308 0 000-2.616zm0 5.232H6.322a1.308 1.308 0 000 2.616h12.37a1.308 1.308 0 000-2.616zm0 5.232H6.322a1.308 1.308 0 000 2.616h12.37a1.308 1.308 0 000-2.616z" fill="#031B24" fill-opacity=".3"/></svg>