<svg width="16" height="16" fill="none" xmlns="http://www.w3.org/2000/svg"><g clip-path="url(#clip0_261_9640)"><path d="M12.5 6H12V4c0-2.206-1.794-4-4-4S4 1.794 4 4v2h-.5C2.673 6 2 6.673 2 7.5v7c0 .827.673 1.5 1.5 1.5h9c.827 0 1.5-.673 1.5-1.5v-7c0-.827-.673-1.5-1.5-1.5zM5.333 4A2.67 2.67 0 018 1.333 2.67 2.67 0 0110.667 4v2H5.333V4zm3.334 7.148v1.519a.666.666 0 11-1.334 0v-1.519A1.329 1.329 0 018 8.667a1.329 1.329 0 01.667 2.481z" fill="#00B3F8" fill-opacity=".5"/></g><defs><clipPath id="clip0_261_9640"><path fill="#fff" d="M0 0h16v16H0z"/></clipPath></defs></svg>