<svg width="86" height="86" fill="none" xmlns="http://www.w3.org/2000/svg"><g clip-path="url(#clip0_270_21820)" fill="#49D43D"><path d="M73.459 71.667a2.75 2.75 0 01-.868-.144L1.821 47.336a2.701 2.701 0 01-1.814-2.34 2.697 2.697 0 011.434-2.587L82.066.305a2.7 2.7 0 012.802.193 2.695 2.695 0 011.104 2.587l-9.855 66.292a2.688 2.688 0 01-2.659 2.29zM9.482 44.272l61.79 21.12 8.604-57.878L9.482 44.272z"/><path d="M34.043 82.417a2.69 2.69 0 01-2.688-2.688V55.542c0-.678.258-1.337.72-1.835L81.348.853a2.69 2.69 0 013.934 3.67l-48.55 52.076v14.935L45.7 59.326a2.693 2.693 0 013.76-.574 2.69 2.69 0 01.573 3.76L36.21 81.323a2.704 2.704 0 01-2.168 1.093z"/></g><defs><clipPath id="clip0_270_21820"><path fill="#fff" d="M0 0h86v86H0z"/></clipPath></defs></svg>