<svg width="16" height="16" fill="none" xmlns="http://www.w3.org/2000/svg"><path d="M15.018 11.3c-.042-.033-3.018-2.178-3.835-2.024-.39.069-.613.335-1.06.867a14.39 14.39 0 01-.38.439A6.85 6.85 0 015.421 6.26c.147-.135.353-.308.441-.382.53-.445.796-.668.865-1.059.142-.81-2.002-3.807-2.025-3.834A1.145 1.145 0 003.85.5C2.981.5.5 3.719.5 4.26c0 .032.045 3.234 3.994 7.25 4.013 3.944 7.214 3.99 7.245 3.99.543 0 3.761-2.481 3.761-3.35a1.141 1.141 0 00-.482-.85z" fill="#00B3F8" fill-opacity=".5"/></svg>