<svg width="22" height="22" fill="none" xmlns="http://www.w3.org/2000/svg"><path d="M13.75 8.938a3.438 3.438 0 006.875 0 .687.687 0 00-.072-.308l-2.75-5.5a.687.687 0 00-.833-.345l-4.352 1.45a2.084 2.084 0 00-.93-.671V1.375h-1.376v2.189A2.06 2.06 0 008.94 5.461l-4.345 1.45a.687.687 0 00-.397.344l-2.75 5.5a.688.688 0 00-.073.307 3.438 3.438 0 006.875 0 .687.687 0 00-.072-.307L5.782 7.964l3.6-1.2c.241.306.564.539.93.671V19.25H4.125v1.375h13.75V19.25h-6.188V7.436a2.059 2.059 0 001.373-1.897l2.77-.925-2.007 4.016a.688.688 0 00-.073.307zm-8.938 6.187a2.06 2.06 0 01-1.935-1.375h3.87a2.06 2.06 0 01-1.934 1.375zm1.638-2.75H3.175L4.813 9.1l1.637 3.275zM11 6.187a.688.688 0 110-1.375.688.688 0 010 1.375zM17.188 11a2.06 2.06 0 01-1.936-1.375h3.87A2.06 2.06 0 0117.189 11zm0-6.025l1.637 3.275H15.55l1.637-3.275z" fill="#00B3F8"/></svg>