<svg width="55" height="55" fill="none" xmlns="http://www.w3.org/2000/svg"><path d="M54.194 43.1a.807.807 0 00.806-.806v-1.235a5.138 5.138 0 00-3.537-4.89l-5.036-1.656v-1.744a6.016 6.016 0 002.93-5.16v-3.473a6.021 6.021 0 00-6.014-6.014 6.008 6.008 0 00-4.791 2.384 5.118 5.118 0 00-2.932-2.457l-5.036-1.658v-1.743a6.016 6.016 0 002.93-5.161V6.014A6.021 6.021 0 0027.5 0a6.021 6.021 0 00-6.014 6.014v3.473a6.016 6.016 0 002.93 5.16v1.744l-5.035 1.658a5.119 5.119 0 00-2.933 2.457 6.007 6.007 0 00-4.79-2.384 6.021 6.021 0 00-6.015 6.014v3.473a6.016 6.016 0 002.93 5.16v1.744L3.537 36.17A5.138 5.138 0 000 41.059v1.235a.806.806 0 101.611 0v-1.235c0-1.53.977-2.88 2.43-3.359l4.716-1.552a3.09 3.09 0 002.9 2.032 3.09 3.09 0 002.9-2.032l4.716 1.552a3.525 3.525 0 012.205 2.12l-2.098.69a5.136 5.136 0 00-3.537 4.889v.936H6.169V44.32a.806.806 0 10-1.611 0v2.016H1.61v-.278a.806.806 0 10-1.611 0v1.084c0 .445.36.806.806.806h15.037v6.247c0 .445.36.806.806.806H38.35c.445 0 .806-.36.806-.806v-1.076a.806.806 0 10-1.611 0v.27h-2.947V48.66a.806.806 0 10-1.61 0v4.729H22.011V48.66a.806.806 0 10-1.611 0v4.729h-2.947v-7.99c0-1.53.977-2.88 2.43-3.358l4.717-1.552a3.09 3.09 0 002.899 2.032 3.09 3.09 0 002.9-2.032l4.716 1.552a3.528 3.528 0 012.43 3.358v3.958a.806.806 0 101.611 0v-1.41h15.037a.806.806 0 00.806-.806v-1.084a.806.806 0 10-1.611 0v.278h-2.947V44.32a.806.806 0 10-1.61 0v2.015h-9.675V45.4a5.136 5.136 0 00-3.537-4.888l-2.098-.69a3.525 3.525 0 012.205-2.12l4.717-1.553a3.09 3.09 0 002.899 2.032 3.09 3.09 0 002.9-2.032l4.716 1.552a3.53 3.53 0 012.43 3.359v1.235c0 .444.36.805.805.805zM43.343 19.732a4.408 4.408 0 014.403 4.403v3.473a4.408 4.408 0 01-4.403 4.402 4.408 4.408 0 01-4.403-4.403v-3.472a4.408 4.408 0 014.403-4.403zM23.097 9.487V6.014A4.408 4.408 0 0127.5 1.611a4.408 4.408 0 014.403 4.403v3.473A4.408 4.408 0 0127.5 13.89a4.408 4.408 0 01-4.403-4.403zM27.5 15.5a6 6 0 001.473-.183v1.657a1.474 1.474 0 01-2.946 0v-1.657c.471.12.965.183 1.473.183zm-7.616 4.078l4.716-1.553a3.09 3.09 0 002.9 2.033 3.09 3.09 0 002.9-2.033l4.716 1.553a3.509 3.509 0 012.411 3.024 6 6 0 00-.199 1.533v3.473c0 .204.01.405.03.604h-3.85a6.021 6.021 0 00-6.008-5.75 6.021 6.021 0 00-6.008 5.75h-3.851c.02-.199.03-.4.03-.605v-3.472c0-.53-.07-1.043-.199-1.533a3.51 3.51 0 012.412-3.024zM27.5 36.352a4.408 4.408 0 01-4.403-4.403v-3.472a4.408 4.408 0 014.403-4.403 4.408 4.408 0 014.403 4.403v3.472a4.408 4.408 0 01-4.403 4.403zM7.254 27.609v-3.473a4.408 4.408 0 014.403-4.403 4.408 4.408 0 014.403 4.403v3.473a4.408 4.408 0 01-4.403 4.402 4.408 4.408 0 01-4.403-4.403zm5.876 7.487c0 .812-.66 1.473-1.473 1.473-.812 0-1.473-.66-1.473-1.473V33.44a6.004 6.004 0 002.946 0v1.656zm6.647 1.074l-5.036-1.657v-1.744a6.049 6.049 0 002.506-2.944h4.239v2.124a6.016 6.016 0 002.93 5.16v1.744l-1.408.463a5.13 5.13 0 00-3.231-3.146zm7.723 4.74a1.475 1.475 0 01-1.473-1.473V37.78a6.004 6.004 0 002.946 0v1.657c0 .812-.66 1.473-1.473 1.473zm7.723-4.74a5.13 5.13 0 00-3.231 3.147l-1.408-.464V37.11a6.016 6.016 0 002.93-5.16v-2.125h4.24a6.047 6.047 0 002.505 2.944v1.744l-5.036 1.657zm8.12.4a1.476 1.476 0 01-1.473-1.474V33.44a6.004 6.004 0 002.946 0v1.656c0 .812-.66 1.473-1.473 1.473z" fill="#00B3F8"/></svg>