<svg width="16" height="16" fill="none" xmlns="http://www.w3.org/2000/svg"><path d="M14.666 8.667a.667.667 0 00-.667.666v2.809A1.86 1.86 0 0112.141 14H3.857A1.86 1.86 0 012 12.142V9.333a.667.667 0 00-1.333 0v2.809a3.195 3.195 0 003.191 3.191h8.284a3.195 3.195 0 003.192-3.191V9.333a.666.666 0 00-.667-.666z" fill="#00B3F8"/><path d="M4.472 5.805l2.862-2.862v8.39a.667.667 0 101.333 0v-8.39l2.862 2.862a.667.667 0 00.943-.943l-4-4a.667.667 0 00-.943 0l-4 4a.667.667 0 00.943.943z" fill="#00B3F8"/></svg>