<svg width="26" height="26" fill="none" xmlns="http://www.w3.org/2000/svg"><g clip-path="url(#clip0_263_10869)"><path d="M22.192 3.808A12.915 12.915 0 0013 0a12.915 12.915 0 00-9.192 3.808A12.915 12.915 0 000 13c0 3.472 1.352 6.737 3.808 9.192A12.915 12.915 0 0013 26c3.472 0 6.737-1.352 9.192-3.808A12.915 12.915 0 0026 13c0-3.472-1.352-6.737-3.808-9.192zM5.642 21.8c.43-3.693 3.605-6.545 7.358-6.545a7.36 7.36 0 015.238 2.17 7.402 7.402 0 012.12 4.375A11.424 11.424 0 0113 24.477 11.424 11.424 0 015.642 21.8zM13 13.686a3.953 3.953 0 01-3.948-3.948A3.953 3.953 0 0113 5.789a3.953 3.953 0 013.948 3.949A3.953 3.953 0 0113 13.686zm8.67 6.826a8.932 8.932 0 00-2.355-4.164 8.904 8.904 0 00-3.252-2.079 5.47 5.47 0 002.409-4.531A5.478 5.478 0 0013 4.266a5.478 5.478 0 00-5.472 5.472 5.47 5.47 0 002.41 4.533 8.91 8.91 0 00-3.024 1.855 8.903 8.903 0 00-2.584 4.385A11.428 11.428 0 011.523 13C1.523 6.672 6.672 1.523 13 1.523S24.477 6.672 24.477 13c0 2.87-1.06 5.498-2.808 7.512z" fill="#00B3F8"/></g><defs><clipPath id="clip0_263_10869"><path fill="#fff" d="M0 0h26v26H0z"/></clipPath></defs></svg>