<svg width="13" height="13" fill="none" xmlns="http://www.w3.org/2000/svg"><path d="M12.917 6.247c-.116-.159-2.883-3.89-6.417-3.89S.199 6.088.082 6.247a.429.429 0 000 .506c.117.159 2.884 3.89 6.418 3.89 3.534 0 6.301-3.731 6.417-3.89a.429.429 0 000-.506zM6.5 9.786C3.897 9.786 1.642 7.309.974 6.5c.667-.81 2.917-3.286 5.526-3.286 2.603 0 4.858 2.476 5.525 3.286-.666.81-2.916 3.286-5.525 3.286z" fill="#00B3F8"/><path d="M6.5 3.929A2.574 2.574 0 003.927 6.5a2.574 2.574 0 002.571 2.571A2.574 2.574 0 009.071 6.5a2.574 2.574 0 00-2.572-2.571zm0 4.285A1.716 1.716 0 014.784 6.5c0-.945.769-1.714 1.714-1.714s1.714.769 1.714 1.714S7.444 8.214 6.5 8.214z" fill="#00B3F8"/></svg>