<svg width="68" height="68" fill="none" xmlns="http://www.w3.org/2000/svg"><g clip-path="url(#clip0_199_3737)" fill="#00B3F8"><path d="M5.712 68a1.461 1.461 0 01-1.462-1.458V1.458A1.462 1.462 0 015.712 0h56.576a1.462 1.462 0 011.462 1.458v65.084A1.46 1.46 0 0162.288 68H5.712zm2.176-52.063a.714.714 0 00-.714.712v47.724a.713.713 0 00.714.713h52.224a.714.714 0 00.714-.713V16.644a.712.712 0 00-.714-.712l-52.224.005zM29.644 2.916a.712.712 0 00-.714.711v8.678a.714.714 0 00.714.712h30.468a.714.714 0 00.714-.712V3.627a.712.712 0 00-.714-.711H29.644zm-21.76 0a.712.712 0 00-.714.711v8.678a.713.713 0 00.714.712h17.412a.714.714 0 00.714-.712V3.627a.712.712 0 00-.714-.711H7.884z"/><path d="M34 61.491A20.983 20.983 0 1155.046 40.51 21.037 21.037 0 0134 61.49zm0-39.051a18.069 18.069 0 1018.122 18.069A18.115 18.115 0 0034 22.44z"/><path d="M34 52.814a12.295 12.295 0 01-4.944-1.028 1.459 1.459 0 111.168-2.67 9.376 9.376 0 10-4.864-4.854 1.456 1.456 0 01-.756 1.912 1.42 1.42 0 01-.581.126 1.468 1.468 0 01-1.344-.88 12.2 12.2 0 01-1.025-4.916A12.342 12.342 0 1134 52.814zM14.416 9.423a1.458 1.458 0 110-2.914h4.356a1.458 1.458 0 110 2.914h-4.356zm19.918.32a1.778 1.778 0 100-3.555 1.778 1.778 0 000 3.555zm6.182 0a1.778 1.778 0 100-3.555 1.778 1.778 0 000 3.555zm6.181 0a1.778 1.778 0 100-3.555 1.778 1.778 0 000 3.555z"/><path d="M34.334 9.743a1.778 1.778 0 100-3.555 1.778 1.778 0 000 3.555zm6.182 0a1.778 1.778 0 100-3.555 1.778 1.778 0 000 3.555zm6.181 0a1.778 1.778 0 100-3.555 1.778 1.778 0 000 3.555z"/></g><defs><clipPath id="clip0_199_3737"><path fill="#fff" d="M0 0h68v68H0z"/></clipPath></defs></svg>