<svg width="54" height="54" fill="none" xmlns="http://www.w3.org/2000/svg"><g clip-path="url(#clip0_10_329)" fill="#00B3F8"><path d="M45.035 0h-36a4.505 4.505 0 00-4.5 4.5v43.2a2.7 2.7 0 002.7 2.7v2.7a.9.9 0 00.9.9h37.8a.9.9 0 00.9-.9v-2.7a2.7 2.7 0 002.7-2.7V4.5a4.505 4.505 0 00-4.5-4.5zm-36 1.8h36a2.7 2.7 0 012.7 2.7v6.3h-41.4V4.5a2.7 2.7 0 012.7-2.7zm36 50.4h-36v-1.8h36v1.8zm1.8-3.6h-39.6a.9.9 0 01-.9-.9V12.6h41.4v35.1a.9.9 0 01-.9.9z"/><path d="M9.035 9h10.8a.9.9 0 00.9-.9V4.5a.9.9 0 00-.9-.9h-10.8a.9.9 0 00-.9.9v3.6a.9.9 0 00.9.9zm.9-3.6h9v1.8h-9V5.4zm15.3 3.6a2.7 2.7 0 100-5.4 2.7 2.7 0 000 5.4zm0-3.6a.9.9 0 110 1.8.9.9 0 010-1.8zm7.2 3.6a2.7 2.7 0 100-5.4 2.7 2.7 0 000 5.4zm0-3.6a.9.9 0 110 1.8.9.9 0 010-1.8zm5.4 1.8h1.8a.9.9 0 000-1.8h-1.8a.9.9 0 100 1.8zm5.4 0h1.8a.9.9 0 100-1.8h-1.8a.9.9 0 100 1.8zm-16.2 9c-7.953 0-14.4 6.447-14.4 14.4S19.082 45 27.035 45s14.4-6.447 14.4-14.4c-.01-7.949-6.45-14.39-14.4-14.4zm0 27c-6.958 0-12.6-5.641-12.6-12.6S20.077 18 27.035 18c6.959 0 12.6 5.641 12.6 12.6-.007 6.956-5.644 12.593-12.6 12.6z"/><path d="M27.035 18.9a11.689 11.689 0 00-10.82 16.137c.005.017 0 .036.007.054.007.018.024.035.033.056a11.692 11.692 0 0022.08-1.566c1.672-6.216-2.013-12.61-8.229-14.281a11.654 11.654 0 00-3.071-.4zm0 1.8a9.878 9.878 0 019.66 12.042c-.47.155-.93.336-1.38.54a8.166 8.166 0 01-3.78.918 6.079 6.079 0 01-3.198-.81 7.862 7.862 0 00-4.002-.99 23.642 23.642 0 00-6.71 1.26c-1.697-5.191 1.136-10.774 6.327-12.47a9.886 9.886 0 013.083-.49zm0 19.8a9.908 9.908 0 01-8.697-5.176 21.445 21.445 0 015.997-1.124 6.08 6.08 0 013.198.81 7.861 7.861 0 004.002.99 9.71 9.71 0 004.359-1.007 9.9 9.9 0 01-8.859 5.507z"/></g><defs><clipPath id="clip0_10_329"><path fill="#fff" d="M0 0h54v54H0z"/></clipPath></defs></svg>