<svg width="86" height="86" viewBox="0 0 86 86" fill="none" xmlns="http://www.w3.org/2000/svg">
<path d="M67.6977 54.7242L71.518 33.9845C73.7161 32.748 75.5489 30.9533 76.8312 28.7816C78.1135 26.61 78.7999 24.1383 78.8209 21.6164C78.842 19.0945 78.197 16.6117 76.9512 14.4189C75.7053 12.2261 73.9027 10.401 71.7256 9.12806C69.5484 7.85509 67.0739 7.17934 64.5519 7.1691C62.0299 7.15886 59.5499 7.81448 57.3625 9.06973C55.1751 10.325 53.3577 12.1354 52.0941 14.318C50.8305 16.5005 50.1654 18.978 50.166 21.5H19.6516L19.3924 20.3335C19.1323 19.137 18.4692 18.0662 17.5141 17.3002C16.559 16.5341 15.3697 16.1193 14.1454 16.125H8.95751C8.72077 16.1227 8.48592 16.1674 8.26654 16.2564C8.04715 16.3454 7.84759 16.477 7.67937 16.6436C7.51115 16.8102 7.37762 17.0085 7.28649 17.227C7.19536 17.4455 7.14844 17.6799 7.14844 17.9166C7.14844 18.1534 7.19536 18.3878 7.28649 18.6063C7.37762 18.8248 7.51115 19.0231 7.67937 19.1897C7.84759 19.3563 8.04715 19.4879 8.26654 19.5769C8.48592 19.6659 8.72077 19.7106 8.95751 19.7083H14.1454C14.5537 19.7063 14.9502 19.8447 15.2687 20.1001C15.5872 20.3555 15.8083 20.7125 15.8951 21.1115L25.6111 64.8338C24.1907 65.2783 22.9435 66.1532 22.0419 67.3374C21.1404 68.5217 20.6292 69.9568 20.5789 71.4443C20.5286 72.9319 20.9417 74.3982 21.7612 75.6407C22.5806 76.8832 23.7659 77.8403 25.1531 78.3798C26.5402 78.9192 28.0607 79.0143 29.5043 78.6519C30.9478 78.2895 32.2431 77.4875 33.211 76.3568C34.1789 75.2262 34.7715 73.8227 34.907 72.3405C35.0424 70.8583 34.714 69.3707 33.967 68.0833H56.5106C55.7231 69.4489 55.4082 71.0361 55.6148 72.5989C55.8214 74.1617 56.5379 75.6127 57.6532 76.7267C58.7686 77.8407 60.2203 78.5556 61.7833 78.7604C63.3464 78.9651 64.9333 78.6484 66.298 77.8593C67.6626 77.0702 68.7287 75.8528 69.331 74.396C69.9332 72.9392 70.0378 71.3244 69.6287 69.802C69.2195 68.2796 68.3195 66.9349 67.0681 65.9762C65.8167 65.0176 64.2839 64.4987 62.7075 64.5H29.2075L28.0131 59.125H62.4119C63.6684 59.125 64.8852 58.6847 65.8508 57.8808C66.8165 57.0768 67.4699 55.9599 67.6977 54.7242ZM64.4992 10.75C66.6254 10.75 68.7038 11.3805 70.4716 12.5617C72.2394 13.7429 73.6173 15.4218 74.4309 17.3862C75.2446 19.3505 75.4575 21.5119 75.0427 23.5972C74.6279 25.6825 73.604 27.598 72.1006 29.1014C70.5972 30.6048 68.6817 31.6287 66.5965 32.0434C64.5112 32.4582 62.3497 32.2454 60.3854 31.4317C58.4211 30.6181 56.7422 29.2402 55.5609 27.4724C54.3797 25.7046 53.7492 23.6262 53.7492 21.5C53.7524 18.6499 54.886 15.9175 56.9014 13.9021C58.9167 11.8868 61.6491 10.7532 64.4992 10.75ZM31.3535 71.6667C31.3535 72.3754 31.1433 73.0682 30.7496 73.6575C30.3558 74.2468 29.7962 74.706 29.1414 74.9773C28.4867 75.2485 27.7662 75.3194 27.0711 75.1812C26.376 75.0429 25.7375 74.7016 25.2364 74.2005C24.7353 73.6994 24.394 73.0609 24.2557 72.3658C24.1175 71.6707 24.1884 70.9502 24.4597 70.2955C24.7309 69.6407 25.1901 69.0811 25.7794 68.6873C26.3687 68.2936 27.0615 68.0835 27.7702 68.0835C28.7202 68.0844 29.6311 68.4622 30.3029 69.134C30.9747 69.8058 31.3525 70.7167 31.3535 71.6667ZM66.291 71.6667C66.291 72.3754 66.0808 73.0682 65.6871 73.6575C65.2933 74.2468 64.7337 74.706 64.0789 74.9773C63.4242 75.2485 62.7037 75.3194 62.0086 75.1812C61.3135 75.0429 60.675 74.7016 60.1739 74.2005C59.6728 73.6994 59.3315 73.0609 59.1933 72.3658C59.055 71.6707 59.1259 70.9502 59.3972 70.2955C59.6684 69.6407 60.1276 69.0811 60.7169 68.6873C61.3062 68.2936 61.999 68.0835 62.7077 68.0835C63.6577 68.0844 64.5686 68.4622 65.2404 69.134C65.9122 69.8058 66.29 70.7167 66.291 71.6667ZM20.4481 25.0833H50.6376C51.5549 28.6834 53.8396 31.784 57.0065 33.7266C60.1733 35.6691 63.9727 36.3005 67.5976 35.4866L64.1739 54.0745C64.0981 54.4865 63.8803 54.8589 63.5584 55.1269C63.2364 55.3949 62.8308 55.5416 62.4119 55.5416H27.2167L20.4481 25.0833Z" fill="#00B3F8"/>
<path d="M59.1259 23.2917H62.7092V26.875C62.7138 27.3472 62.9046 27.7984 63.2401 28.1307C63.5756 28.463 64.0287 28.6494 64.5009 28.6494C64.973 28.6494 65.4261 28.463 65.7616 28.1307C66.0971 27.7984 66.2879 27.3472 66.2925 26.875V23.2917H69.8759C70.1127 23.294 70.3475 23.2494 70.5669 23.1604C70.7863 23.0713 70.9859 22.9397 71.1541 22.7731C71.3223 22.6065 71.4558 22.4083 71.547 22.1898C71.6381 21.9712 71.685 21.7368 71.685 21.5001C71.685 21.2633 71.6381 21.0289 71.547 20.8104C71.4558 20.5919 71.3223 20.3936 71.1541 20.227C70.9859 20.0604 70.7863 19.9288 70.5669 19.8398C70.3475 19.7508 70.1127 19.7062 69.8759 19.7084H66.2927V16.125C66.2881 15.6528 66.0973 15.2016 65.7618 14.8693C65.4263 14.537 64.9732 14.3506 64.501 14.3506C64.0288 14.3506 63.5757 14.537 63.2402 14.8693C62.9047 15.2016 62.714 15.6528 62.7094 16.125V19.7083H59.1259C58.6538 19.7128 58.2025 19.9036 57.8702 20.2391C57.538 20.5746 57.3516 21.0277 57.3516 21.4999C57.3516 21.9721 57.538 22.4252 57.8702 22.7607C58.2025 23.0962 58.6538 23.287 59.1259 23.2916V23.2917Z" fill="#00B3F8"/>
</svg>
