<svg width="55" height="55" viewBox="0 0 55 55" fill="none" xmlns="http://www.w3.org/2000/svg">
<g clip-path="url(#clip0_10_352)">
<path d="M52.4647 52.8516H50.1087V18.6416C50.1087 17.0492 48.8131 15.7538 47.2209 15.7538H41.9547C40.3624 15.7538 39.067 17.0494 39.067 18.6416V52.8516H33.0844V34.1414C33.0844 32.549 31.789 31.2536 30.1967 31.2536H24.9305C23.3382 31.2536 22.0428 32.5492 22.0428 34.1414V52.8516H16.0602V43.1617C16.0602 41.5694 14.7647 40.274 13.1725 40.274H7.90616C6.31384 40.274 5.01844 41.5695 5.01844 43.1617V52.8516H2.53528C1.94199 52.8516 1.46106 53.3325 1.46106 53.9258C1.46106 54.5191 1.94199 55 2.53528 55H52.4647C53.058 55 53.539 54.5191 53.539 53.9258C53.539 53.3325 53.058 52.8516 52.4647 52.8516ZM13.9116 52.8516H7.16677V43.1617C7.16677 42.754 7.49838 42.4224 7.90605 42.4224H13.1723C13.58 42.4224 13.9116 42.754 13.9116 43.1617V52.8516ZM30.9359 52.8516H24.1911V34.1414C24.1911 33.7337 24.5227 33.4021 24.9304 33.4021H30.1966C30.6042 33.4021 30.9359 33.7337 30.9359 34.1414V52.8516ZM47.9602 52.8516H41.2154V18.6416C41.2154 18.2339 41.547 17.9023 41.9547 17.9023H47.2209C47.6286 17.9023 47.9602 18.2339 47.9602 18.6416V52.8516Z" fill="#00B3F8"/>
<path d="M50.106 1.12965C50.1211 0.836494 50.018 0.538398 49.7941 0.314531C49.5702 0.090664 49.2721 -0.0125684 48.979 0.00257813C48.9617 0.00182617 48.9446 0 48.927 0H42.428C41.8347 0 41.3537 0.480928 41.3537 1.07422C41.3537 1.66751 41.8347 2.14844 42.428 2.14844H46.4409L35.8215 12.7679L31.8168 8.76326C31.6154 8.56185 31.3421 8.44862 31.0572 8.44862C30.7724 8.44862 30.4991 8.56185 30.2977 8.76326L10.9865 28.0745C10.5671 28.494 10.5671 29.1742 10.9865 29.5938C11.1963 29.8033 11.4712 29.9082 11.7461 29.9082C12.021 29.9082 12.296 29.8033 12.5057 29.5935L31.0572 11.0419L35.0619 15.0466C35.4814 15.4661 36.1616 15.4661 36.5812 15.0466L47.9602 3.66771V7.29964C47.9602 7.89293 48.4411 8.37386 49.0344 8.37386C49.6277 8.37386 50.1086 7.89293 50.1086 7.29964V1.18164C50.1086 1.16413 50.1068 1.14705 50.106 1.12965Z" fill="#00B3F8"/>
<path d="M8.12537 33.6564C8.71864 33.6564 9.19959 33.1754 9.19959 32.5822C9.19959 31.9889 8.71864 31.5079 8.12537 31.5079C7.53209 31.5079 7.05115 31.9889 7.05115 32.5822C7.05115 33.1754 7.53209 33.6564 8.12537 33.6564Z" fill="#00B3F8"/>
</g>
<defs>
<clipPath id="clip0_10_352">
<rect width="55" height="55" fill="white"/>
</clipPath>
</defs>
</svg>
