<svg width="28" height="28" viewBox="0 0 28 28" fill="none" xmlns="http://www.w3.org/2000/svg">
<path d="M25.8125 3.0625H23.1875C22.8482 3.06292 22.5222 3.19462 22.2777 3.43002C22.0333 3.66542 21.8895 3.98625 21.8763 4.32534L21.0788 8.3125H15.0868C15.297 7.71856 15.3617 7.08283 15.2754 6.45871C15.189 5.83459 14.9541 5.24031 14.5905 4.72578C14.2268 4.21126 13.745 3.79152 13.1855 3.50182C12.6259 3.21211 12.0051 3.06091 11.375 3.06091C10.745 3.06091 10.1241 3.21211 9.56457 3.50182C9.00506 3.79152 8.52324 4.21126 8.15958 4.72578C7.79592 5.24031 7.56104 5.83459 7.47468 6.45871C7.38832 7.08283 7.45299 7.71856 7.66327 8.3125H1.31252C1.24779 8.3125 1.18386 8.32686 1.12535 8.35455C1.06684 8.38224 1.01521 8.42256 0.974168 8.47262C0.933128 8.52268 0.903708 8.58122 0.888029 8.64403C0.872349 8.70683 0.870801 8.77233 0.883497 8.8358L2.6335 17.5858C2.65333 17.685 2.70692 17.7742 2.78514 17.8383C2.86336 17.9025 2.96138 17.9375 3.06252 17.9375H19.6875C19.9196 17.9375 20.1421 18.0297 20.3062 18.1938C20.4703 18.3579 20.5625 18.5804 20.5625 18.8125C20.5625 19.0446 20.4703 19.2671 20.3062 19.4312C20.1421 19.5953 19.9196 19.6875 19.6875 19.6875H3.06252C2.94649 19.6875 2.83521 19.7336 2.75316 19.8156C2.67111 19.8977 2.62502 20.009 2.62502 20.125V21.875C2.62502 21.991 2.67111 22.1023 2.75316 22.1844C2.83521 22.2664 2.94649 22.3125 3.06252 22.3125H3.73545C3.58148 22.5785 3.50028 22.8804 3.50002 23.1877C3.49976 23.4951 3.58046 23.7971 3.73399 24.0633C3.88752 24.3296 4.10846 24.5507 4.3746 24.7045C4.64073 24.8582 4.94267 24.9392 5.25002 24.9392C5.55737 24.9392 5.85931 24.8582 6.12544 24.7045C6.39157 24.5507 6.61252 24.3296 6.76605 24.0633C6.91958 23.7971 7.00028 23.4951 7.00002 23.1877C6.99976 22.8804 6.91856 22.5785 6.76459 22.3125H15.9854C15.8315 22.5785 15.7503 22.8804 15.75 23.1877C15.7498 23.4951 15.8305 23.7971 15.984 24.0633C16.1375 24.3296 16.3585 24.5507 16.6246 24.7045C16.8907 24.8582 17.1927 24.9392 17.5 24.9392C17.8074 24.9392 18.1093 24.8582 18.3754 24.7045C18.6416 24.5507 18.8625 24.3296 19.016 24.0633C19.1696 23.7971 19.2503 23.4951 19.25 23.1877C19.2498 22.8804 19.1686 22.5785 19.0146 22.3125H19.6875C19.8035 22.3125 19.9148 22.2664 19.9969 22.1844C20.0789 22.1023 20.125 21.991 20.125 21.875V20.5071C20.4938 20.412 20.8216 20.1991 21.0584 19.9009C21.2953 19.6026 21.4284 19.2352 21.4375 18.8544C21.4466 18.4736 21.3312 18.1002 21.1089 17.791C20.8865 17.4817 20.5694 17.2534 20.2055 17.1408L21.8665 8.8358L22.5313 5.51102C22.7306 5.62682 22.957 5.68772 23.1875 5.6875H25.8125C26.1606 5.6875 26.4945 5.54922 26.7406 5.30308C26.9867 5.05693 27.125 4.72309 27.125 4.375C27.125 4.0269 26.9867 3.69306 26.7406 3.44692C26.4945 3.20078 26.1606 3.0625 25.8125 3.0625ZM6.12502 23.1875C6.12502 23.3606 6.0737 23.5297 5.97756 23.6736C5.88141 23.8175 5.74475 23.9297 5.58487 23.9959C5.42498 24.0621 5.24905 24.0794 5.07932 24.0457C4.90958 24.0119 4.75367 23.9286 4.6313 23.8062C4.50893 23.6838 4.42559 23.5279 4.39183 23.3582C4.35807 23.1885 4.3754 23.0125 4.44162 22.8527C4.50785 22.6928 4.62 22.5561 4.7639 22.46C4.90779 22.3638 5.07696 22.3125 5.25002 22.3125C5.482 22.3128 5.7044 22.4051 5.86843 22.5691C6.03247 22.7331 6.12474 22.9555 6.12502 23.1875ZM18.375 23.1875C18.375 23.3606 18.3237 23.5297 18.2276 23.6736C18.1314 23.8175 17.9948 23.9297 17.8349 23.9959C17.675 24.0621 17.499 24.0794 17.3293 24.0457C17.1596 24.0119 17.0037 23.9286 16.8813 23.8062C16.7589 23.6838 16.6756 23.5279 16.6418 23.3582C16.6081 23.1885 16.6254 23.0125 16.6916 22.8527C16.7578 22.6928 16.87 22.5561 17.0139 22.46C17.1578 22.3638 17.327 22.3125 17.5 22.3125C17.732 22.3128 17.9544 22.4051 18.1184 22.5691C18.2825 22.7331 18.3747 22.9555 18.375 23.1875ZM19.25 21.4375H3.50002V20.5625H19.25V21.4375ZM17.4295 9.1875L16.9045 12.6875H13.8037L13.9389 9.98468C14.2098 9.75205 14.448 9.4839 14.6471 9.1875H17.4295ZM9.86625 13.5625H12.8839L12.7089 17.0625H10.0412L9.86625 13.5625ZM9.16515 17.0625H6.50187L5.97687 13.5625H8.99015L9.16515 17.0625ZM9.82249 12.6875L9.71662 10.5699C10.236 10.812 10.8021 10.9375 11.3751 10.9375C11.9481 10.9375 12.5142 10.812 13.0335 10.5699L12.9276 12.6875H9.82249ZM13.76 13.5625H16.7733L16.2483 17.0625H13.585L13.76 13.5625ZM11.375 3.9375C11.9807 3.9375 12.5728 4.11711 13.0765 4.45362C13.5801 4.79013 13.9726 5.26843 14.2044 5.82803C14.4362 6.38763 14.4968 7.0034 14.3787 7.59746C14.2605 8.19153 13.9688 8.73721 13.5405 9.16551C13.1122 9.59381 12.5665 9.88549 11.9725 10.0037C11.3784 10.1218 10.7626 10.0612 10.2031 9.82938C9.64345 9.59759 9.16515 9.20506 8.82864 8.70143C8.49213 8.19781 8.31252 7.6057 8.31252 7C8.31343 6.18805 8.63638 5.40962 9.21051 4.83549C9.78464 4.26136 10.5631 3.93841 11.375 3.9375ZM8.81121 9.98468L8.94635 12.6875H5.84557L5.32057 9.1875H8.10296C8.30208 9.4839 8.54032 9.75205 8.81121 9.98468ZM4.43578 9.1875L4.96078 12.6875H2.54622L1.84622 9.1875H4.43578ZM2.72122 13.5625H5.09203L5.61703 17.0625H3.42122L2.72122 13.5625ZM19.3288 17.0625H17.133L17.658 13.5625H20.0288L19.3288 17.0625ZM20.2038 12.6875H17.7893L18.3143 9.1875H20.9038L20.2038 12.6875ZM25.8125 4.8125H23.1875C23.0715 4.8125 22.9602 4.7664 22.8782 4.68436C22.7961 4.60231 22.75 4.49103 22.75 4.375C22.75 4.25897 22.7961 4.14769 22.8782 4.06564C22.9602 3.98359 23.0715 3.9375 23.1875 3.9375H25.8125C25.9285 3.9375 26.0398 3.98359 26.1219 4.06564C26.2039 4.14769 26.25 4.25897 26.25 4.375C26.25 4.49103 26.2039 4.60231 26.1219 4.68436C26.0398 4.7664 25.9285 4.8125 25.8125 4.8125Z" fill="white"/>
<path d="M10.2453 8.62186C10.286 8.66249 10.3342 8.69471 10.3873 8.7167C10.4404 8.73868 10.4972 8.75 10.5547 8.74999C10.5613 8.74999 10.5679 8.74999 10.5745 8.74956C10.6352 8.7468 10.6947 8.73142 10.7492 8.70439C10.8037 8.67735 10.8519 8.63926 10.8908 8.59255L13.0783 5.96755C13.1518 5.87832 13.187 5.76362 13.1762 5.64852C13.1654 5.53343 13.1095 5.42728 13.0207 5.35328C12.9319 5.27928 12.8174 5.24343 12.7022 5.25358C12.5871 5.26373 12.4806 5.31904 12.4061 5.40744L10.5253 7.66434L9.98907 7.12813C9.90702 7.04608 9.79573 6.99998 9.6797 6.99998C9.56366 6.99998 9.45238 7.04608 9.37033 7.12813C9.28828 7.21018 9.24219 7.32146 9.24219 7.43749C9.24219 7.55353 9.28828 7.66481 9.37033 7.74686L10.2453 8.62186Z" fill="white"/>
</svg>
