<svg width="17" height="16" viewBox="0 0 17 16" fill="none" xmlns="http://www.w3.org/2000/svg">
<g clip-path="url(#clip0_268_13870)">
<path d="M12.2321 0.666626H4.16569C3.27462 0.667685 2.42036 1.01921 1.79028 1.64411C1.1602 2.269 0.805755 3.11623 0.804688 3.99996V9.3333C0.805665 10.1014 1.07363 10.8458 1.56341 11.4408C2.0532 12.0358 2.73485 12.4452 3.49349 12.6V14.6666C3.49347 14.7873 3.52649 14.9058 3.58902 15.0093C3.65156 15.1129 3.74126 15.1976 3.84857 15.2546C3.95587 15.3115 4.07675 15.3385 4.1983 15.3326C4.31985 15.3268 4.43752 15.2883 4.53876 15.2213L8.40055 12.6666H12.2321C13.1231 12.6656 13.9774 12.314 14.6075 11.6892C15.2376 11.0643 15.592 10.217 15.5931 9.3333V3.99996C15.592 3.11623 15.2376 2.269 14.6075 1.64411C13.9774 1.01921 13.1231 0.667685 12.2321 0.666626ZM10.8877 8.66663H5.51009C5.33181 8.66663 5.16083 8.5964 5.03477 8.47137C4.90871 8.34635 4.83789 8.17678 4.83789 7.99997C4.83789 7.82315 4.90871 7.65359 5.03477 7.52856C5.16083 7.40354 5.33181 7.3333 5.51009 7.3333H10.8877C11.066 7.3333 11.2369 7.40354 11.363 7.52856C11.4891 7.65359 11.5599 7.82315 11.5599 7.99997C11.5599 8.17678 11.4891 8.34635 11.363 8.47137C11.2369 8.5964 11.066 8.66663 10.8877 8.66663ZM12.2321 5.99996H4.16569C3.98741 5.99996 3.81643 5.92973 3.69037 5.8047C3.56431 5.67968 3.49349 5.51011 3.49349 5.3333C3.49349 5.15649 3.56431 4.98692 3.69037 4.86189C3.81643 4.73687 3.98741 4.66663 4.16569 4.66663H12.2321C12.4104 4.66663 12.5813 4.73687 12.7074 4.86189C12.8335 4.98692 12.9043 5.15649 12.9043 5.3333C12.9043 5.51011 12.8335 5.67968 12.7074 5.8047C12.5813 5.92973 12.4104 5.99996 12.2321 5.99996Z" fill="#00B3F8" fill-opacity="0.5"/>
</g>
<defs>
<clipPath id="clip0_268_13870">
<rect width="16.1328" height="16" fill="white" transform="translate(0.132812)"/>
</clipPath>
</defs>
</svg>
