<svg width="86" height="86" viewBox="0 0 86 86" fill="none" xmlns="http://www.w3.org/2000/svg">
<path d="M83.5393 11.757C82.2742 10.4897 80.2214 10.4875 78.9563 11.7516L40.0727 50.5326L26.0436 35.2956C24.8314 33.9798 22.7818 33.8944 21.4638 35.1065C20.1467 36.3187 20.0624 38.3693 21.2747 39.6863L37.5888 57.4038C38.1863 58.0532 39.0224 58.4303 39.9041 58.4486C39.9277 58.4496 39.9506 58.4496 39.9733 58.4496C40.8301 58.4496 41.6543 58.1093 42.2615 57.5043L83.5329 16.341C84.8013 15.077 84.8035 13.0243 83.5393 11.757Z" fill="#FF630B"/>
<path d="M82.7587 39.7587C80.9685 39.7587 79.5176 41.2096 79.5176 43C79.5176 63.1366 63.1366 79.5176 43 79.5176C22.8646 79.5176 6.48242 63.1366 6.48242 43C6.48242 22.8646 22.8646 6.48242 43 6.48242C44.7902 6.48242 46.2413 5.0315 46.2413 3.24129C46.2413 1.45091 44.7902 0 43 0C19.2895 0 0 19.2895 0 43C0 66.7095 19.2895 86 43 86C66.7095 86 86 66.7095 86 43C86 41.2098 84.5491 39.7587 82.7587 39.7587Z" fill="#FF630B"/>
</svg>
