<svg width="68" height="68" viewBox="0 0 68 68" fill="none" xmlns="http://www.w3.org/2000/svg">
<g clip-path="url(#clip0_199_3765)">
<path d="M30.5999 68C31.2258 68 31.7332 67.4926 31.7332 66.8667V12.4666C31.7332 11.8407 31.2258 11.3333 30.5999 11.3333C29.974 11.3333 29.4666 11.8407 29.4666 12.4666V47.5309C27.6532 47.6997 24.5445 47.6555 22.8388 46.2275C21.9343 45.4353 21.4514 44.2663 21.5332 43.0667C21.5332 42.4407 21.0258 41.9333 20.3999 41.9333C19.774 41.9333 19.2666 42.4407 19.2666 43.0667C19.1779 44.9387 19.9594 46.7467 21.3836 47.9649C23.3052 49.3231 25.6288 49.9931 27.9785 49.8667C28.5361 49.8667 29.0404 49.8395 29.4666 49.8055V66.8667C29.4666 67.4926 29.974 68 30.5999 68Z" fill="#00B3F8"/>
<path d="M5.66654 11.3333C5.04061 11.3333 4.5332 11.8407 4.5332 12.4666V66.8667C4.5332 67.4926 5.04061 68 5.66654 68C6.29246 68 6.79987 67.4926 6.79987 66.8667V49.8055C7.226 49.8395 7.73034 49.8667 8.2868 49.8667C10.6368 49.9928 12.9607 49.3228 14.8828 47.9649C16.3071 46.7467 17.0885 44.9387 16.9999 43.0667C16.9999 42.4407 16.4925 41.9333 15.8665 41.9333C15.2406 41.9333 14.7332 42.4407 14.7332 43.0667C14.8148 44.2645 14.3333 45.432 13.431 46.2241C11.6154 47.7473 8.38654 47.6748 6.79987 47.5297V12.4666C6.79987 11.8407 6.29246 11.3333 5.66654 11.3333Z" fill="#00B3F8"/>
<path d="M9.29904 29.3284C9.67614 30.1082 10.4671 30.6027 11.3334 30.6H13.6V36.2667C13.6 37.5185 14.6149 38.5333 15.8667 38.5333H20.4C21.6519 38.5333 22.6667 37.5185 22.6667 36.2667V30.6H24.9334C25.8088 30.5999 26.6059 30.0958 26.9811 29.3049C27.3563 28.514 27.2426 27.5777 26.6889 26.8997L19.9252 19.0083C19.4963 18.4541 18.8341 18.1308 18.1334 18.1333C17.4515 18.1274 16.8045 18.4344 16.3778 18.9663L9.54611 26.9416C9.0117 27.6235 8.91565 28.5515 9.29904 29.3284ZM18.1674 20.4419L24.939 28.3333H21.5334C20.9075 28.3333 20.4 28.8407 20.4 29.4667V36.2667H15.8667V29.4667C15.8667 28.8407 15.3593 28.3333 14.7334 28.3333L11.3016 28.3753L18.1674 20.4419Z" fill="#00B3F8"/>
<path d="M62.3333 11.3333C61.7074 11.3333 61.2 11.8407 61.2 12.4666V47.5309C59.3866 47.6997 56.2779 47.6555 54.5722 46.2275C53.6677 45.4353 53.1848 44.2663 53.2666 43.0667C53.2666 42.4407 52.7592 41.9333 52.1333 41.9333C51.5074 41.9333 51 42.4407 51 43.0667C50.9113 44.9387 51.6928 46.7467 53.117 47.9649C55.0386 49.3231 57.3622 49.9931 59.7119 49.8667C60.2695 49.8667 60.7739 49.8395 61.2 49.8055V66.8667C61.2 67.4926 61.7074 68 62.3333 68C62.9592 68 63.4667 67.4926 63.4667 66.8667V12.4666C63.4667 11.8407 62.9592 11.3333 62.3333 11.3333Z" fill="#00B3F8"/>
<path d="M37.3999 11.3333C36.774 11.3333 36.2666 11.8407 36.2666 12.4666V66.8667C36.2666 67.4926 36.774 68 37.3999 68C38.0259 68 38.5333 67.4926 38.5333 66.8667V49.8055C38.9594 49.8395 39.4637 49.8667 40.0202 49.8667C42.3702 49.9928 44.6941 49.3228 46.6162 47.9649C48.0405 46.7467 48.8219 44.9387 48.7333 43.0667C48.7333 42.4407 48.2259 41.9333 47.6 41.9333C46.974 41.9333 46.4666 42.4407 46.4666 43.0667C46.5482 44.2645 46.0667 45.432 45.1644 46.2241C43.3511 47.7473 40.1199 47.6748 38.5333 47.5297V12.4666C38.5333 11.8407 38.0259 11.3333 37.3999 11.3333Z" fill="#00B3F8"/>
<path d="M41.0324 29.3284C41.4095 30.1082 42.2005 30.6027 43.0668 30.6H45.3334V36.2667C45.3334 37.5185 46.3483 38.5333 47.6001 38.5333H52.1334C53.3853 38.5333 54.4001 37.5185 54.4001 36.2667V30.6H56.6668C57.5422 30.5999 58.3393 30.0958 58.7145 29.3049C59.0897 28.514 58.976 27.5777 58.4223 26.8997L51.6586 19.0083C51.2297 18.4541 50.5675 18.1308 49.8668 18.1333C49.1849 18.1274 48.5379 18.4344 48.1112 18.9663L41.2795 26.9416C40.7451 27.6235 40.649 28.5515 41.0324 29.3284ZM49.9008 20.4419L56.6724 28.3333H53.2668C52.6408 28.3333 52.1334 28.8407 52.1334 29.4667V36.2667H47.6001V29.4667C47.6001 28.8407 47.0927 28.3333 46.4668 28.3333L43.035 28.3753L49.9008 20.4419Z" fill="#00B3F8"/>
<path d="M49.8666 49.8667C49.2407 49.8667 48.7333 50.3741 48.7333 51V61.8642L46.1345 59.2654C45.6898 58.8359 44.983 58.8421 44.5458 59.2792C44.1086 59.7164 44.1025 60.4233 44.532 60.868L49.0653 65.4013C49.3888 65.7242 49.8746 65.8212 50.2973 65.6472C50.4204 65.5917 50.5328 65.515 50.6293 65.4206C50.6395 65.4104 50.6543 65.407 50.6645 65.3968L55.1978 60.8634C55.6273 60.4187 55.6212 59.7119 55.184 59.2747C54.7468 58.8375 54.04 58.8314 53.5953 59.2609L50.9999 61.8642V51C50.9999 50.3741 50.4925 49.8667 49.8666 49.8667Z" fill="#00B3F8"/>
<path d="M15.0426 11.3333C15.3262 11.3333 15.5996 11.227 15.8087 11.0352L25.6993 1.96858C25.9977 1.69487 26.1274 1.28275 26.0396 0.887458C25.9518 0.492169 25.6597 0.173767 25.2735 0.0521911C24.8872 -0.0693848 24.4654 0.0243356 24.167 0.298049L15.0426 8.66318L12.0959 5.96472C11.6309 5.57484 10.9413 5.62037 10.5317 6.06801C10.122 6.51565 10.1376 7.20654 10.567 7.63525L14.2764 11.0352C14.4855 11.227 14.7589 11.3333 15.0426 11.3333Z" fill="#00B3F8"/>
<path d="M43.3574 12.0915C43.7762 12.5565 44.4925 12.594 44.9576 12.1754L49.8661 7.75765L54.7746 12.1777C55.2413 12.5815 55.9454 12.5376 56.3584 12.079C56.7714 11.6203 56.7414 10.9155 56.291 10.4935L51.5661 6.23332L56.2966 1.97539C56.5975 1.7035 56.7304 1.29176 56.6454 0.895281C56.5603 0.4988 56.2702 0.177806 55.8844 0.0532147C55.4985 -0.0713761 55.0754 0.0193645 54.7746 0.291256L49.8661 4.70899L44.9576 0.291256C44.4909 -0.112593 43.7868 -0.068718 43.3738 0.38995C42.9609 0.848619 42.9908 1.55342 43.4412 1.97539L48.1718 6.23332L43.4412 10.4913C42.9763 10.9101 42.9388 11.6264 43.3574 12.0915Z" fill="#00B3F8"/>
</g>
<defs>
<clipPath id="clip0_199_3765">
<rect width="68" height="68" fill="white"/>
</clipPath>
</defs>
</svg>
