<svg width="26" height="26" viewBox="0 0 26 26" fill="none" xmlns="http://www.w3.org/2000/svg">
<path d="M20.6143 3.40648H18.2621V2.3542C18.2621 2.01374 17.8908 1.85901 17.5503 1.85901H15.7243C15.291 0.621006 14.2077 0.00200396 12.9697 0.00200396C11.7454 -0.0440257 10.6317 0.706726 10.2152 1.85901H8.42009C8.07963 1.85901 7.73918 2.01374 7.73918 2.3542V3.40648H5.38693C3.993 3.42135 2.85263 4.52097 2.78711 5.91341V23.6478C2.78711 25.0096 4.02511 26 5.38693 26H20.6143C21.9762 26 23.2142 25.0096 23.2142 23.6478V5.91347C23.1486 4.52097 22.0083 3.42135 20.6143 3.40648ZM8.97712 3.09701H10.6794C10.9765 3.06076 11.2152 2.8347 11.2675 2.53992C11.4508 1.74171 12.151 1.16874 12.9697 1.14718C13.7809 1.17176 14.4706 1.74651 14.641 2.53992C14.6965 2.84489 14.951 3.07385 15.26 3.09701H17.0242V5.57302H8.97712V3.09701ZM21.9762 23.6478C21.9762 24.3287 21.2952 24.762 20.6143 24.762H5.38693C4.70602 24.762 4.02511 24.3287 4.02511 23.6478V5.91347C4.08826 5.20472 4.67545 4.65752 5.38693 4.64455H7.73912V6.223C7.77182 6.56979 8.07217 6.82921 8.42003 6.81108H17.5503C17.9045 6.83045 18.2143 6.57459 18.2621 6.223V4.64449H20.6143C21.3257 4.65752 21.9129 5.20466 21.9761 5.91341V23.6478H21.9762Z" fill="#00B3F8"/>
<path d="M10.6182 13.8367C10.386 13.592 10.0006 13.5782 9.75157 13.8058L7.77075 15.6937L6.93511 14.8271C6.70294 14.5823 6.31753 14.5686 6.06848 14.7961C5.82874 15.0473 5.82874 15.4425 6.06848 15.6937L7.33741 16.9936C7.44724 17.1166 7.60589 17.1846 7.77069 17.1793C7.93396 17.177 8.0897 17.1102 8.20398 16.9936L10.6181 14.7033C10.8574 14.4838 10.8734 14.1117 10.6538 13.8725C10.6425 13.86 10.6306 13.8481 10.6182 13.8367Z" fill="#00B3F8"/>
<path d="M19.4992 15.1675H12.3807C12.0388 15.1675 11.7617 15.4446 11.7617 15.7865C11.7617 16.1284 12.0388 16.4055 12.3807 16.4055H19.4992C19.8411 16.4055 20.1182 16.1284 20.1182 15.7865C20.1182 15.4446 19.8411 15.1675 19.4992 15.1675Z" fill="#00B3F8"/>
<path d="M10.6182 8.88466C10.386 8.63994 10.0006 8.62614 9.75157 8.85374L7.77075 10.7417L6.93511 9.87504C6.70294 9.63032 6.31753 9.61652 6.06848 9.84412C5.82874 10.0953 5.82874 10.4905 6.06848 10.7417L7.33741 12.0416C7.44724 12.1646 7.60589 12.2326 7.77069 12.2273C7.93396 12.225 8.0897 12.1582 8.20398 12.0416L10.6181 9.75129C10.8574 9.53175 10.8734 9.15971 10.6538 8.92044C10.6425 8.90794 10.6306 8.89604 10.6182 8.88466Z" fill="#00B3F8"/>
<path d="M19.4992 10.2155H12.3807C12.0388 10.2155 11.7617 10.4926 11.7617 10.8345C11.7617 11.1763 12.0388 11.4535 12.3807 11.4535H19.4992C19.8411 11.4535 20.1182 11.1763 20.1182 10.8345C20.1182 10.4926 19.8411 10.2155 19.4992 10.2155Z" fill="#00B3F8"/>
<path d="M10.6182 18.7886C10.386 18.5439 10.0006 18.5301 9.75157 18.7577L7.77075 20.6456L6.93511 19.779C6.70294 19.5343 6.31753 19.5205 6.06848 19.7481C5.82874 19.9992 5.82874 20.3944 6.06848 20.6456L7.33741 21.9455C7.44724 22.0685 7.60589 22.1365 7.77069 22.1312C7.93396 22.1289 8.0897 22.0622 8.20398 21.9455L10.6181 19.6552C10.8574 19.4357 10.8734 19.0637 10.6538 18.8244C10.6425 18.8119 10.6306 18.8 10.6182 18.7886Z" fill="#00B3F8"/>
<path d="M19.4992 20.1195H12.3807C12.0388 20.1195 11.7617 20.3966 11.7617 20.7385C11.7617 21.0804 12.0388 21.3575 12.3807 21.3575H19.4992C19.8411 21.3575 20.1182 21.0804 20.1182 20.7385C20.1182 20.3966 19.8411 20.1195 19.4992 20.1195Z" fill="#00B3F8"/>
</svg>
