<svg width="14" height="14" viewBox="0 0 14 14" fill="none" xmlns="http://www.w3.org/2000/svg">
<g clip-path="url(#clip0_270_20522)">
<path d="M0.723808 14C0.539394 14 0.354979 13.9299 0.214867 13.7887C-0.0664139 13.5074 -0.0664139 13.0514 0.214867 12.7701L12.774 0.21096C13.0553 -0.0703201 13.5113 -0.0703201 13.7926 0.21096C14.0739 0.492241 14.0739 0.948267 13.7926 1.22972L1.23363 13.7887C1.09246 13.929 0.908047 14 0.723808 14Z" fill="#00B3F8" fill-opacity="0.5"/>
<path d="M13.2839 14C13.0994 14 12.9152 13.9299 12.7749 13.7887L0.214867 1.22972C-0.0664139 0.948267 -0.0664139 0.492241 0.214867 0.21096C0.496147 -0.0703201 0.952173 -0.0703201 1.23363 0.21096L13.7926 12.7701C14.0739 13.0514 14.0739 13.5074 13.7926 13.7887C13.6515 13.929 13.4672 14 13.2839 14Z" fill="#00B3F8" fill-opacity="0.5"/>
</g>
<defs>
<clipPath id="clip0_270_20522">
<rect width="14" height="14" fill="white"/>
</clipPath>
</defs>
</svg>
