<svg width="18" height="18" viewBox="0 0 18 18" fill="none" xmlns="http://www.w3.org/2000/svg">
<g clip-path="url(#clip0_258_8134)">
<path d="M11.4821 6.52142C11.2493 6.52142 11.0605 6.71013 11.0605 6.94297V14.9102C11.0605 15.1429 11.2493 15.3317 11.4821 15.3317C11.7149 15.3317 11.9036 15.1429 11.9036 14.9102V6.94297C11.9036 6.71013 11.7149 6.52142 11.4821 6.52142Z" fill="#FA2F2F"/>
<path d="M6.50944 6.52142C6.2766 6.52142 6.08789 6.71013 6.08789 6.94297V14.9102C6.08789 15.1429 6.2766 15.3317 6.50944 15.3317C6.74227 15.3317 6.93098 15.1429 6.93098 14.9102V6.94297C6.93098 6.71013 6.74227 6.52142 6.50944 6.52142Z" fill="#FA2F2F"/>
<path d="M2.8828 5.35871V15.7447C2.8828 16.3585 3.1079 16.935 3.50112 17.3487C3.89253 17.7635 4.43725 17.9989 5.00732 17.9999H12.9831C13.5533 17.9989 14.098 17.7635 14.4893 17.3487C14.8825 16.935 15.1076 16.3585 15.1076 15.7447V5.35871C15.8893 5.15123 16.3958 4.39607 16.2912 3.59399C16.1865 2.79207 15.5033 2.19219 14.6944 2.19202H12.5362V1.66509C12.5386 1.22198 12.3634 0.796482 12.0497 0.483453C11.7361 0.170588 11.3099 -0.00362829 10.8668 -5.6477e-06H7.1236C6.68049 -0.00362829 6.25433 0.170588 5.94065 0.483453C5.62696 0.796482 5.45175 1.22198 5.45422 1.66509V2.19202H3.29595C2.48711 2.19219 1.80391 2.79207 1.69918 3.59399C1.59462 4.39607 2.10113 5.15123 2.8828 5.35871ZM12.9831 17.1568H5.00732C4.28658 17.1568 3.72589 16.5377 3.72589 15.7447V5.39576H14.2645V15.7447C14.2645 16.5377 13.7038 17.1568 12.9831 17.1568ZM6.29731 1.66509C6.29451 1.44559 6.3808 1.23433 6.53657 1.07938C6.69218 0.924428 6.90394 0.839295 7.1236 0.843083H10.8668C11.0865 0.839295 11.2982 0.924428 11.4538 1.07938C11.6096 1.23416 11.6959 1.44559 11.6931 1.66509V2.19202H6.29731V1.66509ZM3.29595 3.03511H14.6944C15.1135 3.03511 15.4532 3.37482 15.4532 3.79389C15.4532 4.21297 15.1135 4.55267 14.6944 4.55267H3.29595C2.87687 4.55267 2.53717 4.21297 2.53717 3.79389C2.53717 3.37482 2.87687 3.03511 3.29595 3.03511Z" fill="#FA2F2F"/>
<path d="M8.99576 6.52142C8.76293 6.52142 8.57422 6.71013 8.57422 6.94297V14.9102C8.57422 15.1429 8.76293 15.3317 8.99576 15.3317C9.2286 15.3317 9.41731 15.1429 9.41731 14.9102V6.94297C9.41731 6.71013 9.2286 6.52142 8.99576 6.52142Z" fill="#FA2F2F"/>
</g>
<defs>
<clipPath id="clip0_258_8134">
<rect width="18" height="18" fill="white"/>
</clipPath>
</defs>
</svg>
