<svg width="26" height="26" viewBox="0 0 26 26" fill="none" xmlns="http://www.w3.org/2000/svg">
<g clip-path="url(#clip0_229_2069)">
<path d="M22.4612 1.17214C22.2664 1.09002 22.042 1.18126 21.9599 1.37546C21.8772 1.57026 21.9684 1.79461 22.1628 1.87673C23.9323 2.62357 25.2436 4.39219 25.2436 6.52758C25.2436 11.1546 19.4821 13.3596 16.4142 9.87359C14.6798 7.91891 14.6996 4.88294 16.6247 2.95781C17.7623 1.8196 19.3006 1.33718 20.7931 1.51412C21.0028 1.53812 21.193 1.38935 21.218 1.17928C21.243 0.96961 21.0931 0.779379 20.8834 0.754385C15.8725 0.158895 12.5594 5.80375 15.4397 9.87359C15.1328 9.87359 7.75961 9.87359 7.42458 9.87359C7.06712 9.87359 6.77712 10.1642 6.77712 10.521V15.469L6.05864 16.881C5.92256 17.1488 5.69563 17.3485 5.42645 17.4507C5.42645 16.8606 4.96367 16.4511 4.44634 16.4511H2.9711C2.4623 16.4511 1.99059 16.8459 1.99059 17.4705H1.04221C0.467545 17.4705 0 17.9381 0 18.5131V18.9763C0 19.1874 0.170792 19.3586 0.382446 19.3586C0.593506 19.3586 0.764893 19.1874 0.764893 18.9763V18.5131C0.764893 18.3598 0.889267 18.2354 1.04221 18.2354H1.99059V23.5296H1.04221C0.889267 23.5296 0.764893 23.4052 0.764893 23.2523V20.5059C0.764893 20.2943 0.593506 20.1235 0.382446 20.1235C0.170792 20.1235 0 20.2943 0 20.5059V23.2523C0 23.8269 0.467545 24.2945 1.04221 24.2945H1.99059C1.99059 24.9195 2.46309 25.3143 2.9711 25.3143H4.44634C4.89563 25.3143 5.2749 25.0104 5.39015 24.5974C5.86047 24.7231 4.56496 24.6733 21.683 24.6733C22.0772 24.6733 22.3979 24.3526 22.3979 23.9584V11.9106C27.1541 9.96404 27.2257 3.1899 22.4612 1.17214ZM4.66156 20.8604C4.66156 21.2672 4.66156 21.3999 4.66156 21.3966V24.3337C4.66156 24.4506 4.56317 24.5496 4.44634 24.5496H2.9711C2.85446 24.5496 2.75548 24.4506 2.75548 24.3337C2.75548 24.0078 2.75548 17.7532 2.75548 17.4319C2.75548 17.3144 2.85446 17.216 2.9711 17.216H4.44634C4.56317 17.216 4.66156 17.3144 4.66156 17.4319V20.8604ZM11.6499 10.6383H14.5663V13.6391L13.4326 12.7522C13.2416 12.6029 12.973 12.6037 12.7834 12.7522L11.6499 13.6391V10.6383ZM11.5621 23.9065C5.49013 23.9087 5.78569 23.9467 5.42645 23.8055V18.2475C5.9912 18.123 6.45914 17.7784 6.77712 17.1553C6.86162 16.9893 7.49182 15.7509 7.64496 15.4502C7.77171 15.1969 8.48781 15.8372 8.15019 16.5001L7.78104 17.2258C7.53229 17.7149 7.88696 18.2936 8.43584 18.2936L13.2267 18.292C13.4638 18.292 13.6663 18.4864 13.6637 18.7127C13.6611 18.9372 13.4759 19.1207 13.2505 19.1219H10.261C10.0497 19.1219 9.87854 19.2931 9.87854 19.5044C9.87854 19.7156 10.0497 19.8868 10.261 19.8868C10.263 19.8868 14.724 19.8864 14.725 19.8864C14.9176 19.8864 15.1185 20.0634 15.1497 20.2351C15.2052 20.5125 15.0426 20.7156 14.7561 20.7156C14.7549 20.7156 14.163 20.716 10.2289 20.716C10.0176 20.716 9.84641 20.8872 9.84641 21.0984C9.84641 21.3095 10.0176 21.4807 10.2289 21.4807C10.231 21.4807 14.0614 21.4807 14.0636 21.4809C14.4308 21.4944 14.5931 21.9381 14.3405 22.189C14.2624 22.2676 14.1584 22.3104 14.0478 22.3104C11.1161 22.3122 11.9294 22.312 9.86148 22.312C9.65022 22.312 9.47904 22.4832 9.47904 22.6945C9.47904 22.9057 9.65022 23.0769 9.86148 23.0769C11.6827 23.0769 11.6928 23.0362 11.8556 23.1981C12.1147 23.458 11.9306 23.9065 11.5621 23.9065ZM21.633 23.9085H19.4395V16.5557C19.4395 16.3446 19.2681 16.1732 19.0571 16.1732C18.8454 16.1732 18.6746 16.3446 18.6746 16.5557V23.9085H12.664C12.7699 23.6305 12.7683 23.3384 12.6689 23.0763L14.0478 23.0753C14.897 23.0753 15.4671 22.2039 15.1292 21.4253C15.9792 21.1623 16.1859 20.102 15.5718 19.4855C15.1588 19.0725 14.7468 19.1215 14.3526 19.1215C14.6482 18.3429 14.0517 17.5271 13.2267 17.5271L8.48523 17.5287L8.83197 16.8475C9.41358 15.7037 8.40866 14.4425 7.54201 14.6486V10.6383H10.885V14.1275C10.885 14.4181 11.1217 14.6546 11.4125 14.6546C11.6481 14.6546 11.6003 14.6488 13.1081 13.4695C14.5952 14.6329 14.5627 14.6546 14.8035 14.6546C15.0945 14.6546 15.3312 14.4181 15.3312 14.1275V10.6383H16.0848C16.8145 11.3681 17.7042 11.88 18.6746 12.1405V15.0261C18.6746 15.2372 18.8454 15.4085 19.0571 15.4085C19.2681 15.4085 19.4395 15.2372 19.4395 15.0261V12.2924C20.1673 12.3867 20.9175 12.3438 21.633 12.1625V23.9085Z" fill="#00B3F8"/>
<path d="M17.6706 6.45815C17.5306 6.29985 17.2888 6.28537 17.1309 6.42542C16.9726 6.56546 16.9581 6.80707 17.0982 6.96517L18.6385 8.70423C18.9352 9.03907 19.4575 9.03847 19.7539 8.70581L23.2911 4.73595C23.4317 4.57845 23.4177 4.33664 23.26 4.1962C23.1023 4.05576 22.8607 4.06944 22.72 4.22714L19.1969 8.18094L17.6706 6.45815Z" fill="#00B3F8"/>
</g>
<defs>
<clipPath id="clip0_229_2069">
<rect width="26" height="26" fill="white"/>
</clipPath>
</defs>
</svg>
