<svg width="26" height="26" viewBox="0 0 26 26" fill="none" xmlns="http://www.w3.org/2000/svg">
<g clip-path="url(#clip0_263_10914)">
<path d="M24.2705 13.3368C24.1659 13.1227 24.1659 12.8772 24.2705 12.6633L25.2402 10.6795C25.7801 9.57496 25.3523 8.25846 24.2663 7.68225L22.3158 6.64734C22.1054 6.53572 21.9611 6.33706 21.92 6.10251L21.5385 3.92761C21.3261 2.71669 20.2059 1.90297 18.9889 2.07517L16.8026 2.38442C16.5666 2.41774 16.3333 2.34187 16.1621 2.17627L14.5752 0.641063C13.6915 -0.213784 12.3072 -0.213835 11.4236 0.641063L9.83663 2.17643C9.6654 2.34207 9.43206 2.41779 9.19613 2.38458L7.00986 2.07532C5.79239 1.90302 4.67267 2.71684 4.46025 3.92776L4.07879 6.10256C4.0376 6.33717 3.89333 6.53577 3.68295 6.64744L1.73245 7.68235C0.646453 8.25852 0.218674 9.57511 0.758577 10.6797L1.72824 12.6634C1.83285 12.8774 1.83285 13.1229 1.72824 13.3369L0.758526 15.3206C0.218623 16.4251 0.646402 17.7416 1.7324 18.3178L3.6829 19.3527C3.89333 19.4644 4.0376 19.663 4.07879 19.8976L4.46025 22.0725C4.65363 23.1748 5.59886 23.9479 6.68522 23.9478C6.79221 23.9478 6.90078 23.9403 7.00991 23.9249L9.19618 23.6156C9.43196 23.5821 9.66545 23.6582 9.83668 23.8237L11.4236 25.359C11.8655 25.7864 12.4324 26.0001 12.9994 26.0001C13.5662 26 14.1334 25.7863 14.5751 25.359L16.1621 23.8237C16.3333 23.6582 16.5667 23.5825 16.8026 23.6156L18.9889 23.9249C20.2065 24.0971 21.3261 23.2833 21.5385 22.0724L21.92 19.8976C21.9612 19.663 22.1055 19.4644 22.3158 19.3527L24.2663 18.3178C25.3523 17.7417 25.7801 16.4251 25.2402 15.3205L24.2705 13.3368ZM23.5635 16.9931L21.613 18.028C20.9911 18.358 20.5646 18.945 20.443 19.6384L20.0615 21.8133C19.9897 22.223 19.6109 22.4982 19.1989 22.44L17.0126 22.1308C16.3154 22.032 15.6255 22.2564 15.1195 22.7459L13.5325 24.281C13.2336 24.5702 12.7652 24.5702 12.4662 24.281L10.8793 22.7458C10.4516 22.3321 9.89249 22.1079 9.30882 22.1079C9.20187 22.1079 9.09406 22.1154 8.9861 22.1307L6.79983 22.44C6.3882 22.4982 6.00912 22.2229 5.93722 21.8132L5.5557 19.6383C5.43403 18.9449 5.00757 18.3579 4.38566 18.028L2.43516 16.993C2.06771 16.7981 1.92298 16.3527 2.10564 15.979L3.07536 13.9952C3.38451 13.3627 3.38451 12.6373 3.07536 12.0047L2.10564 10.021C1.92298 9.64727 2.06771 9.20187 2.43516 9.00693L4.38566 7.97201C5.00752 7.64198 5.43403 7.05506 5.55565 6.36159L5.93711 4.18674C6.00902 3.77704 6.38774 3.50181 6.79973 3.56L8.986 3.86926C9.68297 3.96793 10.3731 3.74363 10.8792 3.25415L12.4662 1.71894C12.7651 1.42979 13.2334 1.42979 13.5324 1.71894L15.1194 3.25415C15.6254 3.74368 16.3155 3.96793 17.0125 3.86926L19.1988 3.56C19.6105 3.50176 19.9896 3.77704 20.0614 4.18674L20.4429 6.36164C20.5646 7.05511 20.991 7.64209 21.6129 7.97201L23.5634 9.00693C23.9309 9.20187 24.0756 9.64727 23.8929 10.021L22.9232 12.0047C22.6141 12.6372 22.6141 13.3627 22.9232 13.9952L23.8929 15.9789C24.0757 16.3527 23.9309 16.7982 23.5635 16.9931Z" fill="#00B3F8"/>
<path d="M18.4794 7.52148C18.1866 7.22868 17.7118 7.22868 17.419 7.52148L7.52234 17.4182C7.22953 17.711 7.22953 18.1857 7.52234 18.4785C7.66874 18.6249 7.86064 18.6982 8.05249 18.6982C8.24434 18.6982 8.43629 18.625 8.58264 18.4785L18.4793 8.58189C18.7722 8.28904 18.7722 7.81434 18.4794 7.52148Z" fill="#00B3F8"/>
<path d="M10.0012 6.25195C8.48527 6.25195 7.25195 7.48527 7.25195 9.00118C7.25195 10.5171 8.48527 11.7504 10.0012 11.7504C11.5171 11.7504 12.7504 10.5171 12.7504 9.00118C12.7504 7.48527 11.5171 6.25195 10.0012 6.25195ZM10.0012 10.2508C9.31214 10.2508 8.75157 9.69023 8.75157 9.00113C8.75157 8.31209 9.31214 7.75151 10.0012 7.75151C10.6902 7.75151 11.2509 8.31209 11.2509 9.00113C11.2508 9.69023 10.6902 10.2508 10.0012 10.2508Z" fill="#00B3F8"/>
<path d="M15.9992 14.2496C14.4833 14.2496 13.25 15.483 13.25 16.9989C13.25 18.5148 14.4833 19.7481 15.9992 19.7481C17.5151 19.7481 18.7485 18.5148 18.7485 16.9989C18.7485 15.483 17.5151 14.2496 15.9992 14.2496ZM15.9992 18.2485C15.3102 18.2485 14.7496 17.6879 14.7496 16.9989C14.7496 16.3098 15.3101 15.7492 15.9992 15.7492C16.6883 15.7492 17.2488 16.3098 17.2488 16.9989C17.2488 17.6879 16.6883 18.2485 15.9992 18.2485Z" fill="#00B3F8"/>
</g>
<defs>
<clipPath id="clip0_263_10914">
<rect width="26" height="26" fill="white"/>
</clipPath>
</defs>
</svg>
