<svg width="16" height="16" viewBox="0 0 16 16" fill="none" xmlns="http://www.w3.org/2000/svg">
<g clip-path="url(#clip0_263_10996)">
<path d="M14.5271 2.25937H1.47294C0.649906 2.25937 0 2.92781 0 3.73231V12.2677C0 13.0907 0.668437 13.7406 1.47294 13.7406H14.5271C15.3501 13.7406 16 13.0722 16 12.2677V3.73231C16 2.90924 15.3316 2.25937 14.5271 2.25937ZM15.0625 12.2677C15.0625 12.5632 14.8232 12.8031 14.5271 12.8031H1.47294C1.17744 12.8031 0.9375 12.5638 0.9375 12.2677V3.73231C0.9375 3.43681 1.17681 3.19687 1.47294 3.19687H14.5271C14.8226 3.19687 15.0625 3.43618 15.0625 3.73231V12.2677Z" fill="#00B3F8" fill-opacity="0.5"/>
<path d="M6.27249 9.14697C6.54487 8.842 6.71083 8.44009 6.71083 8C6.71083 7.04941 5.93746 6.27603 4.98686 6.27603C4.03627 6.27603 3.26292 7.04941 3.26292 8C3.26292 8.44009 3.42889 8.842 3.70124 9.14694C2.98739 9.58213 2.50977 10.3681 2.50977 11.2635C2.50977 11.5224 2.71964 11.7323 2.97852 11.7323H6.99518C7.25405 11.7323 7.46393 11.5224 7.46393 11.2635C7.46393 10.3681 6.9863 9.58216 6.27249 9.14697ZM4.98686 7.21353C5.42052 7.21353 5.77333 7.56634 5.77333 8C5.77333 8.43366 5.42052 8.78647 4.98686 8.78647C4.55321 8.78647 4.20042 8.43366 4.20042 8C4.20042 7.56634 4.55321 7.21353 4.98686 7.21353ZM3.5202 10.7948C3.71896 10.1744 4.3013 9.72397 4.98686 9.72397C5.67243 9.72397 6.25474 10.1743 6.45352 10.7948H3.5202Z" fill="#00B3F8" fill-opacity="0.5"/>
<path d="M13.0205 6.77811H9.50586C9.24698 6.77811 9.03711 6.98798 9.03711 7.24686C9.03711 7.50573 9.24698 7.71561 9.50586 7.71561H13.0205C13.2793 7.71561 13.4892 7.50573 13.4892 7.24686C13.4892 6.98798 13.2793 6.77811 13.0205 6.77811Z" fill="#00B3F8" fill-opacity="0.5"/>
<path d="M13.0202 4.26767H2.97852C2.71964 4.26767 2.50977 4.47754 2.50977 4.73642C2.50977 4.99529 2.71964 5.20517 2.97852 5.20517H13.0202C13.2791 5.20517 13.4889 4.99529 13.4889 4.73642C13.4889 4.47754 13.2791 4.26767 13.0202 4.26767Z" fill="#00B3F8" fill-opacity="0.5"/>
<path d="M13.0205 8.78647H9.50586C9.24698 8.78647 9.03711 8.99634 9.03711 9.25522C9.03711 9.51409 9.24698 9.72397 9.50586 9.72397H13.0205C13.2793 9.72397 13.4892 9.51409 13.4892 9.25522C13.4892 8.99634 13.2793 8.78647 13.0205 8.78647Z" fill="#00B3F8" fill-opacity="0.5"/>
<path d="M12.0163 10.7948H9.50586C9.24698 10.7948 9.03711 11.0047 9.03711 11.2636C9.03711 11.5225 9.24698 11.7323 9.50586 11.7323H12.0163C12.2751 11.7323 12.485 11.5225 12.485 11.2636C12.485 11.0047 12.2751 10.7948 12.0163 10.7948Z" fill="#00B3F8" fill-opacity="0.5"/>
</g>
<defs>
<clipPath id="clip0_263_10996">
<rect width="16" height="16" fill="white"/>
</clipPath>
</defs>
</svg>
