<svg width="16" height="16" viewBox="0 0 16 16" fill="none" xmlns="http://www.w3.org/2000/svg">
<path d="M8.00001 15.5C6.51665 15.5 5.0666 15.0602 3.83323 14.236C2.59986 13.4119 1.63857 12.2406 1.07091 10.8701C0.50325 9.49969 0.354724 7.99169 0.644114 6.53683C0.933503 5.08197 1.64781 3.7456 2.6967 2.6967C3.7456 1.64781 5.08197 0.933503 6.53683 0.644114C7.99169 0.354724 9.49969 0.50325 10.8701 1.07091C12.2406 1.63857 13.4119 2.59986 14.236 3.83323C15.0602 5.0666 15.5 6.51665 15.5 8.00001C15.5 9.98914 14.7098 11.8968 13.3033 13.3033C11.8968 14.7098 9.98914 15.5 8.00001 15.5ZM8.00001 1.5C6.71443 1.5 5.45772 1.88122 4.3888 2.59545C3.31988 3.30968 2.48676 4.32484 1.99479 5.51257C1.50282 6.70029 1.3741 8.00722 1.6249 9.2681C1.8757 10.529 2.49477 11.6872 3.40381 12.5962C4.31285 13.5053 5.47104 14.1243 6.73192 14.3751C7.9928 14.6259 9.29973 14.4972 10.4875 14.0052C11.6752 13.5133 12.6903 12.6801 13.4046 11.6112C14.1188 10.5423 14.5 9.28559 14.5 8.00001C14.5 6.2761 13.8152 4.6228 12.5962 3.40381C11.3772 2.18482 9.72392 1.5 8.00001 1.5Z" fill="#FA2F2F"/>
<path d="M4.88937 7.22501C5.32016 7.22501 5.66937 6.87579 5.66937 6.44501C5.66937 6.01423 5.32016 5.66501 4.88937 5.66501C4.45859 5.66501 4.10938 6.01423 4.10938 6.44501C4.10938 6.87579 4.45859 7.22501 4.88937 7.22501Z" fill="#FA2F2F"/>
<path d="M11.1081 7.22501C11.5389 7.22501 11.8881 6.87579 11.8881 6.44501C11.8881 6.01423 11.5389 5.66501 11.1081 5.66501C10.6773 5.66501 10.3281 6.01423 10.3281 6.44501C10.3281 6.87579 10.6773 7.22501 11.1081 7.22501Z" fill="#FA2F2F"/>
<path d="M10.7504 11.22C10.6846 11.2204 10.6194 11.2078 10.5584 11.1829C10.4975 11.158 10.4421 11.1214 10.3954 11.075C9.75982 10.4406 8.89846 10.0842 8.0004 10.0842C7.10234 10.0842 6.24097 10.4406 5.6054 11.075C5.55891 11.1219 5.50361 11.1591 5.44268 11.1845C5.38175 11.2099 5.3164 11.2229 5.2504 11.2229C5.18439 11.2229 5.11904 11.2099 5.05811 11.1845C4.99718 11.1591 4.94188 11.1219 4.8954 11.075C4.80227 10.9813 4.75 10.8546 4.75 10.7225C4.75 10.5904 4.80227 10.4637 4.8954 10.37C5.72004 9.5487 6.83651 9.08755 8.0004 9.08755C9.16428 9.08755 10.2808 9.5487 11.1054 10.37C11.1985 10.4637 11.2508 10.5904 11.2508 10.7225C11.2508 10.8546 11.1985 10.9813 11.1054 11.075C11.0587 11.1214 11.0033 11.158 10.9423 11.1829C10.8814 11.2078 10.8162 11.2204 10.7504 11.22Z" fill="#FA2F2F"/>
</svg>
