<svg width="16" height="16" viewBox="0 0 16 16" fill="none" xmlns="http://www.w3.org/2000/svg">
<g clip-path="url(#clip0_262_10597)">
<path d="M9.33716 9.80293C8.93909 10.0683 8.47672 10.2086 8 10.2086C7.52331 10.2086 7.06094 10.0683 6.66288 9.80293L0.106531 5.43189C0.0701562 5.40764 0.0347187 5.38235 0 5.35635V12.5188C0 13.34 0.666406 13.9917 1.47291 13.9917H14.5271C15.3482 13.9917 16 13.3253 16 12.5188V5.35632C15.9652 5.38239 15.9297 5.40773 15.8932 5.43201L9.33716 9.80293Z" fill="#00B3F8" fill-opacity="0.5"/>
<path d="M0.626562 4.6518L7.18291 9.02287C7.43109 9.18834 7.71553 9.27106 7.99997 9.27106C8.28444 9.27106 8.56891 9.18831 8.81709 9.02287L15.3734 4.6518C15.7658 4.3904 16 3.9529 16 3.48071C16 2.6688 15.3395 2.0083 14.5276 2.0083H1.47241C0.660531 2.00833 0 2.66883 0 3.48149C0 3.9529 0.23425 4.3904 0.626562 4.6518Z" fill="#00B3F8" fill-opacity="0.5"/>
</g>
<defs>
<clipPath id="clip0_262_10597">
<rect width="16" height="16" fill="white"/>
</clipPath>
</defs>
</svg>
