<svg width="31" height="31" viewBox="0 0 31 31" fill="none" xmlns="http://www.w3.org/2000/svg">
<g clip-path="url(#clip0_13_729)">
<path d="M22.5201 13.4196V7.55299C22.5201 7.38506 22.4425 7.22991 22.3328 7.10716L15.7554 0.200325C15.6327 0.0711899 15.4581 0 15.2838 0H4.85557C2.93037 0 1.39258 1.56996 1.39258 3.4954V23.2145C1.39258 25.14 2.93037 26.6841 4.85557 26.6841H13.0871C14.6441 29.2685 17.4742 31 20.698 31C25.5955 31 29.5949 27.02 29.5949 22.1162C29.6015 17.8325 26.5259 14.2531 22.5201 13.4196ZM15.93 2.26791L20.3428 6.91322H17.4805C16.6277 6.91322 15.93 6.20913 15.93 5.35627V2.26791ZM4.85557 25.3918C3.64748 25.3918 2.68488 24.4226 2.68488 23.2145V3.4954C2.68488 2.28068 3.64748 1.2923 4.85557 1.2923H14.6377V5.35627C14.6377 6.92623 15.9106 8.20552 17.4805 8.20552H21.2278V13.2515C21.0341 13.2451 20.879 13.2257 20.711 13.2257C18.4561 13.2257 16.3822 14.0916 14.8186 15.4484H6.61309C6.25761 15.4484 5.96694 15.7391 5.96694 16.0944C5.96694 16.4498 6.25761 16.7405 6.61309 16.7405H13.6169C13.1581 17.3867 12.7768 18.0328 12.4797 18.7435H6.61309C6.25761 18.7435 5.96694 19.0342 5.96694 19.3897C5.96694 19.7449 6.25761 20.0358 6.61309 20.0358H12.0597C11.8982 20.682 11.8142 21.3991 11.8142 22.1162C11.8142 23.2791 12.0403 24.4292 12.4473 25.3985H4.85557V25.3918ZM20.7047 29.7143C16.5179 29.7143 13.1129 26.3093 13.1129 22.1226C13.1129 17.9358 16.5113 14.5308 20.7047 14.5308C24.8978 14.5308 28.2962 17.9358 28.2962 22.1226C28.2962 26.3093 24.8914 29.7143 20.7047 29.7143Z" fill="white"/>
<path d="M6.61307 13.5036H13.158C13.5135 13.5036 13.8042 13.2127 13.8042 12.8575C13.8042 12.502 13.5135 12.2113 13.158 12.2113H6.61307C6.25759 12.2113 5.96692 12.502 5.96692 12.8575C5.96692 13.2127 6.25759 13.5036 6.61307 13.5036Z" fill="white"/>
<path d="M20.4913 18.1361C20.543 18.1489 20.5946 18.1555 20.6464 18.1555C20.711 18.1555 20.7692 18.1489 20.8273 18.1295C21.6802 18.2007 22.3457 18.9114 22.3457 19.7773C22.3457 20.1325 22.6364 20.4232 22.9916 20.4232C23.3471 20.4232 23.6378 20.1325 23.6378 19.7773C23.6378 18.3558 22.63 17.1669 21.2926 16.889V16.4756C21.2926 16.1201 21.0016 15.8294 20.6464 15.8294C20.2909 15.8294 20.0003 16.1201 20.0003 16.4756V16.915C18.708 17.2251 17.7454 18.3946 17.7454 19.7773C17.7454 21.4054 19.0698 22.7235 20.6916 22.7235C21.6026 22.7235 22.3457 23.4664 22.3457 24.3774C22.3457 25.2885 21.609 26.038 20.6916 26.038C19.7805 26.038 19.0377 25.2949 19.0377 24.3838C19.0377 24.0286 18.7467 23.7377 18.3915 23.7377C18.036 23.7377 17.7454 24.0286 17.7454 24.3838C17.7454 25.7731 18.708 26.936 20.0003 27.2461V27.9116C20.0003 28.2671 20.2909 28.5578 20.6464 28.5578C21.0016 28.5578 21.2926 28.2671 21.2926 27.9116V27.2655C22.63 26.9876 23.6378 25.7989 23.6378 24.3774C23.6378 22.7493 22.3133 21.4312 20.6916 21.4312C19.7805 21.4312 19.0377 20.6881 19.0377 19.7773C19.0377 18.9372 19.6708 18.2331 20.4913 18.1361Z" fill="white"/>
</g>
<defs>
<clipPath id="clip0_13_729">
<rect width="31" height="31" fill="white"/>
</clipPath>
</defs>
</svg>
