<svg width="20" height="20" viewBox="0 0 20 20" fill="none" xmlns="http://www.w3.org/2000/svg">
<path d="M1.73906 3.02917C0.778778 3.02917 0 3.80791 0 4.76888C0 5.72916 0.778778 6.50725 1.73906 6.50725C2.69934 6.50725 3.47811 5.72916 3.47811 4.76888C3.47811 3.80791 2.69934 3.02917 1.73906 3.02917Z" fill="#031B24" fill-opacity="0.3"/>
<path d="M1.73906 8.26129C0.778778 8.26129 0 9.03937 0 10.0003C0 10.9606 0.778778 11.7394 1.73906 11.7394C2.69934 11.7394 3.47811 10.9606 3.47811 10.0003C3.47811 9.03937 2.69934 8.26129 1.73906 8.26129Z" fill="#031B24" fill-opacity="0.3"/>
<path d="M1.73906 13.4928C0.778778 13.4928 0 14.2715 0 15.2318C0 16.1921 0.778778 16.9708 1.73906 16.9708C2.69934 16.9708 3.47811 16.1921 3.47811 15.2318C3.47811 14.2715 2.69934 13.4928 1.73906 13.4928Z" fill="#031B24" fill-opacity="0.3"/>
<path d="M18.6923 3.46051H6.32188C5.59974 3.46051 5.01416 4.04609 5.01416 4.76888C5.01416 5.49105 5.5997 6.07659 6.32188 6.07659H18.6923C19.4144 6.07659 20.0001 5.49105 20.0001 4.76888C20.0001 4.04609 19.4144 3.46051 18.6923 3.46051Z" fill="#031B24" fill-opacity="0.3"/>
<path d="M18.6923 8.69199H6.32188C5.59974 8.69199 5.01416 9.27753 5.01416 10.0004C5.01416 10.7225 5.5997 11.3081 6.32188 11.3081H18.6923C19.4144 11.3081 20.0001 10.7225 20.0001 10.0004C20.0001 9.27753 19.4144 8.69199 18.6923 8.69199Z" fill="#031B24" fill-opacity="0.3"/>
<path d="M18.6923 13.9241H6.32188C5.59974 13.9241 5.01416 14.5096 5.01416 15.2318C5.01416 15.9539 5.5997 16.5395 6.32188 16.5395H18.6923C19.4144 16.5395 20.0001 15.9539 20.0001 15.2318C20.0001 14.5096 19.4144 13.9241 18.6923 13.9241Z" fill="#031B24" fill-opacity="0.3"/>
</svg>
