<svg width="16" height="16" viewBox="0 0 16 16" fill="none" xmlns="http://www.w3.org/2000/svg">
<path d="M12.4445 1.77777H5.33335C5.0976 1.77777 4.87151 1.87142 4.70481 2.03812C4.53811 2.20482 4.44446 2.43091 4.44446 2.66666H12.4445V13.3333H5.33335V8.97777H4.44446V13.3333C4.44446 13.5691 4.53811 13.7952 4.70481 13.9619C4.87151 14.1286 5.0976 14.2222 5.33335 14.2222H12.4445C12.6802 14.2222 12.9063 14.1286 13.073 13.9619C13.2397 13.7952 13.3333 13.5691 13.3333 13.3333V2.66666C13.3333 2.43091 13.2397 2.20482 13.073 2.03812C12.9063 1.87142 12.6802 1.77777 12.4445 1.77777Z" fill="#00B3F8"/>
<path d="M6.72004 8.20444C6.67352 8.24429 6.63573 8.29332 6.60905 8.34846C6.58238 8.4036 6.56738 8.46366 6.56502 8.52487C6.56265 8.58607 6.57297 8.64711 6.59531 8.70414C6.61766 8.76118 6.65155 8.81298 6.69486 8.85629C6.73818 8.8996 6.78998 8.93349 6.84701 8.95584C6.90404 8.97818 6.96508 8.9885 7.02629 8.98613C7.0875 8.98377 7.14755 8.96878 7.20269 8.9421C7.25783 8.91542 7.30686 8.87764 7.34671 8.83111L9.92004 6.25778L7.35115 3.68445C7.26613 3.61163 7.15676 3.57359 7.04491 3.57791C6.93305 3.58223 6.82694 3.6286 6.74779 3.70775C6.66864 3.7869 6.62227 3.89301 6.61795 4.00487C6.61363 4.11672 6.65167 4.22609 6.72449 4.31111L8.22226 5.77778H1.77782C1.65994 5.77778 1.5469 5.8246 1.46355 5.90795C1.3802 5.9913 1.33337 6.10435 1.33337 6.22222C1.33337 6.3401 1.3802 6.45314 1.46355 6.53649C1.5469 6.61984 1.65994 6.66667 1.77782 6.66667H8.22226L6.72004 8.20444Z" fill="#00B3F8"/>
</svg>
