<svg width="31" height="31" viewBox="0 0 31 31" fill="none" xmlns="http://www.w3.org/2000/svg">
<path d="M29.0625 6.78125C29.0625 7.03818 28.9604 7.28458 28.7788 7.46626C28.5971 7.64794 28.3507 7.75 28.0938 7.75H2.90625C2.64932 7.75 2.40292 7.64794 2.22124 7.46626C2.03956 7.28458 1.9375 7.03818 1.9375 6.78125C1.9375 6.52432 2.03956 6.27792 2.22124 6.09624C2.40292 5.91456 2.64932 5.8125 2.90625 5.8125H28.0938C28.3507 5.8125 28.5971 5.91456 28.7788 6.09624C28.9604 6.27792 29.0625 6.52432 29.0625 6.78125ZM24.2188 14.5312H2.90625C2.64932 14.5312 2.40292 14.6333 2.22124 14.815C2.03956 14.9967 1.9375 15.2431 1.9375 15.5C1.9375 15.7569 2.03956 16.0033 2.22124 16.185C2.40292 16.3667 2.64932 16.4688 2.90625 16.4688H24.2188C24.4757 16.4688 24.7221 16.3667 24.9038 16.185C25.0854 16.0033 25.1875 15.7569 25.1875 15.5C25.1875 15.2431 25.0854 14.9967 24.9038 14.815C24.7221 14.6333 24.4757 14.5312 24.2188 14.5312ZM15.5 23.25H2.90625C2.64932 23.25 2.40292 23.3521 2.22124 23.5337C2.03956 23.7154 1.9375 23.9618 1.9375 24.2188C1.9375 24.4757 2.03956 24.7221 2.22124 24.9038C2.40292 25.0854 2.64932 25.1875 2.90625 25.1875H15.5C15.7569 25.1875 16.0033 25.0854 16.185 24.9038C16.3667 24.7221 16.4688 24.4757 16.4688 24.2188C16.4688 23.9618 16.3667 23.7154 16.185 23.5337C16.0033 23.3521 15.7569 23.25 15.5 23.25Z" fill="#00B3F8"/>
</svg>
