<svg width="86" height="86" viewBox="0 0 86 86" fill="none" xmlns="http://www.w3.org/2000/svg">
<g clip-path="url(#clip0_270_21820)">
<path d="M73.4585 71.6667C73.1647 71.6667 72.8708 71.6165 72.5913 71.5233L1.82049 47.3358C0.802827 46.9847 0.0933269 46.0673 0.00732691 44.9959C-0.0715064 43.9245 0.491077 42.9068 1.44066 42.4087L82.0657 0.304575C82.9651 -0.157675 84.0508 -0.0860088 84.8678 0.498075C85.692 1.08574 86.1184 2.08191 85.9715 3.08524L76.1173 69.3769C75.9991 70.1653 75.5368 70.8604 74.8524 71.2761C74.4296 71.5341 73.9458 71.6667 73.4585 71.6667ZM9.48166 44.2721L71.2727 65.3923L79.8763 7.51424L9.48166 44.2721Z" fill="#49D43D"/>
<path d="M34.043 82.4167C33.7635 82.4167 33.4804 82.3737 33.2081 82.2841C32.1008 81.9186 31.3555 80.8902 31.3555 79.7292V55.5417C31.3555 54.8644 31.6135 54.2051 32.0757 53.707L81.3465 0.852838C82.357 -0.236496 84.0663 -0.290246 85.1485 0.720254C86.2342 1.73075 86.2915 3.43284 85.281 4.52217L36.7305 56.5988V71.5341L45.6995 59.3257C46.5775 58.136 48.2616 57.8708 49.4585 58.7523C50.6553 59.6303 50.9097 61.3144 50.0318 62.5113L36.2109 81.3238C35.6913 82.0225 34.8815 82.4167 34.043 82.4167Z" fill="#49D43D"/>
</g>
<defs>
<clipPath id="clip0_270_21820">
<rect width="86" height="86" fill="white"/>
</clipPath>
</defs>
</svg>
