<svg width="29" height="29" viewBox="0 0 29 29" fill="none" xmlns="http://www.w3.org/2000/svg">
<path d="M18.2638 7.64648H5.01547C4.78087 7.64648 4.59067 7.83668 4.59067 8.07129C4.59067 8.30589 4.78087 8.49609 5.01547 8.49609H18.2638C18.4984 8.49609 18.6886 8.30589 18.6886 8.07129C18.6886 7.83668 18.4984 7.64648 18.2638 7.64648ZM17.9806 2.54883H15.1701C14.9355 2.54883 14.7453 2.73903 14.7453 2.97363C14.7453 3.20824 14.9355 3.39844 15.1701 3.39844H17.839V5.09766H5.44028V3.39844H13.1876C13.4222 3.39844 13.6124 3.20824 13.6124 2.97363C13.6124 2.73903 13.4222 2.54883 13.1876 2.54883H5.29867C4.90825 2.54883 4.59067 2.86641 4.59067 3.25684V5.23926C4.59067 5.62968 4.90825 5.94727 5.29867 5.94727H17.9806C18.371 5.94727 18.6886 5.62968 18.6886 5.23926V3.25684C18.6886 2.86641 18.371 2.54883 17.9806 2.54883ZM18.2638 9.3457H5.01547C4.78087 9.3457 4.59067 9.5359 4.59067 9.77051C4.59067 10.0051 4.78087 10.1953 5.01547 10.1953H18.2638C18.4984 10.1953 18.6886 10.0051 18.6886 9.77051C18.6886 9.5359 18.4984 9.3457 18.2638 9.3457ZM18.2638 12.7441H13.5116C13.277 12.7441 13.0868 12.9343 13.0868 13.1689C13.0868 13.4036 13.277 13.5938 13.5116 13.5938H18.2638C18.4984 13.5938 18.6886 13.4036 18.6886 13.1689C18.6886 12.9343 18.4984 12.7441 18.2638 12.7441ZM18.2638 11.0449H13.5116C13.277 11.0449 13.0868 11.2351 13.0868 11.4697C13.0868 11.7043 13.277 11.8945 13.5116 11.8945H18.2638C18.4984 11.8945 18.6886 11.7043 18.6886 11.4697C18.6886 11.2351 18.4984 11.0449 18.2638 11.0449ZM23.2793 17.5323V16.5674C23.2793 15.5399 22.5459 14.6806 21.575 14.4852V2.12402C21.575 0.952809 20.6222 0 19.451 0H3.82834C2.65712 0 1.70432 0.952809 1.70432 2.12402V11.0868C0.733439 11.2821 0 12.1414 0 13.1689V19.1966C0 19.4312 0.190199 19.6214 0.424805 19.6214C0.65941 19.6214 0.849609 19.4312 0.849609 19.1966V13.1689C0.849609 12.4662 1.42128 11.8945 2.12402 11.8945H10.4128C10.8944 11.8945 11.3127 12.221 11.4297 12.6879L11.7214 13.8558C11.9328 14.702 12.6897 15.293 13.562 15.293H21.1553C21.858 15.293 22.4297 15.8646 22.4297 16.5674V17.5933C19.663 17.9994 17.5321 20.3884 17.5321 23.266C17.5321 25.3286 18.6269 27.14 20.2657 28.1503H2.12402C1.42128 28.1504 0.849609 27.5787 0.849609 26.876V21.1791C0.849609 20.9445 0.65941 20.7543 0.424805 20.7543C0.190199 20.7543 0 20.9445 0 21.1791V26.876C0 28.0472 0.952809 29 2.12402 29H21.1553C21.4309 29 21.6963 28.9479 21.9468 28.8466C22.3706 28.9467 22.8122 29 23.2661 29C26.4278 29 29 26.4278 29 23.2661C29 20.1088 26.4349 17.5395 23.2793 17.5323ZM20.7254 14.4434H13.562C13.0803 14.4434 12.6624 14.1171 12.5457 13.65L12.2539 12.4817C12.0419 11.6357 11.2848 11.0449 10.4128 11.0449H2.55393V2.12402C2.55393 1.42128 3.1256 0.849609 3.82834 0.849609H19.451C20.1537 0.849609 20.7254 1.42128 20.7254 2.12402V14.4434ZM23.2661 28.1504C20.5729 28.1504 18.3818 25.9593 18.3818 23.2661C18.3818 20.5729 20.5729 18.3818 23.2661 18.3818C25.9593 18.3818 28.1504 20.5728 28.1504 23.2661C28.1504 25.9594 25.9593 28.1504 23.2661 28.1504ZM25.3069 23.9586H24.6783V20.5846C24.6783 20.1737 24.344 19.8395 23.9332 19.8395H22.599C22.1882 19.8395 21.8539 20.1737 21.8539 20.5846V23.9586H21.2253C20.9415 23.9586 20.6878 24.1281 20.5792 24.3904C20.4705 24.6527 20.53 24.9518 20.7308 25.1526L22.7392 27.161C22.8845 27.3063 23.0753 27.3789 23.2662 27.3789C23.457 27.3789 23.6478 27.3063 23.7931 27.161L25.8015 25.1526C26.0022 24.9518 26.0618 24.6527 25.9531 24.3904C25.8444 24.1281 25.5907 23.9586 25.3069 23.9586ZM23.2661 26.4864L21.588 24.8083H21.9583C22.3692 24.8083 22.7035 24.474 22.7035 24.0631V20.6891H23.8287V24.0631C23.8287 24.474 24.163 24.8083 24.5739 24.8083H24.9442L23.2661 26.4864ZM16.2874 20.2759C16.522 20.2759 16.7122 20.0857 16.7122 19.8511C16.7122 19.6165 16.522 19.4263 16.2874 19.4263H14.7598C14.5251 19.4263 14.3349 19.6165 14.3349 19.8511V23.62C14.3349 23.8547 14.5251 24.0449 14.7598 24.0449C14.9944 24.0449 15.1846 23.8547 15.1846 23.62V22.1247H16.166C16.4006 22.1247 16.5908 21.9345 16.5908 21.6999C16.5908 21.4653 16.4006 21.2751 16.166 21.2751H15.1846V20.2759H16.2874ZM10.7229 24.0449H10.7245C10.7561 24.0448 11.4999 24.0419 11.7969 24.0368C12.8832 24.0178 13.6717 23.0677 13.6717 21.7779C13.6717 20.4219 12.903 19.5108 11.759 19.5108H10.7154C10.6026 19.5108 10.4945 19.5557 10.4148 19.6355C10.3351 19.7154 10.2904 19.8237 10.2906 19.9365V19.9394V23.5603C10.2917 23.8031 10.4776 24.0468 10.7229 24.0449ZM11.759 20.3604C12.5428 20.3604 12.8221 21.0926 12.8221 21.7778C12.8221 22.7389 12.2997 23.1782 11.7821 23.1872C11.6366 23.1897 11.3739 23.1918 11.1463 23.1931C11.1448 22.7574 11.1418 20.8134 11.141 20.3603H11.759V20.3604ZM7.41675 23.6201V22.3934C7.64173 22.3922 7.90301 22.391 8.0492 22.391C8.88584 22.391 9.56643 21.7198 9.56643 20.8947C9.56643 20.0697 8.88578 19.3985 8.0492 19.3985H6.99195C6.78192 19.3943 6.5583 19.5845 6.56714 19.8233V23.62C6.56714 23.8547 6.75734 24.0449 6.99195 24.0449C7.22655 24.0449 7.41675 23.8547 7.41675 23.6201ZM8.04914 20.2481C8.41102 20.2481 8.71677 20.5442 8.71677 20.8947C8.71677 21.2453 8.41102 21.5414 8.04914 21.5414C7.90403 21.5414 7.64597 21.5426 7.42173 21.5437C7.42054 21.3124 7.41868 20.49 7.418 20.2481H8.04914Z" fill="#00B3F8"/>
</svg>
