<svg width="22" height="22" viewBox="0 0 22 22" fill="none" xmlns="http://www.w3.org/2000/svg">
<path d="M13.75 8.9375C13.75 9.84918 14.1122 10.7235 14.7568 11.3682C15.4015 12.0128 16.2758 12.375 17.1875 12.375C18.0992 12.375 18.9735 12.0128 19.6182 11.3682C20.2628 10.7235 20.625 9.84918 20.625 8.9375C20.6251 8.83085 20.6004 8.72564 20.5528 8.63019L17.8028 3.13019C17.7289 2.98205 17.6039 2.86558 17.451 2.80217C17.298 2.73877 17.1273 2.73269 16.9703 2.78506L12.6177 4.23569C12.3766 3.92919 12.0543 3.69648 11.6875 3.564V1.375H10.3125V3.564C9.91809 3.70344 9.57552 3.95971 9.33037 4.29868C9.08523 4.63766 8.94915 5.04326 8.94025 5.4615L4.59525 6.91006C4.42238 6.96768 4.27945 7.09156 4.19788 7.2545L1.44787 12.7545C1.39996 12.8501 1.37501 12.9556 1.375 13.0625C1.375 13.9742 1.73716 14.8485 2.38182 15.4932C3.02648 16.1378 3.90082 16.5 4.8125 16.5C5.72418 16.5 6.59852 16.1378 7.24318 15.4932C7.88784 14.8485 8.25 13.9742 8.25 13.0625C8.2501 12.9559 8.22539 12.8506 8.17781 12.7552L5.78188 7.964L9.38231 6.76363C9.62336 7.07021 9.94566 7.30294 10.3125 7.43531V19.25H4.125V20.625H17.875V19.25H11.6875V7.436C12.0819 7.29656 12.4245 7.04029 12.6696 6.70132C12.9148 6.36234 13.0509 5.95674 13.0598 5.5385L15.8304 4.6145L13.8229 8.6295C13.775 8.7251 13.75 8.83056 13.75 8.9375ZM4.8125 15.125C4.38747 15.1235 3.97331 14.9905 3.62682 14.7444C3.28033 14.4982 3.01848 14.1509 2.87719 13.75H6.74781C6.60651 14.1509 6.34467 14.4982 5.99818 14.7444C5.65169 14.9905 5.23753 15.1235 4.8125 15.125ZM6.45013 12.375H3.17488L4.8125 9.09975L6.45013 12.375ZM11 6.1875C10.864 6.1875 10.7311 6.14718 10.618 6.07164C10.505 5.99609 10.4169 5.88872 10.3648 5.7631C10.3128 5.63747 10.2992 5.49924 10.3257 5.36588C10.3522 5.23251 10.4177 5.11001 10.5139 5.01386C10.61 4.91772 10.7325 4.85224 10.8659 4.82571C10.9992 4.79918 11.1375 4.8128 11.2631 4.86483C11.3887 4.91687 11.4961 5.00499 11.5716 5.11805C11.6472 5.2311 11.6875 5.36403 11.6875 5.5C11.6875 5.68234 11.6151 5.8572 11.4861 5.98614C11.3572 6.11507 11.1823 6.1875 11 6.1875ZM17.1875 11C16.7625 10.9985 16.3483 10.8655 16.0018 10.6194C15.6553 10.3732 15.3935 10.0259 15.2522 9.625H19.1228C18.9815 10.0259 18.7197 10.3732 18.3732 10.6194C18.0267 10.8655 17.6125 10.9985 17.1875 11ZM17.1875 4.97475L18.8251 8.25H15.5499L17.1875 4.97475Z" fill="#00B3F8"/>
</svg>
