<svg width="28" height="28" viewBox="0 0 28 28" fill="none" xmlns="http://www.w3.org/2000/svg">
<path d="M21.763 20.5275L25.1808 23.9435C25.3402 24.1085 25.4284 24.3295 25.4264 24.559C25.4244 24.7884 25.3323 25.0079 25.1701 25.1701C25.0079 25.3323 24.7884 25.4243 24.559 25.4263C24.3296 25.4283 24.1085 25.3401 23.9435 25.1807L20.5258 21.763C18.2923 23.6765 15.4046 24.6506 12.4684 24.4809C9.5323 24.3112 6.77602 23.0108 4.77796 20.8527C2.7799 18.6946 1.69538 15.8464 1.75199 12.9059C1.80859 9.96544 3.00191 7.16115 5.08154 5.08152C7.16117 3.00189 9.96546 1.80857 12.906 1.75196C15.8465 1.69536 18.6946 2.77988 20.8527 4.77793C23.0108 6.77599 24.3112 9.53228 24.4809 12.4684C24.6506 15.4046 23.6765 18.2923 21.763 20.5257V20.5275ZM13.125 22.75C15.6777 22.75 18.1259 21.7359 19.9309 19.9309C21.736 18.1259 22.75 15.6777 22.75 13.125C22.75 10.5723 21.736 8.12413 19.9309 6.31909C18.1259 4.51406 15.6777 3.5 13.125 3.5C10.5723 3.5 8.12415 4.51406 6.31912 6.31909C4.51408 8.12413 3.50002 10.5723 3.50002 13.125C3.50002 15.6777 4.51408 18.1259 6.31912 19.9309C8.12415 21.7359 10.5723 22.75 13.125 22.75Z" fill="#00B3F8"/>
</svg>
