<svg width="55" height="55" viewBox="0 0 55 55" fill="none" xmlns="http://www.w3.org/2000/svg">
<path d="M54.1943 43.0992C54.6394 43.0992 55 42.7384 55 42.2935V41.0588C55 38.8315 53.5788 36.8668 51.463 36.1696L46.4274 34.5127V32.7693C48.1809 31.7173 49.3572 29.798 49.3572 27.6086V24.1362C49.3572 20.8199 46.6592 18.1219 43.3429 18.1219C41.3895 18.1219 39.6513 19.0586 38.552 20.5057C37.9434 19.3637 36.9114 18.473 35.6195 18.0487L30.5844 16.391V14.6475C32.3379 13.5955 33.5142 11.6762 33.5142 9.48686V6.01434C33.5143 2.69801 30.8163 0 27.5 0C24.1837 0 21.4857 2.69801 21.4857 6.01434V9.48675C21.4857 11.6761 22.662 13.5954 24.4155 14.6474V16.3909L19.3809 18.0485C18.0887 18.473 17.0566 19.3637 16.448 20.5057C15.3487 19.0585 13.6105 18.1219 11.6571 18.1219C8.34077 18.1219 5.64276 20.8199 5.64276 24.1362V27.6086C5.64276 29.798 6.81914 31.7173 8.57259 32.7693V34.5127L3.53654 36.1697C1.42119 36.8668 0 38.8315 0 41.0588V42.2935C0 42.7384 0.360615 43.0992 0.805664 43.0992C1.25071 43.0992 1.61133 42.7384 1.61133 42.2935V41.0588C1.61133 39.5287 2.58769 38.1789 4.04046 37.7001L8.75746 36.148C9.18855 37.3323 10.3255 38.1803 11.657 38.1803C12.9884 38.1803 14.1253 37.3322 14.5564 36.148L19.2728 37.6999C20.3066 38.0407 21.1076 38.8255 21.4781 39.8201L19.3804 40.5105C17.2645 41.2068 15.8429 43.1713 15.8429 45.3987V46.3351H6.16892V44.3194C6.16892 43.8744 5.8083 43.5137 5.36325 43.5137C4.9182 43.5137 4.55759 43.8744 4.55759 44.3194V46.3351H1.61133V46.0569C1.61133 45.612 1.25071 45.2512 0.805664 45.2512C0.360615 45.2512 0 45.612 0 46.0569V47.1408C0 47.5857 0.360615 47.9465 0.805664 47.9465H15.8429V54.1941C15.8429 54.6391 16.2035 54.9998 16.6486 54.9998H38.3513C38.7964 54.9998 39.157 54.6391 39.157 54.1941V53.118C39.157 52.673 38.7964 52.3123 38.3513 52.3123C37.9063 52.3123 37.5457 52.673 37.5457 53.118V53.3887H34.5995V48.6602C34.5995 48.2152 34.2389 47.8545 33.7938 47.8545C33.3488 47.8545 32.9882 48.2152 32.9882 48.6602V53.3887H22.0118V48.6602C22.0118 48.2152 21.6512 47.8545 21.2062 47.8545C20.7611 47.8545 20.4005 48.2152 20.4005 48.6602V53.3887H17.4542V45.399C17.4542 43.8689 18.4307 42.5195 19.8841 42.0413L24.6006 40.489C25.0318 41.6731 26.1686 42.5211 27.5 42.5211C28.8314 42.5211 29.9682 41.6732 30.3994 40.489L35.1159 42.0413C36.5693 42.5196 37.5458 43.8689 37.5458 45.399V49.3566C37.5458 49.8015 37.9064 50.1623 38.3514 50.1623C38.7965 50.1623 39.1571 49.8015 39.1571 49.3566V47.9467H54.1943C54.6394 47.9467 55 47.586 55 47.141V46.0571C55 45.6122 54.6394 45.2515 54.1943 45.2515C53.7493 45.2515 53.3887 45.6122 53.3887 46.0571V46.3354H50.4424V44.3196C50.4424 43.8746 50.0818 43.5139 49.6367 43.5139C49.1917 43.5139 48.8311 43.8746 48.8311 44.3196V46.3354H39.157V45.399C39.157 43.1715 37.7354 41.207 35.6195 40.5107L33.5217 39.8203C33.8922 38.8258 34.6932 38.041 35.7267 37.7002L40.4435 36.1482C40.8746 37.3324 42.0115 38.1805 43.3429 38.1805C44.6744 38.1805 45.8113 37.3324 46.2424 36.1482L50.959 37.7002C52.4123 38.1789 53.3887 39.5287 53.3887 41.0588V42.2935C53.3887 42.7384 53.7493 43.0992 54.1943 43.0992ZM43.3429 19.7331C45.7707 19.7331 47.7459 21.7082 47.7459 24.1361V27.6085C47.7459 30.0363 45.7706 32.0115 43.3429 32.0115C40.9152 32.0115 38.94 30.0363 38.94 27.6085V24.1361C38.94 21.7082 40.9152 19.7331 43.3429 19.7331ZM23.097 9.48675V6.01434C23.097 3.58649 25.0722 1.61133 27.5 1.61133C29.9278 1.61133 31.903 3.58649 31.903 6.01434V9.48675C31.903 11.9146 29.9277 13.8898 27.5 13.8898C25.0723 13.8898 23.097 11.9146 23.097 9.48675ZM27.5 15.5011C28.0081 15.5011 28.5015 15.4372 28.9732 15.3179V16.9526C28.973 16.9602 28.9731 16.9677 28.9732 16.9752C28.9725 17.787 28.312 18.4472 27.5001 18.4472C26.6882 18.4472 26.0276 17.787 26.027 16.9752C26.027 16.9676 26.0271 16.9601 26.027 16.9526V15.3179C26.4985 15.4371 26.9919 15.5011 27.5 15.5011ZM19.8843 19.5791L24.6005 18.0264C25.0316 19.2106 26.1685 20.0586 27.4999 20.0586C28.8313 20.0586 29.9682 19.2106 30.3993 18.0264L35.116 19.5792C36.4627 20.0216 37.3967 21.201 37.5272 22.6031C37.398 23.0927 37.3285 23.6064 37.3285 24.1361V27.6085C37.3285 27.8126 37.3389 28.0143 37.3589 28.2133H33.5075C33.3691 25.0188 30.7278 22.4622 27.4998 22.4622C24.2718 22.4622 21.6305 25.0188 21.4921 28.2133H17.6407C17.6607 28.0143 17.6711 27.8126 17.6711 27.6085V24.1361C17.6711 23.6064 17.6016 23.0928 17.4724 22.6031C17.6031 21.2011 18.5371 20.0217 19.8843 19.5791ZM27.5 36.352C25.0722 36.352 23.097 34.3768 23.097 31.949V28.4766C23.097 26.0487 25.0723 24.0736 27.5 24.0736C29.9277 24.0736 31.903 26.0487 31.903 28.4766V31.949C31.903 34.3768 29.9278 36.352 27.5 36.352ZM7.25398 27.6085V24.1361C7.25398 21.7082 9.22926 19.7331 11.657 19.7331C14.0847 19.7331 16.0599 21.7082 16.0599 24.1361V27.6085C16.0599 30.0363 14.0847 32.0115 11.657 32.0115C9.22926 32.0115 7.25398 30.0363 7.25398 27.6085ZM13.1301 35.0959C13.1301 35.9082 12.4693 36.569 11.657 36.569C10.8447 36.569 10.1838 35.9081 10.1838 35.0959V33.4397C10.6554 33.5589 11.1488 33.6228 11.657 33.6228C12.1651 33.6228 12.6585 33.5589 13.1301 33.4397V35.0959ZM19.7768 36.1696L14.7415 34.5127V32.7691C15.8683 32.0931 16.7554 31.0586 17.2465 29.8246H21.4857V31.949C21.4857 34.1383 22.662 36.0577 24.4155 37.1096V38.8534L23.0084 39.3165C22.4791 37.8402 21.3027 36.6725 19.7768 36.1696ZM27.5 40.9097C26.6877 40.9097 26.0268 40.2488 26.0268 39.4365V39.4267C26.0268 39.4251 26.0268 39.4235 26.0268 39.422V37.7803C26.4984 37.8995 26.9918 37.9634 27.5 37.9634C28.0082 37.9634 28.5015 37.8995 28.9732 37.7803V39.422V39.4267V39.4365C28.9732 40.2488 28.3123 40.9097 27.5 40.9097ZM35.2229 36.1697C33.6973 36.6725 32.5209 37.8402 31.9917 39.3166L30.5845 38.8535V37.1097C32.338 36.0578 33.5143 34.1385 33.5143 31.9491V29.8246H37.7535C38.2445 31.0587 39.1317 32.0933 40.2585 32.7691V34.5127L35.2229 36.1697ZM43.3429 36.5691C42.5306 36.5691 41.8698 35.9082 41.8698 35.096V33.4398C42.3414 33.559 42.8348 33.6229 43.3429 33.6229C43.851 33.6229 44.3444 33.559 44.8161 33.4398V35.096C44.8161 35.9082 44.1552 36.5691 43.3429 36.5691Z" fill="#00B3F8"/>
</svg>
