<svg width="16" height="16" viewBox="0 0 16 16" fill="none" xmlns="http://www.w3.org/2000/svg">
<path d="M14.666 8.66669C14.4892 8.66669 14.3196 8.73693 14.1946 8.86195C14.0696 8.98697 13.9994 9.15654 13.9994 9.33335V12.142C13.9988 12.6346 13.8029 13.1069 13.4546 13.4552C13.1062 13.8036 12.634 13.9995 12.1414 14H3.85735C3.36474 13.9995 2.89246 13.8036 2.54413 13.4552C2.1958 13.1069 1.99988 12.6346 1.99935 12.142V9.33335C1.99935 9.15654 1.92911 8.98697 1.80409 8.86195C1.67906 8.73693 1.50949 8.66669 1.33268 8.66669C1.15587 8.66669 0.986302 8.73693 0.861278 8.86195C0.736254 8.98697 0.666016 9.15654 0.666016 9.33335V12.142C0.666898 12.9881 1.00341 13.7994 1.60171 14.3977C2.20001 14.996 3.01123 15.3325 3.85735 15.3334H12.1414C12.9875 15.3325 13.7987 14.996 14.397 14.3977C14.9953 13.7994 15.3318 12.9881 15.3327 12.142V9.33335C15.3327 9.15654 15.2625 8.98697 15.1374 8.86195C15.0124 8.73693 14.8428 8.66669 14.666 8.66669Z" fill="#00B3F8"/>
<path d="M4.47161 5.80466L7.33361 2.94267V11.3333C7.33361 11.5101 7.40385 11.6797 7.52887 11.8047C7.65389 11.9298 7.82346 12 8.00028 12C8.17709 12 8.34666 11.9298 8.47168 11.8047C8.5967 11.6797 8.66694 11.5101 8.66694 11.3333V2.94267L11.5289 5.80466C11.6547 5.9261 11.8231 5.9933 11.9979 5.99178C12.1727 5.99026 12.3399 5.92015 12.4635 5.79654C12.5871 5.67294 12.6572 5.50573 12.6587 5.33093C12.6602 5.15613 12.5931 4.98773 12.4716 4.862L8.47161 0.862C8.34659 0.737019 8.17705 0.666809 8.00028 0.666809C7.8235 0.666809 7.65396 0.737019 7.52894 0.862L3.52894 4.862C3.4075 4.98773 3.3403 5.15613 3.34182 5.33093C3.34334 5.50573 3.41345 5.67294 3.53706 5.79654C3.66066 5.92015 3.82787 5.99026 4.00267 5.99178C4.17747 5.9933 4.34587 5.9261 4.47161 5.80466Z" fill="#00B3F8"/>
</svg>
