<svg width="13" height="13" viewBox="0 0 13 13" fill="none" xmlns="http://www.w3.org/2000/svg">
<path d="M12.9174 6.24712C12.8012 6.08825 10.0341 2.35712 6.49994 2.35712C2.96578 2.35712 0.198504 6.08825 0.0824943 6.24697C-0.0274981 6.39769 -0.0274981 6.60211 0.0824943 6.75283C0.198504 6.9117 2.96578 10.6428 6.49994 10.6428C10.0341 10.6428 12.8012 6.91167 12.9174 6.75296C13.0275 6.60226 13.0275 6.39769 12.9174 6.24712ZM6.49994 9.7857C3.89666 9.7857 1.64194 7.30927 0.974494 6.49968C1.64108 5.68939 3.89107 3.21426 6.49994 3.21426C9.10309 3.21426 11.3577 5.69025 12.0254 6.50027C11.3588 7.31053 9.1088 9.7857 6.49994 9.7857Z" fill="#00B3F8"/>
<path d="M6.49917 3.92859C5.08131 3.92859 3.92773 5.08216 3.92773 6.50003C3.92773 7.9179 5.08131 9.07147 6.49917 9.07147C7.91704 9.07147 9.07062 7.9179 9.07062 6.50003C9.07062 5.08216 7.91704 3.92859 6.49917 3.92859ZM6.49917 8.21431C5.55388 8.21431 4.7849 7.4453 4.7849 6.50003C4.7849 5.55476 5.55391 4.78575 6.49917 4.78575C7.44444 4.78575 8.21345 5.55476 8.21345 6.50003C8.21345 7.4453 7.44447 8.21431 6.49917 8.21431Z" fill="#00B3F8"/>
</svg>
