<svg width="68" height="68" viewBox="0 0 68 68" fill="none" xmlns="http://www.w3.org/2000/svg">
<g clip-path="url(#clip0_199_3737)">
<path d="M5.712 68C5.3249 68.0003 4.95352 67.8469 4.6794 67.5736C4.40528 67.3003 4.25084 66.9293 4.25 66.5423V1.45775C4.25113 1.07074 4.40565 0.699966 4.67971 0.426706C4.95377 0.153446 5.32499 -1.63521e-06 5.712 0L62.288 0C62.675 -1.63521e-06 63.0462 0.153446 63.3203 0.426706C63.5943 0.699966 63.7489 1.07074 63.75 1.45775V66.5423C63.7492 66.9293 63.5947 67.3003 63.3206 67.5736C63.0465 67.8469 62.6751 68.0003 62.288 68H5.712ZM7.888 15.9375C7.79438 15.9374 7.70164 15.9557 7.61509 15.9914C7.52854 16.0271 7.44987 16.0795 7.38357 16.1456C7.31726 16.2117 7.26463 16.2902 7.22868 16.3766C7.19272 16.4631 7.17414 16.5557 7.174 16.6494V64.3726C7.174 64.4663 7.19248 64.5591 7.22837 64.6457C7.26427 64.7323 7.31688 64.8109 7.38319 64.8771C7.44951 64.9433 7.52822 64.9958 7.61484 65.0316C7.70146 65.0674 7.79429 65.0857 7.888 65.0856H60.112C60.2057 65.0857 60.2985 65.0674 60.3852 65.0316C60.4718 64.9958 60.5505 64.9433 60.6168 64.8771C60.6831 64.8109 60.7357 64.7323 60.7716 64.6457C60.8075 64.5591 60.826 64.4663 60.826 64.3726V16.6441C60.8259 16.5504 60.8073 16.4578 60.7713 16.3713C60.7354 16.2849 60.6827 16.2064 60.6164 16.1402C60.5501 16.0741 60.4715 16.0217 60.3849 15.9861C60.2984 15.9504 60.2056 15.932 60.112 15.9322L7.888 15.9375ZM29.6437 2.9155C29.5501 2.91522 29.4573 2.93343 29.3707 2.96908C29.2841 3.00473 29.2053 3.05712 29.139 3.12325C29.0727 3.18938 29.0201 3.26795 28.9841 3.35446C28.9482 3.44097 28.9298 3.53371 28.9298 3.62738V12.3048C28.9299 12.3984 28.9485 12.4911 28.9844 12.5776C29.0204 12.664 29.073 12.7425 29.1393 12.8086C29.2056 12.8747 29.2843 12.9271 29.3708 12.9628C29.4574 12.9985 29.5501 13.0168 29.6437 13.0167H60.112C60.2056 13.0168 60.2984 12.9985 60.3849 12.9628C60.4715 12.9271 60.5501 12.8747 60.6164 12.8086C60.6827 12.7425 60.7354 12.664 60.7713 12.5776C60.8073 12.4911 60.8259 12.3984 60.826 12.3048V3.62738C60.826 3.53371 60.8075 3.44097 60.7716 3.35446C60.7357 3.26795 60.6831 3.18938 60.6167 3.12325C60.5504 3.05712 60.4717 3.00473 60.3851 2.96908C60.2985 2.93343 60.2057 2.91522 60.112 2.9155H29.6437ZM7.88375 2.9155C7.79009 2.91522 7.69729 2.93343 7.61067 2.96908C7.52406 3.00473 7.44533 3.05712 7.379 3.12325C7.31267 3.18938 7.26005 3.26795 7.22414 3.35446C7.18823 3.44097 7.16975 3.53371 7.16975 3.62738V12.3048C7.16989 12.3984 7.18847 12.4911 7.22443 12.5776C7.26038 12.664 7.31301 12.7425 7.37932 12.8086C7.44562 12.8747 7.52429 12.9271 7.61084 12.9628C7.69739 12.9985 7.79013 13.0168 7.88375 13.0167H25.296C25.3896 13.0168 25.4824 12.9985 25.5689 12.9628C25.6555 12.9271 25.7341 12.8747 25.8004 12.8086C25.8667 12.7425 25.9194 12.664 25.9553 12.5776C25.9913 12.4911 26.0099 12.3984 26.01 12.3048V3.62738C26.01 3.53371 25.9915 3.44097 25.9556 3.35446C25.9197 3.26795 25.8671 3.18938 25.8007 3.12325C25.7344 3.05712 25.6557 3.00473 25.5691 2.96908C25.4825 2.93343 25.3897 2.91522 25.296 2.9155H7.88375Z" fill="#00B3F8"/>
<path d="M33.9997 61.4911C29.8523 61.4787 25.8015 60.2375 22.3591 57.9243C18.9166 55.6111 16.2369 52.3295 14.6583 48.4942C13.0798 44.6589 12.6733 40.4418 13.4901 36.3755C14.3068 32.3092 16.3103 28.5762 19.2475 25.648C22.1847 22.7197 25.9237 20.7276 29.9924 19.9231C34.0611 19.1186 38.277 19.538 42.1075 21.1281C45.9381 22.7183 49.2115 25.408 51.5142 28.8574C53.817 32.3069 55.0459 36.3614 55.0457 40.5089C55.0311 46.0803 52.807 51.4183 48.8615 55.3519C44.9159 59.2855 39.5711 61.4934 33.9997 61.4911ZM33.9997 22.44C30.4283 22.4505 26.9401 23.5192 23.9757 25.511C21.0113 27.5028 18.7036 30.3284 17.3442 33.631C15.9848 36.9335 15.6345 40.5649 16.3377 44.0664C17.0409 47.5679 18.7659 50.7825 21.295 53.3042C23.8241 55.8258 27.0437 57.5415 30.5473 58.2344C34.0509 58.9273 37.6812 58.5663 40.9797 57.1972C44.2783 55.8281 47.0971 53.5121 49.0802 50.5419C51.0633 47.5716 52.1217 44.0803 52.1217 40.5089C52.1094 35.7113 50.1944 31.1146 46.797 27.7272C43.3997 24.3397 38.7973 22.4383 33.9997 22.44Z" fill="#00B3F8"/>
<path d="M33.9995 52.8137C32.2983 52.817 30.6148 52.4671 29.0557 51.7863C28.8733 51.7144 28.7072 51.6064 28.5674 51.4688C28.4276 51.3313 28.317 51.1669 28.2422 50.9857C28.1674 50.8044 28.1299 50.6099 28.1319 50.4138C28.134 50.2177 28.1756 50.024 28.2542 49.8443C28.3328 49.6646 28.4468 49.5027 28.5895 49.3681C28.7321 49.2335 28.9004 49.129 29.0843 49.0609C29.2683 48.9929 29.464 48.9626 29.6599 48.9719C29.8558 48.9812 30.0478 49.0299 30.2245 49.1152C32.2275 49.9836 34.4707 50.1258 36.5674 49.5173C38.664 48.9087 40.4825 47.5875 41.7093 45.7816C42.936 43.9758 43.4941 41.7984 43.2873 39.625C43.0804 37.4517 42.1216 35.4187 40.5762 33.8766C39.0308 32.3346 36.9957 31.3802 34.8219 31.1781C32.6481 30.976 30.4719 31.5389 28.6687 32.7696C26.8655 34.0003 25.5483 35.8217 24.9444 37.9196C24.3404 40.0176 24.4875 42.2606 25.3603 44.2616C25.5133 44.6156 25.5195 45.0158 25.3777 45.3744C25.2358 45.7329 24.9575 46.0206 24.6038 46.1741C24.4212 46.2566 24.2231 46.2993 24.0227 46.2995C23.7374 46.2993 23.4583 46.216 23.2196 46.0597C22.981 45.9035 22.7929 45.6811 22.6786 45.4198C21.9999 43.8698 21.6511 42.1956 21.6543 40.5036C21.648 38.0614 22.3664 35.6722 23.7186 33.6384C25.0708 31.6047 26.9959 30.0178 29.2504 29.0787C31.5049 28.1395 33.9873 27.8904 36.3834 28.3627C38.7795 28.8351 40.9816 30.0077 42.711 31.7322C44.4404 33.4567 45.6192 35.6554 46.0984 38.0502C46.5776 40.445 46.3355 42.9281 45.4028 45.1852C44.4701 47.4423 42.8887 49.372 40.8588 50.7299C38.8289 52.0879 36.4418 52.8131 33.9995 52.8137Z" fill="#00B3F8"/>
<path d="M14.416 9.42333C14.2214 9.42859 14.0276 9.39479 13.8462 9.32392C13.6648 9.25305 13.4995 9.14655 13.3599 9.01072C13.2204 8.87488 13.1094 8.71246 13.0337 8.53305C12.958 8.35363 12.9189 8.16086 12.9189 7.96611C12.9189 7.77137 12.958 7.57859 13.0337 7.39918C13.1094 7.21976 13.2204 7.05734 13.3599 6.92151C13.4995 6.78567 13.6648 6.67918 13.8462 6.60831C14.0276 6.53744 14.2214 6.50364 14.416 6.50889H18.7723C18.967 6.50364 19.1607 6.53744 19.3421 6.60831C19.5235 6.67918 19.6889 6.78567 19.8284 6.92151C19.968 7.05734 20.0789 7.21976 20.1546 7.39918C20.2304 7.57859 20.2694 7.77137 20.2694 7.96611C20.2694 8.16086 20.2304 8.35363 20.1546 8.53305C20.0789 8.71246 19.968 8.87488 19.8284 9.01072C19.6889 9.14655 19.5235 9.25305 19.3421 9.32392C19.1607 9.39479 18.967 9.42859 18.7723 9.42333H14.416Z" fill="#00B3F8"/>
<path d="M34.3342 9.74311C35.3159 9.74311 36.1118 8.94727 36.1118 7.96555C36.1118 6.98383 35.3159 6.18799 34.3342 6.18799C33.3525 6.18799 32.5566 6.98383 32.5566 7.96555C32.5566 8.94727 33.3525 9.74311 34.3342 9.74311Z" fill="#00B3F8"/>
<path d="M40.5158 9.74311C41.4976 9.74311 42.2934 8.94727 42.2934 7.96555C42.2934 6.98383 41.4976 6.18799 40.5158 6.18799C39.5341 6.18799 38.7383 6.98383 38.7383 7.96555C38.7383 8.94727 39.5341 9.74311 40.5158 9.74311Z" fill="#00B3F8"/>
<path d="M46.6975 9.74311C47.6792 9.74311 48.4751 8.94727 48.4751 7.96555C48.4751 6.98383 47.6792 6.18799 46.6975 6.18799C45.7158 6.18799 44.9199 6.98383 44.9199 7.96555C44.9199 8.94727 45.7158 9.74311 46.6975 9.74311Z" fill="#00B3F8"/>
<path d="M34.3342 9.74311C35.3159 9.74311 36.1118 8.94727 36.1118 7.96555C36.1118 6.98383 35.3159 6.18799 34.3342 6.18799C33.3525 6.18799 32.5566 6.98383 32.5566 7.96555C32.5566 8.94727 33.3525 9.74311 34.3342 9.74311Z" fill="#00B3F8"/>
<path d="M40.5158 9.74311C41.4976 9.74311 42.2934 8.94727 42.2934 7.96555C42.2934 6.98383 41.4976 6.18799 40.5158 6.18799C39.5341 6.18799 38.7383 6.98383 38.7383 7.96555C38.7383 8.94727 39.5341 9.74311 40.5158 9.74311Z" fill="#00B3F8"/>
<path d="M46.6975 9.74311C47.6792 9.74311 48.4751 8.94727 48.4751 7.96555C48.4751 6.98383 47.6792 6.18799 46.6975 6.18799C45.7158 6.18799 44.9199 6.98383 44.9199 7.96555C44.9199 8.94727 45.7158 9.74311 46.6975 9.74311Z" fill="#00B3F8"/>
</g>
<defs>
<clipPath id="clip0_199_3737">
<rect width="68" height="68" fill="white"/>
</clipPath>
</defs>
</svg>
