<svg width="54" height="54" viewBox="0 0 54 54" fill="none" xmlns="http://www.w3.org/2000/svg">
<g clip-path="url(#clip0_10_329)">
<path d="M45.0352 0H9.0353C6.55101 0.00288392 4.53804 2.01585 4.53516 4.50014V47.6999C4.53516 49.1913 5.74393 50.4001 7.23532 50.4001V53.0998C7.23532 53.5971 7.63825 54 8.1351 54H45.9354C46.4322 54 46.8351 53.5971 46.8351 53.0998V50.4001C48.3261 50.4001 49.5353 49.1913 49.5353 47.6999V4.50014C49.532 2.01585 47.5195 0.00288392 45.0352 0V0ZM9.0353 1.79997H45.0352C46.5262 1.79997 47.7353 3.00874 47.7353 4.50014V10.8002H6.33513V4.50014C6.33513 3.00874 7.5439 1.79997 9.0353 1.79997ZM45.0352 52.2H9.0353V50.4001H45.0352V52.2ZM46.8351 48.6001H7.23532C6.73805 48.6001 6.33513 48.1972 6.33513 47.6999V12.5998H47.7353V47.6999C47.7353 48.1972 47.3324 48.6001 46.8351 48.6001Z" fill="#00B3F8"/>
<path d="M9.03529 8.99989H19.8351C20.3324 8.99989 20.7353 8.59697 20.7353 8.10011V4.50017C20.7353 4.0029 20.3324 3.59998 19.8351 3.59998H9.03529C8.53802 3.59998 8.1351 4.0029 8.1351 4.50017V8.10011C8.1351 8.59697 8.53802 8.99989 9.03529 8.99989ZM9.93507 5.39995H18.9354V7.19992H9.93507V5.39995Z" fill="#00B3F8"/>
<path d="M25.235 8.99989C26.7264 8.99989 27.9352 7.79112 27.9352 6.30014C27.9352 4.80875 26.7264 3.59998 25.235 3.59998C23.7441 3.59998 22.5353 4.80875 22.5353 6.30014C22.5353 7.79112 23.7441 8.99989 25.235 8.99989ZM25.235 5.39995C25.7323 5.39995 26.1352 5.80287 26.1352 6.30014C26.1352 6.797 25.7323 7.19992 25.235 7.19992C24.7382 7.19992 24.3353 6.797 24.3353 6.30014C24.3353 5.80287 24.7382 5.39995 25.235 5.39995Z" fill="#00B3F8"/>
<path d="M32.4349 8.99989C33.9263 8.99989 35.1351 7.79112 35.1351 6.30014C35.1351 4.80875 33.9263 3.59998 32.4349 3.59998C30.944 3.59998 29.7352 4.80875 29.7352 6.30014C29.7352 7.79112 30.944 8.99989 32.4349 8.99989ZM32.4349 5.39995C32.9322 5.39995 33.3351 5.80287 33.3351 6.30014C33.3351 6.797 32.9322 7.19992 32.4349 7.19992C31.9381 7.19992 31.5352 6.797 31.5352 6.30014C31.5352 5.80287 31.9381 5.39995 32.4349 5.39995Z" fill="#00B3F8"/>
<path d="M37.8353 7.19987H39.6352C40.1321 7.19987 40.535 6.79695 40.535 6.30009C40.535 5.80283 40.1321 5.3999 39.6352 5.3999H37.8353C37.338 5.3999 36.9351 5.80283 36.9351 6.30009C36.9351 6.79695 37.338 7.19987 37.8353 7.19987Z" fill="#00B3F8"/>
<path d="M43.2352 7.19987H45.0352C45.5324 7.19987 45.9353 6.79695 45.9353 6.30009C45.9353 5.80283 45.5324 5.3999 45.0352 5.3999H43.2352C42.7379 5.3999 42.335 5.80283 42.335 6.30009C42.335 6.79695 42.7379 7.19987 43.2352 7.19987Z" fill="#00B3F8"/>
<path d="M27.035 16.2002C19.0824 16.2002 12.6352 22.647 12.6352 30.6C12.6352 38.553 19.0824 45.0002 27.035 45.0002C34.988 45.0002 41.4352 38.553 41.4352 30.6C41.4257 22.6511 34.9843 16.2097 27.035 16.2002ZM27.035 43.2002C20.0766 43.2002 14.4352 37.5589 14.4352 30.6C14.4352 23.6411 20.0766 18.0002 27.035 18.0002C33.9939 18.0002 39.6352 23.6411 39.6352 30.6C39.6278 37.5556 33.991 43.1928 27.035 43.2002Z" fill="#00B3F8"/>
<path d="M27.035 18.8999C20.58 18.8938 15.3416 24.1215 15.335 30.5765C15.3338 32.1062 15.6324 33.6215 16.2146 35.0362C16.2199 35.0544 16.2146 35.0729 16.2216 35.091C16.229 35.1092 16.2459 35.1261 16.255 35.1471C18.7615 41.0974 25.6174 43.889 31.5677 41.3825C34.8974 39.9797 37.3911 37.1164 38.3239 33.626C38.3288 33.6112 38.3325 33.5959 38.3354 33.5807C40.0069 27.3646 36.3224 20.9706 30.106 19.2996C29.1048 19.0305 28.072 18.8958 27.035 18.8999ZM27.035 20.6999C32.4897 20.6871 36.9223 25.0987 36.9351 30.553C36.9367 31.2896 36.8564 32.0238 36.6949 32.7419C36.2256 32.8972 35.765 33.0777 35.3151 33.282C34.1476 33.888 32.8506 34.2028 31.5352 34.1999C30.415 34.23 29.3084 33.9494 28.3373 33.3899C27.1154 32.7097 25.7336 32.3682 24.3353 32.3999C22.0491 32.493 19.7886 32.9174 17.6248 33.6598C15.9283 28.4688 18.7611 22.8855 23.9521 21.1893C24.9475 20.8639 25.9882 20.6987 27.035 20.6999ZM27.035 40.5C23.4071 40.4975 20.0704 38.5118 18.3376 35.3242C20.2731 34.6655 22.2926 34.2868 24.3353 34.1999C25.4555 34.1702 26.5621 34.4504 27.5327 35.0099C28.7551 35.6901 30.1369 36.032 31.5352 35.9999C33.0467 36.0081 34.5394 35.6633 35.894 34.993C34.2258 38.3614 30.794 40.4951 27.035 40.5Z" fill="#00B3F8"/>
</g>
<defs>
<clipPath id="clip0_10_329">
<rect width="54" height="54" fill="white"/>
</clipPath>
</defs>
</svg>
