<svg width="101" height="90" fill="none" xmlns="http://www.w3.org/2000/svg"><path fill-rule="evenodd" clip-rule="evenodd" d="M60.908 55.318c.23.481.738.807 1.319.846.039.003.078.004.116.004.538 0 1.041-.25 1.328-.665l3.785-5.49 7.034 1.296c.57.105 1.158-.084 1.526-.49.367-.406.453-.963.223-1.444L71.015 38.46l.496-.19c2.694-1.038 4.27-3.495 3.922-6.114-.065-.486-.125-.92-.18-1.308-.216-1.558-.326-2.34-.208-2.938.117-.598.516-1.299 1.313-2.697.198-.348.42-.736.665-1.173 1.322-2.354.775-5.148-1.362-6.953-.397-.335-.752-.631-1.071-.898-1.28-1.068-1.922-1.604-2.259-2.13-.337-.525-.532-1.294-.92-2.825-.097-.382-.204-.807-.329-1.284-.668-2.568-3.083-4.391-6.009-4.538a243.13 243.13 0 00-1.461-.068c-1.744-.078-2.618-.117-3.252-.325-.633-.208-1.331-.684-2.722-1.632-.347-.237-.734-.5-1.17-.794-2.345-1.58-5.497-1.58-7.843 0-.436.294-.822.557-1.17.794-1.39.948-2.088 1.424-2.722 1.632-.633.208-1.508.247-3.251.325-.435.02-.919.04-1.462.068-2.926.147-5.34 1.97-6.01 4.538-.123.477-.231.902-.328 1.284-.388 1.531-.583 2.3-.92 2.825-.337.526-.98 1.062-2.259 2.13-.319.267-.674.563-1.07.898-2.137 1.805-2.685 4.6-1.363 6.953.246.437.467.825.665 1.173.796 1.398 1.196 2.1 1.313 2.697.118.598.008 1.38-.209 2.938-.054.389-.114.822-.179 1.308-.347 2.619 1.229 5.076 3.922 6.114.5.193.947.362 1.348.514l.35.133-6.407 12.386a1.292 1.292 0 00.176 1.45c.355.415.936.62 1.51.53l7.072-1.113 3.608 5.587c.28.434.796.7 1.35.7.024 0 .048 0 .071-.002.582-.023 1.1-.336 1.346-.811l6.377-12.327c1.023-.277 1.643-.416 2.164-.416.674 0 1.511.232 3.179.695l.611.17 4.57 9.552zm6.108-8.257c-.64-.118-1.296.136-1.64.636l-2.782 4.034-2.656-5.55c1.823-.227 3.491-1.146 4.558-2.614.297-.41.56-.776.796-1.105.947-1.32 1.422-1.982 1.939-2.372.232-.175.523-.333.918-.51l4.035 8.433-5.168-.952zm-24.58 6.953l-2.65-4.104c-.33-.51-.976-.78-1.62-.68l-5.197.818 5.074-9.808c.453.405.921 1.057 1.757 2.222.236.329.499.695.797 1.105 1.318 1.815 3.555 2.792 5.867 2.66l-4.029 7.787zm10.11-11.927c-1.063 0-2.127.274-4.1.822-.411.114-.868.24-1.383.38-1.487.405-3-.09-3.851-1.261-.295-.405-.554-.767-.787-1.092-2.241-3.123-2.476-3.3-6.282-4.743-.396-.15-.837-.318-1.331-.508-1.43-.552-2.234-1.806-2.05-3.195.064-.48.124-.908.177-1.292.514-3.688.46-3.96-1.424-7.268a209.94 209.94 0 01-.657-1.16c-.701-1.248-.422-2.674.712-3.632.392-.331.743-.624 1.058-.887 3.028-2.528 3.181-2.767 4.1-6.391.096-.377.202-.797.325-1.269.354-1.362 1.587-2.293 3.14-2.37.536-.028 1.014-.05 1.444-.068 4.125-.185 4.413-.28 7.705-2.524.343-.234.724-.494 1.155-.784a3.653 3.653 0 014.099 0c.43.29.811.55 1.154.784 3.292 2.244 3.58 2.339 7.706 2.524.429.019.907.04 1.444.067 1.552.078 2.785 1.009 3.14 2.371.122.471.228.891.324 1.269.919 3.624 1.072 3.863 4.1 6.39.315.264.666.557 1.058.888 1.134.958 1.413 2.384.712 3.633-.243.431-.461.815-.657 1.159-1.885 3.308-1.938 3.58-1.424 7.268.053.384.113.811.177 1.291.184 1.39-.62 2.644-2.05 3.195-.494.19-.935.358-1.33.508-3.807 1.444-4.042 1.621-6.283 4.744-.233.325-.492.687-.787 1.092-.85 1.171-2.362 1.667-3.851 1.262-.515-.14-.972-.267-1.382-.381-1.974-.548-3.038-.822-4.101-.822zm15.507-18.264c0-7.696-6.956-13.957-15.507-13.957-8.55 0-15.507 6.26-15.507 13.957 0 7.695 6.956 13.956 15.507 13.956 8.55 0 15.507-6.26 15.507-13.956zM52.546 34.967c-6.828 0-12.382-5-12.382-11.144 0-6.145 5.554-11.144 12.382-11.144 6.827 0 12.382 4.999 12.382 11.144 0 6.145-5.555 11.144-12.382 11.144zm8.581-14.46l-10.67 8.714a1.659 1.659 0 01-1.05.365c-.4 0-.8-.137-1.104-.411L43.91 25.22a1.31 1.31 0 010-1.989c.61-.549 1.6-.549 2.21 0l3.34 3.007 9.567-7.815c.64-.521 1.627-.479 2.207.097.58.575.532 1.464-.107 1.986zM90.79 66.582c2.06-1.853 3.106-4.191 3.025-6.761l-.76-24.176c-.076-2.388-2.713-4.527-5.556-4.527h-.082c-1.387.02-5.91.694-5.878 8.508l.056 13.132c.001.3-.02.592-.063.876a5.576 5.576 0 00-.354-.348c-1.929-1.735-5.087-1.757-7.19-.05a1.463 1.463 0 00-.147.137c-2.354 2.504-5.246 4.698-7.57 6.46a91.563 91.563 0 00-2.216 1.715c-2.65 2.15-3.004 5.112-3 7.726l.012 9.352-1.348-.01a3.597 3.597 0 00-2.424.884c-.653.577-1.016 1.347-1.024 2.167l-.035 3.658c-.008.82.34 1.595.982 2.182a3.589 3.589 0 002.407.921l21.117.164h.03c.9 0 1.75-.314 2.394-.884.653-.577 1.016-1.347 1.024-2.167l.035-3.658c.008-.82-.341-1.595-.982-2.182a3.589 3.589 0 00-2.408-.922l-1.737-.013v-1.661L90.79 66.582zM81.1 81.859l-.035 3.658a.25.25 0 01-.09.185.294.294 0 01-.207.078l-21.116-.164a.303.303 0 01-.206-.08.248.248 0 01-.085-.187l.035-3.658a.25.25 0 01.09-.185.304.304 0 01.203-.077h.003l21.117.163c.159.001.292.123.29.267zM64.192 78.65l-.013-9.38c-.004-2.865.566-4.497 1.968-5.634a87.357 87.357 0 012.138-1.653c2.389-1.812 5.357-4.063 7.865-6.713.877-.662 2.074-.665 2.818.005.792.712.793 1.56.007 2.519-1.243 1.257-2.549 2.395-3.931 3.6-.664.577-1.35 1.175-2.042 1.798-.61.549-.61 1.44 0 1.988a1.65 1.65 0 001.105.412c.4 0 .8-.137 1.105-.412.674-.606 1.35-1.196 2.005-1.766 1.444-1.258 2.808-2.446 4.144-3.802l1.047-1.152c1.564-1.733 2.32-3.602 2.312-5.713l-.056-13.133c-.014-3.48 1.06-5.659 2.803-5.684h.032c1.16 0 2.404.913 2.431 1.794l.761 24.175c.057 1.803-.653 3.382-2.11 4.693L76.43 75.528a1.34 1.34 0 00-.458.994v2.22l-11.781-.091zm-3.293 4.47c.257-.583.992-.868 1.64-.636.648.232.965.893.707 1.476-.257.584-.992.869-1.64.636-.648-.231-.965-.892-.707-1.476zM43.705 79.5a3.606 3.606 0 00-2.424-.885l-1.348.01.013-9.352c.003-2.614-.35-5.576-3-7.726a92.966 92.966 0 00-2.217-1.714c-2.324-1.763-5.216-3.957-7.57-6.461a1.47 1.47 0 00-.146-.136c-2.105-1.708-5.263-1.686-7.19.05a5.55 5.55 0 00-.355.347 5.605 5.605 0 01-.063-.876l.056-13.132c.033-7.814-4.49-8.487-5.878-8.507h-.082c-2.843 0-5.48 2.139-5.555 4.526L7.185 59.82c-.08 2.57.965 4.908 3.025 6.761l11.692 10.523v1.661l-1.737.014a3.588 3.588 0 00-2.408.921c-.64.587-.99 1.362-.982 2.182l.035 3.659c.008.82.371 1.589 1.024 2.166a3.6 3.6 0 002.394.884h.03l21.117-.163a3.588 3.588 0 002.407-.922c.641-.587.99-1.362.982-2.182l-.035-3.658c-.008-.82-.371-1.59-1.024-2.167zm-18.678-2.979c0-.373-.165-.73-.458-.994L12.42 64.593c-1.457-1.311-2.167-2.89-2.11-4.693l.76-24.176c.028-.888 1.303-1.808 2.464-1.793 1.743.025 2.817 2.203 2.803 5.684l-.056 13.133c-.009 2.11.747 3.98 2.315 5.716l1.003 1.105.04.044c1.337 1.356 2.7 2.544 4.145 3.802.655.57 1.331 1.16 2.005 1.766a1.65 1.65 0 001.105.412c.4 0 .8-.137 1.105-.412.61-.549.61-1.439 0-1.988a166.78 166.78 0 00-2.042-1.799c-1.382-1.204-2.688-2.342-3.93-3.6-.787-.958-.786-1.806.006-2.518.744-.67 1.941-.667 2.819-.005 2.508 2.65 5.475 4.901 7.865 6.714.828.629 1.544 1.171 2.137 1.653 1.402 1.136 1.972 2.768 1.968 5.633l-.012 9.38-11.782.091v-2.22zm16.526 9.014a.303.303 0 01-.205.08l-21.117.164a.302.302 0 01-.207-.078.249.249 0 01-.09-.185L19.9 81.86a.248.248 0 01.086-.186.304.304 0 01.205-.081l21.116-.163h.003c.097 0 .165.042.205.077.04.036.088.097.09.185l.034 3.659a.248.248 0 01-.086.186zm-1.452-2.415c.258.584-.059 1.245-.707 1.477-.648.232-1.383-.053-1.64-.637-.258-.583.059-1.244.707-1.476.648-.232 1.382.053 1.64.636z" fill="#00B3F8"/></svg>