<svg width="80" height="80" fill="none" xmlns="http://www.w3.org/2000/svg"><path d="M31.875 58.75A26.875 26.875 0 1158.75 31.875 26.907 26.907 0 0131.875 58.75zm0-51.25A24.375 24.375 0 1056.25 31.875 24.403 24.403 0 0031.875 7.5z" fill="#00B3F8"/><path d="M64.375 72.392L45.366 53.385l1.768-1.768 17.241 17.242 5.733-5.733-16.93-16.929 1.768-1.767 18.697 18.696-9.268 9.267zM15 40h32.5v2.5H15V40zm5.625-9.375h2.5v8.125h-2.5v-8.125zM26.25 25h2.5v13.75h-2.5V25zm6.25-3.75H35v17.5h-2.5v-17.5zm6.25-3.75h2.5v21.25h-2.5V17.5z" fill="#00B3F8"/></svg>