<svg width="80" height="80" fill="none" xmlns="http://www.w3.org/2000/svg"><path d="M48.588 4.118H34a4.72 4.72 0 00-4.706 4.706v2.588h-9.647a6.452 6.452 0 00-6.47 6.47v5.412c0 2.824 1.764 5.177 4.235 6.118v17.647c0 .706.47 1.176 1.176 1.176s1.177-.47 1.177-1.176V30.118c4.588 1.059 10.353 1.882 15.764 2.235v4.118c0 1.176.942 2.235 2.236 2.235h7.059c1.176 0 2.235-.941 2.235-2.235v-4.236c4.706-.353 10.353-1.058 15.765-2.235v18.941c0 .706.47 1.177 1.176 1.177s1.177-.47 1.177-1.177V29.294c2.47-.941 4.235-3.294 4.235-6.117v-5.295a6.452 6.452 0 00-6.47-6.47h-9.648V8.824a4.72 4.72 0 00-4.706-4.706zM31.647 8.824A2.36 2.36 0 0134 6.47h14.588a2.36 2.36 0 012.353 2.353v2.588H31.647V8.824zm13.059 27.411H38v-8.117h6.706v8.117zm18.235-22.47c2.236 0 4.118 1.882 4.118 4.117v5.294c0 1.765-1.059 3.53-3.294 4.118-5.647 1.177-10.236 2-16.706 2.47v-1.882c0-1.176-.941-2.235-2.235-2.235h-7.06c-1.176 0-2.235.941-2.235 2.235v2c-6.588-.353-13.294-1.529-16.94-2.47-1.765-.47-3.06-2.118-3.06-4V18c0-2.235 1.883-4.118 4.118-4.118 32.706-.117 22.353-.117 43.294-.117zM75.177 52c-.706-1.176-2.118-2.117-3.648-2.353-1.058-.117-2.235 0-3.294.706-.94.588-3.058 2.706-7.647 4.824-.588.235-.823.94-.588 1.529.235.588.941.823 1.53.588 4.588-2 8.235-5.176 8-5.059.47-.352 1.176-.47 1.764-.352.235.117 0 0 1.53.823.588.588.705 1.765-.236 2.706-6.117 5.765-11.764 11.882-16.706 15.059-3.411 2.235-9.764 2.94-12 2.823-3.53-.117-5.176-1.176-6.235-1.647-6.353-3.294-14.706-4.588-21.176-.941-.589.353-.824 1.059-.471 1.647.353.588 1.059.824 1.647.47 5.647-3.176 13.177-1.882 19.059 1.06 2.941 1.529 5.53 1.882 7.294 1.882 2.353 0 8.706-.47 12.235-2.588 4.706-2.824 13.412-11.295 18.353-16.353 1.06-1.06 1.53-3.177.589-4.824z" fill="#00B3F8"/><path d="M5.53 75.882h7.176c.706 0 1.176-.47 1.176-1.176V60.118c.118 0 .236-.118.353-.118 3.294-2.353 3.647-3.412 3.883-3.647.47-.706 1.059-1.765 2-2.353 1.059-.706 2-1.176 3.647-1.412 6.94-1.176 13.059 2.353 18.117 4.236 12.589 4.353 13.883 2.706 15.647 4.588.589.823.824 2.118 0 2.706-4.235 1.412-13.176.47-18-.824-.588-.117-1.294.236-1.411.824-.118.588.235 1.294.823 1.412 8.824 2.352 17.765 1.529 19.412.705 2-.823 3.059-3.882 1.059-6.352-2.47-3.177-4.353-.589-16.236-5.177-7.058-2.706-12.353-5.765-19.882-4.47-1.176.235-2.235.588-3.53 1.294-1.176.588-2.587 1.882-3.411 3.411-.588.824-1.059 1.412-2.353 2.353v-1.059c0-.705-.47-1.176-1.177-1.176H5.53c-.705 0-1.176.47-1.176 1.176V66c0 .706.47 1.177 1.176 1.177S6.706 66.706 6.706 66v-8.588h4.823V73.53H6.706v-1.765c0-.706-.47-1.177-1.177-1.177-.705 0-1.176.471-1.176 1.177v2.941c0 .706.47 1.176 1.176 1.176z" fill="#00B3F8"/></svg>