<svg width="80" height="80" fill="none" xmlns="http://www.w3.org/2000/svg"><path d="M32.105 5.645a4.967 4.967 0 00-4.962 4.961 4.967 4.967 0 004.962 4.961 4.967 4.967 0 004.96-4.961 4.967 4.967 0 00-4.96-4.961zm0 7.579a2.62 2.62 0 01-2.618-2.618 2.62 2.62 0 012.618-2.617 2.62 2.62 0 012.617 2.617 2.62 2.62 0 01-2.617 2.617zM18.684 5.645a4.967 4.967 0 00-4.961 4.961 4.967 4.967 0 004.96 4.961 4.967 4.967 0 004.962-4.961 4.967 4.967 0 00-4.961-4.961zm0 7.579a2.62 2.62 0 01-2.618-2.618 2.62 2.62 0 012.618-2.617 2.62 2.62 0 012.617 2.617 2.62 2.62 0 01-2.617 2.617zM61.71 5.645H48.23a2.675 2.675 0 00-2.67 2.671v4.58a2.674 2.674 0 002.67 2.671h13.48a2.674 2.674 0 002.671-2.671v-4.58a2.675 2.675 0 00-2.671-2.671zm.328 7.25a.328.328 0 01-.328.329H48.23a.328.328 0 01-.327-.328v-4.58c0-.18.147-.327.328-.327H61.71c.18 0 .328.147.328.327v4.58zM40 24.006c-4.807 0-9.355 1.55-13.153 4.482a1.172 1.172 0 101.432 1.855A19.012 19.012 0 0140 26.35c10.585 0 19.197 8.611 19.197 19.196S50.585 64.742 40 64.742c-10.585 0-19.196-8.611-19.196-19.196 0-4.406 1.53-8.71 4.31-12.12a1.172 1.172 0 00-1.817-1.48 21.584 21.584 0 00-4.837 13.6c0 11.877 9.663 21.54 21.54 21.54 11.877 0 21.54-9.663 21.54-21.54 0-11.877-9.662-21.54-21.54-21.54z" fill="#00B3F8"/><path d="M74.105 70.903V9.007C74.105 4.04 70.064 0 65.1 0H14.9C9.933 0 5.893 4.04 5.893 9.007v61.988C5.894 75.96 9.934 80 14.9 80h50.2c4.921 0 8.93-3.968 9.002-8.872a2.31 2.31 0 00.004-.225zm-2.344-1.08h-9.702a1.172 1.172 0 000 2.344h9.599c-.556 3.116-3.285 5.49-6.558 5.49H14.9c-3.274 0-6.003-2.374-6.559-5.49h49.03a1.172 1.172 0 000-2.344H8.239V21.212h63.523v48.611zm0-50.955H8.238V9.007a6.67 6.67 0 016.661-6.663h50.2a6.67 6.67 0 016.662 6.663v9.861z" fill="#00B3F8"/><path d="M40 29.453c-8.874 0-16.093 7.22-16.093 16.093 0 .78.056 1.562.167 2.321v.002a16.082 16.082 0 005.346 9.804A16.082 16.082 0 0040 61.639c3.892 0 7.649-1.409 10.578-3.966a16.082 16.082 0 005.346-9.803l.001-.003c.11-.758.167-1.54.167-2.321 0-8.874-7.22-16.093-16.093-16.093zm9.037 26.454a13.739 13.739 0 01-9.038 3.388 13.738 13.738 0 01-9.037-3.388 13.748 13.748 0 01-4.447-7.664l.723-.492a3.634 3.634 0 014.05 0 5.998 5.998 0 006.686 0 3.64 3.64 0 014.05 0 5.997 5.997 0 006.687 0 3.627 3.627 0 014.05 0l.722.492a13.745 13.745 0 01-4.446 7.664zm4.711-10.304l-.025-.014a6.133 6.133 0 00-2.032-.727 5.833 5.833 0 00-2.706.184 5.947 5.947 0 00-1.593.767 3.635 3.635 0 01-4.05 0A5.921 5.921 0 0040 44.783c-1.189 0-2.36.362-3.343 1.03a3.63 3.63 0 01-4.05 0 5.92 5.92 0 00-3.343-1.03 5.95 5.95 0 00-2.987.806l-.026.014v-.057c0-7.581 6.168-13.749 13.75-13.749 7.58 0 13.748 6.168 13.748 13.749v.057z" fill="#00B3F8"/></svg>