<svg width="80" height="80" fill="none" xmlns="http://www.w3.org/2000/svg"><g clip-path="url(#clip0_2215_13099)" fill="#00B3F8"><path d="M64.923 69.677l-2.987-8.962a9.032 9.032 0 00-6.953-6.03l-8.624-1.569v-.668a12.977 12.977 0 003.847-3.416h2.605a3.876 3.876 0 003.87-3.87V29.676c0-9.248-7.524-16.774-16.773-16.774-9.25 0-16.774 7.525-16.774 16.774v9.033a5.17 5.17 0 004.114 5.054c.724 3.708 3.042 6.846 6.208 8.684v.668l-8.624 1.57a9.03 9.03 0 00-6.953 6.029l-.516 1.55-4.395-4.395a1.293 1.293 0 010-1.826l5.097-5.095L8.5 41.382l-5.76 5.76a8.973 8.973 0 00-2.645 6.387 8.97 8.97 0 002.645 6.386l17.438 17.439A8.975 8.975 0 0026.564 80c2.413 0 4.68-.94 6.346-2.608l6.286-5.758-1.96-1.957h27.687zM54.101 45.161c0 .713-.58 1.29-1.29 1.29h-1.085a12.8 12.8 0 00.841-2.687 5.112 5.112 0 001.534-.61v2.007zm-1.29-4.23v-4.443a2.572 2.572 0 011.29 2.222c0 .95-.522 1.774-1.29 2.222zm-25.806 0a2.572 2.572 0 01-1.29-2.221c0-.951.522-1.774 1.29-2.222v4.444zm0-8.673v1.474c-.46.12-.89.3-1.29.534v-4.588c0-7.826 6.367-14.194 14.193-14.194 7.825 0 14.193 6.368 14.193 14.193v4.589a5.073 5.073 0 00-1.29-.534v-1.474h-1.29a14.197 14.197 0 01-10.102-4.184l-1.511-1.511-1.511 1.51a14.197 14.197 0 01-10.102 4.185h-1.29zm2.58 9.032v-6.5a16.729 16.729 0 0010.323-4.586A16.723 16.723 0 0050.23 34.79v6.5c0 1.882-.513 3.642-1.396 5.162h-8.926v2.58h6.805a10.268 10.268 0 01-6.805 2.581c-5.692 0-10.323-4.631-10.323-10.323zM43.78 53.6v.06l-3.871 3.871-3.871-3.87V53.6a12.884 12.884 0 007.742 0zm-23.454 7.93a6.454 6.454 0 014.966-4.308l9.02-1.639 5.596 5.596 5.595-5.594 9.018 1.638a6.452 6.452 0 014.966 4.309l1.857 5.565h-26.69L29.63 62.07l-5.585 5.052c-.486.489-1.336.489-1.824 0l-2.818-2.818.924-2.775zM8.497 45.031l5.918 5.918-1.401 1.4-5.918-5.917 1.401-1.4zm22.626 30.5a6.419 6.419 0 01-4.561 1.888 6.416 6.416 0 01-4.563-1.89L4.561 58.092a6.41 6.41 0 01-1.89-4.562 6.41 6.41 0 011.89-4.562l.71-.71 5.917 5.918-.047.046a3.878 3.878 0 000 5.475l9.253 9.253a3.85 3.85 0 002.738 1.134c1.035 0 2.007-.403 2.69-1.09l.097-.085 5.945 5.944-.74.679zm2.645-2.425l-5.931-5.932 1.704-1.54 5.922 5.92-1.695 1.552zM76.037 0H57.972a3.876 3.876 0 00-3.87 3.871v10.322a3.876 3.876 0 003.87 3.871h3.447l-1.334 7.782 12.451-7.782h3.5a3.876 3.876 0 003.872-3.87V3.87A3.876 3.876 0 0076.037 0zm1.29 14.194c0 .71-.58 1.29-1.29 1.29h-4.242l-8.194 5.121.878-5.121h-6.507c-.71 0-1.29-.58-1.29-1.29V3.87c0-.711.58-1.29 1.29-1.29h18.065c.71 0 1.29.579 1.29 1.29v10.322z"/><path d="M74.746 5.161H59.263v2.581h15.483v-2.58zm-5.161 5.161H59.263v2.581h10.322v-2.58zm5.161 0h-2.58v2.581h2.58v-2.58zM39.908 3.87C23.048 3.87 8.526 15.534 4.75 31.8l-2.445-4.076-2.213 1.328 4.536 7.557 7.557-4.536-1.328-2.213-3.496 2.099C11.017 17.077 24.399 6.45 39.908 6.45c3.39 0 6.734.504 9.94 1.497l.764-2.464A36.106 36.106 0 0039.908 3.87zm39.372 24.7l-7.557-4.535-4.534 7.559 2.213 1.327 2.258-3.764A33.41 33.41 0 0173.456 40a33.627 33.627 0 01-7.483 21.123l2.004 1.626A36.21 36.21 0 0076.037 40c0-3.947-.636-7.801-1.876-11.491l3.792 2.274 1.328-2.213z"/></g><defs><clipPath id="clip0_2215_13099"><path fill="#fff" d="M0 0h80v80H0z"/></clipPath></defs></svg>