<svg width="101" height="100" fill="none" xmlns="http://www.w3.org/2000/svg"><g clip-path="url(#clip0_2214_13020)"><path d="M87.543 24.183c.936 0 1.84-.371 2.506-1.038l9.818-9.817c1.312-1.312.457-3.564-1.391-3.68l-5.225-.328 3.41-3.41a1.465 1.465 0 10-2.072-2.07l-3.41 3.409-.327-5.225c-.116-1.852-2.37-2.7-3.68-1.39l-9.818 9.817a3.545 3.545 0 00-1.03 2.728l.337 5.377C68.467 11.569 57.906 7.562 46.719 7.562 21.174 7.562.5 28.234.5 53.781c0 11.53 4.27 22.572 12.022 31.094a1.465 1.465 0 002.168-1.972A43.182 43.182 0 013.43 53.781c0-23.87 19.42-43.29 43.289-43.29a43.36 43.36 0 0129.585 11.633l-6.684 6.684c-6.045-5.549-14.093-8.944-22.901-8.944-18.702 0-33.917 15.215-33.917 33.917a33.946 33.946 0 003.756 15.504c5.693 11.032 17.159 18.413 30.161 18.413 16.021 0 29.955-11.317 33.212-27.021a1.465 1.465 0 00-2.868-.595c-2.967 14.304-15.728 24.686-30.344 24.686-11.642 0-22.202-6.448-27.558-16.826a30.583 30.583 0 01-3.429-14.161c0-17.087 13.9-30.987 30.987-30.987 8.002 0 15.318 3.066 20.83 8.085l-6.625 6.624a21.524 21.524 0 00-14.205-5.337c-11.918 0-21.615 9.696-21.615 21.615 0 11.918 9.697 21.614 21.615 21.614S68.334 65.7 68.334 53.781a21.523 21.523 0 00-5.338-14.206l6.625-6.625c4.98 5.468 8.04 12.713 8.085 20.65.004.806.66 1.457 1.464 1.457h.009a1.465 1.465 0 001.456-1.474c-.05-8.737-3.437-16.708-8.942-22.704l6.684-6.685c7.314 7.82 11.631 18.284 11.631 29.586 0 23.87-19.42 43.29-43.29 43.29-9.888 0-19.557-3.42-27.225-9.632a1.465 1.465 0 00-1.844 2.277C25.837 96.347 36.16 100 46.719 100c25.545 0 46.219-20.672 46.219-46.22 0-10.002-3.144-19.521-9.09-27.529a47.332 47.332 0 00-1.92-2.413c5.743.36 5.433.345 5.615.345zM65.404 53.781c0 10.303-8.382 18.685-18.685 18.685-10.303 0-18.685-8.382-18.685-18.685 0-10.303 8.382-18.685 18.685-18.685 4.625 0 8.863 1.69 12.13 4.484l-6.667 6.666a9.26 9.26 0 00-5.463-1.778c-5.135 0-9.313 4.178-9.313 9.313 0 5.135 4.178 9.313 9.313 9.313 5.135 0 9.313-4.178 9.313-9.313a9.26 9.26 0 00-1.778-5.463l6.666-6.666a18.604 18.604 0 014.484 12.129zm-19.721 1.036c.572.572 1.5.572 2.072 0l4.39-4.391c.606.975.957 2.125.957 3.355a6.39 6.39 0 01-6.383 6.383 6.39 6.39 0 01-6.383-6.383 6.39 6.39 0 016.383-6.383c1.23 0 2.38.35 3.355.956l-4.391 4.391a1.465 1.465 0 000 2.072zm33.564-41.822a.614.614 0 01.179-.472l8.609-8.61.383 6.098-8.806 8.805-.365-5.82zm2.437 7.892l8.805-8.805 6.097.383-8.609 8.609a.612.612 0 01-.473.178l-5.82-.365z" fill="#00B3F8"/></g><defs><clipPath id="clip0_2214_13020"><path fill="#fff" transform="translate(.5)" d="M0 0h100v100H0z"/></clipPath></defs></svg>