<svg width="80" height="80" fill="none" xmlns="http://www.w3.org/2000/svg"><g clip-path="url(#clip0_2215_13024)" fill="#00B3F8"><path d="M22.84 11.07l-.346 3.75a1.95 1.95 0 00.802 1.77 1.95 1.95 0 001.933.216l3.458-1.487 3.458 1.487a1.954 1.954 0 001.932-.216 1.95 1.95 0 00.802-1.77l-.345-3.75 2.483-2.829a1.95 1.95 0 00.392-1.904 1.949 1.949 0 00-1.437-1.31l-3.671-.83L30.377.96a1.95 1.95 0 00-1.69-.96c-.7 0-1.332.36-1.69.961l-1.924 3.236-3.672.83a1.949 1.949 0 00-1.436 1.31 1.95 1.95 0 00.392 1.904l2.483 2.83zm2.908-4.623a1.974 1.974 0 001.257-.913l1.682-2.829 1.682 2.83c.275.461.733.794 1.257.912l3.21.726-2.17 2.474c-.355.404-.53.942-.48 1.477l.301 3.278-3.024-1.3a1.966 1.966 0 00-1.553 0l-3.024 1.3.302-3.278a1.974 1.974 0 00-.48-1.477l-2.17-2.474 3.21-.726zM5.097 16.817l2.75-1.181 2.748 1.181a1.812 1.812 0 001.791-.2c.525-.38.803-.995.743-1.64l-.274-2.98 1.973-2.249a1.807 1.807 0 00.363-1.765 1.807 1.807 0 00-1.331-1.214l-2.918-.66-1.53-2.571a1.807 1.807 0 00-1.566-.891c-.649 0-1.234.333-1.566.89L4.75 6.11l-2.918.66A1.807 1.807 0 00.501 7.983a1.806 1.806 0 00.363 1.765l1.974 2.249-.275 2.98c-.06.646.219 1.26.744 1.64a1.807 1.807 0 001.79.2zM3.204 8.861l2.282-.515c.486-.11.91-.418 1.165-.846l1.195-2.01L9.042 7.5a1.83 1.83 0 001.164.846l2.282.515-1.543 1.759a1.83 1.83 0 00-.445 1.369l.215 2.329-2.15-.924a1.83 1.83 0 00-1.439 0l-2.149.924.215-2.329a1.832 1.832 0 00-.445-1.37L3.204 8.861zm40.29 3.136l-.275 2.98c-.06.646.219 1.26.744 1.64a1.807 1.807 0 001.79.2l2.75-1.181 2.748 1.181a1.812 1.812 0 001.791-.2c.525-.38.803-.995.744-1.641l-.275-2.98 1.973-2.248a1.807 1.807 0 00.364-1.765 1.807 1.807 0 00-1.332-1.214l-2.918-.66-1.53-2.571a1.807 1.807 0 00-1.566-.891c-.649 0-1.234.333-1.566.89L45.407 6.11l-2.918.66a1.807 1.807 0 00-1.332 1.214c-.2.617-.064 1.277.364 1.765l1.973 2.249zm2.648-3.651a1.83 1.83 0 001.165-.846l1.195-2.01 1.196 2.01a1.83 1.83 0 001.164.846l2.282.515-1.543 1.759c-.328.374-.49.873-.445 1.369l.215 2.33-2.15-.925a1.83 1.83 0 00-1.438 0l-2.15.924.215-2.329a1.83 1.83 0 00-.445-1.37l-1.542-1.758 2.282-.515zM79.59 62.632a4.4 4.4 0 00-1.42-3.24 4.4 4.4 0 001.42-3.238 4.416 4.416 0 00-4.41-4.412l-11.773-.017a1.627 1.627 0 01-1.621-1.625v-8.365c0-2.14-1.081-4.1-2.893-5.242a3.217 3.217 0 00-2.878-.289 3.223 3.223 0 00-1.969 2.126l-4.678 15.976a4.861 4.861 0 01-4.64 3.476h-2.029v-.67a2.46 2.46 0 00-2.457-2.456h-7.75a2.46 2.46 0 00-2.458 2.457v7.525h-20.02a3.38 3.38 0 01-2.644-1.266 3.38 3.38 0 01-.673-2.853 19.783 19.783 0 016.896-11.154 19.782 19.782 0 0112.367-4.36h2.232a22.495 22.495 0 0116.943 7.7 1.172 1.172 0 001.765-1.542 24.845 24.845 0 00-12.622-7.743c3.835-2.143 6.434-6.24 6.434-10.937 0-6.904-5.616-12.52-12.52-12.52-2.868 0-5.67.994-7.892 2.8a1.172 1.172 0 101.478 1.818 10.197 10.197 0 016.414-2.275c5.611 0 10.177 4.566 10.177 10.177 0 5.612-4.566 10.178-10.177 10.178-5.612 0-10.177-4.566-10.177-10.178 0-1.541.335-3.022.997-4.4a1.172 1.172 0 10-2.113-1.015 12.405 12.405 0 00-1.228 5.415c0 4.476 2.361 8.408 5.903 10.622a22.13 22.13 0 00-9.451 4.435 22.134 22.134 0 00-7.716 12.48 5.713 5.713 0 001.138 4.822 5.713 5.713 0 004.47 2.14h20.019v9.891a2.46 2.46 0 002.457 2.458h7.75a2.46 2.46 0 002.458-2.458v-.037h3.778c2.55 0 4.956.485 7.154 1.44a20.044 20.044 0 008.038 1.673l13.51.051a4.416 4.416 0 004.41-4.411 4.4 4.4 0 00-1.419-3.24 4.4 4.4 0 001.42-3.238 4.4 4.4 0 00-1.42-3.24 4.401 4.401 0 001.42-3.239zM40.355 76.874c0 .062-.05.113-.113.113h-7.75a.114.114 0 01-.114-.113V57.113c0-.063.05-.114.113-.114h7.75c.063 0 .114.051.114.114v19.76zm30.977-16.31h3.847a2.07 2.07 0 012.067 2.068 2.07 2.07 0 01-2.067 2.067h-3.847a1.172 1.172 0 100 2.344h3.847a2.07 2.07 0 012.067 2.067 2.07 2.07 0 01-2.067 2.067h-3.847a1.172 1.172 0 100 2.344h3.847a2.07 2.07 0 012.067 2.067c0 1.14-.927 2.068-2.063 2.068l-13.51-.05c-2.46 0-4.851-.498-7.107-1.479-2.495-1.085-5.216-1.635-8.09-1.635H42.7V60.125h2.028c3.167 0 6-2.122 6.89-5.161l4.678-15.976a.898.898 0 01.55-.592.894.894 0 01.799.08 3.832 3.832 0 011.798 3.258V50.1a3.974 3.974 0 003.962 3.969l11.775.018a2.07 2.07 0 012.067 2.067 2.07 2.07 0 01-2.067 2.067h-3.847a1.172 1.172 0 100 2.345z"/></g><defs><clipPath id="clip0_2215_13024"><path fill="#fff" d="M0 0h80v80H0z"/></clipPath></defs></svg>