<svg width="80" height="80" fill="none" xmlns="http://www.w3.org/2000/svg"><path d="M63.284 25.941l-7.95-7.95a1.25 1.25 0 00-2.125.704 5 5 0 11-5.658-5.658 1.25 1.25 0 00.704-2.125l-7.95-7.95a1.25 1.25 0 00-1.767 0l-6.904 6.902a7.501 7.501 0 10-9.184 9.181l-6.896 6.896a1.25 1.25 0 000 1.768l6.899 6.907a7.5 7.5 0 00-.91 14.179l-2.918 8.419a6.25 6.25 0 00.215 5.508l4.387 10.375c.017.04.035.08.057.117.307.563.467 1.195.466 1.836v1.2a1.25 1.25 0 002.5 0v-1.2a6.327 6.327 0 00-.75-2.98l-4.389-10.375a1.148 1.148 0 00-.06-.125 3.795 3.795 0 01-.11-3.43L24 49.34c.131 0 .26.019.392.019a7.486 7.486 0 007.239-5.553l2.12 2.111V58.75a1.25 1.25 0 002.5 0v-17.5a3.75 3.75 0 117.5 0v15.139a11.313 11.313 0 001.188 5.031l.457.917a8.782 8.782 0 010 7.825l-1.25 2.5a3.768 3.768 0 00-.395 1.678v1.91a1.25 1.25 0 002.5 0v-1.91a1.274 1.274 0 01.125-.559l1.25-2.5a11.295 11.295 0 000-10.061l-.458-.917a8.794 8.794 0 01-.858-2.87A8.726 8.726 0 0052.5 60a3.75 3.75 0 003.75-3.75v-7.125a7.493 7.493 0 00.136-14.511l6.898-6.908a1.25 1.25 0 000-1.765zM52.5 57.5a6.257 6.257 0 01-6.25-6.25v-6.5l.955-.955a7.48 7.48 0 006.545 5.525v6.93a1.25 1.25 0 01-1.25 1.25zm.179-22.709a1.25 1.25 0 001.065 2.125 5 5 0 11-4.25 4.25 1.25 1.25 0 00-2.125-1.065l-1.119 1.121a6.249 6.249 0 10-12.5.028v1.133l-2.291-2.292a1.25 1.25 0 00-2.125 1.065 5 5 0 11-4.25-4.25 1.25 1.25 0 001.066-2.125l-7.946-7.956 7.955-7.95a1.25 1.25 0 00-1.065-2.125 5 5 0 01-4.235-8.48 5.125 5.125 0 017.07 0 5 5 0 011.41 4.235 1.25 1.25 0 002.125 1.065l7.961-7.952 5.601 5.602a7.499 7.499 0 1010 10l5.603 5.601-7.95 7.97zM76.25 28.75h-7.5a1.25 1.25 0 010-2.5h7.5a1.25 1.25 0 010 2.5zm-8.851-14.375a1.25 1.25 0 01-.625-2.332l6.5-3.75a1.25 1.25 0 011.25 2.165l-6.5 3.75a1.24 1.24 0 01-.625.167zm6.493 32.5a1.24 1.24 0 01-.624-.167l-6.5-3.75a1.25 1.25 0 111.25-2.166l6.5 3.75a1.25 1.25 0 01-.626 2.333zM11.25 28.75h-7.5a1.25 1.25 0 010-2.5h7.5a1.25 1.25 0 010 2.5zm1.351-14.375a1.24 1.24 0 01-.625-.168l-6.5-3.75a1.25 1.25 0 011.25-2.164l6.5 3.75a1.25 1.25 0 01-.625 2.332zm-6.494 32.5a1.25 1.25 0 01-.625-2.333l6.5-3.75a1.249 1.249 0 111.25 2.166l-6.5 3.75a1.24 1.24 0 01-.625.167z" fill="#00B3F8"/></svg>