<svg width="80" height="80" fill="none" xmlns="http://www.w3.org/2000/svg"><g clip-path="url(#clip0_2215_13039)" fill="#00B3F8"><path d="M9.058 35.455c-.42 1.698-.737 3.432-.891 5.172A34.039 34.039 0 008 44c0 19.85 16.15 36 36 36s36-16.15 36-36a35.862 35.862 0 00-4.904-18.127 1.28 1.28 0 00-.092-.138A35.637 35.637 0 0060.661 12.1C55.987 9.64 50.734 8.256 45.4 8.044l-.308-5.837A1.335 1.335 0 0043.83.946L25.917.002c-.37-.02-.746.121-1.013.39L.391 24.903a1.331 1.331 0 000 1.886l8.667 8.665zm4.815 4.816a102.292 102.292 0 01-2.895-.56c.085-.679.178-1.356.31-2.027l2.585 2.587zM10.71 42.38c1.99.408 4.128.782 6.385 1.115l2.152 2.151a1.332 1.332 0 001.885 0l1.45-1.45c.253.03.507.055.759.083a63.934 63.934 0 001.382 12.936c-4.285-.426-8.33-.989-12.001-1.686a33.242 33.242 0 01-2.012-13.15zm43.882-25.02c1.64 2.952 2.983 6.208 4.01 9.68-4.311.31-8.758.48-13.269.508v-6.102l.313-.312a1.34 1.34 0 00.39-1.014l-.073-1.36c3.11-.141 6.041-.617 8.63-1.4zm-9.259 51.857v-8.418c4.587-.03 9.11-.209 13.467-.526-1.05 3.723-2.456 7.21-4.2 10.353-2.725-.817-5.884-1.305-9.267-1.409zm-12.778 1.672c-1.82-3.23-3.279-6.837-4.357-10.69 4.66.364 9.53.567 14.469.6v8.418c-3.735.115-7.208.694-10.112 1.672zm10.112-12.757a200.658 200.658 0 01-15.16-.657 61.01 61.01 0 01-1.49-12.94c5.283.486 10.867.749 16.65.785v12.81zm2.666 0V45.32a201.49 201.49 0 0015.668-.694 61.023 61.023 0 01-1.504 12.923c-4.56.353-9.326.552-14.164.583zm0-15.479V30.214c4.758-.03 9.45-.215 13.991-.552.952 3.919 1.496 8.06 1.634 12.293-4.978.426-10.237.663-15.625.697zm-2.666-15.105a199.59 199.59 0 01-3.388-.048l3.388-3.388v3.436zm-5.984 2.55a227.3 227.3 0 005.984.118v12.437c-5.77-.036-11.34-.3-16.61-.79.013-.395.022-.791.043-1.183l10.583-10.583zM13.971 58.46c3.532.614 7.359 1.114 11.385 1.492 1.125 4.302 2.714 8.323 4.708 11.93a15.73 15.73 0 00-2.189 1.279 33.563 33.563 0 01-13.904-14.7zm16.735 16.1c3.226-1.695 8.057-2.716 13.294-2.716 5.238 0 10.068 1.021 13.295 2.716A33.14 33.14 0 0144 77.334c-4.724 0-9.218-.995-13.294-2.775zm29.42-1.397a16.725 16.725 0 00-2.989-1.626c1.892-3.49 3.41-7.356 4.498-11.484 4.401-.388 8.568-.925 12.396-1.59a33.576 33.576 0 01-13.906 14.7zm15.15-17.634c-3.955.75-8.344 1.35-13.004 1.784a63.856 63.856 0 001.402-12.929c4.908-.49 9.488-1.17 13.604-2.015.028.543.055 1.087.055 1.632 0 4.051-.728 7.933-2.057 11.528zm1.777-15.834c-4.047.845-8.577 1.521-13.435 2.013-.149-4.214-.691-8.341-1.618-12.269 4.012-.371 7.777-.848 11.227-1.426a33.147 33.147 0 013.826 11.682zm-5.317-14.141c-3.226.51-6.717.936-10.425 1.271-1.056-3.702-2.454-7.182-4.17-10.349a16.716 16.716 0 002.986-1.614 32.93 32.93 0 0111.61 10.692zM57.312 13.456c-.737.383-1.57.738-2.498 1.059-2.603.91-5.7 1.436-8.991 1.584l-.284-5.384a33.404 33.404 0 0111.773 2.741zM26.37 2.696l16.12.848.85 16.123-23.15 23.15-16.97-16.97 23.15-23.15z"/><path d="M36.218 13.816a3.987 3.987 0 002.828-1.168 4.005 4.005 0 000-5.657 4.003 4.003 0 00-5.657 0 4.005 4.005 0 000 5.657 3.992 3.992 0 002.828 1.168zm-.943-4.94a1.334 1.334 0 111.887 1.889 1.334 1.334 0 01-1.887-1.889zM20.858 33.504c.424 0 .829-.202 1.082-.554l3.032-4.215 5.056-.063a1.334 1.334 0 001.057-2.122l-2.889-3.932 1.734-4.804a1.332 1.332 0 00-1.707-1.705l-4.802 1.734-3.934-2.89a1.335 1.335 0 00-2.122 1.059l-.063 5.054-4.215 3.032a1.333 1.333 0 00.41 2.363l4.722 1.36 1.359 4.72a1.331 1.331 0 001.28.963zm-1.195-8.043l-2.79-.804 2.531-1.82c.344-.249.55-.643.555-1.067l.037-3.133 2.416 1.774c.359.264.826.334 1.243.18l2.8-1.01-1.01 2.801c-.151.417-.084.883.18 1.242l1.774 2.416-3.135.04c-.422.005-.817.21-1.065.554l-1.821 2.532-.804-2.79a1.322 1.322 0 00-.911-.915z"/></g><defs><clipPath id="clip0_2215_13039"><path fill="#fff" d="M0 0h80v80H0z"/></clipPath></defs></svg>