<svg width="80" height="80" fill="none" xmlns="http://www.w3.org/2000/svg"><g clip-path="url(#clip0_2215_13043)"><path d="M47.407 72.79l-2.51 6.517A1.08 1.08 0 0143.89 80h-7.78a1.08 1.08 0 01-1.008-.693l-2.298-5.968a33.737 33.737 0 01-11.286-4.68l-5.848 2.6c-.41.18-.888.092-1.204-.224l-5.5-5.5a1.08 1.08 0 01-.224-1.204l2.597-5.848a33.74 33.74 0 01-4.68-11.288L.694 44.898A1.08 1.08 0 010 43.889v-7.778c0-.447.275-.848.693-1.009l5.967-2.297a33.707 33.707 0 014.68-11.287l-2.598-5.85a1.08 1.08 0 01.224-1.202l5.5-5.5a1.08 1.08 0 011.203-.224l5.849 2.598a33.723 33.723 0 0111.286-4.679L35.102.693A1.08 1.08 0 0136.11 0h7.778c.447 0 .848.275 1.009.693l2.51 6.52a1.08 1.08 0 11-2.017.777l-2.244-5.828h-6.294L34.61 7.99a1.08 1.08 0 01-.8.672 31.624 31.624 0 00-11.587 4.803 1.08 1.08 0 01-1.041.09l-5.712-2.536-4.45 4.45 2.537 5.712c.15.34.116.733-.091 1.041A31.594 31.594 0 008.661 33.81a1.08 1.08 0 01-.672.8l-5.827 2.243v6.294l5.826 2.243c.347.133.6.435.672.8a31.634 31.634 0 004.804 11.59c.207.308.242.701.091 1.04l-2.535 5.71 4.45 4.45 5.711-2.536a1.08 1.08 0 011.041.091 31.612 31.612 0 0011.587 4.803c.365.072.668.325.8.672l2.244 5.828h6.294l2.243-5.826a1.081 1.081 0 012.017.777zM31.606 53.905a1.08 1.08 0 101.119-1.85c-4.26-2.575-6.803-7.082-6.803-12.056 0-4.974 2.543-9.48 6.802-12.057a1.08 1.08 0 10-1.118-1.85c-4.913 2.97-7.846 8.17-7.846 13.907s2.933 10.936 7.845 13.906zM80 40a5.035 5.035 0 01-5.03 5.03 5.037 5.037 0 01-4.91-3.949H41.082v4.912h10.963c.286 0 .562.114.764.317l3.983 3.984h2.685a5.036 5.036 0 014.91-3.949 5.035 5.035 0 015.03 5.03 5.035 5.035 0 01-5.03 5.03 5.037 5.037 0 01-4.91-3.95h-3.132a1.08 1.08 0 01-.765-.316l-3.983-3.983H41.081v4.912h8.89c.287 0 .563.114.765.317l7.704 7.704c.203.203.317.478.317.764v3.86a5.012 5.012 0 013.274 2.388 4.994 4.994 0 01.504 3.816 4.996 4.996 0 01-2.344 3.054 4.998 4.998 0 01-3.817.503 4.995 4.995 0 01-3.053-2.343 5.036 5.036 0 011.84-6.871 5.01 5.01 0 011.434-.556v-3.403l-7.07-7.07H41.08v7.763c0 .597-.484 1.081-1.081 1.081-13.275 0-24.075-10.8-24.075-24.075 0-13.275 10.8-24.075 24.075-24.075a1.08 1.08 0 011.081 1.08v7.765h8.443l7.07-7.07v-3.41a5.024 5.024 0 01-1.433-.55 5.036 5.036 0 01-1.84-6.87 4.994 4.994 0 013.053-2.344 4.994 4.994 0 013.817.503 4.994 4.994 0 012.343 3.054 4.99 4.99 0 01-.503 3.816 4.998 4.998 0 01-3.054 2.344c-.073.019-.147.027-.22.043v3.86c0 .287-.114.562-.317.765l-7.704 7.704a1.082 1.082 0 01-.764.317H41.08v4.912h10.245l4.706-4.706a1.08 1.08 0 01.764-.317h2.68a5.036 5.036 0 014.91-3.948 5.035 5.035 0 015.029 5.03 5.035 5.035 0 01-5.03 5.029 5.037 5.037 0 01-4.91-3.949h-2.231l-4.706 4.707a1.082 1.082 0 01-.764.317H41.08v4.912h28.98a5.036 5.036 0 014.91-3.949A5.036 5.036 0 0180 40zM61.518 27.903a2.871 2.871 0 002.867 2.867 2.871 2.871 0 002.868-2.867 2.871 2.871 0 00-2.868-2.868 2.87 2.87 0 00-2.867 2.868zm-5.276-16.035a2.843 2.843 0 002.176.286 2.848 2.848 0 001.74-1.336 2.847 2.847 0 00.287-2.176 2.848 2.848 0 00-1.336-1.74 2.85 2.85 0 00-2.175-.287 2.848 2.848 0 00-1.741 1.336 2.872 2.872 0 001.05 3.917zM38.92 18.113C27.336 18.678 18.087 28.279 18.087 40c0 11.72 9.25 21.322 20.832 21.887V18.113zm18.75 49.636c-.485 0-.977.123-1.428.383a2.872 2.872 0 00-1.05 3.917 2.848 2.848 0 001.742 1.336c.74.198 1.512.098 2.175-.286a2.849 2.849 0 001.337-1.741 2.868 2.868 0 00-2.776-3.609zm3.848-16.374a2.871 2.871 0 002.867 2.867 2.871 2.871 0 002.868-2.867 2.871 2.871 0 00-2.868-2.868 2.871 2.871 0 00-2.867 2.867zM77.838 40a2.87 2.87 0 00-2.867-2.867A2.87 2.87 0 0072.103 40a2.87 2.87 0 002.868 2.867A2.87 2.87 0 0077.838 40z" fill="#00B3F8"/></g><defs><clipPath id="clip0_2215_13043"><path fill="#fff" d="M0 0h80v80H0z"/></clipPath></defs></svg>