<svg width="80" height="80" fill="none" xmlns="http://www.w3.org/2000/svg"><g clip-path="url(#clip0_2215_13045)" fill="#00B3F8"><path d="M79.24 33.017l-6.67-2.507a33.616 33.616 0 00-2.83-6.83l2.944-6.488a1.172 1.172 0 00-.238-1.313L64.12 7.554a1.172 1.172 0 00-1.313-.238l-6.489 2.943a33.625 33.625 0 00-6.829-2.828L46.983.76A1.172 1.172 0 0045.886 0H34.114c-.488 0-.925.303-1.097.76L30.51 7.43a33.617 33.617 0 00-6.83 2.83l-6.488-2.944a1.172 1.172 0 00-1.313.238L13.86 9.573a1.172 1.172 0 101.658 1.657l1.444-1.445 6.291 2.854c.343.156.74.137 1.068-.051a31.262 31.262 0 017.384-3.059c.364-.098.658-.366.79-.718l2.43-6.467h10.15l2.43 6.467c.132.352.426.62.79.719 2.585.7 5.07 1.73 7.384 3.058.327.188.724.207 1.068.051l6.29-2.854 7.178 7.178-2.854 6.29c-.156.344-.137.741.051 1.068a31.261 31.261 0 013.059 7.384c.098.364.366.658.718.79l6.467 2.43v10.15l-6.467 2.43a1.17 1.17 0 00-.718.789 29.18 29.18 0 01-.342 1.167 1.172 1.172 0 102.235.706c.07-.218.137-.443.205-.677l6.671-2.507c.457-.172.76-.609.76-1.097V34.114c0-.488-.303-.925-.76-1.097zm-9.5 23.303c.169-.306.33-.61.484-.91a1.172 1.172 0 00-2.088-1.066c-.224.439-.468.888-.724 1.335a1.171 1.171 0 00-.05 1.068l2.853 6.29-7.178 7.178-6.29-2.854a1.17 1.17 0 00-1.068.05 31.266 31.266 0 01-7.384 3.06 1.173 1.173 0 00-.79.718l-2.43 6.467h-10.15l-2.43-6.467a1.172 1.172 0 00-.79-.718 31.225 31.225 0 01-7.384-3.06 1.172 1.172 0 00-1.068-.05l-6.29 2.854-7.178-7.178 2.854-6.29a1.171 1.171 0 00-.051-1.068 31.263 31.263 0 01-3.059-7.384 1.172 1.172 0 00-.718-.79l-6.467-2.43v-10.15l6.467-2.43c.352-.132.62-.426.719-.79a31.26 31.26 0 013.058-7.384c.188-.327.207-.724.051-1.068l-2.854-6.29 1.864-1.864a1.172 1.172 0 00-1.657-1.657l-2.438 2.437c-.345.345-.44.868-.238 1.313l2.943 6.489a33.622 33.622 0 00-2.828 6.83L.76 33.016c-.457.172-.76.609-.76 1.097v11.772c0 .488.303.925.76 1.097l6.67 2.507a33.617 33.617 0 002.83 6.83l-2.944 6.488c-.202.445-.107.968.238 1.313l8.325 8.325c.345.345.868.44 1.313.238l6.489-2.943a33.621 33.621 0 006.829 2.828l2.507 6.671c.172.457.609.76 1.097.76h11.772c.488 0 .925-.303 1.097-.76l2.507-6.67a33.61 33.61 0 006.83-2.83l6.488 2.944c.445.202.968.107 1.313-.238l8.325-8.325c.345-.345.44-.868.238-1.313l-2.943-6.489z"/><path d="M43.803 15.633a1.172 1.172 0 00-1.643.218l-3.373 4.409-1.678-1.632a1.172 1.172 0 10-1.634 1.68L38.1 22.86a1.172 1.172 0 001.748-.128l4.175-5.457a1.172 1.172 0 00-.219-1.642zm0 41.563a1.172 1.172 0 00-1.643.219l-3.373 4.409-1.678-1.632a1.172 1.172 0 10-1.634 1.68l2.624 2.552a1.172 1.172 0 001.748-.129l4.175-5.456a1.172 1.172 0 00-.219-1.643zM56.348 41.09l2.624 2.552a1.172 1.172 0 001.748-.128l4.175-5.457a1.172 1.172 0 00-1.862-1.424L59.66 41.04l-1.677-1.631a1.172 1.172 0 00-1.635 1.68z"/><path d="M19.127 31.051c-4.934 0-8.949 4.014-8.949 8.949 0 1.849.56 3.623 1.617 5.133a1.171 1.171 0 101.92-1.346A6.564 6.564 0 0112.521 40a6.613 6.613 0 016.605-6.605A6.613 6.613 0 0125.732 40a6.613 6.613 0 01-8.161 6.421 1.172 1.172 0 00-.55 2.279 8.984 8.984 0 002.815.218 21.983 21.983 0 002.504 4.271l-.4 4.268a1.172 1.172 0 002.334.219l.191-2.043a22.115 22.115 0 006.61 4.528 8.917 8.917 0 00-.024.62c0 4.935 4.014 8.95 8.949 8.95 4.934 0 8.949-4.015 8.949-8.95 0-.208-.01-.414-.024-.62a21.998 21.998 0 004.264-2.501l4.268.4a1.172 1.172 0 10.219-2.334l-2.043-.191a22.11 22.11 0 004.531-6.617c.234.019.47.031.709.031 4.934 0 8.949-4.014 8.949-8.949 0-4.934-4.015-8.949-8.95-8.949-.238 0-.474.012-.708.03a21.996 21.996 0 00-2.505-4.27l.4-4.268a1.172 1.172 0 10-2.333-.219l-.191 2.043a22.108 22.108 0 00-6.608-4.527c.014-.206.022-.413.022-.622 0-4.934-4.014-8.949-8.949-8.949-4.934 0-8.949 4.015-8.949 8.95 0 .208.01.415.024.62a21.987 21.987 0 00-4.264 2.501l-4.268-.4a1.17 1.17 0 10-.219 2.334l2.043.191a22.108 22.108 0 00-4.53 6.617 9.047 9.047 0 00-.71-.03zM40 67.387a6.613 6.613 0 01-6.605-6.605A6.613 6.613 0 0140 54.177a6.613 6.613 0 016.605 6.605A6.613 6.613 0 0140 67.387zM67.478 40a6.613 6.613 0 01-6.605 6.605A6.613 6.613 0 0154.268 40a6.613 6.613 0 016.605-6.605A6.613 6.613 0 0167.478 40zM25.717 26.436l-.18 2.036a1.172 1.172 0 002.336.205l.395-4.502a19.68 19.68 0 013.294-1.981c1.229 3.476 4.546 5.973 8.438 5.973.642 0 1.284-.069 1.907-.204a1.172 1.172 0 10-.497-2.29 6.613 6.613 0 01-8.015-6.455A6.613 6.613 0 0140 12.613a6.613 6.613 0 016.605 6.605 6.553 6.553 0 01-1.286 3.918 1.172 1.172 0 101.885 1.391 8.917 8.917 0 001.237-2.331 19.762 19.762 0 015.122 3.52l-2.035-.178a1.173 1.173 0 00-.206 2.335l4.502.395a19.677 19.677 0 011.995 3.32c-3.436 1.251-5.895 4.55-5.895 8.412 0 3.862 2.46 7.16 5.895 8.411-.9 1.902-2.1 3.64-3.536 5.152l.179-2.035a1.172 1.172 0 00-2.335-.206l-.395 4.502a19.678 19.678 0 01-3.294 1.982c-1.23-3.476-4.547-5.973-8.438-5.973-3.891 0-7.209 2.497-8.438 5.973a19.772 19.772 0 01-5.125-3.523l2.035.179a1.173 1.173 0 00.205-2.335l-4.501-.396a19.673 19.673 0 01-1.994-3.32c3.435-1.25 5.894-4.549 5.894-8.411 0-3.862-2.46-7.16-5.894-8.412.9-1.902 2.098-3.64 3.535-5.152z"/><path d="M18.044 43.974a1.172 1.172 0 00.93-.46l4.175-5.457a1.172 1.172 0 00-1.862-1.424l-3.372 4.408-1.678-1.631a1.172 1.172 0 10-1.634 1.68l2.624 2.551c.22.214.513.333.817.333z"/></g><defs><clipPath id="clip0_2215_13045"><path fill="#fff" d="M0 0h80v80H0z"/></clipPath></defs></svg>