<svg width="80" height="80" fill="none" xmlns="http://www.w3.org/2000/svg"><path d="M64.79 10.927c-.333-.825-1.501-.825-1.835 0l-1.403 3.47a.99.99 0 01-.848.616l-3.734.262c-.887.063-1.248 1.173-.567 1.745l2.867 2.407a.99.99 0 01.324.997l-.905 3.632c-.215.863.73 1.55 1.485 1.079l3.175-1.983a.99.99 0 011.048 0l3.175 1.983c.754.47 1.7-.216 1.484-1.079l-.904-3.632a.99.99 0 01.324-.997l2.866-2.407c.682-.572.32-1.682-.567-1.745l-3.733-.262a.99.99 0 01-.848-.617l-1.404-3.47z" fill="#00B3F8"/><path d="M22.601 60.95a8.742 8.742 0 008.743 8.742H61.8a8.742 8.742 0 008.742-8.742V30.877a2.144 2.144 0 00-4.288 0V60.95a4.454 4.454 0 01-4.454 4.454H31.344a4.454 4.454 0 01-4.454-4.454V19.393a4.454 4.454 0 014.454-4.454h19.514a2.144 2.144 0 100-4.288H31.344a8.742 8.742 0 00-8.743 8.742V60.95zM7.879 31.6a5.443 5.443 0 015.443-5.444h3.033a2.144 2.144 0 110 4.289h-3.033c-.638 0-1.155.517-1.155 1.154v26.427c0 .638.517 1.155 1.155 1.155h3.033a2.144 2.144 0 010 4.289h-3.033a5.443 5.443 0 01-5.443-5.444V31.6z" fill="#00B3F8"/><path fill-rule="evenodd" clip-rule="evenodd" d="M42.072 24.917c-1.184 0-2.144.96-2.144 2.144v11.356H38.91a2.144 2.144 0 000 4.29h1.018v3.358l-1.03.006a2.144 2.144 0 10.023 4.288l1.007-.005v2.927a2.144 2.144 0 004.288 0v-2.95l6.905-.038a2.144 2.144 0 10-.023-4.288l-6.882.037v-3.336h2.989c5.915 0 9.173-4.582 9.173-8.95 0-4.439-3.435-8.839-9.173-8.839h-5.133zm5.133 13.5h-2.989v-9.211h2.989c3.187 0 4.884 2.294 4.884 4.55 0 2.326-1.65 4.661-4.884 4.661z" fill="#00B3F8"/></svg>