<svg width="80" height="80" fill="none" xmlns="http://www.w3.org/2000/svg"><path d="M1.45 73.088c-.275.425-.262.975.038 1.387a1.26 1.26 0 001.025.538c.087 0 .175 0 .275-.026l11.487-2.55a23.773 23.773 0 0010.75 2.576c12.962 0 23.525-10.45 23.725-23.375 5.625 1.525 11.788.95 17.013-1.7l11.487 2.537a.98.98 0 00.275.025c.4 0 .787-.2 1.025-.538.288-.412.3-.962.038-1.387L73.9 43.162a23.762 23.762 0 004.875-14.424c0-13.1-10.65-23.75-23.75-23.75S31.5 15.438 31.3 28.35c-2-.55-4.1-.863-6.275-.863C11.9 27.5 1.25 38.15 1.25 51.25c0 5.212 1.725 10.3 4.888 14.425L1.45 73.088zM55 7.5c11.713 0 21.25 9.538 21.25 21.25a21.21 21.21 0 01-4.875 13.538 1.241 1.241 0 00-.1 1.462l3.563 5.625-9-1.987a1.289 1.289 0 00-.863.112c-4.987 2.65-11 3.163-16.35 1.487-.85-9.012-6.775-16.575-14.875-19.8 0-.15-.013-.3-.013-.45 0-11.712 9.538-21.25 21.25-21.25L55 7.5zM3.75 51.25C3.75 39.538 13.287 30 25 30c11.712 0 21.25 9.538 21.25 21.25S36.712 72.5 25 72.5a21.24 21.24 0 01-9.988-2.5 1.24 1.24 0 00-.587-.15c-.088 0-.188 0-.275.025l-8.988 1.987 3.563-5.624a1.26 1.26 0 00-.088-1.463 21.267 21.267 0 01-4.875-13.55l-.012.025z" fill="#00B3F8"/><path d="M25 62.5a1.875 1.875 0 100-3.75 1.875 1.875 0 000 3.75zm0-21.25A3.761 3.761 0 0128.75 45 3.761 3.761 0 0125 48.75c-.688 0-1.25.563-1.25 1.25v6.25h2.5v-5.125A6.25 6.25 0 1018.75 45h2.5A3.761 3.761 0 0125 41.25zM45 20h20v2.5H45V20zm0 7.5h20V30H45v-2.5zm5 7.5h15v2.5H50V35z" fill="#00B3F8"/></svg>