<svg width="46" height="49" fill="none" xmlns="http://www.w3.org/2000/svg"><g clip-path="url(#clip0_1098_8296)"><path fill-rule="evenodd" clip-rule="evenodd" d="M40.672 19.152c0 8.07-6.542 14.612-14.612 14.612-5.893 0-10.97-3.488-13.282-8.512H7.9c2.547 7.587 9.715 13.052 18.16 13.052 10.577 0 19.152-8.575 19.152-19.152C45.212 8.575 36.637 0 26.06 0 17.97 0 11.053 5.015 8.246 12.106h5.01c2.487-4.51 7.289-7.566 12.804-7.566 8.07 0 14.612 6.542 14.612 14.612z" fill="#00B3F8"/><path fill-rule="evenodd" clip-rule="evenodd" d="M2.41 19.672h34.006v4.73H4.827v13.43H.098V21.983l2.312-2.312zm0-1.04h34.006v-4.729H4.827V.473H.098V16.32l2.312 2.312z" fill="#00B3F8"/><path d="M.714 48.723v-6.954h1.925v2.604h.815A3.506 3.506 0 014.67 42.4c.627-.511 1.374-.767 2.24-.767.507 0 .981.096 1.42.287a3.22 3.22 0 011.12.766c.308.323.549.706.723 1.149.175.443.262.913.262 1.411a3.75 3.75 0 01-.446 1.813c-.297.55-.72.988-1.266 1.315a3.488 3.488 0 01-1.832.49c-.877 0-1.626-.26-2.25-.777a3.485 3.485 0 01-1.198-2.007h-.805v2.643H.714zm4.616-3.477c0 .53.147.978.441 1.343.295.362.674.543 1.14.543.465 0 .844-.18 1.135-.538.29-.359.436-.808.436-1.348 0-.53-.149-.976-.446-1.338a1.41 1.41 0 00-1.144-.548c-.463 0-.84.18-1.13.538-.288.359-.432.808-.432 1.348zm6.11 3.477v-6.954h6.226v6.954H15.74v-5.261h-2.376v5.26H11.44zm7.458 0v-6.954h1.905v3.913l2.691-3.913h1.8v6.954h-1.906V44.81l-2.692 3.913h-1.798zm7.234-5.261v-1.693h6.1v1.693h-2.09v5.26h-1.925v-5.26h-2.085zm6.944 5.26V41.77h5.59v1.64h-3.684v1.051h3.336v1.523h-3.336v1.1h3.733v1.64h-5.64zm6.624 0V41.77h2.977c.886 0 1.589.218 2.11.655.52.433.78 1.036.78 1.809 0 .533-.131.99-.393 1.372a2.34 2.34 0 01-1.057.853c-.443.184-.955.277-1.537.277h-.955v1.988H39.7zm1.925-3.495h.916c.343 0 .611-.083.805-.248.197-.165.296-.39.296-.674 0-.294-.099-.52-.296-.679-.194-.158-.465-.237-.815-.237h-.906v1.838z" fill="#031B24"/></g><defs><clipPath id="clip0_1098_8296"><path fill="#fff" d="M0 0h45.766v49H0z"/></clipPath></defs></svg>