<svg width="1516" height="284" fill="none" xmlns="http://www.w3.org/2000/svg"><path fill-rule="evenodd" clip-rule="evenodd" d="M286 149c0 56.885-46.115 103-103 103-41.536 0-77.33-24.586-93.622-60H54.993c17.956 53.476 68.482 92 128.007 92 74.558 0 135-60.442 135-135 0-74.558-60.442-135-135-135-57.021 0-105.785 35.352-125.57 85.333h35.314C110.278 67.538 144.123 46 183 46c56.885 0 103 46.115 103 103z" fill="#00B3F8"/><path fill-rule="evenodd" clip-rule="evenodd" d="M0 168.961v111.706h33.333V186H256v-33.333H16.294L0 168.961zm0-39.922V17.333h33.333V112H256v33.333H16.294L0 129.039z" fill="#00B3F8"/><path d="M381.503 233V57.951h48.462v65.552h20.508c4.72-20.264 14.933-36.825 30.639-49.683 15.788-12.858 34.587-19.287 56.397-19.287 12.776 0 24.699 2.4 35.766 7.202 11.149 4.72 20.549 11.15 28.199 19.287 7.731 8.138 13.794 17.782 18.188 28.931 4.395 11.149 6.592 22.99 6.592 35.523 0 16.601-3.744 31.819-11.231 45.654-7.487 13.835-18.107 24.862-31.86 33.081-13.672 8.219-29.053 12.329-46.142 12.329-22.055 0-40.935-6.51-56.641-19.531-15.706-13.102-25.757-29.948-30.151-50.537h-20.264V233h-48.462zm116.211-87.524c0 13.346 3.703 24.617 11.108 33.813 7.406 9.115 16.968 13.672 28.687 13.672 11.719 0 21.24-4.517 28.564-13.55 7.324-9.033 10.987-20.345 10.987-33.935 0-13.347-3.744-24.577-11.231-33.692-7.487-9.196-17.09-13.794-28.808-13.794-11.638 0-21.119 4.517-28.443 13.55-7.243 9.033-10.864 20.345-10.864 33.936zM651.522 233V57.951h156.739V233h-48.462V100.554h-59.815V233h-48.462zm187.745 0V57.951h47.973v98.511l67.749-98.51h45.291V233h-47.976v-98.511L884.555 233h-45.288zM1021.4 100.554V57.951h153.56v42.603h-52.61V233h-48.46V100.554h-52.49zM1196.2 233V57.951h140.75v41.26h-92.78V125.7h83.99v38.33h-83.99v27.71h94V233H1196.2zm166.75 0V57.951h74.95c22.3 0 40 5.493 53.1 16.48 13.1 10.905 19.65 26.082 19.65 45.532 0 13.428-3.29 24.943-9.88 34.546-6.51 9.603-15.39 16.764-26.62 21.484-11.14 4.639-24.04 6.958-38.69 6.958h-24.05V233h-48.46zm48.46-88.013h23.07c8.63 0 15.38-2.075 20.27-6.225 4.96-4.151 7.44-9.807 7.44-16.968 0-7.406-2.48-13.102-7.44-17.09-4.89-3.988-11.72-5.981-20.51-5.981h-22.83v46.264z" fill="#031B24"/></svg>