<svg width="101" height="90" viewBox="0 0 101 90" fill="none" xmlns="http://www.w3.org/2000/svg">
<path fill-rule="evenodd" clip-rule="evenodd" d="M60.9078 55.3182C61.1381 55.7993 61.6463 56.1254 62.2267 56.1642C62.2658 56.1669 62.3045 56.1681 62.3433 56.1681C62.8808 56.1681 63.3843 55.9187 63.6707 55.5033L67.4564 50.0128L74.49 51.3091C75.0609 51.4139 75.6482 51.2253 76.0156 50.8191C76.383 50.4128 76.4689 49.8563 76.2388 49.3752L71.0152 38.4599C71.175 38.3989 71.3385 38.3361 71.5107 38.2699C74.2045 37.2317 75.7804 34.7746 75.4328 32.156C75.3681 31.6696 75.3078 31.2369 75.2537 30.8484C75.0367 29.2901 74.9275 28.5079 75.0447 27.9102C75.1619 27.3125 75.5615 26.611 76.3578 25.2135C76.5564 24.865 76.7775 24.477 77.023 24.0397C78.3451 21.686 77.7976 18.8919 75.6609 17.0873C75.2642 16.7521 74.9088 16.4556 74.59 16.1891C73.3105 15.1211 72.6683 14.5849 72.3314 14.0593C71.9941 13.5338 71.7994 12.7652 71.4113 11.2342C71.3144 10.8524 71.2066 10.427 71.0824 9.94993C70.414 7.38211 67.9992 5.55856 65.0734 5.41213C64.5301 5.38489 64.0461 5.36327 63.6115 5.34376C61.8685 5.26571 60.9937 5.22651 60.3601 5.01891C59.7265 4.81131 59.0285 4.3353 57.6375 3.38678C57.2908 3.15018 56.9043 2.88686 56.4687 2.59331C54.1226 1.01303 50.9707 1.01286 48.6246 2.59331C48.189 2.88686 47.8025 3.15018 47.4558 3.38678C46.0648 4.3353 45.3668 4.81131 44.7332 5.01891C44.0996 5.22651 43.2246 5.26571 41.4818 5.34376C41.047 5.36327 40.5633 5.38489 40.0199 5.41213C37.0941 5.55856 34.6791 7.38229 34.0109 9.94993C33.8867 10.427 33.7789 10.8522 33.682 11.2342C33.2939 12.7652 33.0992 13.5339 32.7619 14.0593C32.4248 14.5849 31.7826 15.1211 30.5033 16.1891C30.1844 16.4556 29.8291 16.7521 29.4324 17.0873C27.2959 18.8921 26.7482 21.6861 28.0701 24.0398C28.3156 24.4768 28.5367 24.8648 28.7351 25.2132C29.5314 26.6108 29.9312 27.3124 30.0484 27.91C30.1656 28.5075 30.0564 29.2897 29.8394 30.8479C29.7853 31.2365 29.725 31.6695 29.6603 32.156C29.3127 34.7746 30.8887 37.2317 33.5824 38.2699C34.0828 38.4627 34.5293 38.6322 34.9303 38.7842C35.0521 38.8304 35.1677 38.8744 35.2806 38.9173L28.873 51.3035C28.6273 51.7785 28.6955 52.3368 29.0494 52.7527C29.4035 53.1684 29.9849 53.3732 30.5586 53.2823L37.6314 52.1701L41.2386 57.757C41.5193 58.1913 42.0345 58.4566 42.5894 58.4566C42.6129 58.4566 42.6367 58.4561 42.6603 58.4552C43.242 58.4315 43.7605 58.1187 44.0062 57.6439L50.383 45.3166C51.406 45.0399 52.0261 44.9005 52.547 44.9005C53.2213 44.9005 54.0584 45.1329 55.726 45.5961C55.9189 45.6497 56.1232 45.7065 56.3375 45.7655L60.9078 55.3182ZM67.0164 47.0607C66.3754 46.9427 65.7203 47.1966 65.3752 47.6968L62.5937 51.731L59.9383 46.1818C61.7609 45.9541 63.4291 45.035 64.4955 43.5672C64.7933 43.1571 65.0562 42.7908 65.2924 42.4617C66.239 41.1423 66.714 40.4801 67.2306 40.0899C67.4625 39.9148 67.7537 39.7566 68.1486 39.5803L72.1842 48.0131L67.0164 47.0607ZM42.4353 54.0144L39.7851 49.9096C39.4562 49.4003 38.8097 49.1298 38.1652 49.2309L32.9687 50.0479L38.0426 40.24C38.4959 40.6454 38.9642 41.2975 39.7996 42.4619C40.0357 42.791 40.2986 43.1573 40.5965 43.5672C41.9148 45.3818 44.1517 46.3593 46.4642 46.2261L42.4353 54.0144ZM52.5459 42.0866C51.4826 42.0866 50.4189 42.3606 48.4455 42.9087C48.0347 43.0228 47.5777 43.1497 47.0633 43.2897C45.5756 43.694 44.0631 43.1993 43.2117 42.0279C42.9174 41.6231 42.6578 41.2611 42.4248 40.9363C40.184 37.8134 39.9492 37.6362 36.1427 36.1925C35.7469 36.0424 35.3058 35.875 34.8117 35.6845C33.3822 35.1334 32.5777 33.8794 32.7623 32.4897C32.8261 32.0092 32.8857 31.5816 32.9392 31.1978C33.4531 27.5096 33.3998 27.2378 31.5148 23.9296C31.3187 23.5855 31.1006 23.2024 30.8582 22.7709C30.1566 21.5218 30.4361 20.0958 31.5701 19.138C31.9621 18.807 32.3129 18.5142 32.6279 18.251C35.6562 15.7228 35.8094 15.4839 36.7281 11.8598C36.8236 11.4826 36.9301 11.0626 37.0527 10.5914C37.4072 9.2287 38.6398 8.29794 40.1926 8.22024C40.7293 8.19335 41.2072 8.1719 41.6365 8.15274C45.7619 7.96782 46.0502 7.87342 49.3424 5.62852C49.6849 5.39491 50.0664 5.13475 50.4967 4.84489C51.7418 4.00624 53.3504 4.00624 54.5955 4.84489C55.0258 5.13475 55.4072 5.39491 55.7498 5.62852C59.042 7.87342 59.3303 7.96782 63.4556 8.15274C63.8847 8.1719 64.3629 8.19335 64.8996 8.22024C66.4523 8.29794 67.6847 9.2287 68.0394 10.5914C68.1621 11.0624 68.2685 11.4824 68.364 11.8596C69.2828 15.4837 69.4359 15.7228 72.4642 18.2508C72.7793 18.514 73.1301 18.8068 73.522 19.1378C74.656 20.0957 74.9351 21.5216 74.2338 22.7707C73.9914 23.2024 73.773 23.5858 73.5767 23.93C71.6922 27.2378 71.6388 27.5096 72.1529 31.1982C72.2062 31.5819 72.266 32.0092 72.3297 32.4895C72.5142 33.8792 71.7097 35.1334 70.2803 35.6843C69.7861 35.8747 69.3451 36.042 68.9492 36.1923C65.1429 37.636 64.9082 37.8134 62.6674 40.9361C62.4344 41.2611 62.1748 41.6229 61.8804 42.0279C61.0295 43.1991 59.5181 43.6947 58.0289 43.2897C57.5144 43.1497 57.0572 43.0226 56.6467 42.9087C54.6728 42.3606 53.6092 42.0866 52.5459 42.0866ZM68.0531 23.8226C68.0531 16.1269 61.0967 9.86608 52.5459 9.86608C43.9953 9.86608 37.0388 16.1269 37.0388 23.8226C37.0388 31.5183 43.9953 37.7793 52.5459 37.7793C61.0965 37.7793 68.0531 31.5185 68.0531 23.8226ZM52.5457 34.9668C45.7181 34.9668 40.1637 29.9675 40.1637 23.8226C40.1637 17.6778 45.7181 12.6786 52.5457 12.6786C59.3732 12.6786 64.9279 17.6778 64.9279 23.8226C64.9281 29.9675 59.3732 34.9668 52.5457 34.9668ZM61.1273 20.5068L50.4576 29.2215C50.1592 29.4653 49.7832 29.5864 49.4078 29.5864C49.007 29.5864 48.607 29.4485 48.3027 29.1746L43.9097 25.2209C43.2996 24.6718 43.2996 23.7815 43.9097 23.2323C44.5201 22.6832 45.5092 22.6832 46.1195 23.2323L49.4599 26.2387L59.0273 18.4243C59.6662 17.9026 60.6545 17.9455 61.2344 18.5207C61.8142 19.0955 61.7664 19.9849 61.1273 20.5068ZM90.7904 66.5819C92.85 64.7286 93.8959 62.3906 93.8152 59.8205L93.0543 35.6448C92.9793 33.2575 90.3422 31.1184 87.4986 31.1184C87.4713 31.1184 87.4441 31.1186 87.417 31.1189C86.0297 31.1389 81.5064 31.8115 81.5392 39.6255L81.5949 52.7579C81.5963 53.0582 81.5752 53.3498 81.5318 53.634C81.4217 53.5156 81.3037 53.3997 81.1779 53.2865C79.2494 51.551 76.0912 51.529 73.9877 53.2364C73.9353 53.2788 73.8861 53.3243 73.8408 53.3726C71.4871 55.8772 68.5951 58.0709 66.2711 59.8335C65.456 60.4517 64.6865 61.0355 64.0545 61.5481C61.4043 63.6979 61.0506 66.6599 61.0541 69.2738L61.0666 78.6264L59.7191 78.6161C58.8068 78.6085 57.947 78.923 57.2947 79.4999C56.6424 80.077 56.2787 80.8465 56.2709 81.6666L56.2359 85.3249C56.2281 86.1449 56.5769 86.92 57.2181 87.5071C57.8592 88.0942 58.7142 88.4213 59.6254 88.4283L80.7418 88.5916C80.7517 88.5916 80.7617 88.5918 80.7717 88.5918C81.6717 88.5918 82.5211 88.2784 83.1662 87.7076C83.8185 87.1306 84.182 86.3612 84.1898 85.5411L84.2248 81.8828C84.2326 81.0628 83.8838 80.2877 83.2426 79.7006C82.6015 79.1135 81.7465 78.7864 80.8353 78.7794L79.098 78.766V77.105L90.7904 66.5819ZM81.0998 81.8587L81.0648 85.5171C81.064 85.6053 81.0158 85.6665 80.9754 85.7021C80.9351 85.738 80.8722 85.7798 80.7683 85.7795L59.6519 85.6162C59.5541 85.6155 59.4861 85.5721 59.4465 85.5357C59.4068 85.4993 59.3597 85.4376 59.3607 85.3494L59.3957 81.691C59.3965 81.6028 59.4447 81.5416 59.4851 81.5059C59.525 81.4706 59.5929 81.4286 59.6892 81.4286H59.692H59.6922L80.8086 81.5919C80.9679 81.5933 81.1013 81.7153 81.0998 81.8587ZM64.1916 78.6509L64.1791 69.2706C64.1752 66.4063 64.7453 64.7743 66.1469 63.6374C66.74 63.1561 67.4558 62.6131 68.2847 61.9845C70.6738 60.1722 73.6416 57.9213 76.1496 55.2711C77.0267 54.6089 78.2242 54.6059 78.9681 55.2755C79.7599 55.9879 79.7609 56.8355 78.9748 57.7949C77.7324 59.0518 76.4261 60.1903 75.0439 61.3941C74.3804 61.972 73.6941 62.5697 73.0019 63.1928C72.3918 63.742 72.3918 64.6323 73.0021 65.1814C73.3072 65.456 73.7068 65.5933 74.1068 65.5933C74.5068 65.5933 74.9068 65.456 75.2117 65.1813C75.8857 64.5746 76.5625 63.9851 77.2172 63.415C78.6613 62.1573 80.0252 60.9694 81.3613 59.6127C81.3683 59.6055 82.4078 58.4612 82.4078 58.4612C83.9724 56.7276 84.7287 54.8585 84.7199 52.7476L84.6642 39.6149C84.6496 36.1343 85.7236 33.9564 87.467 33.9312C87.4777 33.9311 87.4881 33.9311 87.4986 33.9311C88.659 33.9311 89.9029 34.8442 89.9305 35.7246L90.6914 59.9003C90.748 61.7031 90.0379 63.2821 88.5806 64.5933L76.4306 75.5283C76.1377 75.792 75.973 76.1497 75.973 76.5225V78.7419L64.1916 78.6509ZM60.8988 83.1212C61.1564 82.5377 61.891 82.2528 62.5392 82.4848C63.1875 82.7167 63.5041 83.3778 63.2465 83.9612C62.9886 84.5446 62.2543 84.8296 61.606 84.5975C60.9576 84.3655 60.641 83.7046 60.8988 83.1212ZM43.7052 79.5002C43.0529 78.923 42.1912 78.6101 41.2806 78.6164L39.9334 78.6268L39.9459 69.2742C39.9494 66.6601 39.5957 63.698 36.9455 61.5484C36.3138 61.0356 35.5439 60.4521 34.7291 59.834C32.4053 58.0713 29.5131 55.8775 27.1594 53.373C27.114 53.3247 27.065 53.2791 27.0127 53.2368C24.9082 51.5294 21.7498 51.5515 19.8222 53.2869C19.6963 53.4001 19.5785 53.5159 19.4683 53.6344C19.4248 53.3501 19.4039 53.0587 19.4053 52.7585L19.4609 39.6257C19.4937 31.8117 14.9705 31.1393 13.5832 31.1191C13.5558 31.1187 13.5291 31.1186 13.5015 31.1186C10.658 31.1186 8.02068 33.2578 7.94588 35.6449L7.18494 59.8208C7.10428 62.3909 8.15017 64.7288 10.2095 66.5821L21.9019 77.1054V78.7663L20.1646 78.7797C19.2535 78.7867 18.3984 79.1139 17.7574 79.701C17.1162 80.2881 16.7674 81.0631 16.7752 81.8831L16.8101 85.5415C16.8179 86.3615 17.1814 87.1309 17.8338 87.708C18.4789 88.2788 19.3281 88.5922 20.2283 88.5922C20.2383 88.5922 20.2484 88.5922 20.2582 88.592L41.3746 88.4287C42.2857 88.4217 43.1408 88.0945 43.7818 87.5074C44.423 86.9203 44.7719 86.1453 44.764 85.3253L44.7291 81.6669C44.7215 80.8469 44.3576 80.0773 43.7052 79.5002ZM25.0269 76.5225C25.0269 76.1495 24.8623 75.792 24.5693 75.5283L12.4191 64.5931C10.9621 63.282 10.2519 61.7031 10.3086 59.9003L11.0695 35.7244C11.0974 34.836 12.3719 33.9159 13.533 33.9312C15.2763 33.9564 16.3504 36.1343 16.3357 39.6148L16.2801 52.7476C16.2713 54.8585 17.0275 56.7274 18.5949 58.4641L19.598 59.5695C19.6049 59.577 19.6318 59.6055 19.6388 59.6127C20.975 60.9694 22.3388 62.1573 23.783 63.415C24.4377 63.9853 25.1142 64.5746 25.7885 65.1813C26.0935 65.4558 26.4933 65.5933 26.8933 65.5933C27.2931 65.5933 27.6931 65.456 27.998 65.1814C28.6084 64.6323 28.6084 63.742 27.9982 63.1928C27.306 62.5699 26.6197 61.972 25.9562 61.3941C24.574 60.1901 23.2678 59.0518 22.0254 57.7949C21.2394 56.8357 21.2402 55.9881 22.032 55.2757C22.7763 54.6059 23.9734 54.6089 24.8508 55.2711C27.3586 57.9215 30.3261 60.1724 32.7156 61.9847C33.5443 62.6135 34.2601 63.1563 34.8535 63.6377C36.2549 64.7743 36.825 66.4065 36.8211 69.2708L36.8086 78.651L25.0271 78.7421L25.0269 76.5225ZM41.5533 85.5359C41.5136 85.5723 41.4457 85.6157 41.3478 85.6164L20.2314 85.7797C20.1316 85.7798 20.0646 85.7382 20.0244 85.7023C19.984 85.6666 19.9357 85.6056 19.9349 85.5172L19.9 81.8589C19.899 81.7706 19.9461 81.7088 19.9857 81.6725C20.0254 81.6363 20.0933 81.5927 20.1912 81.592L41.3074 81.4287H41.3103C41.4068 81.4287 41.4748 81.4707 41.5146 81.5061C41.5551 81.5418 41.6033 81.6029 41.6041 81.6912L41.639 85.3495C41.64 85.4378 41.5929 85.4995 41.5533 85.5359ZM40.1011 83.1212C40.359 83.7046 40.0424 84.3655 39.3941 84.5975C38.7459 84.8296 38.0113 84.5446 37.7537 83.9612C37.4959 83.3778 37.8125 82.7169 38.4607 82.4848C39.109 82.2528 39.8433 82.5377 40.1011 83.1212Z" fill="#00B3F8"/>
</svg>
