<svg width="80" height="80" viewBox="0 0 80 80" fill="none" xmlns="http://www.w3.org/2000/svg">
<path d="M31.875 58.75C26.5596 58.75 21.3636 57.1738 16.9441 54.2208C12.5245 51.2677 9.07985 47.0704 7.04575 42.1596C5.01164 37.2489 4.47943 31.8452 5.51641 26.632C6.55339 21.4187 9.11298 16.6301 12.8715 12.8715C16.6301 9.11298 21.4187 6.55339 26.632 5.51641C31.8452 4.47943 37.2489 5.01164 42.1596 7.04575C47.0704 9.07985 51.2677 12.5245 54.2208 16.9441C57.1738 21.3636 58.75 26.5596 58.75 31.875C58.7417 39.0002 55.9076 45.8311 50.8694 50.8694C45.8311 55.9076 39.0002 58.7417 31.875 58.75ZM31.875 7.50001C27.0541 7.50001 22.3414 8.92958 18.333 11.6079C14.3245 14.2863 11.2003 18.0932 9.35545 22.5471C7.51056 27.0011 7.02786 31.9021 7.96837 36.6303C8.90889 41.3586 11.2304 45.7018 14.6393 49.1107C18.0482 52.5196 22.3914 54.8411 27.1197 55.7817C31.848 56.7222 36.749 56.2395 41.2029 54.3946C45.6569 52.5497 49.4637 49.4255 52.1421 45.417C54.8204 41.4086 56.25 36.6959 56.25 31.875C56.2424 25.4127 53.6719 19.2172 49.1023 14.6477C44.5328 10.0781 38.3373 7.50762 31.875 7.50001Z" fill="#00B3F8"/>
<path d="M64.375 72.3925L45.3662 53.3837L47.1337 51.6162L64.375 68.8575L70.1075 63.125L53.1787 46.1962L54.9462 44.4287L73.6425 63.125L64.375 72.3925Z" fill="#00B3F8"/>
<path d="M15 40H47.5V42.5H15V40Z" fill="#00B3F8"/>
<path d="M20.625 30.625H23.125V38.75H20.625V30.625Z" fill="#00B3F8"/>
<path d="M26.25 25H28.75V38.75H26.25V25Z" fill="#00B3F8"/>
<path d="M32.5 21.25H35V38.75H32.5V21.25Z" fill="#00B3F8"/>
<path d="M38.75 17.5H41.25V38.75H38.75V17.5Z" fill="#00B3F8"/>
</svg>
