<svg width="80" height="80" viewBox="0 0 80 80" fill="none" xmlns="http://www.w3.org/2000/svg">
<path d="M48.5882 4.11768H34C31.4117 4.11768 29.2941 6.23532 29.2941 8.82356V11.4118H19.647C16 11.4118 13.1765 14.353 13.1765 17.8824V23.2941C13.1765 26.1177 14.9412 28.4706 17.4117 29.4118V47.0589C17.4117 47.7647 17.8823 48.2353 18.5882 48.2353C19.2941 48.2353 19.7647 47.7647 19.7647 47.0589V30.1177C24.3529 31.1765 30.1176 32 35.5294 32.353V36.4706C35.5294 37.6471 36.4706 38.7059 37.7647 38.7059H44.8235C46 38.7059 47.0588 37.7647 47.0588 36.4706V32.2353C51.7647 31.8824 57.4118 31.1765 62.8235 30V48.9412C62.8235 49.6471 63.2941 50.1177 64 50.1177C64.7059 50.1177 65.1765 49.6471 65.1765 48.9412V29.2941C67.647 28.353 69.4117 26 69.4117 23.1765V17.8824C69.4117 14.2353 66.4706 11.4118 62.9412 11.4118H53.2941V8.82356C53.2941 6.23532 51.1765 4.11768 48.5882 4.11768ZM31.647 8.82356C31.647 7.52944 32.7059 6.47062 34 6.47062H48.5882C49.8823 6.47062 50.9412 7.52944 50.9412 8.82356V11.4118H31.647V8.82356ZM44.7059 36.2353H38C38 36.1177 38 28 38 28.1177H44.7059C44.7059 28.2353 44.7059 36.4706 44.7059 36.2353ZM62.9412 13.7647C65.1765 13.7647 67.0588 15.6471 67.0588 17.8824V23.1765C67.0588 24.9412 66 26.7059 63.7647 27.2941C58.1176 28.4706 53.5294 29.2941 47.0588 29.7647V27.8824C47.0588 26.7059 46.1176 25.6471 44.8235 25.6471H37.7647C36.5882 25.6471 35.5294 26.5883 35.5294 27.8824V29.8824C28.9412 29.5294 22.2353 28.353 18.5882 27.4118C16.8235 26.9412 15.5294 25.2941 15.5294 23.4118V18C15.5294 15.7647 17.4117 13.8824 19.647 13.8824C52.3529 13.7647 42 13.7647 62.9412 13.7647Z" fill="#00B3F8"/>
<path d="M75.1765 52.0001C74.4706 50.8236 73.0588 49.8825 71.5294 49.6472C70.4706 49.5295 69.2941 49.6472 68.2353 50.353C67.2941 50.9413 65.1765 53.0589 60.5882 55.1766C60 55.4119 59.7647 56.1178 60 56.706C60.2353 57.2942 60.9412 57.5295 61.5294 57.2942C66.1176 55.2942 69.7647 52.1178 69.5294 52.2354C70 51.8825 70.7059 51.7648 71.2941 51.8825C71.5294 52.0001 71.2941 51.8825 72.8235 52.706C73.4118 53.2942 73.5294 54.4707 72.5882 55.4119C66.4706 61.1766 60.8235 67.2942 55.8824 70.4707C52.4706 72.706 46.1176 73.4119 43.8823 73.2942C40.3529 73.1766 38.7059 72.1178 37.6471 71.6472C31.2941 68.3531 22.9412 67.0589 16.4706 70.706C15.8823 71.0589 15.6471 71.7648 16 72.353C16.3529 72.9413 17.0588 73.1766 17.6471 72.8236C23.2941 69.6472 30.8235 70.9413 36.7059 73.8825C39.6471 75.4119 42.2353 75.7648 44 75.7648C46.3529 75.7648 52.7059 75.2942 56.2353 73.1766C60.9412 70.3531 69.6471 61.8825 74.5882 56.8236C75.6471 55.7648 76.1176 53.6472 75.1765 52.0001Z" fill="#00B3F8"/>
<path d="M5.52941 75.8825H12.7059C13.4118 75.8825 13.8823 75.4119 13.8823 74.706C13.8823 73.1766 13.8823 80.1178 13.8823 60.1178C14 60.1178 14.1176 60.0001 14.2353 60.0001C17.5294 57.6472 17.8823 56.5884 18.1176 56.3531C18.5882 55.6472 19.1765 54.5884 20.1176 54.0001C21.1765 53.2943 22.1176 52.8237 23.7647 52.5884C30.7059 51.4119 36.8235 54.9413 41.8823 56.8237C54.4706 61.1766 55.7647 59.5296 57.5294 61.4119C58.1176 62.2354 58.3529 63.5296 57.5294 64.1178C53.2941 65.5296 44.3529 64.5884 39.5294 63.2943C38.9412 63.1766 38.2353 63.5296 38.1176 64.1178C38 64.706 38.3529 65.4119 38.9412 65.5296C47.7647 67.8825 56.7059 67.059 58.3529 66.2354C60.3529 65.4119 61.4118 62.3531 59.4118 59.8825C56.9412 56.706 55.0588 59.2943 43.1765 54.706C36.1176 52.0001 30.8235 48.9413 23.2941 50.2354C22.1176 50.4707 21.0588 50.8237 19.7647 51.5296C18.5882 52.1178 17.1765 53.4119 16.3529 54.9413C15.7647 55.7649 15.2941 56.3531 14 57.2943V56.2354C14 55.5296 13.5294 55.059 12.8235 55.059H5.52941C4.82352 55.059 4.35294 55.5296 4.35294 56.2354V66.0001C4.35294 66.706 4.82352 67.1766 5.52941 67.1766C6.23529 67.1766 6.70588 66.706 6.70588 66.0001V57.4119H11.5294C11.5294 57.7649 11.5294 74.4707 11.5294 73.5296H6.70588V71.7649C6.70588 71.059 6.23529 70.5884 5.52941 70.5884C4.82352 70.5884 4.35294 71.059 4.35294 71.7649V74.706C4.35294 75.4119 4.82352 75.8825 5.52941 75.8825Z" fill="#00B3F8"/>
</svg>
