<svg width="80" height="80" viewBox="0 0 80 80" fill="none" xmlns="http://www.w3.org/2000/svg">
<path d="M32.1047 5.64478C29.3691 5.64478 27.1434 7.8704 27.1434 10.606C27.1434 13.3418 29.3691 15.5673 32.1047 15.5673C34.8403 15.5673 37.0659 13.3417 37.0659 10.606C37.0661 7.8704 34.8405 5.64478 32.1047 5.64478ZM32.1047 13.2235C30.6614 13.2235 29.4872 12.0493 29.4872 10.606C29.4872 9.16274 30.6614 7.98853 32.1047 7.98853C33.548 7.98853 34.7222 9.16274 34.7222 10.606C34.7222 12.0493 33.5481 13.2235 32.1047 13.2235Z" fill="#00B3F8"/>
<path d="M18.6839 5.64478C15.9483 5.64478 13.7227 7.8704 13.7227 10.606C13.7227 13.3418 15.9483 15.5673 18.6839 15.5673C21.4195 15.5673 23.6452 13.3417 23.6452 10.606C23.6452 7.8704 21.4195 5.64478 18.6839 5.64478ZM18.6839 13.2235C17.2406 13.2235 16.0664 12.0493 16.0664 10.606C16.0664 9.16274 17.2406 7.98853 18.6839 7.98853C20.1272 7.98853 21.3014 9.16274 21.3014 10.606C21.3014 12.0493 20.1272 13.2235 18.6839 13.2235Z" fill="#00B3F8"/>
<path d="M61.7099 5.64478H48.2306C46.7575 5.64478 45.5591 6.84321 45.5591 8.31634V12.8959C45.5591 14.369 46.7575 15.5674 48.2306 15.5674H61.7099C63.183 15.5674 64.3814 14.369 64.3814 12.8959V8.31634C64.3814 6.84321 63.183 5.64478 61.7099 5.64478ZM62.0377 12.8959C62.0377 13.0767 61.8906 13.2237 61.7099 13.2237H48.2306C48.0499 13.2237 47.9028 13.0767 47.9028 12.8959V8.31634C47.9028 8.13556 48.0499 7.98853 48.2306 7.98853H61.7099C61.8906 7.98853 62.0377 8.13556 62.0377 8.31634V12.8959Z" fill="#00B3F8"/>
<path d="M39.9994 24.0059C35.1927 24.0059 30.6445 25.5557 26.8469 28.488C26.3345 28.8835 26.24 29.6195 26.6355 30.1318C27.0311 30.6441 27.767 30.7387 28.2792 30.3432C31.663 27.7305 35.7156 26.3496 39.9994 26.3496C50.5842 26.3496 59.1956 34.961 59.1956 45.5459C59.1956 56.1307 50.5842 64.7421 39.9994 64.7421C29.4145 64.7421 20.8031 56.1306 20.8031 45.5459C20.8031 41.1401 22.3338 36.8362 25.113 33.4266C25.5219 32.9249 25.4467 32.1868 24.945 31.7779C24.4433 31.369 23.7052 31.4441 23.2963 31.9457C20.1772 35.7721 18.4592 40.6021 18.4592 45.5459C18.4592 57.423 28.122 67.0859 39.9992 67.0859C51.8764 67.0859 61.5392 57.423 61.5392 45.5459C61.5392 33.6687 51.8766 24.0059 39.9994 24.0059Z" fill="#00B3F8"/>
<path d="M74.1045 70.9028V9.00656C74.1045 4.04031 70.0649 0 65.0995 0H14.8992C9.93391 0 5.89423 4.04031 5.89423 9.00656V70.9952C5.89423 75.9605 9.93391 80 14.8991 80H65.0994C70.0202 80 74.0294 76.0319 74.101 71.1278C74.1061 71.0842 74.1069 70.9334 74.1045 70.9028ZM71.7608 69.8231H62.0592C61.412 69.8231 60.8874 70.3478 60.8874 70.995C60.8874 71.6422 61.412 72.1669 62.0592 72.1669H71.6577C71.1022 75.2831 68.3728 77.6562 65.0995 77.6562H14.8992C11.6259 77.6562 8.89657 75.2831 8.34126 72.167H57.3716C58.0188 72.167 58.5435 71.6423 58.5435 70.9952C58.5435 70.348 58.0188 69.8233 57.3716 69.8233H8.23813V21.2119H71.7608V69.8231ZM71.7608 18.8683H8.23798V9.00656C8.23798 5.33266 11.2263 2.34375 14.8992 2.34375H65.0995C68.7725 2.34375 71.7608 5.33266 71.7608 9.00656V18.8683Z" fill="#00B3F8"/>
<path d="M39.9994 29.4534C31.1258 29.4534 23.9066 36.6726 23.9066 45.546C23.9067 46.3268 23.9628 47.1079 24.0736 47.8673C24.0736 47.8679 24.0739 47.8684 24.0739 47.869C24.6219 51.6595 26.5203 55.1412 29.4203 57.6729C32.3495 60.2302 36.1066 61.6387 39.9992 61.6387C43.8919 61.6387 47.6489 60.2302 50.5783 57.6729C53.478 55.1413 55.3764 51.6601 55.9245 47.8698C55.9247 47.869 55.9248 47.8682 55.925 47.8674C56.0358 47.1087 56.092 46.3276 56.092 45.546C56.092 36.6724 48.8728 29.4534 39.9994 29.4534ZM49.0369 55.9073C46.5345 58.0918 43.325 59.2949 39.9992 59.2949C36.6734 59.2949 33.4639 58.0918 30.9617 55.9073C28.6658 53.9029 27.1044 51.2031 26.5152 48.2429L27.2376 47.7512C28.4451 46.9296 30.0792 46.929 31.2875 47.7512C33.2825 49.1087 35.9787 49.109 37.9742 47.7512C39.1798 46.9313 40.8184 46.9307 42.0241 47.7512C44.0198 49.1091 46.7151 49.1088 48.7114 47.7509C49.9217 46.9276 51.5509 46.9271 52.7605 47.751L53.4831 48.2429C52.8942 51.2029 51.333 53.9029 49.0369 55.9073ZM53.7481 45.6032C53.7398 45.5984 53.7311 45.5942 53.7227 45.5893C53.0936 45.2234 52.4061 44.9879 51.6906 44.8621C50.7952 44.7046 49.8522 44.7779 48.9848 45.0456C48.4194 45.2201 47.8812 45.4802 47.3923 45.8134C46.1837 46.6357 44.5495 46.6345 43.3425 45.8134C42.3517 45.1393 41.1956 44.7829 39.9992 44.7829C38.8103 44.7829 37.6386 45.1448 36.6558 45.8132C35.4451 46.6366 33.8159 46.6362 32.6059 45.8132C31.6151 45.1391 30.4591 44.7827 29.2627 44.7827C28.2244 44.7827 27.1722 45.0627 26.2758 45.5895C26.2675 45.5943 26.2587 45.5984 26.2505 45.6032C26.2503 45.584 26.2503 45.5649 26.2503 45.5457C26.2505 37.9648 32.4181 31.797 39.9994 31.797C47.5806 31.797 53.7483 37.9648 53.7483 45.5459C53.7483 45.5649 53.7483 45.5842 53.7481 45.6032Z" fill="#00B3F8"/>
</svg>
