<svg width="80" height="80" viewBox="0 0 80 80" fill="none" xmlns="http://www.w3.org/2000/svg">
<g clip-path="url(#clip0_2215_13099)">
<path d="M64.9232 69.6775L61.9361 60.7149C60.8922 57.5859 58.229 55.2762 54.9826 54.6853L46.3593 53.1162V52.4478C47.86 51.5769 49.1658 50.4117 50.2058 49.0324H52.811C54.9452 49.0324 56.6819 47.2956 56.6819 45.1614V29.6775C56.6819 20.4285 49.1568 12.9033 39.9077 12.9033C30.6587 12.9033 23.1335 20.4285 23.1335 29.6775V38.7098C23.1335 41.1975 24.9026 43.2788 27.2484 43.764C27.9722 47.4724 30.2897 50.6104 33.4561 52.4478V53.1162L24.8316 54.6853C21.5864 55.2762 18.9219 57.5859 17.8793 60.7149L17.3632 62.2646L12.9684 57.8698C12.4651 57.3665 12.4651 56.5472 12.9684 56.044L18.0651 50.9485L8.4987 41.382L2.7387 47.142C1.03289 48.8478 0.0935364 51.1162 0.0935364 53.5291C0.0935364 55.942 1.03289 58.2091 2.7387 59.9149L20.1774 77.3536C21.8832 79.0594 24.1516 80.0001 26.5645 80.0001C28.9774 80.0001 31.2445 79.0594 32.9103 77.3923L39.1955 71.6336L37.2355 69.6775H64.9232ZM54.1013 45.1614C54.1013 45.8736 53.5219 46.4517 52.811 46.4517H51.7258C52.1 45.5988 52.3839 44.6994 52.5671 43.764C53.1193 43.6491 53.6277 43.4298 54.1013 43.1536V45.1614ZM52.811 40.9317V36.4878C53.5787 36.9356 54.1013 37.7588 54.1013 38.7098C54.1013 39.6607 53.5787 40.484 52.811 40.9317ZM27.0045 40.9317C26.2368 40.484 25.7142 39.6607 25.7142 38.7098C25.7142 37.7588 26.2368 36.9356 27.0045 36.4878V40.9317ZM27.0045 32.2582V33.7317C26.5451 33.8517 26.1142 34.0324 25.7142 34.2659V29.6775C25.7142 21.8517 32.0819 15.484 39.9077 15.484C47.7335 15.484 54.1013 21.8517 54.1013 29.6775V34.2659C53.7013 34.0324 53.2703 33.8504 52.811 33.7317V32.2582H51.5206C47.7052 32.2582 44.1181 30.7717 41.4187 28.0736L39.9077 26.5627L38.3968 28.0736C35.6974 30.7717 32.1103 32.2582 28.2948 32.2582H27.0045ZM29.5851 41.2904V34.7898C33.46 34.4982 37.0729 32.8995 39.9077 30.204C42.7426 32.8995 46.3555 34.4994 50.2303 34.7898V41.2904C50.2303 43.1717 49.7168 44.9317 48.8342 46.4517H39.9077V49.0324H46.7129C44.8935 50.6336 42.5155 51.613 39.9077 51.613C34.2161 51.613 29.5851 46.982 29.5851 41.2904ZM43.7787 53.5988V53.6594L39.9077 57.5304L36.0368 53.6594V53.5988C37.26 53.9833 38.5593 54.1936 39.9077 54.1936C41.2561 54.1936 42.5555 53.9833 43.7787 53.5988ZM20.3258 61.5304C21.0703 59.2956 22.9735 57.6453 25.2922 57.222L34.3116 55.5833L39.9077 61.1795L45.5026 55.5846L54.5206 57.2233C56.8393 57.6465 58.7426 59.2956 59.4871 61.5317L61.3439 67.0969H34.6548L29.629 62.0711L24.0445 67.1227C23.5581 67.6117 22.7077 67.6117 22.22 67.1227L19.4019 64.3046L20.3258 61.5304ZM8.49741 45.0311L14.4148 50.9485L13.0135 52.3498L7.09612 46.4324L8.49741 45.0311ZM31.1232 75.5317C29.9051 76.7472 28.2845 77.4194 26.5619 77.4194C24.8393 77.4194 23.2187 76.7472 21.9993 75.5291L4.56063 58.0917C3.34257 56.8736 2.6716 55.253 2.6716 53.5304C2.6716 51.8065 3.34257 50.1859 4.56063 48.9678L5.27031 48.2582L11.1877 54.1756L11.1413 54.222C9.63289 55.7317 9.63289 58.1872 11.1413 59.6969L20.3942 68.9498C21.1258 69.6801 22.0974 70.084 23.1322 70.084C24.1671 70.084 25.1387 69.6814 25.8226 68.9949L25.9193 68.9085L31.8639 74.853L31.1232 75.5317ZM33.7684 73.1059L27.8368 67.1743L29.5413 65.6336L35.4626 71.5549L33.7684 73.1059Z" fill="#00B3F8"/>
<path d="M76.0368 0H57.9723C55.8381 0 54.1013 1.73677 54.1013 3.87097V14.1935C54.1013 16.3277 55.8381 18.0645 57.9723 18.0645H61.4187L60.0845 25.8465L72.5361 18.0645H76.0368C78.171 18.0645 79.9077 16.3277 79.9077 14.1935V3.87097C79.9077 1.73677 78.171 0 76.0368 0ZM77.3271 14.1935C77.3271 14.9045 76.7477 15.4839 76.0368 15.4839H71.7955L63.6006 20.6052L64.4794 15.4839H57.9723C57.2613 15.4839 56.6819 14.9045 56.6819 14.1935V3.87097C56.6819 3.16 57.2613 2.58065 57.9723 2.58065H76.0368C76.7477 2.58065 77.3271 3.16 77.3271 3.87097V14.1935Z" fill="#00B3F8"/>
<path d="M74.7464 5.16138H59.2626V7.74202H74.7464V5.16138Z" fill="#00B3F8"/>
<path d="M69.5852 10.3225H59.2626V12.9032H69.5852V10.3225Z" fill="#00B3F8"/>
<path d="M74.7464 10.3225H72.1658V12.9032H74.7464V10.3225Z" fill="#00B3F8"/>
<path d="M39.9077 3.87085C23.0484 3.87085 8.5258 15.5328 4.75032 31.7999L2.30516 27.7238L0.0922546 29.0515L4.62774 36.6089L12.1852 32.0734L10.8574 29.8605L7.36064 31.9586C11.0174 17.0773 24.3993 6.45149 39.9077 6.45149C43.2974 6.45149 46.6419 6.95472 49.8484 7.94827L50.6123 5.48375C47.1581 4.41279 43.5568 3.87085 39.9077 3.87085Z" fill="#00B3F8"/>
<path d="M79.2806 28.5704L71.7232 24.0349L67.189 31.5936L69.4019 32.9214L71.66 29.1575C72.8484 32.6349 73.4561 36.2723 73.4561 40.0001C73.4561 47.6736 70.7981 55.1756 65.9735 61.1227L67.9774 62.7485C73.1748 56.3433 76.0368 48.2633 76.0368 40.0001C76.0368 36.053 75.4006 32.1988 74.1606 28.5085L77.9529 30.7833L79.2806 28.5704Z" fill="#00B3F8"/>
</g>
<defs>
<clipPath id="clip0_2215_13099">
<rect width="80" height="80" fill="white"/>
</clipPath>
</defs>
</svg>
