<svg width="101" height="100" viewBox="0 0 101 100" fill="none" xmlns="http://www.w3.org/2000/svg">
<g clip-path="url(#clip0_2214_13020)">
<path d="M87.5428 24.1835C88.4795 24.1835 89.3826 23.8119 90.0488 23.1455L99.8668 13.3275C101.179 12.0156 100.324 9.76404 98.476 9.64802L93.2514 9.3201L96.6605 5.91092C97.2326 5.33885 97.2326 4.41132 96.6605 3.83944C96.0883 3.26737 95.1609 3.26737 94.5889 3.83944L91.1797 7.24861L90.8518 2.02402C90.7356 0.172261 88.4818 -0.676175 87.1723 0.633198L77.3541 10.4511C76.6352 11.1701 76.2596 12.1644 76.3233 13.1791L76.6608 18.5556C68.4667 11.5689 57.9059 7.56229 46.7189 7.56229C21.174 7.56229 0.5 28.2337 0.5 53.7809C0.5 65.3104 4.76952 76.3532 12.5224 84.8746C13.0672 85.4729 13.9935 85.5166 14.5918 84.9723C15.1902 84.4278 15.234 83.5014 14.6896 82.903C7.4285 74.9221 3.42968 64.5798 3.42968 53.7809C3.42968 29.9113 22.8492 10.4918 46.7189 10.4918C57.9048 10.4918 68.4305 14.7789 76.3037 22.1244L69.6198 28.8081C63.5751 23.2595 55.5268 19.864 46.7189 19.864C28.0171 19.864 12.8021 35.079 12.8021 53.7808C12.8021 59.1632 14.1006 64.5243 16.5576 69.2848C16.5578 69.285 16.5578 69.2852 16.558 69.2854C22.2511 80.3168 33.7169 87.6975 46.719 87.6975C62.7403 87.6975 76.6745 76.3813 79.9311 60.6768C80.0953 59.8846 79.5864 59.1093 78.7942 58.945C78.0022 58.7807 77.2268 59.2897 77.0625 60.0819C74.0961 74.3858 61.335 84.7678 46.7192 84.7678C35.0769 84.7678 24.5171 78.3204 19.1615 67.9419C19.1615 67.9417 19.1613 67.9415 19.1613 67.9413C16.8859 63.5321 15.732 58.7679 15.732 53.7808C15.732 36.6945 29.6328 22.7937 46.719 22.7937C54.721 22.7937 62.037 25.8605 67.5489 30.879L60.9245 37.5034C57.1229 34.1816 52.1522 32.166 46.719 32.166C34.8007 32.166 25.1044 41.8622 25.1044 53.7806C25.1044 65.6989 34.8007 75.3952 46.719 75.3952C58.6374 75.3952 68.3338 65.6989 68.3338 53.7806C68.3338 48.3474 66.3182 43.3767 62.9962 39.5751L69.6209 32.9503C74.6006 38.4179 77.6602 45.6632 77.7055 53.6003C77.71 54.4063 78.3651 55.0567 79.1702 55.0567H79.1787C79.9877 55.052 80.6397 54.3925 80.6352 53.5835C80.5852 44.8462 77.1983 36.8749 71.6926 30.8785L78.377 24.1941C85.6908 32.0142 90.008 42.4775 90.008 53.7804C90.0078 77.6506 70.5885 97.0701 46.7189 97.0701C36.8304 97.0701 27.1613 93.6494 19.4927 87.4383C18.8636 86.9293 17.942 87.026 17.4324 87.6545C16.9232 88.2832 17.0201 89.2057 17.6486 89.7149C25.8373 96.3473 36.1613 99.9998 46.7189 99.9998C72.2637 99.9998 92.9377 79.3284 92.9377 53.7809C92.9377 43.7784 89.7943 34.2587 83.8479 26.2513C83.2323 25.4222 82.591 24.6185 81.9283 23.8378C87.6707 24.1986 87.3612 24.1835 87.5428 24.1835ZM65.404 53.7809C65.404 64.0839 57.022 72.4659 46.7189 72.4659C36.4159 72.4659 28.0339 64.0839 28.0339 53.7809C28.0339 43.478 36.4159 35.096 46.7189 35.096C51.3442 35.096 55.5817 36.7861 58.8481 39.58L52.1821 46.246C50.6462 45.1294 48.7587 44.4683 46.7189 44.4683C41.5839 44.4683 37.4062 48.646 37.4062 53.7809C37.4062 58.9159 41.5839 63.0936 46.7189 63.0936C51.854 63.0936 56.0317 58.9159 56.0317 53.7809C56.0317 51.7409 55.3706 49.8534 54.254 48.3177L60.92 41.6517C63.7137 44.9181 65.404 49.1556 65.404 53.7809ZM45.6829 54.8169C46.2552 55.389 47.1825 55.389 47.7546 54.8169L52.1456 50.4259C52.7511 51.4015 53.1018 52.5509 53.1018 53.7811C53.1018 57.3009 50.2384 60.1641 46.7187 60.1641C43.1989 60.1641 40.3357 57.3007 40.3357 53.7811C40.3357 50.2616 43.1989 47.3981 46.7187 47.3981C47.9489 47.3981 49.0983 47.7489 50.0739 48.3542L45.6827 52.7454C45.1108 53.3173 45.1108 54.2448 45.6829 54.8169ZM79.2473 12.9955C79.2362 12.8195 79.3014 12.647 79.426 12.5226L88.035 3.91386L88.4176 10.0107L79.6125 18.8158L79.2473 12.9955ZM81.6842 20.8873L90.4893 12.0822L96.5861 12.4648L87.9772 21.0738C87.8528 21.1984 87.6789 21.2646 87.5043 21.2525L81.6842 20.8873Z" fill="#00B3F8"/>
</g>
<defs>
<clipPath id="clip0_2214_13020">
<rect width="100" height="100" fill="white" transform="translate(0.5)"/>
</clipPath>
</defs>
</svg>
