<svg width="80" height="80" viewBox="0 0 80 80" fill="none" xmlns="http://www.w3.org/2000/svg">
<g clip-path="url(#clip0_2215_13024)">
<path d="M22.8397 11.0706L22.4944 14.8191C22.43 15.5163 22.7298 16.1783 23.2962 16.59C23.8626 17.0016 24.5851 17.0822 25.2287 16.8056L28.6869 15.3188L32.1451 16.8058C32.398 16.9144 32.6628 16.9678 32.9256 16.9678C33.332 16.9678 33.7334 16.84 34.0775 16.59C34.6439 16.1783 34.9437 15.5163 34.8794 14.8191L34.534 11.0706L37.0169 8.24109C37.4787 7.71469 37.6251 7.00266 37.4087 6.33672C37.1923 5.67063 36.6553 5.18109 35.9723 5.02672L32.3006 4.19672L30.3769 0.96125C30.0189 0.359375 29.3872 0 28.6869 0C27.9865 0 27.3548 0.359375 26.9969 0.96125L25.0731 4.19688L21.4014 5.02672C20.7183 5.18094 20.1814 5.67078 19.965 6.33672C19.7486 7.00266 19.895 7.71453 20.357 8.24109L22.8397 11.0706ZM25.7483 6.44719C26.2723 6.32875 26.7303 5.99594 27.0048 5.53422L28.687 2.70516L30.3692 5.53437C30.6437 5.99609 31.1017 6.32875 31.6258 6.44719L34.8362 7.17297L32.6653 9.64688C32.3108 10.0509 32.1359 10.5894 32.1853 11.1241L32.4873 14.4017L29.4633 13.1016C29.2165 12.9955 28.9519 12.9425 28.687 12.9425C28.4222 12.9425 28.1572 12.9955 27.9103 13.1017L24.8864 14.4017L25.1884 11.1241C25.2376 10.5891 25.0628 10.0506 24.7084 9.64703L22.5375 7.17266L25.7483 6.44719Z" fill="#00B3F8"/>
<path d="M5.09747 16.8175L7.84607 15.636L10.5947 16.8175C10.829 16.9185 11.0743 16.968 11.3181 16.968C11.6947 16.968 12.0668 16.8494 12.3858 16.6177C12.9109 16.2363 13.1889 15.6225 13.1292 14.9761L12.8545 11.9969L14.8279 9.74798C15.2559 9.26001 15.3917 8.60017 15.1912 7.98283C14.9906 7.36564 14.4929 6.91173 13.8598 6.76861L10.9415 6.10908L9.41247 3.53751C9.08075 2.9797 8.49513 2.64658 7.84607 2.64658C7.197 2.64658 6.61153 2.9797 6.27966 3.53751L4.75075 6.10923L1.83232 6.76876C1.19919 6.91189 0.701534 7.36579 0.500909 7.98298C0.300284 8.60033 0.436065 9.26017 0.864346 9.74829L2.83763 11.9969L2.5631 14.9761C2.50356 15.6225 2.78153 16.2361 3.30669 16.6177C3.83169 16.9992 4.50138 17.0738 5.09747 16.8175ZM3.20435 8.86142L5.48606 8.34579C5.97153 8.23595 6.39591 7.92767 6.6506 7.4997L7.84591 5.48908L9.04169 7.50001C9.29622 7.92783 9.7206 8.23611 10.2062 8.34579L12.4878 8.86142L10.9448 10.6197C10.6165 10.9939 10.4545 11.4928 10.5 11.9889L10.7147 14.318L8.5656 13.3941C8.10825 13.1975 7.58357 13.1974 7.12622 13.3942L4.97731 14.3181L5.192 11.9891C5.23763 11.4935 5.07575 10.9945 4.74716 10.6195L3.20435 8.86142Z" fill="#00B3F8"/>
<path d="M43.4939 11.9969L43.2194 14.9761C43.1598 15.6225 43.4378 16.2361 43.963 16.6177C44.4881 16.9992 45.1577 17.0738 45.7539 16.8174L48.5025 15.6358L51.2511 16.8175C51.4853 16.9183 51.7308 16.9678 51.9745 16.9678C52.3511 16.9678 52.7233 16.8492 53.0422 16.6175C53.5673 16.2361 53.8453 15.6224 53.7856 14.976L53.5111 11.9969L55.4845 9.74798C55.9125 9.26001 56.0483 8.60017 55.8478 7.98283C55.6472 7.36564 55.1495 6.91173 54.5164 6.76861L51.598 6.10908L50.0687 3.53751C49.737 2.9797 49.1514 2.64658 48.5023 2.64658C47.8533 2.64658 47.2678 2.9797 46.9361 3.53751L45.4072 6.10923L42.4887 6.76876C41.8556 6.91189 41.358 7.36579 41.1573 7.98298C40.9567 8.60033 41.0925 9.26017 41.5208 9.74814L43.4939 11.9969ZM46.1425 8.34579C46.628 8.23595 47.0523 7.92767 47.307 7.4997L48.5023 5.48908L49.698 7.50001C49.9525 7.92783 50.377 8.23611 50.8625 8.34579L53.1441 8.86142L51.6011 10.6197C51.2728 10.9939 51.1108 11.4928 51.1562 11.9889L51.3709 14.3181L49.2219 13.3941C48.7645 13.1975 48.2398 13.1974 47.7825 13.3942L45.6336 14.3181L45.8483 11.9891C45.8941 11.4933 45.7319 10.9942 45.4033 10.6197L43.8605 8.86142L46.1425 8.34579Z" fill="#00B3F8"/>
<path d="M79.59 62.632C79.59 61.3528 79.0428 60.1992 78.1702 59.3928C79.0428 58.5864 79.59 57.4326 79.59 56.1536C79.59 53.7214 77.6111 51.7425 75.1806 51.7425L63.4075 51.7245C62.5133 51.7231 61.7858 50.9944 61.7858 50.1001V41.735C61.7858 39.5944 60.7045 37.6348 58.8934 36.4934C58.0252 35.9459 56.9761 35.8406 56.015 36.2044C55.0528 36.5684 54.3353 37.3433 54.0462 38.33L49.3677 54.3055C48.7683 56.3523 46.8602 57.7817 44.7273 57.7817H42.6992V57.1128C42.6992 55.7578 41.5969 54.6555 40.2419 54.6555H32.4913C31.1363 54.6555 30.0339 55.7578 30.0339 57.1128V64.6381H10.0147C8.98203 64.6381 8.01813 64.1769 7.37031 63.3725C6.7225 62.5683 6.47719 61.5283 6.69719 60.5192C7.6525 56.1389 10.1016 52.1775 13.5931 49.3653C17.0848 46.553 21.4769 45.0042 25.9603 45.0042H28.1916C34.6844 45.0042 40.8598 47.8109 45.1345 52.7047C45.5603 53.1923 46.3005 53.242 46.7881 52.8164C47.2756 52.3906 47.3255 51.6503 46.8997 51.163C43.5442 47.3216 39.1275 44.6462 34.2784 43.4197C38.1127 41.277 40.7123 37.1791 40.7123 32.4834C40.7123 25.5794 35.0956 19.9626 28.1917 19.9626C25.3241 19.9626 22.5216 20.9569 20.3002 22.7622C19.7978 23.1703 19.7216 23.9084 20.1298 24.4108C20.5381 24.9128 21.2763 24.9892 21.7783 24.5811C23.5831 23.1142 25.8608 22.3064 28.1917 22.3064C33.8033 22.3064 38.3686 26.8719 38.3686 32.4834C38.3686 38.095 33.8033 42.6605 28.1917 42.6605C22.58 42.6605 18.0147 38.095 18.0147 32.4834C18.0147 30.9416 18.3503 29.4611 19.0122 28.0831C19.2925 27.4998 19.0467 26.7997 18.4633 26.5194C17.8798 26.2392 17.1798 26.485 16.8995 27.0684C16.0842 28.7655 15.6708 30.5873 15.6708 32.4834C15.6708 36.9589 18.0325 40.8911 21.5736 43.1053C18.1341 43.8062 14.878 45.3211 12.123 47.5398C8.21625 50.6866 5.47594 55.1186 4.40719 60.0197C4.03531 61.7251 4.44984 63.483 5.54484 64.8423C6.63969 66.2019 8.26891 66.9816 10.0145 66.9816H30.0338V76.8734C30.0338 78.2284 31.1361 79.3308 32.4911 79.3308H40.2417C41.5967 79.3308 42.6991 78.2284 42.6991 76.8734V76.8364H46.4766C49.0263 76.8364 51.4334 77.3211 53.6314 78.2767C56.1842 79.3867 58.8898 79.9494 61.6686 79.9494L75.1788 80C77.6111 80 79.5898 78.0211 79.5898 75.5889C79.5898 74.3098 79.0427 73.1562 78.17 72.3498C79.0427 71.5434 79.5898 70.3897 79.5898 69.1106C79.5898 67.8316 79.0427 66.6778 78.17 65.8714C79.0427 65.0647 79.59 63.9109 79.59 62.632ZM40.3553 76.8736C40.3553 76.9361 40.3044 76.9872 40.2417 76.9872H32.4911C32.4284 76.9872 32.3775 76.9362 32.3775 76.8736V57.1126C32.3775 57.0501 32.4284 56.9991 32.4911 56.9991H40.2417C40.3044 56.9991 40.3553 57.05 40.3553 57.1126V76.8736ZM71.3319 60.5645H75.1789C76.3189 60.5645 77.2463 61.492 77.2463 62.6319C77.2463 63.7717 76.3187 64.6991 75.1789 64.6991H71.3319C70.6847 64.6991 70.16 65.2236 70.16 65.8709C70.16 66.5183 70.6847 67.0428 71.3319 67.0428H75.1789C76.3189 67.0428 77.2463 67.9703 77.2463 69.1101C77.2463 70.25 76.3187 71.1775 75.1789 71.1775H71.3319C70.6847 71.1775 70.16 71.702 70.16 72.3494C70.16 72.9967 70.6847 73.5212 71.3319 73.5212H75.1789C76.3189 73.5212 77.2463 74.4487 77.2463 75.5884C77.2463 76.7284 76.3187 77.6558 75.1831 77.6558L61.6728 77.6053C59.2131 77.6053 56.822 77.1078 54.5658 76.127C52.0713 75.0423 49.3497 74.4923 46.4766 74.4923H42.6991V60.125H44.7272C47.8938 60.125 50.7267 58.0026 51.6167 54.9639L56.2953 38.9883C56.3758 38.7133 56.5759 38.4973 56.8444 38.3958C57.1116 38.2948 57.4028 38.3237 57.6438 38.4756C58.7698 39.1853 59.442 40.4036 59.442 41.7344V50.0995C59.442 52.284 61.2194 54.0641 63.4039 54.0676L75.1788 54.0856C76.3188 54.0856 77.2461 55.0131 77.2461 56.153C77.2461 57.2928 76.3186 58.2203 75.1788 58.2203H71.3317C70.6845 58.2203 70.1599 58.7448 70.1599 59.3922C70.1599 60.0395 70.6845 60.5645 71.3319 60.5645Z" fill="#00B3F8"/>
</g>
<defs>
<clipPath id="clip0_2215_13024">
<rect width="80" height="80" fill="white"/>
</clipPath>
</defs>
</svg>
