<svg width="80" height="80" viewBox="0 0 80 80" fill="none" xmlns="http://www.w3.org/2000/svg">
<path d="M63.2838 25.9413L55.3338 17.9913C55.17 17.8261 54.9633 17.7099 54.7371 17.6558C54.5109 17.6017 54.2741 17.6117 54.0533 17.6849C53.8324 17.758 53.6364 17.8913 53.4872 18.0697C53.338 18.2482 53.2416 18.4647 53.2088 18.695C53.0773 19.6142 52.6925 20.4785 52.0975 21.1913C51.5025 21.9041 50.7208 22.4371 49.8399 22.7307C48.959 23.0242 48.0138 23.0667 47.1102 22.8534C46.2065 22.64 45.3801 22.1792 44.7236 21.5227C44.067 20.8661 43.6063 20.0397 43.3929 19.1361C43.1796 18.2325 43.222 17.2872 43.5156 16.4064C43.8091 15.5255 44.3422 14.7438 45.0549 14.1488C45.7677 13.5537 46.6321 13.169 47.5513 13.0375C47.7815 13.0047 47.9981 12.9082 48.1765 12.759C48.355 12.6098 48.4883 12.4138 48.5614 12.193C48.6345 11.9722 48.6446 11.7354 48.5905 11.5092C48.5363 11.2829 48.4202 11.0763 48.255 10.9125L40.305 2.96251C40.0706 2.72817 39.7527 2.59653 39.4213 2.59653C39.0898 2.59653 38.7719 2.72817 38.5375 2.96251L31.6338 9.86376C31.2938 8.59149 30.6249 7.43116 29.6943 6.49944C28.7636 5.56772 27.604 4.89747 26.3322 4.55609C25.0603 4.21471 23.7209 4.21423 22.4488 4.55471C21.1767 4.89519 20.0167 5.56462 19.0853 6.49568C18.154 7.42674 17.4843 8.5866 17.1435 9.85863C16.8026 11.1307 16.8027 12.47 17.1438 13.742C17.4848 15.0139 18.1547 16.1737 19.0862 17.1046C20.0177 18.0355 21.1778 18.7047 22.45 19.045L15.5538 25.9413C15.3194 26.1757 15.1878 26.4936 15.1878 26.825C15.1878 27.1565 15.3194 27.4743 15.5538 27.7088L22.4525 34.6163C20.9381 35.0231 19.5893 35.8944 18.5957 37.1076C17.6022 38.3208 17.0139 39.8149 16.9136 41.3798C16.8133 42.9447 17.2061 44.5016 18.0366 45.8317C18.8671 47.1619 20.0937 48.1982 21.5438 48.795L18.625 57.2138C18.2373 58.0873 18.055 59.0381 18.0923 59.9931C18.1296 60.9481 18.3854 61.8819 18.84 62.7225L23.2275 73.0975C23.2437 73.1374 23.2625 73.1763 23.2838 73.2138C23.5911 73.7769 23.7514 74.4085 23.75 75.05V76.25C23.75 76.5815 23.8817 76.8995 24.1161 77.1339C24.3505 77.3683 24.6685 77.5 25 77.5C25.3315 77.5 25.6495 77.3683 25.8839 77.1339C26.1183 76.8995 26.25 76.5815 26.25 76.25V75.05C26.2487 74.0101 25.9911 72.9866 25.5 72.07L21.1113 61.695C21.0938 61.6521 21.0738 61.6104 21.0513 61.57C20.7648 61.0471 20.6055 60.4641 20.5864 59.8682C20.5673 59.2722 20.6889 58.6802 20.9413 58.14L23.9988 49.34C24.13 49.34 24.2588 49.3588 24.3913 49.3588C26.041 49.3602 27.6451 48.8166 28.9541 47.8125C30.2632 46.8084 31.2039 45.4001 31.63 43.8063L33.75 45.9175V58.75C33.75 59.0815 33.8817 59.3995 34.1161 59.6339C34.3505 59.8683 34.6685 60 35 60C35.3315 60 35.6495 59.8683 35.8839 59.6339C36.1183 59.3995 36.25 59.0815 36.25 58.75V41.25C36.25 40.2554 36.6451 39.3016 37.3484 38.5984C38.0516 37.8951 39.0054 37.5 40 37.5C40.9946 37.5 41.9484 37.8951 42.6517 38.5984C43.3549 39.3016 43.75 40.2554 43.75 41.25V56.3888C43.7522 58.135 44.1587 59.8571 44.9375 61.42L45.395 62.3375C45.9999 63.5531 46.3146 64.8923 46.3146 66.25C46.3146 67.6077 45.9999 68.947 45.395 70.1625L44.145 72.6625C43.8855 73.1836 43.7503 73.7578 43.75 74.34V76.25C43.75 76.5815 43.8817 76.8995 44.1161 77.1339C44.3505 77.3683 44.6685 77.5 45 77.5C45.3315 77.5 45.6495 77.3683 45.8839 77.1339C46.1183 76.8995 46.25 76.5815 46.25 76.25V74.34C46.2487 74.1467 46.2915 73.9556 46.375 73.7813L47.625 71.2813C48.4025 69.7183 48.8072 67.9963 48.8072 66.2506C48.8072 64.5049 48.4025 62.783 47.625 61.22L47.1675 60.3025C46.7194 59.4024 46.4289 58.4321 46.3088 57.4338C47.1206 58.2485 48.0856 58.8947 49.1481 59.3352C50.2107 59.7756 51.3498 60.0015 52.5 60C53.4946 60 54.4484 59.6049 55.1517 58.9017C55.8549 58.1984 56.25 57.2446 56.25 56.25V49.125C57.8633 48.7258 59.2982 47.8015 60.3287 46.4976C61.3592 45.1937 61.9269 43.5841 61.9425 41.9222C61.9581 40.2603 61.4207 38.6403 60.4149 37.3173C59.409 35.9942 57.9918 35.0432 56.3863 34.6138L63.2838 27.7063C63.5173 27.472 63.6485 27.1546 63.6485 26.8238C63.6485 26.4929 63.5173 26.1756 63.2838 25.9413ZM52.5 57.5C50.843 57.498 49.2545 56.8389 48.0828 55.6672C46.9111 54.4956 46.252 52.907 46.25 51.25V44.75L47.205 43.795C47.599 45.2753 48.4379 46.599 49.6084 47.5871C50.7789 48.5752 52.2246 49.1801 53.75 49.32V56.25C53.75 56.5815 53.6183 56.8995 53.3839 57.1339C53.1495 57.3683 52.8315 57.5 52.5 57.5ZM52.6788 34.7913C52.4912 34.9767 52.3671 35.2167 52.3242 35.477C52.2813 35.7373 52.3219 36.0045 52.44 36.2403C52.5582 36.4761 52.748 36.6685 52.9822 36.7899C53.2163 36.9113 53.4829 36.9556 53.7438 36.9163C54.7823 36.7693 55.8407 36.9526 56.7693 37.4403C57.6979 37.928 58.4496 38.6953 58.918 39.6338C59.3865 40.5722 59.5479 41.6342 59.3796 42.6694C59.2113 43.7047 58.7216 44.6608 57.9799 45.4025C57.2383 46.1441 56.2822 46.6338 55.2469 46.8021C54.2117 46.9704 53.1497 46.809 52.2113 46.3405C51.2728 45.8721 50.5055 45.1204 50.0178 44.1918C49.5301 43.2632 49.3468 42.2048 49.4938 41.1663C49.5331 40.9054 49.4888 40.6388 49.3674 40.4047C49.246 40.1705 49.0536 39.9807 48.8178 39.8625C48.582 39.7444 48.3148 39.7038 48.0545 39.7467C47.7942 39.7896 47.5542 39.9137 47.3688 40.1013L46.25 41.2225C46.2482 40.4017 46.0848 39.5894 45.769 38.8318C45.4532 38.0742 44.9913 37.3862 44.4097 36.8071C43.8281 36.228 43.1381 35.7692 42.3791 35.4568C41.6201 35.1443 40.807 34.9845 39.9863 34.9863C39.1655 34.9881 38.3531 35.1515 37.5955 35.4673C36.8379 35.783 36.15 36.2449 35.5709 36.8266C34.4013 38.0012 33.7464 39.5924 33.75 41.25V42.3825L31.4588 40.0913C31.2733 39.9037 31.0333 39.7796 30.773 39.7367C30.5127 39.6938 30.2456 39.7344 30.0097 39.8525C29.7739 39.9707 29.5815 40.1605 29.4601 40.3947C29.3387 40.6288 29.2945 40.8954 29.3338 41.1563C29.4807 42.1948 29.2974 43.2532 28.8097 44.1818C28.322 45.1104 27.5547 45.8621 26.6163 46.3305C25.6778 46.799 24.6158 46.9604 23.5806 46.7921C22.5453 46.6238 21.5892 46.1341 20.8476 45.3925C20.1059 44.6508 19.6163 43.6947 19.4479 42.6594C19.2796 41.6242 19.4411 40.5622 19.9095 39.6238C20.378 38.6853 21.1297 37.918 22.0582 37.4303C22.9868 36.9426 24.0452 36.7593 25.0838 36.9063C25.3447 36.9459 25.6115 36.9019 25.8459 36.7806C26.0803 36.6593 26.2703 36.4669 26.3887 36.231C26.5071 35.9951 26.5477 35.7278 26.5048 35.4674C26.462 35.2069 26.3378 34.9668 26.15 34.7813L18.2038 26.825L26.1588 18.875C26.3463 18.6896 26.4705 18.4495 26.5133 18.1893C26.5562 17.929 26.5157 17.6618 26.3975 17.426C26.2793 17.1902 26.0895 16.9978 25.8554 16.8764C25.6212 16.7549 25.3546 16.7107 25.0938 16.75C24.0566 16.895 23.0001 16.7106 22.0734 16.223C21.1466 15.7353 20.3964 14.969 19.9285 14.0321C19.4606 13.0952 19.2987 12.0351 19.4656 11.0012C19.6325 9.96739 20.1198 9.01206 20.8588 8.27001C21.8118 7.36214 23.0775 6.85572 24.3938 6.85572C25.71 6.85572 26.9758 7.36214 27.9288 8.27001C28.4758 8.81846 28.8879 9.4865 29.1326 10.2214C29.3773 10.9564 29.4478 11.7381 29.3388 12.505C29.2995 12.7658 29.3437 13.0324 29.4651 13.2666C29.5865 13.5008 29.7789 13.6905 30.0147 13.8087C30.2506 13.9269 30.5177 13.9675 30.778 13.9246C31.0383 13.8817 31.2783 13.7576 31.4638 13.57L39.425 5.61751L45.0263 11.22C43.9435 11.7371 43.0007 12.5064 42.2769 13.4634C41.5531 14.4203 41.0694 15.5369 40.8665 16.7195C40.6636 17.9021 40.7474 19.1161 41.1108 20.2596C41.4743 21.4031 42.1068 22.4427 42.9552 23.2911C43.8036 24.1395 44.8432 24.772 45.9867 25.1354C47.1302 25.4989 48.3442 25.5827 49.5268 25.3798C50.7093 25.1769 51.826 24.6932 52.7829 23.9694C53.7398 23.2456 54.5092 22.3027 55.0263 21.22L60.6288 26.8213L52.6788 34.7913Z" fill="#00B3F8"/>
<path d="M76.25 28.75H68.75C68.4185 28.75 68.1005 28.6183 67.8661 28.3839C67.6317 28.1495 67.5 27.8315 67.5 27.5C67.5 27.1685 67.6317 26.8505 67.8661 26.6161C68.1005 26.3817 68.4185 26.25 68.75 26.25H76.25C76.5815 26.25 76.8995 26.3817 77.1339 26.6161C77.3683 26.8505 77.5 27.1685 77.5 27.5C77.5 27.8315 77.3683 28.1495 77.1339 28.3839C76.8995 28.6183 76.5815 28.75 76.25 28.75Z" fill="#00B3F8"/>
<path d="M67.3987 14.375C67.1236 14.375 66.8561 14.2842 66.6378 14.1167C66.4195 13.9492 66.2626 13.7143 66.1914 13.4485C66.1202 13.1828 66.1387 12.9009 66.2439 12.6467C66.3492 12.3925 66.5355 12.1801 66.7737 12.0425L73.2737 8.29251C73.5607 8.12936 73.9005 8.08634 74.2191 8.17282C74.5376 8.25931 74.809 8.46828 74.9741 8.75414C75.1391 9.04 75.1844 9.37954 75.1 9.69866C75.0157 10.0178 74.8085 10.2906 74.5237 10.4575L68.0237 14.2075C67.8339 14.3177 67.6182 14.3755 67.3987 14.375Z" fill="#00B3F8"/>
<path d="M73.8925 46.875C73.673 46.8755 73.4573 46.8177 73.2675 46.7075L66.7675 42.9575C66.6242 42.876 66.4984 42.767 66.3974 42.6367C66.2964 42.5064 66.2222 42.3575 66.179 42.1984C66.1358 42.0393 66.1245 41.8732 66.1457 41.7097C66.167 41.5463 66.2204 41.3886 66.3028 41.2458C66.3852 41.1031 66.4951 40.978 66.626 40.8779C66.757 40.7778 66.9064 40.7045 67.0658 40.6624C67.2252 40.6202 67.3913 40.61 67.5547 40.6324C67.718 40.6547 67.8753 40.7091 68.0175 40.7925L74.5175 44.5425C74.7558 44.6801 74.942 44.8925 75.0473 45.1467C75.1526 45.4009 75.1711 45.6827 75.0998 45.9485C75.0286 46.2143 74.8717 46.4492 74.6534 46.6167C74.4351 46.7842 74.1677 46.875 73.8925 46.875Z" fill="#00B3F8"/>
<path d="M11.25 28.75H3.75C3.41848 28.75 3.10054 28.6183 2.86612 28.3839C2.6317 28.1495 2.5 27.8315 2.5 27.5C2.5 27.1685 2.6317 26.8505 2.86612 26.6161C3.10054 26.3817 3.41848 26.25 3.75 26.25H11.25C11.5815 26.25 11.8995 26.3817 12.1339 26.6161C12.3683 26.8505 12.5 27.1685 12.5 27.5C12.5 27.8315 12.3683 28.1495 12.1339 28.3839C11.8995 28.6183 11.5815 28.75 11.25 28.75Z" fill="#00B3F8"/>
<path d="M12.6013 14.375C12.3818 14.3755 12.1661 14.3177 11.9763 14.2075L5.47625 10.4575C5.19149 10.2906 4.98432 10.0178 4.89995 9.69866C4.81558 9.37954 4.86086 9.04 5.02591 8.75414C5.19095 8.46828 5.46237 8.25931 5.78092 8.17282C6.09947 8.08634 6.4393 8.12936 6.72625 8.29251L13.2263 12.0425C13.4645 12.1801 13.6508 12.3925 13.7561 12.6467C13.8614 12.9009 13.8798 13.1828 13.8086 13.4485C13.7374 13.7143 13.5805 13.9492 13.3622 14.1167C13.1439 14.2842 12.8764 14.375 12.6013 14.375Z" fill="#00B3F8"/>
<path d="M6.10749 46.875C5.83233 46.875 5.56487 46.7842 5.34657 46.6167C5.12828 46.4492 4.97136 46.2143 4.90014 45.9485C4.82892 45.6827 4.84739 45.4009 4.95268 45.1467C5.05797 44.8925 5.2442 44.6801 5.48249 44.5425L11.9825 40.7925C12.1247 40.7091 12.282 40.6547 12.4453 40.6324C12.6087 40.61 12.7748 40.6202 12.9342 40.6624C13.0935 40.7045 13.243 40.7778 13.374 40.8779C13.5049 40.978 13.6148 41.1031 13.6972 41.2458C13.7796 41.3886 13.833 41.5463 13.8542 41.7097C13.8755 41.8732 13.8642 42.0393 13.821 42.1984C13.7778 42.3575 13.7036 42.5064 13.6026 42.6367C13.5016 42.767 13.3758 42.876 13.2325 42.9575L6.73249 46.7075C6.54265 46.8177 6.32698 46.8755 6.10749 46.875Z" fill="#00B3F8"/>
</svg>
