<svg width="80" height="80" viewBox="0 0 80 80" fill="none" xmlns="http://www.w3.org/2000/svg">
<g clip-path="url(#clip0_2215_13039)">
<path d="M9.05751 35.4548C8.63759 37.1534 8.32053 38.8871 8.16689 40.6267C8.05621 41.7335 8.00022 42.8682 8.00022 44.0004C8.00022 63.8505 24.1499 80.0001 44 80.0001C63.8508 80.0001 79.9997 63.8505 79.9997 44.0004C79.9997 37.615 78.3051 31.3468 75.0961 25.8735C75.0681 25.8241 75.0375 25.7791 75.0043 25.7349C71.6001 19.9217 66.6431 15.2082 60.6613 12.1002C55.9869 9.63927 50.7337 8.25646 45.3991 8.04423L45.0911 2.20703C45.0547 1.52604 44.5097 0.981773 43.8294 0.945966L25.9174 0.00196162C25.547 -0.0182205 25.1713 0.123055 24.9044 0.391282L0.390897 24.9041C0.140248 25.1535 0.000274658 25.494 0.000274658 25.8468C0.000274658 26.2004 0.140248 26.5402 0.390897 26.7895L9.05751 35.4548ZM13.8726 40.2712C12.8713 40.0922 11.911 39.9053 10.9781 39.7107C11.0634 39.0323 11.1565 38.3552 11.2873 37.684L13.8726 40.2712ZM10.7098 42.3786C12.6994 42.7868 14.8381 43.1605 17.0952 43.4939L19.2469 45.6455C19.5073 45.9053 19.8484 46.0362 20.1896 46.0362C20.5314 46.0362 20.8725 45.9053 21.1323 45.6455L22.5828 44.195C22.8348 44.2243 23.0887 44.2497 23.3406 44.2777C23.3588 48.7093 23.8445 53.0589 24.7228 57.2138C20.4376 56.788 16.3927 56.2255 12.7215 55.5283C11.3954 51.9333 10.6669 48.0511 10.6669 44.0004C10.6669 43.46 10.6818 42.919 10.7098 42.3786ZM54.5924 17.3593C56.2323 20.3111 57.5748 23.5669 58.6027 27.0389C54.2909 27.3481 49.8443 27.5187 45.3333 27.5473V21.4445L45.6458 21.1327C45.9121 20.8658 46.0547 20.4966 46.0351 20.119L45.9629 18.759C49.0735 18.6177 52.0045 18.1418 54.5924 17.3593ZM45.3333 69.2163V60.7978C49.9205 60.7678 54.4439 60.5895 58.8 60.2724C57.7505 63.995 56.3443 67.4826 54.6002 70.6252C51.8749 69.8081 48.7161 69.3199 45.3333 69.2163ZM32.5547 70.8882C30.7351 67.6571 29.2761 64.051 28.198 60.1975C32.8588 60.5615 37.7272 60.7652 42.6667 60.7978V69.2163C38.9323 69.3309 35.459 69.9097 32.5547 70.8882ZM42.6667 58.1311C37.4779 58.0973 32.3646 57.8759 27.5073 57.4736C26.5711 53.3401 26.0535 48.9841 26.0164 44.5349C31.3002 45.0205 36.8841 45.2829 42.6667 45.3187V58.1311ZM45.3333 58.1311V45.3187C50.7285 45.2855 55.9999 45.0485 61.0012 44.6254C60.9576 49.0693 60.4374 53.4215 59.4973 57.5485C54.9361 57.9013 50.1712 58.0999 45.3333 58.1311ZM45.3333 42.6521V30.214C50.0911 30.1841 54.7831 29.9992 59.3241 29.6619C60.2759 33.5805 60.8202 37.7218 60.9576 41.9548C55.9804 42.3806 50.7213 42.6176 45.3333 42.6521ZM42.6667 27.5473C41.5508 27.5402 40.4245 27.5259 39.2787 27.4992L42.6667 24.1112V27.5473ZM36.683 30.0962C38.7123 30.1645 40.7109 30.2016 42.6667 30.2153V42.6521C36.8965 42.6163 31.3269 42.3519 26.0574 41.8617C26.0698 41.4672 26.0789 41.0707 26.1004 40.6788L36.683 30.0962ZM13.9709 58.4612C17.5034 59.0751 21.3296 59.5751 25.3562 59.9534C26.4806 64.2548 28.0697 68.2762 30.0645 71.883C29.2553 72.2697 28.5365 72.7027 27.8751 73.1616C21.8589 69.8212 16.9767 64.6773 13.9709 58.4612ZM30.7058 74.5588C33.9323 72.8641 38.763 71.8426 44 71.8426C49.2376 71.8426 54.0683 72.8641 57.2948 74.5588C53.2187 76.3387 48.7239 77.3335 44 77.3335C39.2761 77.3335 34.7819 76.3387 30.7058 74.5588ZM60.1255 73.1616C59.2551 72.5575 58.2577 72.0132 57.1373 71.536C59.0292 68.0451 60.5467 64.1799 61.6346 60.0523C66.0363 59.6643 70.2029 59.1266 74.031 58.4612C71.0239 64.6773 66.1411 69.8212 60.1255 73.1616ZM75.2758 55.5283C71.3214 56.2789 66.9321 56.8772 62.272 57.3121C63.1574 53.1605 63.6483 48.8135 63.6737 44.3832C68.5825 43.8923 73.1625 43.2139 77.2784 42.3682C77.3064 42.9112 77.3331 43.4548 77.3331 44.0004C77.3331 48.0511 76.6052 51.9333 75.2758 55.5283ZM77.0531 39.6938C73.0056 40.5388 68.4764 41.2152 63.6177 41.7068C63.4693 37.4926 62.9269 33.3657 61.9999 29.438C66.0122 29.0669 69.7772 28.5897 73.227 28.0122C75.2159 31.6326 76.5199 35.5935 77.0531 39.6938ZM71.7361 25.5526C68.5096 26.063 65.0187 26.4894 61.3111 26.824C60.2551 23.1216 58.8573 19.6418 57.1412 16.4752C58.2798 15.994 59.2694 15.4511 60.1268 14.8606C64.8189 17.4446 68.7921 21.1001 71.7361 25.5526ZM57.3124 13.4563C56.5748 13.8391 55.7414 14.1939 54.8137 14.5149C52.2109 15.4244 49.1132 15.9511 45.8229 16.0989L45.539 10.7154C49.6067 10.9088 53.6132 11.8391 57.3124 13.4563ZM26.3699 2.69661L42.4909 3.54426L43.3405 19.6672L20.1909 42.8174L3.219 25.8468L26.3699 2.69661Z" fill="#00B3F8"/>
<path d="M36.2175 13.8163C37.2429 13.8163 38.2656 13.427 39.0456 12.6484C40.6055 11.0898 40.6055 8.55137 39.0456 6.99084C37.4857 5.43095 34.9499 5.43095 33.3894 6.99084C31.8295 8.55007 31.8295 11.0885 33.3894 12.6484C34.17 13.427 35.1934 13.8163 36.2175 13.8163ZM35.2748 8.87624C35.5352 8.61648 35.8763 8.48692 36.2175 8.48692C36.5593 8.48692 36.9004 8.61778 37.1602 8.87624C37.6804 9.39642 37.6804 10.2421 37.1602 10.7629C36.6387 11.2831 35.7963 11.2831 35.2748 10.7629C34.7552 10.2421 34.7552 9.39642 35.2748 8.87624Z" fill="#00B3F8"/>
<path d="M20.8576 33.5043C21.282 33.5043 21.687 33.3019 21.9402 32.9496L24.9721 28.7348L30.0281 28.6723C30.5268 28.6658 30.9818 28.3807 31.2045 27.9334C31.4284 27.4868 31.3816 26.9523 31.0854 26.5499L28.196 22.6177L29.9298 17.8137C30.1055 17.3287 29.9844 16.7844 29.6192 16.4192C29.254 16.0539 28.711 15.9322 28.2227 16.1086L23.4207 17.843L19.4871 14.9524C19.0828 14.6548 18.5509 14.6112 18.103 14.8339C17.6564 15.0565 17.3712 15.511 17.3647 16.011L17.3016 21.0656L13.0874 24.0975C12.6727 24.3963 12.4644 24.9041 12.5523 25.4087C12.6389 25.9113 13.0073 26.3201 13.4976 26.4614L18.2189 27.8214L19.5776 32.5414C19.7176 33.0323 20.1284 33.4002 20.631 33.4868C20.7046 33.4991 20.782 33.5043 20.8576 33.5043ZM19.6629 25.4614L16.8726 24.6574L19.4044 22.8364C19.7482 22.5884 19.9539 22.1939 19.9591 21.77L19.9962 18.6366L22.4122 20.4113C22.771 20.675 23.2377 20.7446 23.6551 20.591L26.4552 19.5806L25.4441 22.382C25.2937 22.7993 25.3614 23.2655 25.6244 23.6242L27.3992 26.0402L24.2644 26.0792C23.8419 26.0845 23.4467 26.2895 23.1993 26.6339L21.3777 29.1658L20.5737 26.3761C20.45 25.9321 20.1043 25.5884 19.6629 25.4614Z" fill="#00B3F8"/>
</g>
<defs>
<clipPath id="clip0_2215_13039">
<rect width="80" height="80" fill="white"/>
</clipPath>
</defs>
</svg>
