<svg width="80" height="80" viewBox="0 0 80 80" fill="none" xmlns="http://www.w3.org/2000/svg">
<g clip-path="url(#clip0_2215_13043)">
<path d="M47.407 72.7892L44.8978 79.3073C44.7373 79.7247 44.3361 79.9998 43.8892 79.9998H36.1105C35.6636 79.9998 35.2623 79.7247 35.1019 79.3073L32.8039 73.3389C28.7794 72.4753 24.9886 70.9036 21.518 68.6598L15.6698 71.2584C15.2602 71.4386 14.7823 71.3506 14.4662 71.0347L8.96578 65.5342C8.64969 65.2181 8.56031 64.7395 8.74203 64.3314L11.3392 58.4833C9.09688 55.0163 7.52453 51.2241 6.65953 47.1953L0.6925 44.898C0.275156 44.7375 0 44.3363 0 43.8894V36.1106C0 35.6637 0.275156 35.2625 0.6925 35.102L6.66031 32.8047C7.52391 28.7781 9.09625 24.9866 11.34 21.5181L8.74219 15.6686C8.56063 15.2603 8.65 14.7817 8.96594 14.4658L14.4656 8.96531C14.7817 8.64859 15.2595 8.55984 15.6692 8.74156L21.518 11.3402C24.9878 9.09641 28.7786 7.52469 32.8039 6.66109L35.1019 0.692656C35.2625 0.275156 35.6637 0 36.1106 0H43.8894C44.3363 0 44.7375 0.275156 44.898 0.6925L47.4078 7.21281C47.6225 7.77031 47.3452 8.39531 46.7878 8.60984C46.2325 8.82312 45.6053 8.54719 45.3908 7.98984L43.147 2.16219H36.8531L34.6094 7.98984C34.4764 8.33687 34.1738 8.59016 33.8091 8.66203C29.6522 9.47844 25.7537 11.0945 22.2219 13.465C21.9136 13.6727 21.5195 13.7058 21.1809 13.5558L15.4695 11.0192L11.0198 15.4695L13.5558 21.1811C13.7064 21.5203 13.6719 21.9137 13.465 22.222C11.0938 25.7523 9.47781 29.6509 8.66125 33.8098C8.58953 34.1744 8.33609 34.477 7.98906 34.6102L2.16219 36.8531V43.1467L7.98781 45.3898C8.33484 45.5228 8.58813 45.8255 8.66 46.1902C9.47859 50.3512 11.0945 54.2505 13.4644 57.7794C13.6712 58.0877 13.7058 58.4811 13.5552 58.8203L11.02 64.5305L15.4703 68.9808L21.1812 66.4442C21.5198 66.2944 21.9139 66.3273 22.2222 66.535C25.7547 68.9062 29.6533 70.5222 33.8094 71.338C34.1739 71.4097 34.4766 71.6631 34.6097 72.0102L36.8534 77.8378H43.147L45.3902 72.0122C45.6048 71.4547 46.2333 71.1775 46.7872 71.3922C47.3445 71.6069 47.6217 72.2325 47.407 72.7892ZM31.6055 53.9062C31.7808 54.0125 31.9736 54.0625 32.1644 54.0625C32.5297 54.0625 32.8872 53.8767 33.0898 53.5409C33.3988 53.03 33.2355 52.3655 32.7245 52.0566C28.465 49.4806 25.922 44.9739 25.922 40C25.922 35.0261 28.465 30.5194 32.7245 27.9434C33.2355 27.6345 33.3988 26.97 33.0898 26.4591C32.7816 25.9481 32.1158 25.7841 31.6055 26.0938C26.6928 29.0639 23.7598 34.2631 23.7598 40C23.7598 45.7369 26.6927 50.9361 31.6055 53.9062ZM80 40C80 42.7731 77.7436 45.0295 74.9705 45.0295C72.5687 45.0295 70.5575 43.3358 70.0609 41.0811H41.0811V45.9931H52.0439C52.3303 45.9931 52.6056 46.1072 52.8083 46.3098L56.7912 50.2936H59.4761C59.9725 48.0387 61.9839 46.3452 64.3856 46.3452C67.1588 46.3452 69.4152 48.6016 69.4152 51.3747C69.4152 54.1478 67.1588 56.4042 64.3856 56.4042C61.9841 56.4042 59.9727 54.7105 59.4761 52.4558H56.3436C56.0572 52.4558 55.7819 52.3417 55.5792 52.1391L51.5963 48.1555H41.0811V53.0681H49.9719C50.2583 53.0681 50.5336 53.1822 50.7363 53.3848L58.4403 61.0889C58.643 61.2916 58.757 61.5669 58.757 61.8533V65.7123C60.0883 66.0066 61.2978 66.8308 62.0312 68.1011C62.7034 69.2645 62.8822 70.6202 62.5345 71.9172C62.1869 73.215 61.3542 74.2997 60.1908 74.9711C59.4159 75.4187 58.5558 75.6475 57.6844 75.6475C57.2473 75.6475 56.8073 75.5898 56.3745 75.4736C55.0767 75.1259 53.992 74.2939 53.3206 73.1306C51.9341 70.7292 52.7597 67.647 55.1611 66.2598C55.6197 65.9952 56.1031 65.8123 56.5948 65.7045V62.3008L49.5242 55.2302H41.0811V62.9941C41.0811 63.5909 40.5969 64.0752 40 64.0752C26.7252 64.0752 15.9248 53.2748 15.9248 40C15.9248 26.7252 26.7252 15.9248 40 15.9248C40.5969 15.9248 41.0811 16.4091 41.0811 17.0059V24.7698H49.5242L56.5948 17.6992V14.2891C56.0983 14.1791 55.6144 14.0019 55.1611 13.74C52.7597 12.3528 51.9341 9.27063 53.3206 6.86922C53.992 5.70578 55.0767 4.87391 56.3745 4.52625C57.6717 4.17859 59.0272 4.35656 60.1906 5.02875C61.3541 5.70016 62.1859 6.78484 62.5336 8.08266C62.882 9.38047 62.7033 10.7353 62.0311 11.8988C61.3597 13.0622 60.275 13.8941 58.9772 14.2425C58.9042 14.262 58.8303 14.2702 58.7569 14.2863V18.1466C58.7569 18.433 58.6428 18.7083 58.4402 18.9109L50.7361 26.615C50.5334 26.8177 50.2581 26.9317 49.9717 26.9317H41.0809V31.8444H51.3259L56.0317 27.1378C56.2344 26.9352 56.5097 26.8211 56.7961 26.8211H59.4759C59.9723 24.5662 61.9837 22.8727 64.3855 22.8727C67.1586 22.8727 69.415 25.1291 69.415 27.9022C69.415 30.6753 67.1586 32.9317 64.3855 32.9317C61.9839 32.9317 59.9725 31.238 59.4759 28.9833H57.2437L52.538 33.6898C52.3353 33.8925 52.06 34.0066 51.7736 34.0066H41.0811V38.9186H70.0609C70.5573 36.6637 72.5687 34.9702 74.9705 34.9702C77.7436 34.9705 80 37.2269 80 40ZM61.5181 27.9027C61.5181 29.4834 62.8047 30.77 64.3855 30.77C65.9662 30.77 67.2528 29.4834 67.2528 27.9027C67.2528 26.3219 65.9662 25.0353 64.3855 25.0353C62.8047 25.0353 61.5181 26.3217 61.5181 27.9027ZM56.2422 11.868C56.9066 12.2508 57.6802 12.3536 58.4177 12.1537C59.1573 11.9559 59.7761 11.4809 60.1589 10.8178C60.5417 10.1548 60.6439 9.38203 60.4453 8.64234C60.2475 7.90266 59.7725 7.28391 59.1094 6.90109C58.6673 6.64563 58.1769 6.51547 57.6798 6.51547C57.4314 6.51547 57.1808 6.54859 56.9338 6.61469C56.1941 6.8125 55.5753 7.2875 55.1925 7.95062C54.4025 9.31938 54.8733 11.0769 56.2422 11.868ZM38.9189 18.113C27.3359 18.6783 18.087 28.2791 18.087 40C18.087 51.7209 27.3361 61.3217 38.9189 61.887V18.113ZM57.6703 67.7492C57.1847 67.7492 56.6927 67.8723 56.2422 68.132C54.8733 68.9231 54.4023 70.6806 55.1928 72.0495C55.5756 72.7125 56.1944 73.1877 56.9341 73.3855C57.6737 73.5833 58.4459 73.4827 59.1095 73.0991C59.7733 72.7163 60.2477 72.0975 60.4461 71.3578C60.6439 70.6181 60.5419 69.8459 60.1589 69.1823C59.6284 68.263 58.6627 67.7492 57.6703 67.7492ZM61.5181 51.3745C61.5181 52.9553 62.8047 54.2419 64.3855 54.2419C65.9662 54.2419 67.2528 52.9553 67.2528 51.3745C67.2528 49.7938 65.9662 48.5072 64.3855 48.5072C62.8047 48.5072 61.5181 49.7938 61.5181 51.3745ZM77.8378 40C77.8378 38.4192 76.5513 37.1327 74.9705 37.1327C73.3897 37.1327 72.1031 38.4192 72.1031 40C72.1031 41.5808 73.3897 42.8673 74.9705 42.8673C76.5513 42.8673 77.8378 41.5808 77.8378 40Z" fill="#00B3F8"/>
</g>
<defs>
<clipPath id="clip0_2215_13043">
<rect width="80" height="80" fill="white"/>
</clipPath>
</defs>
</svg>
