<svg width="80" height="80" viewBox="0 0 80 80" fill="none" xmlns="http://www.w3.org/2000/svg">
<g clip-path="url(#clip0_2215_13045)">
<path d="M79.2405 33.0172L72.5694 30.5103C71.8794 28.1342 70.93 25.842 69.7408 23.6809L72.6844 17.192C72.8861 16.7473 72.7911 16.2245 72.4459 15.8792L64.1211 7.55437C63.7758 7.20922 63.2525 7.11406 62.8083 7.31594L56.3194 10.2595C54.1583 9.07047 51.8661 8.12094 49.49 7.43094L46.9828 0.759531C46.8112 0.302656 46.3741 0 45.8859 0H34.1141C33.6259 0 33.1887 0.302656 33.017 0.759531L30.5101 7.43062C28.1341 8.12062 25.8419 9.07 23.6808 10.2592L17.1919 7.31563C16.7473 7.11406 16.2244 7.20906 15.8791 7.55406L13.8603 9.57281C13.4026 10.0306 13.4026 10.7725 13.8603 11.2302C14.3183 11.6877 15.0601 11.6875 15.5176 11.2302L16.9625 9.78516L23.2533 12.6389C23.5964 12.7947 23.9937 12.7759 24.3209 12.588C26.6353 11.2592 29.1195 10.2302 31.705 9.52938C32.0687 9.43078 32.3628 9.16328 32.4955 8.81063L34.9255 2.34375H45.0744L47.5045 8.81078C47.6372 9.16344 47.9311 9.43094 48.295 9.52953C50.8805 10.2303 53.3647 11.2594 55.6791 12.5881C56.0061 12.7758 56.4033 12.7945 56.7467 12.6391L63.0375 9.78531L70.2148 16.9627L67.3611 23.2534C67.2053 23.5967 67.2242 23.9941 67.412 24.3211C68.7408 26.6355 69.7698 29.1197 70.4706 31.7052C70.5692 32.0689 70.8367 32.363 71.1894 32.4956L77.6562 34.9255V45.0744L71.1892 47.5045C70.8369 47.637 70.5695 47.9308 70.4706 48.2939C70.3556 48.717 70.2441 49.0984 70.1295 49.4606C69.9342 50.0777 70.2762 50.7361 70.8934 50.9312C71.0111 50.9684 71.1301 50.9863 71.2472 50.9863C71.7447 50.9863 72.2062 50.6669 72.3641 50.1675C72.4333 49.9489 72.5012 49.7242 72.5692 49.4898L79.2401 46.983C79.6972 46.8113 79.9997 46.3742 79.9997 45.8859V34.1141C80 33.6259 79.6973 33.1888 79.2405 33.0172Z" fill="#00B3F8"/>
<path d="M69.7408 56.3191C69.9088 56.0139 70.0703 55.7094 70.2236 55.4091C70.5178 54.8325 70.2887 54.1267 69.7123 53.8327C69.1358 53.5381 68.43 53.7675 68.1359 54.3439C67.9119 54.783 67.6684 55.2322 67.4119 55.6792C67.2242 56.0061 67.2053 56.4033 67.3611 56.7466L70.2148 63.0374L63.0375 70.2147L56.7467 67.361C56.4034 67.205 56.0061 67.2239 55.6791 67.4119C53.3647 68.7406 50.8805 69.7697 48.295 70.4705C47.9313 70.5691 47.6372 70.8366 47.5045 71.1892L45.0745 77.6563H34.9256L32.4955 71.1892C32.3628 70.8366 32.0689 70.5691 31.705 70.4705C29.1195 69.7697 26.6353 68.7406 24.3209 67.4119C23.9939 67.2241 23.5966 67.2055 23.2533 67.361L16.9625 70.2147L9.78516 63.0374L12.6389 56.7466C12.7947 56.4033 12.7758 56.006 12.588 55.6789C11.2592 53.3645 10.2302 50.8803 9.52938 48.2949C9.43078 47.9311 9.16328 47.637 8.81063 47.5044L2.34375 45.0745V34.9256L8.81078 32.4955C9.16344 32.3628 9.43094 32.0689 9.52953 31.705C10.2303 29.1195 11.2594 26.6353 12.5881 24.321C12.7759 23.9939 12.7948 23.5966 12.6391 23.2533L9.78531 16.9625L11.6491 15.0989C12.1067 14.6411 12.1067 13.8992 11.6491 13.4416C11.1912 12.9841 10.4494 12.9841 9.99172 13.4416L7.55422 15.8791C7.20906 16.2244 7.11406 16.7474 7.31578 17.1919L10.2594 23.6808C9.07031 25.8419 8.12078 28.1341 7.43078 30.5102L0.759531 33.0172C0.302656 33.1888 0 33.6259 0 34.1141V45.886C0 46.3741 0.302656 46.8113 0.759531 46.983L7.43062 49.4899C8.12062 51.8659 9.07 54.1581 10.2592 56.3192L7.31563 62.8081C7.11391 63.2528 7.20891 63.7756 7.55406 64.1209L15.8789 72.4458C16.2241 72.7908 16.7472 72.8858 17.1917 72.6842L23.6806 69.7406C25.8417 70.9297 28.1339 71.8792 30.51 72.5692L33.0169 79.2403C33.1886 79.6974 33.6256 79.9999 34.1139 79.9999H45.8858C46.3739 79.9999 46.8111 79.6972 46.9828 79.2403L49.4897 72.5692C51.8658 71.8792 54.158 70.9299 56.3191 69.7406L62.808 72.6842C63.2527 72.8861 63.7755 72.791 64.1208 72.4458L72.4456 64.1209C72.7908 63.7756 72.8858 63.2527 72.6841 62.8081L69.7408 56.3191Z" fill="#00B3F8"/>
<path d="M43.8031 15.6325C43.2887 15.2392 42.5536 15.337 42.1602 15.8511L38.7873 20.2597L37.1094 18.6281C36.6452 18.1766 35.9033 18.1875 35.4523 18.6512C35.0011 19.1153 35.0116 19.8572 35.4755 20.3083L38.0995 22.8597C38.3191 23.0731 38.6125 23.1914 38.9166 23.1914C38.945 23.1914 38.9736 23.1903 39.0023 23.1881C39.3362 23.1637 39.6437 22.9975 39.8473 22.7315L44.0219 17.2751C44.415 16.7612 44.317 16.0258 43.8031 15.6325Z" fill="#00B3F8"/>
<path d="M43.8031 57.1963C43.2887 56.803 42.5536 56.9008 42.1602 57.4149L38.7873 61.8235L37.1094 60.1919C36.6452 59.7403 35.9033 59.7513 35.4523 60.215C35.0011 60.6791 35.0116 61.421 35.4755 61.872L38.0995 64.4235C38.3191 64.6369 38.6125 64.7552 38.9166 64.7552C38.945 64.7552 38.9736 64.7541 39.0023 64.7519C39.3362 64.7275 39.6437 64.5613 39.8473 64.2953L44.0219 58.8389C44.415 58.325 44.317 57.5896 43.8031 57.1963Z" fill="#00B3F8"/>
<path d="M56.3484 41.0903L58.9723 43.6417C59.1919 43.8552 59.4853 43.9735 59.7894 43.9735C59.8178 43.9735 59.8464 43.9724 59.875 43.9702C60.2091 43.9458 60.5166 43.7796 60.7201 43.5136L64.8947 38.0572C65.288 37.5431 65.19 36.8077 64.6761 36.4142C64.1619 36.021 63.4264 36.1189 63.0331 36.6328L59.6605 41.0414L57.9825 39.4099C57.5183 38.9588 56.7762 38.9692 56.3255 39.433C55.8741 39.8972 55.8844 40.6391 56.3484 41.0903Z" fill="#00B3F8"/>
<path d="M19.1272 31.0511C14.1927 31.0511 10.1781 35.0654 10.1781 40C10.1781 41.8487 10.7373 43.6234 11.7955 45.1325C12.1669 45.6625 12.8978 45.7912 13.4277 45.4192C13.9577 45.0476 14.0859 44.3168 13.7144 43.787C12.9344 42.6743 12.5219 41.3648 12.5219 40.0001C12.5219 36.3579 15.485 33.395 19.1272 33.395C22.7694 33.395 25.7323 36.3581 25.7323 40.0001C25.7323 43.6422 22.7692 46.6053 19.1272 46.6053C18.6005 46.6053 18.0767 46.5434 17.5708 46.4211C16.9425 46.2692 16.3088 46.6561 16.1566 47.2853C16.0047 47.9143 16.3917 48.5475 17.0208 48.6995C17.7067 48.8651 18.4153 48.949 19.127 48.949C19.3658 48.949 19.6016 48.9368 19.8358 48.9184C20.5095 50.4384 21.3523 51.8701 22.3403 53.189L21.9403 57.4572C21.8798 58.1015 22.3533 58.6729 22.9977 58.7334C23.0348 58.7367 23.0719 58.7386 23.1084 58.7386C23.7063 58.7386 24.217 58.2831 24.2738 57.6759L24.4652 55.6333C26.3638 57.52 28.6027 59.064 31.0749 60.1611C31.0606 60.3664 31.0509 60.5729 31.0509 60.7818C31.0509 65.7164 35.0653 69.7308 39.9998 69.7308C44.9344 69.7308 48.9488 65.7164 48.9488 60.7818C48.9488 60.5729 48.9391 60.3665 48.9248 60.1612C50.4423 59.4879 51.8719 58.6461 53.1889 57.6597L57.457 58.0597C58.0913 58.1229 58.6753 57.6484 58.7333 57.0023C58.7936 56.3579 58.3202 55.7865 57.6758 55.7262L55.6333 55.5348C57.5217 53.6345 59.067 51.3933 60.1641 48.9184C60.3981 48.9368 60.6341 48.949 60.8728 48.949C65.8073 48.949 69.8219 44.9347 69.8219 40.0001C69.8219 35.0656 65.8073 31.0512 60.8728 31.0512C60.6341 31.0512 60.3983 31.0634 60.1641 31.0818C59.4903 29.5617 58.6473 28.13 57.6595 26.8111L58.0595 22.5431C58.12 21.8987 57.6466 21.3273 57.0022 21.2668C56.3556 21.2084 55.7864 21.68 55.7261 22.3243L55.5347 24.3667C53.6364 22.4803 51.3981 20.9365 48.9266 19.8398C48.9406 19.6337 48.9491 19.4267 48.9491 19.2183C48.9491 14.2837 44.9347 10.2693 40.0002 10.2693C35.0656 10.2693 31.0513 14.2837 31.0513 19.2183C31.0513 19.4272 31.0611 19.6337 31.0752 19.839C29.5574 20.5123 28.1278 21.354 26.8109 22.3404L22.5431 21.9404C21.8969 21.8797 21.3272 22.3534 21.2669 22.9978C21.2066 23.6422 21.68 24.2136 22.3244 24.2739L24.3666 24.4653C22.4783 26.3656 20.9333 28.6067 19.8363 31.0817C19.6019 31.0633 19.3659 31.0511 19.1272 31.0511ZM40 67.387C36.3578 67.387 33.3949 64.4239 33.3949 60.7818C33.3949 57.1398 36.3578 54.1765 40 54.1765C43.6422 54.1765 46.6052 57.1397 46.6052 60.7817C46.6052 64.4237 43.6422 67.387 40 67.387ZM67.4781 40C67.4781 43.6422 64.515 46.6051 60.8728 46.6051C57.2306 46.6051 54.2677 43.642 54.2677 40C54.2677 36.3579 57.2308 33.3948 60.8728 33.3948C64.515 33.3948 67.4781 36.3578 67.4781 40ZM25.7167 26.4361L25.5378 28.4722C25.4813 29.1168 25.958 29.6854 26.6027 29.7422C26.6377 29.7453 26.672 29.7465 26.7066 29.7465C27.3074 29.7465 27.8189 29.2872 27.8727 28.6772L28.2681 24.1753C29.2947 23.412 30.3975 22.7472 31.5616 22.1939C32.7909 25.6695 36.1084 28.1668 39.9998 28.1668C40.6419 28.1668 41.2836 28.0984 41.9069 27.9629C42.5394 27.8258 42.9409 27.2018 42.8036 26.5693C42.6664 25.9368 42.042 25.5351 41.41 25.6726C40.9497 25.7725 40.4752 25.8231 39.9998 25.8231C36.3577 25.8231 33.3947 22.86 33.3947 19.2179C33.3947 15.5759 36.3578 12.6129 40 12.6129C43.6422 12.6129 46.6052 15.5761 46.6052 19.2181C46.6052 20.6406 46.1602 21.9951 45.3188 23.1356C44.9344 23.6562 45.045 24.39 45.5658 24.7742C46.0864 25.1586 46.8203 25.0481 47.2044 24.5272C47.7364 23.8064 48.1498 23.022 48.4414 22.1956C50.3313 23.0943 52.0597 24.2878 53.5634 25.7167L51.5277 25.5378C50.8849 25.4811 50.3144 25.9578 50.2577 26.6026C50.2011 27.2473 50.6778 27.8159 51.3225 27.8726L55.8244 28.2681C56.5936 29.3025 57.2628 30.4143 57.8186 31.5881C54.3834 32.8392 51.9238 36.1375 51.9238 39.9998C51.9238 43.8622 54.3834 47.1604 57.8186 48.4115C56.9183 50.3129 55.7195 52.0515 54.2831 53.5633L54.462 51.5275C54.5186 50.8828 54.0419 50.3142 53.3972 50.2575C52.7541 50.2012 52.1839 50.6775 52.1272 51.3223L51.7317 55.824C50.705 56.5875 49.6022 57.2523 48.4383 57.8056C47.2089 54.33 43.8914 51.8325 40 51.8325C36.1086 51.8325 32.7911 54.33 31.5617 57.8056C29.6708 56.9067 27.9413 55.7125 26.4366 54.2829L28.4724 54.4618C29.1158 54.5183 29.6856 54.0418 29.7423 53.397C29.7989 52.7523 29.3222 52.1837 28.6775 52.127L24.1758 51.7315C23.4066 50.6972 22.7374 49.5853 22.1816 48.4115C25.6166 47.1604 28.0764 43.8622 28.0764 39.9998C28.0764 36.1375 25.6167 32.8392 22.1816 31.5881C23.0817 29.6865 24.2803 27.9478 25.7167 26.4361Z" fill="#00B3F8"/>
<path d="M18.0436 43.9735C18.072 43.9735 18.1006 43.9724 18.1294 43.9702C18.4633 43.9458 18.7708 43.7795 18.9744 43.5136L23.1488 38.057C23.542 37.5431 23.4441 36.8077 22.93 36.4142C22.4161 36.0211 21.6805 36.1189 21.2872 36.6328L17.9145 41.0414L16.2366 39.4099C15.7722 38.9583 15.0303 38.9692 14.5795 39.433C14.1283 39.897 14.1388 40.6389 14.6027 41.09L17.2267 43.6414C17.4463 43.8552 17.7397 43.9735 18.0436 43.9735Z" fill="#00B3F8"/>
</g>
<defs>
<clipPath id="clip0_2215_13045">
<rect width="80" height="80" fill="white"/>
</clipPath>
</defs>
</svg>
