<svg width="80" height="80" viewBox="0 0 80 80" fill="none" xmlns="http://www.w3.org/2000/svg">
<path d="M64.7903 10.9267C64.4567 10.1018 63.2888 10.1018 62.9553 10.9267L61.552 14.3965C61.4102 14.7471 61.0811 14.9862 60.7039 15.0128L56.9702 15.2751C56.0826 15.3375 55.7218 16.4481 56.4032 17.0203L59.2696 19.4271C59.5592 19.6703 59.6849 20.0572 59.5936 20.4241L58.6892 24.0561C58.4743 24.9195 59.4191 25.6059 60.1739 25.1347L63.3486 23.1523C63.6694 22.9521 64.0762 22.9521 64.3969 23.1523L67.5717 25.1347C68.3264 25.6059 69.2712 24.9195 69.0563 24.0561L68.152 20.4241C68.0606 20.0572 68.1864 19.6703 68.476 19.4271L71.3423 17.0203C72.0237 16.4481 71.6629 15.3375 70.7753 15.2751L67.0416 15.0128C66.6645 14.9862 66.3353 14.7471 66.1936 14.3965L64.7903 10.9267Z" fill="#00B3F8"/>
<path d="M22.6013 60.95C22.6013 65.7783 26.5153 69.6924 31.3436 69.6924L61.7999 69.6923C66.6281 69.6923 70.5422 65.7783 70.5422 60.95V30.8775C70.5422 29.6933 69.5821 28.7332 68.3979 28.7332C67.2136 28.7332 66.2535 29.6933 66.2535 30.8775V60.95C66.2535 63.4097 64.2595 65.4036 61.7999 65.4036L31.3436 65.4037C28.8839 65.4037 26.89 63.4097 26.89 60.95V19.3931C26.89 16.9335 28.8839 14.9395 31.3436 14.9395H50.8583C52.0426 14.9395 53.0026 13.9795 53.0026 12.7952C53.0026 11.611 52.0426 10.6509 50.8583 10.6509H31.3436C26.5153 10.6509 22.6013 14.5649 22.6013 19.3931V60.95Z" fill="#00B3F8"/>
<path d="M7.87855 31.5995C7.87855 28.5932 10.3156 26.1562 13.3218 26.1562H16.3552C17.5395 26.1562 18.4995 27.1162 18.4995 28.3005C18.4995 29.4848 17.5395 30.4448 16.3552 30.4448H13.3218C12.6841 30.4448 12.1672 30.9618 12.1672 31.5995V58.0265C12.1672 58.6641 12.6841 59.1811 13.3218 59.1811H16.3552C17.5395 59.1811 18.4995 60.1412 18.4995 61.3254C18.4995 62.5097 17.5395 63.4698 16.3552 63.4698H13.3218C10.3156 63.4698 7.87854 61.0327 7.87854 58.0265L7.87855 31.5995Z" fill="#00B3F8"/>
<path fill-rule="evenodd" clip-rule="evenodd" d="M42.0719 24.917C40.8877 24.917 39.9276 25.8771 39.9276 27.0613V38.4175H38.9096C37.7253 38.4175 36.7653 39.3776 36.7653 40.5619C36.7653 41.7461 37.7253 42.7062 38.9096 42.7062H39.9276V46.0653L38.8981 46.0708C37.7138 46.0772 36.759 47.0424 36.7654 48.2268C36.7718 49.411 37.737 50.3658 38.9213 50.3595L39.9276 50.354V53.2814C39.9276 54.4656 40.8877 55.4257 42.0719 55.4257C43.2563 55.4257 44.2163 54.4656 44.2163 53.2814V50.3308L51.1213 50.2935C52.3056 50.2871 53.2605 49.3219 53.254 48.1376C53.2476 46.9533 52.2824 45.9985 51.0982 46.0049L44.2163 46.0421V42.7062H47.2045C53.1199 42.7062 56.378 38.1244 56.378 33.7558C56.378 29.3172 52.9425 24.917 47.2045 24.917H42.0719ZM47.2045 38.4175H44.2163L44.2168 29.2057H47.2045C50.3923 29.2057 52.0893 31.4999 52.0893 33.7558C52.0893 36.0817 50.4381 38.4175 47.2045 38.4175Z" fill="#00B3F8"/>
</svg>
