<svg width="157" height="127" fill="none" xmlns="http://www.w3.org/2000/svg"><path d="M155 1.958H2v123.331h153V1.958z" stroke="#00B3F8" stroke-width="2.327"/><path d="M111.369 7.193h-89.59v67.483h89.59V7.193zM23.525 81.076h87.262" stroke="#00B3F8" stroke-width="2.327"/><path d="M23.525 89.22h87.262" stroke="#00B3F8" stroke-width="3.49"/><path d="M22.943 75.259v48.867m87.262-48.867v50.03" stroke="#00B3F8" stroke-width="1.163"/><path d="M151.51 7.775h-33.742v52.94h33.742V7.775z" stroke="#00B3F8" stroke-width="2.327"/><path fill="#00B3F8" d="M122.422 17.084h24.433v8.144h-24.433z"/><rect x="72.392" y="28.719" width="11.635" height="29.087" rx="5.817" fill="#00B3F8"/><rect x="51.449" y="28.719" width="11.635" height="29.087" rx="5.817" fill="#00B3F8"/><path d="M91.007 19.993H45.05v43.05h45.958v-43.05z" stroke="#00B3F8" stroke-width="2.327"/><path fill="#00B3F8" d="M139.875 46.171h5.817v5.817h-5.817zM8.399 3.122h6.981v6.981H8.399z"/></svg>