<svg width="149" height="149" fill="none" xmlns="http://www.w3.org/2000/svg"><path d="M101.162 63.398c-1.153-2.072-1.915-3.441-1.986-5.628-.092-2.853.985-5.669 2.349-9.234 3.931-10.278 4.009-12.743 3.98-13.666l.497-15.157a6 6 0 00-2.24-4.857c-2.118-1.693-4.676-2.452-7.15-3.187-2.672-.793-4.98-1.478-6.009-3.083a4.96 4.96 0 01-.756-2.608A5.982 5.982 0 0083.874 0H65.125a5.982 5.982 0 00-5.973 5.978c0 .454-.069.93-.2 1.377-.724 2.475-2.857 3.216-6.566 4.313-2.465.73-5.013 1.484-7.144 3.184A5.963 5.963 0 0043.009 20c.05.892.124 3.52.201 6.3.226 8.123.289 9.359.419 9.964.968 4.482 2.42 8.547 3.845 12.272 1.364 3.565 2.44 6.381 2.349 9.234-.072 2.205-.882 3.664-2.109 5.873-2.297 4.137-5.442 9.802-5.214 23.597.051 3.245 2.724 5.884 5.96 5.884h23.13v38.415h-8.73c-4.815 0-8.731 3.917-8.731 8.731v5.82a2.91 2.91 0 002.91 2.91H91.96a2.91 2.91 0 002.91-2.91v-5.82c0-4.814-3.917-8.731-8.73-8.731h-8.73V93.124h23.128c1.63 0 3.144-.632 4.261-1.781 1.131-1.165 1.735-2.737 1.704-4.433.186-13.576-2.878-19.085-5.341-23.512zM89.051 140.27v2.91H59.949v-2.91a2.914 2.914 0 012.91-2.911h23.282a2.914 2.914 0 012.91 2.911zm11.633-53.265c.005.17-.037.258-.059.281-.013.013-.054.018-.087.018H48.461c-.073 0-.14-.074-.141-.158-.203-12.238 2.396-16.918 4.483-20.678 1.4-2.519 2.72-4.898 2.837-8.51.13-4.025-1.195-7.49-2.73-11.502-1.537-4.02-2.734-7.488-3.57-11.315-.086-.917-.221-5.768-.311-9.003-.084-2.986-.155-5.564-.213-6.517a2.325 2.325 0 00-.005-.08.155.155 0 01.059-.137c1.244-.994 3.15-1.558 5.168-2.154 3.943-1.167 8.85-2.62 10.5-8.261.284-.97.434-2.012.434-3.011 0-.087.069-.158.153-.158h18.748c.085 0 .153.07.153.158 0 2.019.595 4.06 1.676 5.747 2.197 3.43 5.946 4.542 9.253 5.524 2.028.602 3.942 1.17 5.174 2.155.026.02.057.06.055.122l-.5 15.256c-.002.07-.002.138 0 .208.002.08-.003 2.074-3.596 11.467-1.534 4.012-2.86 7.476-2.73 11.501.117 3.596 1.439 5.972 2.717 8.27 2.24 4.027 4.78 8.591 4.608 20.653-.001.041 0 .083.001.124z" fill="#00B3F8"/></svg>