<svg width="116" height="128" fill="none" xmlns="http://www.w3.org/2000/svg"><path d="M33.35 78.3v41.325h49.3V78.3H31.9" stroke="#00B3F8" stroke-width="2"/><path fill="#00B3F8" d="M15.95 69.6h87v8.7h-87zM75.4 89.9h4.35v10.15H75.4zm-34.8 31.9h34.8v5.8H40.6z"/><path d="M99.07 51.475H5.425a.95.95 0 00-.63.24l-2.696 2.31c-.71.61-.27 1.773.665 1.76l96.3-1.396a1 1 0 00.986-1v-.914c0-.553-.428-1-.98-1z" fill="#00B3F8" stroke="#00B3F8" stroke-width="2"/><path d="M17.4 56.55l7.25 15.225" stroke="#00B3F8" stroke-width="2"/><path d="M101.5 59.527l-7.25-5.877-72.5 1.68 12.325 4.197L26.1 69.6h75.4V59.527z" fill="#00B3F8" stroke="#00B3F8" stroke-width="2"/><circle cx="108.025" cy="50.025" r="7.975" fill="#00B3F8"/><path d="M105.85 44.95c0-5.8 2.417-10.633 3.625-12.325V2.9" stroke="#00B3F8" stroke-width="2"/><circle cx="109.475" cy="5.075" r="5.075" fill="#00B3F8"/><path fill-rule="evenodd" clip-rule="evenodd" d="M29.859 24.398a5.077 5.077 0 002.863-7.27l54.293 3.194a9.418 9.418 0 00-4.365 7.953 9.428 9.428 0 006.777 9.048L39.967 43.8a7.975 7.975 0 00-8.715-12.836l-1.393-6.566zm.597-9.407a5.075 5.075 0 10-2.592 9.642l1.553 7.318a7.978 7.978 0 003.03 14.282l.116.553.917-.12 60.9-7.974 1.02-.134-.163-1.016-.058-.365a9.425 9.425 0 00-2.932-18.325l-.037-.228-.801-.047-60.953-3.586z" fill="#00B3F8"/><path d="M90.625 20.3L30.45 16.675l-2.175 5.8 10.15 21.75 50.75-5.8 1.45-18.125z" fill="#00B3F8" stroke="#00B3F8" stroke-width="2"/><path fill="#00B3F8" d="M88.45 30.45h11.6v23.2h-11.6zm-58 12.21l9.448-2.8 3.707 12.513-9.448 2.8z"/></svg>