<svg width="66" height="65" fill="none" xmlns="http://www.w3.org/2000/svg"><path d="M49.352 1.573H64l-11.268 46.09m0 0L11.042 52l-6.198-8.133v11.929l6.197 3.796L52.732 52v-4.337zM11.67 52.766l-.569 7.963" stroke="#00B3F8" stroke-width="1.706"/><path d="M9.963 36.27L2.57 28.307l42.092-1.706 11.376 6.825L9.963 36.27z" stroke="#00B3F8" stroke-width="1.706"/><path d="M11.67 52.766l-7.395-9.67L2.11 29.015l7.854 7.257 45.505-2.844h1.137l-3.412 14.22-41.523 5.12z" fill="#00B3F8"/><path d="M2 28.308l.109.706m0 0l2.166 14.083 7.395 9.67 41.523-5.12 3.413-14.22h-1.138L9.963 36.27 2.11 29.014z" stroke="#00B3F8" stroke-width="1.706"/><path d="M54.899 52.766a3.413 3.413 0 11-6.826 0 3.413 3.413 0 016.826 0z" fill="#00B3F8"/><circle cx="12.239" cy="60.729" r="3.413" fill="#00B3F8"/><circle cx="4.844" cy="55.61" r="2.844" fill="#00B3F8"/><path d="M45.23 26.6l4.55-25.027" stroke="#00B3F8" stroke-width="1.706"/></svg>