<svg width="82" height="73" fill="none" xmlns="http://www.w3.org/2000/svg"><path d="M77.192 61.898H5.072l8.414-22.237H69.98l7.212 22.237z" fill="#00B3F8" stroke="#00B3F8" stroke-width="1.803"/><path d="M4.471 19.828h72.721m-72.72 0v42.07h72.72v-42.07m-72.72 0v-7.212L12.283 3v3.606H70.58V3l6.611 9.616v7.212" stroke="#00B3F8" stroke-width="1.803"/><path d="M5.072 61.297c0-.962 5.209-14.424 7.813-21.035H69.98l7.212 21.035-72.12.6" stroke="#00B3F8" stroke-width="1.803"/><path d="M19.496 6.606v33.656m7.613-33.656v33.656m7.612-33.656v33.656m7.613-33.656v33.656m7.613-33.656v33.656M57.56 6.606v33.656m7.612-33.656v33.656m-54.09-20.434v41.469m12.02-41.469v41.469m12.02-41.469v41.469m12.02-41.469v41.469m12.02-41.469v41.469m12.02-41.469v41.469" stroke="#00B3F8" stroke-width="1.202"/><path d="M12.284 5.404v41.47" stroke="#00B3F8" stroke-width="1.803"/><rect x="77.192" y="59.494" width="4.808" height="13.222" rx="2.404" fill="#00B3F8"/><rect x=".264" y="59.494" width="4.808" height="13.222" rx="2.404" fill="#00B3F8"/></svg>