<svg width="70" height="98" fill="none" xmlns="http://www.w3.org/2000/svg"><path d="M7.11 45.938c-1.459 2.552-4.485 7.874-4.923 8.75h65.626l-4.922-8.75H7.109zm-.547-22.422c-1.277.911-3.938 2.953-4.375 3.828h64.53l-3.827-3.828H6.563zm1.093 47.031L2.734 84.219h65.078L61.25 70.547H7.656z" fill="#00B3F8" stroke="#00B3F8" stroke-width="1.641"/><path d="M68.36 0v88.594M1.64 0v88.594" stroke="#00B3F8" stroke-width="1.641"/><path d="M63.438 2.188c0-1.21.978-2.188 2.186-2.188h1.094c1.208 0 2.187.98 2.187 2.188v82.03h-5.469V2.189zm-62.344 0C1.094.978 2.074 0 3.28 0h1.094c1.208 0 2.188.98 2.188 2.188v82.03h-5.47V2.189z" fill="#00B3F8"/><rect x="66.719" y="88.594" width="3.281" height="8.75" rx="1.641" fill="#00B3F8"/><rect y="88.594" width="3.281" height="8.75" rx="1.641" fill="#00B3F8"/><path d="M5.469 4.375h58.515" stroke="#00B3F8" stroke-width="1.641"/><path d="M16.406 4.375v66.719m8.75-66.719v66.719m8.75-66.719v66.719m8.75-66.719v66.719m8.75-66.719v66.719" stroke="#00B3F8" stroke-width="1.094"/></svg>