<svg width="89" height="159" fill="none" xmlns="http://www.w3.org/2000/svg"><path d="M88 1H1v157.046h87V1zM1 25.984h86.554" stroke="#00B3F8" stroke-width="1.785"/><path fill="#00B3F8" d="M69.708 54.984h8.923v40.154h-8.923zm-44.616 66.032h40.154v21.415H25.092zM69.708 8.585h13.385V18.4H69.708zm-34.8.892h20.523v7.138H34.908zM5.461 31.784h11.6v16.061h-11.6z"/><path fill-rule="evenodd" clip-rule="evenodd" d="M44.723 105.846c17.741 0 32.123-14.382 32.123-32.123S62.464 41.6 44.723 41.6C26.983 41.6 12.6 55.982 12.6 73.723c0 17.74 14.382 32.123 32.123 32.123zm.892-8.03c13.306 0 24.093-10.787 24.093-24.093S58.92 49.631 45.615 49.631 21.523 60.417 21.523 73.723 32.31 97.816 45.615 97.816z" fill="#00B3F8"/></svg>