<svg width="171" height="94" fill="none" xmlns="http://www.w3.org/2000/svg"><path d="M18.412 13.504L22.319 1.78H8.252L2 15.067v74.244h16.412V13.504z" fill="#00B3F8" stroke="#00B3F8" stroke-width="3.126"/><path d="M148.143 1H23.101m-4.689 14.067H152.05M19.193 52.58h132.858" stroke="#00B3F8" stroke-width="1.563"/><path d="M26.227 60.395l-7.034-3.907V52.58h132.858v3.126l-8.597 3.908v12.504H26.227V60.395z" fill="#00B3F8" stroke="#00B3F8" stroke-width="1.563"/><path d="M18.412 29.135H152.05M17.63 41.639h135.202" stroke="#00B3F8" stroke-width="1.563"/><path fill="#00B3F8" d="M19.193 84.622h134.42v6.252H19.193zm26.572 6.252h78.151V94H45.765z"/><path fill-rule="evenodd" clip-rule="evenodd" d="M148.924 1.782l3.908 11.723v75.807h16.412V15.068l-6.252-13.286h-14.068zm18.757 23.446h-10.942v15.63h10.942v-15.63z" fill="#00B3F8"/><path d="M152.832 13.505h1.563v-.254l-.08-.24-1.483.494zm-3.908-11.723V.22h-2.168l.686 2.058 1.482-.495zm3.908 87.53h-1.563v1.563h1.563v-1.563zm16.412 0v1.563h1.563v-1.563h-1.563zm0-74.244h1.563v-.35l-.149-.316-1.414.666zm-6.252-13.286l1.414-.665-.423-.898h-.991v1.563zm-6.253 23.446v-1.563h-1.563v1.563h1.563zm10.942 0h1.563v-1.563h-1.563v1.563zm-10.942 15.63h-1.563v1.563h1.563v-1.563zm10.942 0v1.563h1.563v-1.563h-1.563zM154.315 13.01l-3.908-11.723-2.965.988L151.349 14l2.966-.988zm.08 76.3V13.506h-3.126v75.807h3.126zm14.849-1.562h-16.412v3.126h16.412v-3.126zm-1.563-72.681v74.244h3.126V15.068h-3.126zm-6.104-12.62l6.252 13.285 2.829-1.33-6.252-13.286-2.829 1.33zm-12.653.897h14.068V.22h-14.068v3.126zm7.815 23.446h10.942v-3.126h-10.942v3.126zm1.563 14.067v-15.63h-3.126v15.63h3.126zm9.379-1.563h-10.942v3.126h10.942v-3.126zm-1.563-14.067v15.63h3.126v-15.63h-3.126z" fill="#00B3F8"/></svg>