<svg width="32" height="32" fill="none" xmlns="http://www.w3.org/2000/svg"><path d="M0 32h9.399v-9.46H0V32zm3.776-8.522h1.867v1.886H3.776v-1.886zm-2.837 0h1.898v2.824h3.745v-2.824H8.46v7.583H.94v-7.583z" fill="#fff"/><path d="M1.883 27.238H3.76v.938H1.883v-.938zm0 1.873H3.76v.939H1.883v-.939zM22.601 32h4.637v-.939H23.54v-7.583h1.898v2.824h3.745v-2.824h1.878v7.583h-1.006V32H32v-9.46h-9.399V32zm5.643-6.636h-1.867v-1.886h1.867v1.886z" fill="#fff"/><path d="M28.177 31.061h.94V32h-.94v-.939zm-3.693-3.823h1.878v.938h-1.878v-.938zm0 1.873h1.878v.939h-1.878v-.939zM11.27 32h9.398v-9.46H11.27V32zm3.776-8.522h1.866v1.886h-1.866v-1.886zm-2.838 0h1.899v2.824h3.744v-2.824h1.878v7.583h-7.52v-7.583z" fill="#fff"/><path d="M13.152 27.238h1.878v.938h-1.878v-.938zm0 1.873h1.878v.939h-1.878v-.939zM0 21.605h9.399v-9.392H0v9.392zm3.776-8.454h1.867v1.864H3.776V13.15zm-2.837 0h1.898v2.802h3.745v-2.802H8.46v7.515H.94v-7.515z" fill="#fff"/><path d="M1.883 16.873H3.76v.938H1.883v-.938zm0 1.858H3.76v.939H1.883v-.939zm20.718-6.518v9.392H32v-9.392h-9.399zm3.776.938h1.867v1.864h-1.867V13.15zm4.684 7.515h-7.52v-7.515h1.897v2.802h3.745v-2.802h1.878v7.515z" fill="#fff"/><path d="M24.484 16.873h1.878v.938h-1.878v-.938zm0 1.858h1.878v.939h-1.878v-.939zM11.27 15.032h.938v-1.88h1.899v2.801h3.744v-2.802h1.878v7.515h-7.52V15.97h-.94v5.635h9.4v-9.392h-9.4v2.819zm5.642-.018h-1.866v-1.863h1.866v1.864z" fill="#fff"/><path d="M13.152 16.873h1.878v.938h-1.878v-.938zm0 1.858h1.878v.939h-1.878v-.939zm1.054-14.338l-.664.664 1.724 1.723 3.15-3.148-.665-.663-2.485 2.483-1.06-1.059z" fill="#fff"/><path d="M5.18 5.178h6.11a4.718 4.718 0 004.22 4.215v1.885h.938V9.392c.9-.09 1.763-.439 2.47-1.004l-.586-.733a3.775 3.775 0 01-6.126-2.946A3.775 3.775 0 0115.98.938a3.775 3.775 0 013.772 3.77 3.73 3.73 0 01-.815 2.34l.736.583a4.65 4.65 0 00.995-2.454h6.101v6.1h.94V4.239h-7.041A4.717 4.717 0 0015.979 0a4.717 4.717 0 00-4.688 4.24H4.24v7.038h.94v-6.1z" fill="#fff"/></svg>