<svg width="32" height="32" fill="none" xmlns="http://www.w3.org/2000/svg"><path d="M17.5 4.5H15V2a.5.5 0 00-.5-.5h-8A.5.5 0 006 2v2.647A3.505 3.505 0 003.5 8v19A3.504 3.504 0 007 30.5h18a3.504 3.504 0 003.5-3.5V15.5a11.012 11.012 0 00-11-11zm-3.5 0h-1v-2h1v2zm-5 0v-2h1v2H9zm2-2h1v2h-1v-2zm-4 0h1v2H7v-2zM27.5 27a2.503 2.503 0 01-2.5 2.5H7A2.503 2.503 0 014.5 27V8A2.503 2.503 0 017 5.5h10.5a10.011 10.011 0 0110 10V27z" fill="#fff"/><path d="M17.5 7h-1.586a.5.5 0 00-.354.854l9.586 9.585a.499.499 0 00.854-.353V15.5A8.51 8.51 0 0017.5 7zm7.5 8.879L17.12 8h.379a7.508 7.508 0 017.5 7.5v.379zM12.732 7.146A.5.5 0 0012.378 7H7a1.001 1.001 0 00-1 1v19a1.001 1.001 0 001 1h18a1.001 1.001 0 001-1v-6.378a.499.499 0 00-.146-.354L12.732 7.146zM25 27H7L6.999 8h5.172L25 20.829V27z" fill="#fff"/><path d="M10 14a2 2 0 104 0 2 2 0 00-4 0zm3 0a1 1 0 11-2 0 1 1 0 012 0zm-3 2.5a1.5 1.5 0 100 3 1.5 1.5 0 000-3zm0 2a.5.5 0 110-1 .5.5 0 010 1zm12 4a1.5 1.5 0 100-3 1.5 1.5 0 000 3zm0-2a.5.5 0 110 1 .5.5 0 010-1zm-9.076-.146A3.426 3.426 0 0012.5 22a3.5 3.5 0 107 0 3.425 3.425 0 00-.422-1.642.504.504 0 00-.047-.108l-2.598-4.5a.52.52 0 00-.866 0l-2.598 4.5a.463.463 0 00-.045.104zm.924.397a.453.453 0 00.044-.1L16 17l2.106 3.65a.55.55 0 00.046.102c.226.378.346.809.348 1.249a2.5 2.5 0 01-5 0c.002-.44.123-.871.348-1.249z" fill="#fff"/></svg>