<svg width="32" height="32" fill="none" xmlns="http://www.w3.org/2000/svg"><g clip-path="url(#clip0_1098_9023)" fill="#fff"><path d="M16.667 32C11.888 32 8 28.112 8 23.333v-6.666a.667.667 0 011.333 0v6.666c0 4.044 3.291 7.334 7.334 7.334 4.042 0 7.333-3.29 7.333-7.334V22a.667.667 0 011.333 0v1.333c0 4.779-3.888 8.667-8.666 8.667z"/><path d="M10 17.334H7.333c-3.308 0-6-2.692-6-6V8.667a3.337 3.337 0 013.334-3.333h8A3.337 3.337 0 0116 8.666v2.667c0 3.308-2.692 6-6 6zM4.667 6.667c-1.103 0-2 .897-2 2v2.667A4.672 4.672 0 007.333 16H10a4.672 4.672 0 004.667-4.666V8.667c0-1.103-.898-2-2-2h-8z"/><path d="M6 6.667A.667.667 0 015.333 6V.667a.667.667 0 011.334 0V6A.667.667 0 016 6.667zm5.333 0A.667.667 0 0110.667 6V.667a.667.667 0 011.333 0V6a.667.667 0 01-.667.667zm0 4H6a.667.667 0 010-1.333h5.333a.667.667 0 010 1.333zm12 8a.666.666 0 01-.657-.776l1.204-7.224h-3.213a.67.67 0 01-.543-1.055L26.79.279a.668.668 0 011.196.519l-1.174 5.869H30a.668.668 0 01.565 1.02L23.9 18.353a.667.667 0 01-.566.314zm-1.37-9.334h2.704a.666.666 0 01.657.776l-.784 4.7L28.797 8H26a.669.669 0 01-.653-.797l.724-3.622-4.108 5.752z"/></g><defs><clipPath id="clip0_1098_9023"><path fill="#fff" d="M0 0h32v32H0z"/></clipPath></defs></svg>