<svg width="13" height="14" fill="none" xmlns="http://www.w3.org/2000/svg"><g clip-path="url(#clip0_1098_8838)"><path d="M12.594 1.313v3.656a.406.406 0 11-.813 0V2.293L5.975 8.1a.405.405 0 01-.575 0 .406.406 0 010-.575l5.807-5.806H8.53a.406.406 0 110-.813h3.656c.225 0 .407.182.407.406zm-1.625 10.562V7a.406.406 0 10-.813 0v4.875a.406.406 0 01-.406.406H1.625a.407.407 0 01-.406-.406V3.75c0-.224.182-.406.406-.406H6.5a.406.406 0 100-.813H1.625A1.22 1.22 0 00.406 3.75v8.125a1.22 1.22 0 001.219 1.219H9.75a1.22 1.22 0 001.219-1.219z" fill="#00B3F8"/></g><defs><clipPath id="clip0_1098_8838"><path fill="#fff" transform="translate(0 .5)" d="M0 0h13v13H0z"/></clipPath></defs></svg>