<svg width="28" height="29" fill="none" xmlns="http://www.w3.org/2000/svg"><g clip-path="url(#clip0_1631_9918)"><path d="M27.452 2.794a1.692 1.692 0 00-1.671-.359L1.16 10.551A1.678 1.678 0 000 12.076a1.678 1.678 0 001.012 1.628L7.1 16.368l1.837 8.52c.077.354.256.67.637.767.385.098.657-.113.944-.328l4.518-3.383 5.283 4.322a1.68 1.68 0 001.613.293 1.68 1.68 0 001.102-1.214l4.92-20.918a1.692 1.692 0 00-.503-1.633zm-16.54 15.1a.222.222 0 00-.008.026l-1.019 3.558-1.136-5.272 7.815-4.342-5.464 5.714a.822.822 0 00-.187.317zm.324 4.842l.462-1.616.443-1.546 1.585 1.297-2.49 1.865zM26.354 4.051l-4.92 20.918c-.002.01-.005.024-.03.033-.023.008-.035-.002-.043-.008l-5.78-4.73-2.678-2.192 8.603-8.996a.822.822 0 00-.994-1.287L7.773 14.867l-6.101-2.67c-.019-.007-.029-.012-.027-.043.001-.032.012-.035.03-.041l24.62-8.116c.012-.004.026-.009.046.01.02.018.016.031.013.044z" fill="#fff"/></g><defs><clipPath id="clip0_1631_9918"><path fill="#fff" transform="translate(0 .5)" d="M0 0h28v28H0z"/></clipPath></defs></svg>