<svg width="32" height="32" fill="none" xmlns="http://www.w3.org/2000/svg"><path d="M30.01 15.446a6.409 6.409 0 01-5.344-2.86l-.428-.642-.428.642a6.409 6.409 0 01-5.344 2.86h-1.951v8.257c0 1.995.898 3.871 2.4 5.13H8.277v-2.06h6.693v-9.267H4.158v4.119h-3.09V1.03h22.655v9.268h1.03V0H.039v22.353l7.51 7.51h12.948L24.237 32l4.352-2.486a6.708 6.708 0 003.372-5.811v-8.257h-1.95zM7.247 28.105l-5.45-5.45h5.45v5.45zm-2.06-6.48v-3.09h8.753v7.209H8.277v-4.12h-3.09zm25.744 2.078a5.677 5.677 0 01-2.853 4.917l-3.84 2.195-3.84-2.195a5.677 5.677 0 01-2.853-4.917v-7.227h.92a7.436 7.436 0 005.773-2.738 7.436 7.436 0 005.772 2.738h.921v7.227z" fill="#fff"/><path d="M28.872 20.595v3.108c0 1.29-.696 2.49-1.816 3.13l.51.893a4.643 4.643 0 002.336-4.023v-3.108h-1.03zM3.128 2.06v3.089h18.536v-3.09H3.128zm17.506 2.06H4.158V3.09h16.476v1.03zm7.874 13.537L21.663 24.5l-1.695-1.696-.728.729 2.424 2.423 7.572-7.572-.728-.728zM12.91 19.565H6.218v1.03h6.694v-1.03zm0 2.06H9.308v1.03h3.604v-1.03zm0 2.059H9.308v1.03h3.604v-1.03zm6.694-16.476H3.128v1.03h16.476v-1.03zm0 2.06H3.128v1.03h16.476v-1.03zm0 2.059H3.128v1.03h16.476v-1.03zm-6.694 2.06H3.129v1.03h9.783v-1.03zm0 2.059H3.129v1.03h9.783v-1.03zm8.753-8.238h-1.03v1.03h1.03v-1.03zm0 2.06h-1.03v1.03h1.03v-1.03zm0 2.059h-1.03v1.03h1.03v-1.03zm-6.693 2.06h-1.03v1.03h1.03v-1.03zm0 2.059h-1.03v1.03h1.03v-1.03z" fill="#fff"/></svg>