<svg width="46" height="49" viewBox="0 0 46 49" fill="none" xmlns="http://www.w3.org/2000/svg">
<g clip-path="url(#clip0_1098_8296)">
<path fill-rule="evenodd" clip-rule="evenodd" d="M40.6722 19.152C40.6722 27.2222 34.13 33.7643 26.0599 33.7643C20.1673 33.7643 15.0893 30.2763 12.778 25.2523H7.8999C10.4473 32.8388 17.6154 38.304 26.0599 38.304C36.6373 38.304 45.2119 29.7294 45.2119 19.152C45.2119 8.57465 36.6373 0 26.0599 0C17.9705 0 11.0525 5.01525 8.24557 12.106H13.2555C15.7429 7.59534 20.5446 4.53974 26.0599 4.53974C34.13 4.53974 40.6722 11.0819 40.6722 19.152Z" fill="#00B3F8"/>
<path fill-rule="evenodd" clip-rule="evenodd" d="M2.40966 19.6721H4.82704V19.6722H36.416V24.4011H4.82704L4.82704 37.8311H0.0981445V24.4011V21.9836L2.40966 19.6721Z" fill="#00B3F8"/>
<path fill-rule="evenodd" clip-rule="evenodd" d="M2.40978 18.6321H4.82704V18.632H36.416V13.9031H4.82704L4.82704 0.473145H0.0981445V13.9031V16.3205L2.40978 18.6321Z" fill="#00B3F8"/>
<path d="M0.713963 48.7227V41.7692H2.639V44.3731H3.45363C3.64112 43.5682 4.04682 42.9104 4.67072 42.3996C5.29785 41.8889 6.04459 41.6335 6.91094 41.6335C7.41846 41.6335 7.89204 41.7288 8.33168 41.9196C8.77455 42.1071 9.14792 42.3624 9.45179 42.6857C9.75889 43.009 9.99973 43.392 10.1743 43.8349C10.3489 44.2778 10.4361 44.7481 10.4361 45.246C10.4361 45.9054 10.2874 46.5099 9.99003 47.0595C9.69262 47.609 9.27076 48.047 8.72445 48.3735C8.18136 48.7 7.5704 48.8633 6.89154 48.8633C6.01549 48.8633 5.26552 48.6047 4.64162 48.0874C4.01772 47.567 3.61849 46.8978 3.44393 46.08H2.639V48.7227H0.713963ZM5.33017 45.246C5.33017 45.7761 5.47726 46.2238 5.77143 46.5891C6.0656 46.9512 6.44544 47.1322 6.91094 47.1322C7.37644 47.1322 7.75466 46.9528 8.04559 46.594C8.33653 46.2351 8.482 45.7858 8.482 45.246C8.482 44.7158 8.3333 44.2697 8.0359 43.9076C7.73849 43.5423 7.35704 43.3597 6.89154 43.3597C6.42927 43.3597 6.05267 43.5391 5.76173 43.8979C5.47403 44.2568 5.33017 44.7061 5.33017 45.246ZM11.4399 48.7227V41.7692H17.6659V48.7227H15.7409V43.4615H13.3649V48.7227H11.4399ZM18.8976 48.7227V41.7692H20.8032V45.6824L23.4944 41.7692H25.2934V48.7227H23.3877V44.8095L20.6965 48.7227H18.8976ZM26.1322 43.4615V41.7692H32.2322V43.4615H30.1423V48.7227H28.2173V43.4615H26.1322ZM33.0759 48.7227V41.7692H38.6668V43.4082H34.9816V44.4604H38.3177V45.983H34.9816V47.0837H38.7153V48.7227H33.0759ZM39.6996 48.7227V41.7692H42.6769C43.5626 41.7692 44.2657 41.9874 44.7862 42.4239C45.3066 42.857 45.5669 43.4599 45.5669 44.2325C45.5669 44.7659 45.4359 45.2233 45.1741 45.6048C44.9155 45.9862 44.5631 46.2707 44.117 46.4582C43.6742 46.6425 43.1618 46.7346 42.5799 46.7346H41.6247V48.7227H39.6996ZM41.6247 45.2266H42.5411C42.8838 45.2266 43.1521 45.1441 43.346 44.9793C43.5432 44.8144 43.6418 44.5897 43.6418 44.3053C43.6418 44.0111 43.5432 43.7848 43.346 43.6264C43.1521 43.468 42.8805 43.3888 42.5314 43.3888H41.6247V45.2266Z" fill="#031B24"/>
</g>
<defs>
<clipPath id="clip0_1098_8296">
<rect width="45.766" height="49" fill="white"/>
</clipPath>
</defs>
</svg>
