<svg width="1516" height="284" viewBox="0 0 1516 284" fill="none" xmlns="http://www.w3.org/2000/svg">
<path fill-rule="evenodd" clip-rule="evenodd" d="M286 149C286 205.885 239.885 252 183 252C141.464 252 105.67 227.414 89.3777 192H54.9926C72.9487 245.476 123.475 284 183 284C257.558 284 318 223.558 318 149C318 74.4416 257.558 14 183 14C125.979 14 77.2151 49.3516 57.4294 99.3333H92.7439C110.278 67.5384 144.123 46 183 46C239.885 46 286 92.1147 286 149Z" fill="#00B3F8"/>
<path fill-rule="evenodd" clip-rule="evenodd" d="M5.59506e-06 168.961V186L0 280.667H33.3333L33.3333 186H256V152.667L33.3333 152.667H16.2942L5.59506e-06 168.961Z" fill="#00B3F8"/>
<path fill-rule="evenodd" clip-rule="evenodd" d="M5.59506e-06 129.039V112L0 17.3333H33.3333L33.3333 112H256V145.333H33.3333H16.2941L5.59506e-06 129.039Z" fill="#00B3F8"/>
<path d="M381.503 233V57.9512H429.965V123.503H450.473C455.193 103.239 465.406 86.6784 481.112 73.8203C496.9 60.9622 515.699 54.5332 537.509 54.5332C550.285 54.5332 562.208 56.9339 573.275 61.7354C584.424 66.4554 593.824 72.8844 601.474 81.0225C609.205 89.1605 615.268 98.804 619.662 109.953C624.057 121.102 626.254 132.943 626.254 145.476C626.254 162.077 622.51 177.295 615.023 191.13C607.536 204.965 596.916 215.992 583.163 224.211C569.491 232.43 554.11 236.54 537.021 236.54C514.966 236.54 496.086 230.03 480.38 217.009C464.674 203.907 454.623 187.061 450.229 166.472H429.965V233H381.503ZM497.714 145.476C497.714 158.822 501.417 170.093 508.822 179.289C516.228 188.404 525.79 192.961 537.509 192.961C549.228 192.961 558.749 188.444 566.073 179.411C573.397 170.378 577.06 159.066 577.06 145.476C577.06 132.129 573.316 120.899 565.829 111.784C558.342 102.588 548.739 97.9902 537.021 97.9902C525.383 97.9902 515.902 102.507 508.578 111.54C501.335 120.573 497.714 131.885 497.714 145.476ZM651.522 233V57.9512H808.261V233H759.799V100.554H699.984V233H651.522ZM839.267 233V57.9512H887.24V156.462L954.989 57.9512H1000.28V233H952.304V134.489L884.555 233H839.267ZM1021.4 100.554V57.9512H1174.96V100.554H1122.35V233H1073.89V100.554H1021.4ZM1196.2 233V57.9512H1336.95V99.2109H1244.17V125.7H1328.16V164.03H1244.17V191.74H1338.17V233H1196.2ZM1362.95 233V57.9512H1437.9C1460.2 57.9512 1477.9 63.4443 1491 74.4307C1504.1 85.3356 1510.65 100.513 1510.65 119.963C1510.65 133.391 1507.36 144.906 1500.77 154.509C1494.26 164.112 1485.38 171.273 1474.15 175.993C1463.01 180.632 1450.11 182.951 1435.46 182.951H1411.41V233H1362.95ZM1411.41 144.987H1434.48C1443.11 144.987 1449.86 142.912 1454.75 138.762C1459.71 134.611 1462.19 128.955 1462.19 121.794C1462.19 114.388 1459.71 108.692 1454.75 104.704C1449.86 100.716 1443.03 98.7227 1434.24 98.7227H1411.41V144.987Z" fill="#031B24"/>
</svg>
